ISO-10303-21;
HEADER;
FILE_DESCRIPTION(('zoo.dev export'), '2;1');
FILE_NAME('output.step', '2026-07-29T04:43:17.132912797+00:00', (''), (''), 'zoo.dev beta', 'zoo.dev', '');
FILE_SCHEMA(('AP242_MANAGED_MODEL_BASED_3D_ENGINEERING_MIM_LF'));
ENDSEC;
DATA;
#1 = (
  LENGTH_UNIT()
  NAMED_UNIT(*)
  SI_UNIT($, .METRE.)
);
#2 = (
  NAMED_UNIT(*)
  PLANE_ANGLE_UNIT()
  SI_UNIT($, .RADIAN.)
);
#3 = UNCERTAINTY_MEASURE_WITH_UNIT(LENGTH_MEASURE(0.00001), #1, 'DISTANCE_ACCURACY_VALUE', $);
#4 = (
  GEOMETRIC_REPRESENTATION_CONTEXT(3)
  GLOBAL_UNCERTAINTY_ASSIGNED_CONTEXT((#3))
  GLOBAL_UNIT_ASSIGNED_CONTEXT((#1, #2))
  REPRESENTATION_CONTEXT('3D', '3D context')
);
#5 = CARTESIAN_POINT('', (0.04, -0.03, -0.003));
#6 = VERTEX_POINT('', #5);
#7 = CARTESIAN_POINT('', (0.04, 0.03, -0.003));
#8 = VERTEX_POINT('', #7);
#9 = CARTESIAN_POINT('', (0.04, 0.03, 0.003));
#10 = VERTEX_POINT('', #9);
#11 = CARTESIAN_POINT('', (0.04, -0.03, 0.003));
#12 = VERTEX_POINT('', #11);
#13 = CARTESIAN_POINT('', (-0.04, 0.03, -0.003));
#14 = VERTEX_POINT('', #13);
#15 = CARTESIAN_POINT('', (-0.04, 0.03, 0.003));
#16 = VERTEX_POINT('', #15);
#17 = CARTESIAN_POINT('', (-0.04, -0.03, -0.003));
#18 = VERTEX_POINT('', #17);
#19 = CARTESIAN_POINT('', (-0.04, -0.03, 0.003));
#20 = VERTEX_POINT('', #19);
#21 = CARTESIAN_POINT('', (-0.032, -0.003, -0.003));
#22 = VERTEX_POINT('', #21);
#23 = CARTESIAN_POINT('', (-0.018, -0.003, -0.003));
#24 = VERTEX_POINT('', #23);
#25 = CARTESIAN_POINT('', (-0.018, 0.003, -0.003));
#26 = VERTEX_POINT('', #25);
#27 = CARTESIAN_POINT('', (-0.032, 0.003, -0.003));
#28 = VERTEX_POINT('', #27);
#29 = CARTESIAN_POINT('', (-0.032, -0.003, 0.003));
#30 = VERTEX_POINT('', #29);
#31 = CARTESIAN_POINT('', (-0.018, -0.003, 0.003));
#32 = VERTEX_POINT('', #31);
#33 = CARTESIAN_POINT('', (-0.018, 0.003, 0.003));
#34 = VERTEX_POINT('', #33);
#35 = CARTESIAN_POINT('', (-0.032, 0.003, 0.003));
#36 = VERTEX_POINT('', #35);
#37 = CARTESIAN_POINT('', (0.018, -0.003, -0.003));
#38 = VERTEX_POINT('', #37);
#39 = CARTESIAN_POINT('', (0.032, -0.003, -0.003));
#40 = VERTEX_POINT('', #39);
#41 = CARTESIAN_POINT('', (0.032, 0.003, -0.003));
#42 = VERTEX_POINT('', #41);
#43 = CARTESIAN_POINT('', (0.018, 0.003, -0.003));
#44 = VERTEX_POINT('', #43);
#45 = CARTESIAN_POINT('', (0.018, -0.003, 0.003));
#46 = VERTEX_POINT('', #45);
#47 = CARTESIAN_POINT('', (0.032, -0.003, 0.003));
#48 = VERTEX_POINT('', #47);
#49 = CARTESIAN_POINT('', (0.032, 0.003, 0.003));
#50 = VERTEX_POINT('', #49);
#51 = CARTESIAN_POINT('', (0.018, 0.003, 0.003));
#52 = VERTEX_POINT('', #51);
#53 = DIRECTION('', (0., 1., 0.));
#54 = VECTOR('', #53, 1.);
#55 = CARTESIAN_POINT('', (0.04, -0.03, -0.003));
#56 = LINE('', #55, #54);
#57 = DIRECTION('', (0., -0., 1.));
#58 = VECTOR('', #57, 1.);
#59 = CARTESIAN_POINT('', (0.04, 0.03, -0.003));
#60 = LINE('', #59, #58);
#61 = DIRECTION('', (0., 1., 0.));
#62 = VECTOR('', #61, 1.);
#63 = CARTESIAN_POINT('', (0.04, -0.03, 0.003));
#64 = LINE('', #63, #62);
#65 = DIRECTION('', (0., -0., 1.));
#66 = VECTOR('', #65, 1.);
#67 = CARTESIAN_POINT('', (0.04, -0.03, -0.003));
#68 = LINE('', #67, #66);
#69 = DIRECTION('', (-1., -0., 0.));
#70 = VECTOR('', #69, 1.);
#71 = CARTESIAN_POINT('', (0.04, 0.03, -0.003));
#72 = LINE('', #71, #70);
#73 = DIRECTION('', (0., -0., 1.));
#74 = VECTOR('', #73, 1.);
#75 = CARTESIAN_POINT('', (-0.04, 0.03, -0.003));
#76 = LINE('', #75, #74);
#77 = DIRECTION('', (-1., -0., 0.));
#78 = VECTOR('', #77, 1.);
#79 = CARTESIAN_POINT('', (0.04, 0.03, 0.003));
#80 = LINE('', #79, #78);
#81 = DIRECTION('', (0., -1., 0.));
#82 = VECTOR('', #81, 1.);
#83 = CARTESIAN_POINT('', (-0.04, 0.03, -0.003));
#84 = LINE('', #83, #82);
#85 = DIRECTION('', (0., -0., 1.));
#86 = VECTOR('', #85, 1.);
#87 = CARTESIAN_POINT('', (-0.04, -0.03, -0.003));
#88 = LINE('', #87, #86);
#89 = DIRECTION('', (0., -1., 0.));
#90 = VECTOR('', #89, 1.);
#91 = CARTESIAN_POINT('', (-0.04, 0.03, 0.003));
#92 = LINE('', #91, #90);
#93 = DIRECTION('', (1., -0., 0.));
#94 = VECTOR('', #93, 1.);
#95 = CARTESIAN_POINT('', (-0.04, -0.03, -0.003));
#96 = LINE('', #95, #94);
#97 = DIRECTION('', (1., -0., 0.));
#98 = VECTOR('', #97, 1.);
#99 = CARTESIAN_POINT('', (-0.04, -0.03, 0.003));
#100 = LINE('', #99, #98);
#101 = DIRECTION('', (1., -0., 0.));
#102 = VECTOR('', #101, 1.);
#103 = CARTESIAN_POINT('', (-0.032, -0.003, -0.003));
#104 = LINE('', #103, #102);
#105 = DIRECTION('', (0., 1., 0.));
#106 = DIRECTION('', (-0., 0., -1.));
#107 = CARTESIAN_POINT('', (-0.018, 0., -0.003));
#108 = AXIS2_PLACEMENT_3D('', #107, #106, #105);
#109 = CIRCLE('', #108, 0.003);
#110 = DIRECTION('', (-1., -0., 0.));
#111 = VECTOR('', #110, 1.);
#112 = CARTESIAN_POINT('', (-0.018, 0.003, -0.003));
#113 = LINE('', #112, #111);
#114 = DIRECTION('', (0., 1., 0.));
#115 = DIRECTION('', (0., -0., 1.));
#116 = CARTESIAN_POINT('', (-0.032, 0., -0.003));
#117 = AXIS2_PLACEMENT_3D('', #116, #115, #114);
#118 = CIRCLE('', #117, 0.003);
#119 = DIRECTION('', (1., -0., 0.));
#120 = VECTOR('', #119, 1.);
#121 = CARTESIAN_POINT('', (-0.032, -0.003, 0.003));
#122 = LINE('', #121, #120);
#123 = DIRECTION('', (-0., 1., 0.));
#124 = DIRECTION('', (0., 0., -1.));
#125 = CARTESIAN_POINT('', (-0.018, 0., 0.003));
#126 = AXIS2_PLACEMENT_3D('', #125, #124, #123);
#127 = CIRCLE('', #126, 0.003);
#128 = DIRECTION('', (-1., -0., 0.));
#129 = VECTOR('', #128, 1.);
#130 = CARTESIAN_POINT('', (-0.018, 0.003, 0.003));
#131 = LINE('', #130, #129);
#132 = DIRECTION('', (0., 1., 0.));
#133 = DIRECTION('', (0., -0., 1.));
#134 = CARTESIAN_POINT('', (-0.032, 0., 0.003));
#135 = AXIS2_PLACEMENT_3D('', #134, #133, #132);
#136 = CIRCLE('', #135, 0.003);
#137 = DIRECTION('', (0., -0., 1.));
#138 = VECTOR('', #137, 1.);
#139 = CARTESIAN_POINT('', (-0.032, 0.003, -0.003));
#140 = LINE('', #139, #138);
#141 = DIRECTION('', (0., -0., 1.));
#142 = VECTOR('', #141, 1.);
#143 = CARTESIAN_POINT('', (-0.018, 0.003, -0.003));
#144 = LINE('', #143, #142);
#145 = DIRECTION('', (0., -0., 1.));
#146 = VECTOR('', #145, 1.);
#147 = CARTESIAN_POINT('', (-0.018, -0.003, -0.003));
#148 = LINE('', #147, #146);
#149 = DIRECTION('', (0., -0., 1.));
#150 = VECTOR('', #149, 1.);
#151 = CARTESIAN_POINT('', (-0.032, -0.003, -0.003));
#152 = LINE('', #151, #150);
#153 = DIRECTION('', (1., -0., 0.));
#154 = VECTOR('', #153, 1.);
#155 = CARTESIAN_POINT('', (0.018, -0.003, -0.003));
#156 = LINE('', #155, #154);
#157 = DIRECTION('', (0., 1., 0.));
#158 = DIRECTION('', (0., -0., -1.));
#159 = CARTESIAN_POINT('', (0.032, 0., -0.003));
#160 = AXIS2_PLACEMENT_3D('', #159, #158, #157);
#161 = CIRCLE('', #160, 0.003);
#162 = DIRECTION('', (-1., -0., 0.));
#163 = VECTOR('', #162, 1.);
#164 = CARTESIAN_POINT('', (0.032, 0.003, -0.003));
#165 = LINE('', #164, #163);
#166 = DIRECTION('', (0., 1., 0.));
#167 = DIRECTION('', (-0., -0., 1.));
#168 = CARTESIAN_POINT('', (0.018, -0., -0.003));
#169 = AXIS2_PLACEMENT_3D('', #168, #167, #166);
#170 = CIRCLE('', #169, 0.003);
#171 = DIRECTION('', (1., -0., 0.));
#172 = VECTOR('', #171, 1.);
#173 = CARTESIAN_POINT('', (0.018, -0.003, 0.003));
#174 = LINE('', #173, #172);
#175 = DIRECTION('', (-0., 1., 0.));
#176 = DIRECTION('', (0., 0., -1.));
#177 = CARTESIAN_POINT('', (0.032, -0., 0.003));
#178 = AXIS2_PLACEMENT_3D('', #177, #176, #175);
#179 = CIRCLE('', #178, 0.003);
#180 = DIRECTION('', (-1., -0., 0.));
#181 = VECTOR('', #180, 1.);
#182 = CARTESIAN_POINT('', (0.032, 0.003, 0.003));
#183 = LINE('', #182, #181);
#184 = DIRECTION('', (0., 1., 0.));
#185 = DIRECTION('', (0., -0., 1.));
#186 = CARTESIAN_POINT('', (0.018, 0., 0.003));
#187 = AXIS2_PLACEMENT_3D('', #186, #185, #184);
#188 = CIRCLE('', #187, 0.003);
#189 = DIRECTION('', (0., -0., 1.));
#190 = VECTOR('', #189, 1.);
#191 = CARTESIAN_POINT('', (0.018, 0.003, -0.003));
#192 = LINE('', #191, #190);
#193 = DIRECTION('', (0., -0., 1.));
#194 = VECTOR('', #193, 1.);
#195 = CARTESIAN_POINT('', (0.032, 0.003, -0.003));
#196 = LINE('', #195, #194);
#197 = DIRECTION('', (0., -0., 1.));
#198 = VECTOR('', #197, 1.);
#199 = CARTESIAN_POINT('', (0.032, -0.003, -0.003));
#200 = LINE('', #199, #198);
#201 = DIRECTION('', (0., -0., 1.));
#202 = VECTOR('', #201, 1.);
#203 = CARTESIAN_POINT('', (0.018, -0.003, -0.003));
#204 = LINE('', #203, #202);
#205 = EDGE_CURVE('', #6, #8, #56, .T.);
#206 = EDGE_CURVE('', #8, #10, #60, .T.);
#207 = EDGE_CURVE('', #12, #10, #64, .T.);
#208 = EDGE_CURVE('', #6, #12, #68, .T.);
#209 = EDGE_CURVE('', #8, #14, #72, .T.);
#210 = EDGE_CURVE('', #14, #16, #76, .T.);
#211 = EDGE_CURVE('', #10, #16, #80, .T.);
#212 = EDGE_CURVE('', #14, #18, #84, .T.);
#213 = EDGE_CURVE('', #18, #20, #88, .T.);
#214 = EDGE_CURVE('', #16, #20, #92, .T.);
#215 = EDGE_CURVE('', #18, #6, #96, .T.);
#216 = EDGE_CURVE('', #20, #12, #100, .T.);
#217 = EDGE_CURVE('', #22, #24, #104, .T.);
#218 = EDGE_CURVE('', #26, #24, #109, .T.);
#219 = EDGE_CURVE('', #26, #28, #113, .T.);
#220 = EDGE_CURVE('', #28, #22, #118, .T.);
#221 = EDGE_CURVE('', #30, #32, #122, .T.);
#222 = EDGE_CURVE('', #34, #32, #127, .T.);
#223 = EDGE_CURVE('', #34, #36, #131, .T.);
#224 = EDGE_CURVE('', #36, #30, #136, .T.);
#225 = EDGE_CURVE('', #28, #36, #140, .T.);
#226 = EDGE_CURVE('', #26, #34, #144, .T.);
#227 = EDGE_CURVE('', #24, #32, #148, .T.);
#228 = EDGE_CURVE('', #22, #30, #152, .T.);
#229 = EDGE_CURVE('', #38, #40, #156, .T.);
#230 = EDGE_CURVE('', #42, #40, #161, .T.);
#231 = EDGE_CURVE('', #42, #44, #165, .T.);
#232 = EDGE_CURVE('', #44, #38, #170, .T.);
#233 = EDGE_CURVE('', #46, #48, #174, .T.);
#234 = EDGE_CURVE('', #50, #48, #179, .T.);
#235 = EDGE_CURVE('', #50, #52, #183, .T.);
#236 = EDGE_CURVE('', #52, #46, #188, .T.);
#237 = EDGE_CURVE('', #44, #52, #192, .T.);
#238 = EDGE_CURVE('', #42, #50, #196, .T.);
#239 = EDGE_CURVE('', #40, #48, #200, .T.);
#240 = EDGE_CURVE('', #38, #46, #204, .T.);
#241 = CARTESIAN_POINT('', (0.04, 0., 0.));
#242 = DIRECTION('', (1., -0., 0.));
#243 = AXIS2_PLACEMENT_3D('', #241, #242, $);
#244 = PLANE('', #243);
#245 = CARTESIAN_POINT('', (0., 0.03, 0.));
#246 = DIRECTION('', (0., 1., -0.));
#247 = AXIS2_PLACEMENT_3D('', #245, #246, $);
#248 = PLANE('', #247);
#249 = CARTESIAN_POINT('', (-0.04, 0., 0.));
#250 = DIRECTION('', (-1., -0., 0.));
#251 = AXIS2_PLACEMENT_3D('', #249, #250, $);
#252 = PLANE('', #251);
#253 = CARTESIAN_POINT('', (0., -0.03, 0.));
#254 = DIRECTION('', (0., -1., 0.));
#255 = AXIS2_PLACEMENT_3D('', #253, #254, $);
#256 = PLANE('', #255);
#257 = CARTESIAN_POINT('', (0., 0., -0.003));
#258 = DIRECTION('', (0., -0., 1.));
#259 = AXIS2_PLACEMENT_3D('', #257, #258, $);
#260 = PLANE('', #259);
#261 = CARTESIAN_POINT('', (0., 0., 0.003));
#262 = DIRECTION('', (0., -0., 1.));
#263 = AXIS2_PLACEMENT_3D('', #261, #262, $);
#264 = PLANE('', #263);
#265 = CARTESIAN_POINT('', (-0.032, 0., 0.));
#266 = DIRECTION('', (0., -0., 1.));
#267 = DIRECTION('', (0., 1., 0.));
#268 = AXIS2_PLACEMENT_3D('', #265, #266, #267);
#269 = CYLINDRICAL_SURFACE('', #268, 0.003);
#270 = CARTESIAN_POINT('', (-0.025, 0.003, 0.));
#271 = DIRECTION('', (0., 1., -0.));
#272 = AXIS2_PLACEMENT_3D('', #270, #271, $);
#273 = PLANE('', #272);
#274 = CARTESIAN_POINT('', (-0.018, 0., 0.));
#275 = DIRECTION('', (-0., -0., 1.));
#276 = DIRECTION('', (0., -1., 0.));
#277 = AXIS2_PLACEMENT_3D('', #274, #275, #276);
#278 = CYLINDRICAL_SURFACE('', #277, 0.003);
#279 = CARTESIAN_POINT('', (-0.025, -0.003, 0.));
#280 = DIRECTION('', (0., -1., 0.));
#281 = AXIS2_PLACEMENT_3D('', #279, #280, $);
#282 = PLANE('', #281);
#283 = CARTESIAN_POINT('', (0.018, 0., 0.));
#284 = DIRECTION('', (0., -0., 1.));
#285 = DIRECTION('', (0., 1., 0.));
#286 = AXIS2_PLACEMENT_3D('', #283, #284, #285);
#287 = CYLINDRICAL_SURFACE('', #286, 0.003);
#288 = CARTESIAN_POINT('', (0.025, 0.003, 0.));
#289 = DIRECTION('', (0., 1., -0.));
#290 = AXIS2_PLACEMENT_3D('', #288, #289, $);
#291 = PLANE('', #290);
#292 = CARTESIAN_POINT('', (0.032, 0., 0.));
#293 = DIRECTION('', (-0., -0., 1.));
#294 = DIRECTION('', (0., -1., 0.));
#295 = AXIS2_PLACEMENT_3D('', #292, #293, #294);
#296 = CYLINDRICAL_SURFACE('', #295, 0.003);
#297 = CARTESIAN_POINT('', (0.025, -0.003, 0.));
#298 = DIRECTION('', (0., -1., 0.));
#299 = AXIS2_PLACEMENT_3D('', #297, #298, $);
#300 = PLANE('', #299);
#301 = ORIENTED_EDGE('', *, *, #205, .T.);
#302 = ORIENTED_EDGE('', *, *, #206, .T.);
#303 = ORIENTED_EDGE('', *, *, #207, .F.);
#304 = ORIENTED_EDGE('', *, *, #208, .F.);
#305 = EDGE_LOOP('', (#301, #302, #303, #304));
#306 = FACE_BOUND('', #305, .T.);
#307 = ADVANCED_FACE('', (#306), #244, .T.);
#308 = ORIENTED_EDGE('', *, *, #209, .T.);
#309 = ORIENTED_EDGE('', *, *, #210, .T.);
#310 = ORIENTED_EDGE('', *, *, #211, .F.);
#311 = ORIENTED_EDGE('', *, *, #206, .F.);
#312 = EDGE_LOOP('', (#308, #309, #310, #311));
#313 = FACE_BOUND('', #312, .T.);
#314 = ADVANCED_FACE('', (#313), #248, .T.);
#315 = ORIENTED_EDGE('', *, *, #212, .T.);
#316 = ORIENTED_EDGE('', *, *, #213, .T.);
#317 = ORIENTED_EDGE('', *, *, #214, .F.);
#318 = ORIENTED_EDGE('', *, *, #210, .F.);
#319 = EDGE_LOOP('', (#315, #316, #317, #318));
#320 = FACE_BOUND('', #319, .T.);
#321 = ADVANCED_FACE('', (#320), #252, .T.);
#322 = ORIENTED_EDGE('', *, *, #215, .T.);
#323 = ORIENTED_EDGE('', *, *, #208, .T.);
#324 = ORIENTED_EDGE('', *, *, #216, .F.);
#325 = ORIENTED_EDGE('', *, *, #213, .F.);
#326 = EDGE_LOOP('', (#322, #323, #324, #325));
#327 = FACE_BOUND('', #326, .T.);
#328 = ADVANCED_FACE('', (#327), #256, .T.);
#329 = ORIENTED_EDGE('', *, *, #215, .F.);
#330 = ORIENTED_EDGE('', *, *, #212, .F.);
#331 = ORIENTED_EDGE('', *, *, #209, .F.);
#332 = ORIENTED_EDGE('', *, *, #205, .F.);
#333 = ORIENTED_EDGE('', *, *, #218, .F.);
#334 = ORIENTED_EDGE('', *, *, #219, .T.);
#335 = ORIENTED_EDGE('', *, *, #220, .T.);
#336 = ORIENTED_EDGE('', *, *, #217, .T.);
#337 = ORIENTED_EDGE('', *, *, #230, .F.);
#338 = ORIENTED_EDGE('', *, *, #231, .T.);
#339 = ORIENTED_EDGE('', *, *, #232, .T.);
#340 = ORIENTED_EDGE('', *, *, #229, .T.);
#341 = EDGE_LOOP('', (#329, #330, #331, #332));
#342 = FACE_BOUND('', #341, .T.);
#343 = EDGE_LOOP('', (#333, #334, #335, #336));
#344 = FACE_BOUND('', #343, .T.);
#345 = EDGE_LOOP('', (#337, #338, #339, #340));
#346 = FACE_BOUND('', #345, .T.);
#347 = ADVANCED_FACE('', (#342, #344, #346), #260, .F.);
#348 = ORIENTED_EDGE('', *, *, #207, .T.);
#349 = ORIENTED_EDGE('', *, *, #211, .T.);
#350 = ORIENTED_EDGE('', *, *, #214, .T.);
#351 = ORIENTED_EDGE('', *, *, #216, .T.);
#352 = ORIENTED_EDGE('', *, *, #221, .F.);
#353 = ORIENTED_EDGE('', *, *, #224, .F.);
#354 = ORIENTED_EDGE('', *, *, #223, .F.);
#355 = ORIENTED_EDGE('', *, *, #222, .T.);
#356 = ORIENTED_EDGE('', *, *, #233, .F.);
#357 = ORIENTED_EDGE('', *, *, #236, .F.);
#358 = ORIENTED_EDGE('', *, *, #235, .F.);
#359 = ORIENTED_EDGE('', *, *, #234, .T.);
#360 = EDGE_LOOP('', (#348, #349, #350, #351));
#361 = FACE_BOUND('', #360, .T.);
#362 = EDGE_LOOP('', (#352, #353, #354, #355));
#363 = FACE_BOUND('', #362, .T.);
#364 = EDGE_LOOP('', (#356, #357, #358, #359));
#365 = FACE_BOUND('', #364, .T.);
#366 = ADVANCED_FACE('', (#361, #363, #365), #264, .T.);
#367 = ORIENTED_EDGE('', *, *, #220, .F.);
#368 = ORIENTED_EDGE('', *, *, #225, .T.);
#369 = ORIENTED_EDGE('', *, *, #224, .T.);
#370 = ORIENTED_EDGE('', *, *, #228, .F.);
#371 = EDGE_LOOP('', (#367, #368, #369, #370));
#372 = FACE_BOUND('', #371, .T.);
#373 = ADVANCED_FACE('', (#372), #269, .F.);
#374 = ORIENTED_EDGE('', *, *, #219, .F.);
#375 = ORIENTED_EDGE('', *, *, #226, .T.);
#376 = ORIENTED_EDGE('', *, *, #223, .T.);
#377 = ORIENTED_EDGE('', *, *, #225, .F.);
#378 = EDGE_LOOP('', (#374, #375, #376, #377));
#379 = FACE_BOUND('', #378, .T.);
#380 = ADVANCED_FACE('', (#379), #273, .F.);
#381 = ORIENTED_EDGE('', *, *, #218, .T.);
#382 = ORIENTED_EDGE('', *, *, #227, .T.);
#383 = ORIENTED_EDGE('', *, *, #222, .F.);
#384 = ORIENTED_EDGE('', *, *, #226, .F.);
#385 = EDGE_LOOP('', (#381, #382, #383, #384));
#386 = FACE_BOUND('', #385, .T.);
#387 = ADVANCED_FACE('', (#386), #278, .F.);
#388 = ORIENTED_EDGE('', *, *, #217, .F.);
#389 = ORIENTED_EDGE('', *, *, #228, .T.);
#390 = ORIENTED_EDGE('', *, *, #221, .T.);
#391 = ORIENTED_EDGE('', *, *, #227, .F.);
#392 = EDGE_LOOP('', (#388, #389, #390, #391));
#393 = FACE_BOUND('', #392, .T.);
#394 = ADVANCED_FACE('', (#393), #282, .F.);
#395 = ORIENTED_EDGE('', *, *, #232, .F.);
#396 = ORIENTED_EDGE('', *, *, #237, .T.);
#397 = ORIENTED_EDGE('', *, *, #236, .T.);
#398 = ORIENTED_EDGE('', *, *, #240, .F.);
#399 = EDGE_LOOP('', (#395, #396, #397, #398));
#400 = FACE_BOUND('', #399, .T.);
#401 = ADVANCED_FACE('', (#400), #287, .F.);
#402 = ORIENTED_EDGE('', *, *, #231, .F.);
#403 = ORIENTED_EDGE('', *, *, #238, .T.);
#404 = ORIENTED_EDGE('', *, *, #235, .T.);
#405 = ORIENTED_EDGE('', *, *, #237, .F.);
#406 = EDGE_LOOP('', (#402, #403, #404, #405));
#407 = FACE_BOUND('', #406, .T.);
#408 = ADVANCED_FACE('', (#407), #291, .F.);
#409 = ORIENTED_EDGE('', *, *, #230, .T.);
#410 = ORIENTED_EDGE('', *, *, #239, .T.);
#411 = ORIENTED_EDGE('', *, *, #234, .F.);
#412 = ORIENTED_EDGE('', *, *, #238, .F.);
#413 = EDGE_LOOP('', (#409, #410, #411, #412));
#414 = FACE_BOUND('', #413, .T.);
#415 = ADVANCED_FACE('', (#414), #296, .F.);
#416 = ORIENTED_EDGE('', *, *, #229, .F.);
#417 = ORIENTED_EDGE('', *, *, #240, .T.);
#418 = ORIENTED_EDGE('', *, *, #233, .T.);
#419 = ORIENTED_EDGE('', *, *, #239, .F.);
#420 = EDGE_LOOP('', (#416, #417, #418, #419));
#421 = FACE_BOUND('', #420, .T.);
#422 = ADVANCED_FACE('', (#421), #300, .F.);
#423 = CLOSED_SHELL('', (#307, #314, #321, #328, #347, #366, #373, #380, #387, #394, #401, #408, #415, #422));
#424 = MANIFOLD_SOLID_BREP('', #423);
#425 = APPLICATION_CONTEXT('configuration controlled 3D design of mechanical parts and assemblies');
#426 = PRODUCT_DEFINITION_CONTEXT('part definition', #425, 'design');
#427 = PRODUCT_CONTEXT('', #425, 'mechanical');
#428 = PRODUCT('UNIDENTIFIED_PRODUCT', '', $, (#427));
#429 = PRODUCT_DEFINITION_FORMATION('', $, #428);
#430 = PRODUCT_DEFINITION('design', $, #429, #426);
#431 = PRODUCT_DEFINITION_SHAPE('', '', #430);
#432 = ADVANCED_BREP_SHAPE_REPRESENTATION('', (#424), #4);
#433 = SHAPE_DEFINITION_REPRESENTATION(#431, #432);
#434 = COLOUR_RGB('', 0.72156864, 0.74509805, 0.7764706);
#435 = FILL_AREA_STYLE_COLOUR('', #434);
#436 = FILL_AREA_STYLE('', (#435));
#437 = SURFACE_STYLE_FILL_AREA(#436);
#438 = SURFACE_SIDE_STYLE('', (#437));
#439 = SURFACE_STYLE_USAGE(.BOTH., #438);
#440 = PRESENTATION_STYLE_ASSIGNMENT((#439));
#441 = STYLED_ITEM('', (#440), #424);
#442 = MECHANICAL_DESIGN_GEOMETRIC_PRESENTATION_REPRESENTATION('', (#441), #4);
ENDSEC;
END-ISO-10303-21;
