ISO-10303-21;
HEADER;
FILE_DESCRIPTION(('zoo.dev export'), '2;1');
FILE_NAME('output.step', '2026-07-29T04:50:56.494759981+00:00', (''), (''), 'zoo.dev beta', 'zoo.dev', '');
FILE_SCHEMA(('AP242_MANAGED_MODEL_BASED_3D_ENGINEERING_MIM_LF'));
ENDSEC;
DATA;
#1 = (
  LENGTH_UNIT()
  NAMED_UNIT(*)
  SI_UNIT($, .METRE.)
);
#2 = (
  NAMED_UNIT(*)
  PLANE_ANGLE_UNIT()
  SI_UNIT($, .RADIAN.)
);
#3 = UNCERTAINTY_MEASURE_WITH_UNIT(LENGTH_MEASURE(0.00001), #1, 'DISTANCE_ACCURACY_VALUE', $);
#4 = (
  GEOMETRIC_REPRESENTATION_CONTEXT(3)
  GLOBAL_UNCERTAINTY_ASSIGNED_CONTEXT((#3))
  GLOBAL_UNIT_ASSIGNED_CONTEXT((#1, #2))
  REPRESENTATION_CONTEXT('3D', '3D context')
);
#5 = CARTESIAN_POINT('', (0.03, -0.03, -0.003));
#6 = VERTEX_POINT('', #5);
#7 = CARTESIAN_POINT('', (0.03, 0.03, -0.003));
#8 = VERTEX_POINT('', #7);
#9 = CARTESIAN_POINT('', (0.03, 0.03, 0.003));
#10 = VERTEX_POINT('', #9);
#11 = CARTESIAN_POINT('', (0.03, -0.03, 0.003));
#12 = VERTEX_POINT('', #11);
#13 = CARTESIAN_POINT('', (-0.03, 0.03, -0.003));
#14 = VERTEX_POINT('', #13);
#15 = CARTESIAN_POINT('', (-0.03, 0.03, 0.003));
#16 = VERTEX_POINT('', #15);
#17 = CARTESIAN_POINT('', (-0.03, -0.03, -0.003));
#18 = VERTEX_POINT('', #17);
#19 = CARTESIAN_POINT('', (-0.03, -0.03, 0.003));
#20 = VERTEX_POINT('', #19);
#21 = CARTESIAN_POINT('', (0.01, 0., 0.008));
#22 = VERTEX_POINT('', #21);
#23 = CARTESIAN_POINT('', (-0.01, 0., 0.008));
#24 = VERTEX_POINT('', #23);
#25 = CARTESIAN_POINT('', (0.01, 0., 0.003));
#26 = VERTEX_POINT('', #25);
#27 = CARTESIAN_POINT('', (-0.01, 0., 0.003));
#28 = VERTEX_POINT('', #27);
#29 = CARTESIAN_POINT('', (-0., -0.01, 0.003));
#30 = VERTEX_POINT('', #29);
#31 = CARTESIAN_POINT('', (0., 0.01, 0.003));
#32 = VERTEX_POINT('', #31);
#33 = DIRECTION('', (0., 1., 0.));
#34 = VECTOR('', #33, 1.);
#35 = CARTESIAN_POINT('', (0.03, -0.03, -0.003));
#36 = LINE('', #35, #34);
#37 = DIRECTION('', (0., -0., 1.));
#38 = VECTOR('', #37, 1.);
#39 = CARTESIAN_POINT('', (0.03, 0.03, -0.003));
#40 = LINE('', #39, #38);
#41 = DIRECTION('', (0., 1., 0.));
#42 = VECTOR('', #41, 1.);
#43 = CARTESIAN_POINT('', (0.03, -0.03, 0.003));
#44 = LINE('', #43, #42);
#45 = DIRECTION('', (0., -0., 1.));
#46 = VECTOR('', #45, 1.);
#47 = CARTESIAN_POINT('', (0.03, -0.03, -0.003));
#48 = LINE('', #47, #46);
#49 = DIRECTION('', (-1., -0., 0.));
#50 = VECTOR('', #49, 1.);
#51 = CARTESIAN_POINT('', (0.03, 0.03, -0.003));
#52 = LINE('', #51, #50);
#53 = DIRECTION('', (0., -0., 1.));
#54 = VECTOR('', #53, 1.);
#55 = CARTESIAN_POINT('', (-0.03, 0.03, -0.003));
#56 = LINE('', #55, #54);
#57 = DIRECTION('', (-1., -0., 0.));
#58 = VECTOR('', #57, 1.);
#59 = CARTESIAN_POINT('', (0.03, 0.03, 0.003));
#60 = LINE('', #59, #58);
#61 = DIRECTION('', (0., -1., 0.));
#62 = VECTOR('', #61, 1.);
#63 = CARTESIAN_POINT('', (-0.03, 0.03, -0.003));
#64 = LINE('', #63, #62);
#65 = DIRECTION('', (0., -0., 1.));
#66 = VECTOR('', #65, 1.);
#67 = CARTESIAN_POINT('', (-0.03, -0.03, -0.003));
#68 = LINE('', #67, #66);
#69 = DIRECTION('', (0., -1., 0.));
#70 = VECTOR('', #69, 1.);
#71 = CARTESIAN_POINT('', (-0.03, 0.03, 0.003));
#72 = LINE('', #71, #70);
#73 = DIRECTION('', (1., -0., 0.));
#74 = VECTOR('', #73, 1.);
#75 = CARTESIAN_POINT('', (-0.03, -0.03, -0.003));
#76 = LINE('', #75, #74);
#77 = DIRECTION('', (1., -0., 0.));
#78 = VECTOR('', #77, 1.);
#79 = CARTESIAN_POINT('', (-0.03, -0.03, 0.003));
#80 = LINE('', #79, #78);
#81 = DIRECTION('', (1., 0., 0.));
#82 = DIRECTION('', (0., -0., 1.));
#83 = CARTESIAN_POINT('', (0., -0., 0.008));
#84 = AXIS2_PLACEMENT_3D('', #83, #82, #81);
#85 = CIRCLE('', #84, 0.01);
#86 = DIRECTION('', (-1., 0., 0.));
#87 = DIRECTION('', (0., -0., 1.));
#88 = CARTESIAN_POINT('', (0., 0., 0.008));
#89 = AXIS2_PLACEMENT_3D('', #88, #87, #86);
#90 = CIRCLE('', #89, 0.01);
#91 = DIRECTION('', (1., -0., -0.));
#92 = DIRECTION('', (0., 0., 1.));
#93 = CARTESIAN_POINT('', (0., 0., 0.003));
#94 = AXIS2_PLACEMENT_3D('', #93, #92, #91);
#95 = CIRCLE('', #94, 0.01);
#96 = DIRECTION('', (1., 0., 0.));
#97 = DIRECTION('', (0., -0., -1.));
#98 = CARTESIAN_POINT('', (-0., -0., 0.003));
#99 = AXIS2_PLACEMENT_3D('', #98, #97, #96);
#100 = CIRCLE('', #99, 0.01);
#101 = DIRECTION('', (-0., -1., -0.));
#102 = DIRECTION('', (-0., 0., -1.));
#103 = CARTESIAN_POINT('', (-0., -0., 0.003));
#104 = AXIS2_PLACEMENT_3D('', #103, #102, #101);
#105 = CIRCLE('', #104, 0.01);
#106 = DIRECTION('', (0., 1., -0.));
#107 = DIRECTION('', (-0., 0., 1.));
#108 = CARTESIAN_POINT('', (-0., 0., 0.003));
#109 = AXIS2_PLACEMENT_3D('', #108, #107, #106);
#110 = CIRCLE('', #109, 0.01);
#111 = DIRECTION('', (0., -0., 1.));
#112 = VECTOR('', #111, 1.);
#113 = CARTESIAN_POINT('', (-0.01, 0., 0.003));
#114 = LINE('', #113, #112);
#115 = DIRECTION('', (0., -0., 1.));
#116 = VECTOR('', #115, 1.);
#117 = CARTESIAN_POINT('', (0.01, 0., 0.003));
#118 = LINE('', #117, #116);
#119 = EDGE_CURVE('', #6, #8, #36, .T.);
#120 = EDGE_CURVE('', #8, #10, #40, .T.);
#121 = EDGE_CURVE('', #12, #10, #44, .T.);
#122 = EDGE_CURVE('', #6, #12, #48, .T.);
#123 = EDGE_CURVE('', #8, #14, #52, .T.);
#124 = EDGE_CURVE('', #14, #16, #56, .T.);
#125 = EDGE_CURVE('', #10, #16, #60, .T.);
#126 = EDGE_CURVE('', #14, #18, #64, .T.);
#127 = EDGE_CURVE('', #18, #20, #68, .T.);
#128 = EDGE_CURVE('', #16, #20, #72, .T.);
#129 = EDGE_CURVE('', #18, #6, #76, .T.);
#130 = EDGE_CURVE('', #20, #12, #80, .T.);
#131 = EDGE_CURVE('', #22, #24, #85, .T.);
#132 = EDGE_CURVE('', #24, #22, #90, .T.);
#133 = EDGE_CURVE('', #26, #32, #95, .T.);
#134 = EDGE_CURVE('', #26, #30, #100, .T.);
#135 = EDGE_CURVE('', #30, #28, #105, .T.);
#136 = EDGE_CURVE('', #32, #28, #110, .T.);
#137 = EDGE_CURVE('', #28, #24, #114, .T.);
#138 = EDGE_CURVE('', #26, #22, #118, .T.);
#139 = CARTESIAN_POINT('', (0.03, 0., 0.));
#140 = DIRECTION('', (1., -0., 0.));
#141 = AXIS2_PLACEMENT_3D('', #139, #140, $);
#142 = PLANE('', #141);
#143 = CARTESIAN_POINT('', (0., 0.03, 0.));
#144 = DIRECTION('', (0., 1., -0.));
#145 = AXIS2_PLACEMENT_3D('', #143, #144, $);
#146 = PLANE('', #145);
#147 = CARTESIAN_POINT('', (-0.03, 0., 0.));
#148 = DIRECTION('', (-1., -0., 0.));
#149 = AXIS2_PLACEMENT_3D('', #147, #148, $);
#150 = PLANE('', #149);
#151 = CARTESIAN_POINT('', (0., -0.03, 0.));
#152 = DIRECTION('', (0., -1., 0.));
#153 = AXIS2_PLACEMENT_3D('', #151, #152, $);
#154 = PLANE('', #153);
#155 = CARTESIAN_POINT('', (0., 0., -0.003));
#156 = DIRECTION('', (0., -0., 1.));
#157 = AXIS2_PLACEMENT_3D('', #155, #156, $);
#158 = PLANE('', #157);
#159 = CARTESIAN_POINT('', (0., 0., 0.003));
#160 = DIRECTION('', (0., -0., 1.));
#161 = AXIS2_PLACEMENT_3D('', #159, #160, $);
#162 = PLANE('', #161);
#163 = CARTESIAN_POINT('', (0., -0., 0.00545));
#164 = DIRECTION('', (0., -0., 1.));
#165 = DIRECTION('', (1., 0., 0.));
#166 = AXIS2_PLACEMENT_3D('', #163, #164, #165);
#167 = CYLINDRICAL_SURFACE('', #166, 0.01);
#168 = CARTESIAN_POINT('', (0., 0., 0.008));
#169 = DIRECTION('', (0., -0., 1.));
#170 = AXIS2_PLACEMENT_3D('', #168, #169, $);
#171 = PLANE('', #170);
#172 = ORIENTED_EDGE('', *, *, #119, .T.);
#173 = ORIENTED_EDGE('', *, *, #120, .T.);
#174 = ORIENTED_EDGE('', *, *, #121, .F.);
#175 = ORIENTED_EDGE('', *, *, #122, .F.);
#176 = EDGE_LOOP('', (#172, #173, #174, #175));
#177 = FACE_BOUND('', #176, .T.);
#178 = ADVANCED_FACE('', (#177), #142, .T.);
#179 = ORIENTED_EDGE('', *, *, #123, .T.);
#180 = ORIENTED_EDGE('', *, *, #124, .T.);
#181 = ORIENTED_EDGE('', *, *, #125, .F.);
#182 = ORIENTED_EDGE('', *, *, #120, .F.);
#183 = EDGE_LOOP('', (#179, #180, #181, #182));
#184 = FACE_BOUND('', #183, .T.);
#185 = ADVANCED_FACE('', (#184), #146, .T.);
#186 = ORIENTED_EDGE('', *, *, #126, .T.);
#187 = ORIENTED_EDGE('', *, *, #127, .T.);
#188 = ORIENTED_EDGE('', *, *, #128, .F.);
#189 = ORIENTED_EDGE('', *, *, #124, .F.);
#190 = EDGE_LOOP('', (#186, #187, #188, #189));
#191 = FACE_BOUND('', #190, .T.);
#192 = ADVANCED_FACE('', (#191), #150, .T.);
#193 = ORIENTED_EDGE('', *, *, #129, .T.);
#194 = ORIENTED_EDGE('', *, *, #122, .T.);
#195 = ORIENTED_EDGE('', *, *, #130, .F.);
#196 = ORIENTED_EDGE('', *, *, #127, .F.);
#197 = EDGE_LOOP('', (#193, #194, #195, #196));
#198 = FACE_BOUND('', #197, .T.);
#199 = ADVANCED_FACE('', (#198), #154, .T.);
#200 = ORIENTED_EDGE('', *, *, #129, .F.);
#201 = ORIENTED_EDGE('', *, *, #126, .F.);
#202 = ORIENTED_EDGE('', *, *, #123, .F.);
#203 = ORIENTED_EDGE('', *, *, #119, .F.);
#204 = EDGE_LOOP('', (#200, #201, #202, #203));
#205 = FACE_BOUND('', #204, .T.);
#206 = ADVANCED_FACE('', (#205), #158, .F.);
#207 = ORIENTED_EDGE('', *, *, #121, .T.);
#208 = ORIENTED_EDGE('', *, *, #125, .T.);
#209 = ORIENTED_EDGE('', *, *, #128, .T.);
#210 = ORIENTED_EDGE('', *, *, #130, .T.);
#211 = ORIENTED_EDGE('', *, *, #133, .F.);
#212 = ORIENTED_EDGE('', *, *, #134, .T.);
#213 = ORIENTED_EDGE('', *, *, #135, .T.);
#214 = ORIENTED_EDGE('', *, *, #136, .F.);
#215 = EDGE_LOOP('', (#207, #208, #209, #210));
#216 = FACE_BOUND('', #215, .T.);
#217 = EDGE_LOOP('', (#211, #212, #213, #214));
#218 = FACE_BOUND('', #217, .T.);
#219 = ADVANCED_FACE('', (#216, #218), #162, .T.);
#220 = ORIENTED_EDGE('', *, *, #131, .T.);
#221 = ORIENTED_EDGE('', *, *, #132, .T.);
#222 = EDGE_LOOP('', (#220, #221));
#223 = FACE_BOUND('', #222, .T.);
#224 = ADVANCED_FACE('', (#223), #171, .T.);
#225 = ORIENTED_EDGE('', *, *, #137, .F.);
#226 = ORIENTED_EDGE('', *, *, #135, .F.);
#227 = ORIENTED_EDGE('', *, *, #134, .F.);
#228 = ORIENTED_EDGE('', *, *, #138, .T.);
#229 = ORIENTED_EDGE('', *, *, #132, .F.);
#230 = EDGE_LOOP('', (#225, #226, #227, #228, #229));
#231 = FACE_BOUND('', #230, .T.);
#232 = ADVANCED_FACE('', (#231), #167, .T.);
#233 = ORIENTED_EDGE('', *, *, #137, .T.);
#234 = ORIENTED_EDGE('', *, *, #131, .F.);
#235 = ORIENTED_EDGE('', *, *, #138, .F.);
#236 = ORIENTED_EDGE('', *, *, #133, .T.);
#237 = ORIENTED_EDGE('', *, *, #136, .T.);
#238 = EDGE_LOOP('', (#233, #234, #235, #236, #237));
#239 = FACE_BOUND('', #238, .T.);
#240 = ADVANCED_FACE('', (#239), #167, .T.);
#241 = CLOSED_SHELL('', (#178, #185, #192, #199, #206, #219, #224, #232, #240));
#242 = MANIFOLD_SOLID_BREP('', #241);
#243 = APPLICATION_CONTEXT('configuration controlled 3D design of mechanical parts and assemblies');
#244 = PRODUCT_DEFINITION_CONTEXT('part definition', #243, 'design');
#245 = PRODUCT_CONTEXT('', #243, 'mechanical');
#246 = PRODUCT('UNIDENTIFIED_PRODUCT', '', $, (#245));
#247 = PRODUCT_DEFINITION_FORMATION('', $, #246);
#248 = PRODUCT_DEFINITION('design', $, #247, #244);
#249 = PRODUCT_DEFINITION_SHAPE('', '', #248);
#250 = ADVANCED_BREP_SHAPE_REPRESENTATION('', (#242), #4);
#251 = SHAPE_DEFINITION_REPRESENTATION(#249, #250);
#252 = COLOUR_RGB('', 0.72156864, 0.76862746, 0.80000001);
#253 = FILL_AREA_STYLE_COLOUR('', #252);
#254 = FILL_AREA_STYLE('', (#253));
#255 = SURFACE_STYLE_FILL_AREA(#254);
#256 = SURFACE_SIDE_STYLE('', (#255));
#257 = SURFACE_STYLE_USAGE(.BOTH., #256);
#258 = PRESENTATION_STYLE_ASSIGNMENT((#257));
#259 = STYLED_ITEM('', (#258), #242);
#260 = MECHANICAL_DESIGN_GEOMETRIC_PRESENTATION_REPRESENTATION('', (#259), #4);
ENDSEC;
END-ISO-10303-21;
