ISO-10303-21;
HEADER;
FILE_DESCRIPTION(('zoo.dev export'), '2;1');
FILE_NAME('output.step', '2026-07-29T04:53:17.600100210+00:00', (''), (''), 'zoo.dev beta', 'zoo.dev', '');
FILE_SCHEMA(('AP242_MANAGED_MODEL_BASED_3D_ENGINEERING_MIM_LF'));
ENDSEC;
DATA;
#1 = (
  LENGTH_UNIT()
  NAMED_UNIT(*)
  SI_UNIT($, .METRE.)
);
#2 = (
  NAMED_UNIT(*)
  PLANE_ANGLE_UNIT()
  SI_UNIT($, .RADIAN.)
);
#3 = UNCERTAINTY_MEASURE_WITH_UNIT(LENGTH_MEASURE(0.00001), #1, 'DISTANCE_ACCURACY_VALUE', $);
#4 = (
  GEOMETRIC_REPRESENTATION_CONTEXT(3)
  GLOBAL_UNCERTAINTY_ASSIGNED_CONTEXT((#3))
  GLOBAL_UNIT_ASSIGNED_CONTEXT((#1, #2))
  REPRESENTATION_CONTEXT('3D', '3D context')
);
#5 = CARTESIAN_POINT('', (0.015, -0.03, -0.003));
#6 = VERTEX_POINT('', #5);
#7 = CARTESIAN_POINT('', (0.03, -0.015, -0.003));
#8 = VERTEX_POINT('', #7);
#9 = CARTESIAN_POINT('', (0.03, -0.015, 0.003));
#10 = VERTEX_POINT('', #9);
#11 = CARTESIAN_POINT('', (0.015, -0.03, 0.003));
#12 = VERTEX_POINT('', #11);
#13 = CARTESIAN_POINT('', (0.03, 0.015, -0.003));
#14 = VERTEX_POINT('', #13);
#15 = CARTESIAN_POINT('', (0.03, 0.015, 0.003));
#16 = VERTEX_POINT('', #15);
#17 = CARTESIAN_POINT('', (0.015, 0.03, -0.003));
#18 = VERTEX_POINT('', #17);
#19 = CARTESIAN_POINT('', (0.015, 0.03, 0.003));
#20 = VERTEX_POINT('', #19);
#21 = CARTESIAN_POINT('', (-0.015, 0.03, -0.003));
#22 = VERTEX_POINT('', #21);
#23 = CARTESIAN_POINT('', (-0.015, 0.03, 0.003));
#24 = VERTEX_POINT('', #23);
#25 = CARTESIAN_POINT('', (-0.03, 0.015, -0.003));
#26 = VERTEX_POINT('', #25);
#27 = CARTESIAN_POINT('', (-0.03, 0.015, 0.003));
#28 = VERTEX_POINT('', #27);
#29 = CARTESIAN_POINT('', (-0.03, -0.015, -0.003));
#30 = VERTEX_POINT('', #29);
#31 = CARTESIAN_POINT('', (-0.03, -0.015, 0.003));
#32 = VERTEX_POINT('', #31);
#33 = CARTESIAN_POINT('', (-0.015, -0.03, -0.003));
#34 = VERTEX_POINT('', #33);
#35 = CARTESIAN_POINT('', (-0.015, -0.03, 0.003));
#36 = VERTEX_POINT('', #35);
#37 = DIRECTION('', (0.70710678, 0.70710678, 0.));
#38 = VECTOR('', #37, 1.);
#39 = CARTESIAN_POINT('', (0.015, -0.03, -0.003));
#40 = LINE('', #39, #38);
#41 = DIRECTION('', (0., -0., 1.));
#42 = VECTOR('', #41, 1.);
#43 = CARTESIAN_POINT('', (0.03, -0.015, -0.003));
#44 = LINE('', #43, #42);
#45 = DIRECTION('', (0.70710678, 0.70710678, 0.));
#46 = VECTOR('', #45, 1.);
#47 = CARTESIAN_POINT('', (0.015, -0.03, 0.003));
#48 = LINE('', #47, #46);
#49 = DIRECTION('', (0., -0., 1.));
#50 = VECTOR('', #49, 1.);
#51 = CARTESIAN_POINT('', (0.015, -0.03, -0.003));
#52 = LINE('', #51, #50);
#53 = DIRECTION('', (0., 1., 0.));
#54 = VECTOR('', #53, 1.);
#55 = CARTESIAN_POINT('', (0.03, -0.015, -0.003));
#56 = LINE('', #55, #54);
#57 = DIRECTION('', (0., -0., 1.));
#58 = VECTOR('', #57, 1.);
#59 = CARTESIAN_POINT('', (0.03, 0.015, -0.003));
#60 = LINE('', #59, #58);
#61 = DIRECTION('', (0., 1., 0.));
#62 = VECTOR('', #61, 1.);
#63 = CARTESIAN_POINT('', (0.03, -0.015, 0.003));
#64 = LINE('', #63, #62);
#65 = DIRECTION('', (-0.70710678, 0.70710678, 0.));
#66 = VECTOR('', #65, 1.);
#67 = CARTESIAN_POINT('', (0.03, 0.015, -0.003));
#68 = LINE('', #67, #66);
#69 = DIRECTION('', (0., -0., 1.));
#70 = VECTOR('', #69, 1.);
#71 = CARTESIAN_POINT('', (0.015, 0.03, -0.003));
#72 = LINE('', #71, #70);
#73 = DIRECTION('', (-0.70710678, 0.70710678, 0.));
#74 = VECTOR('', #73, 1.);
#75 = CARTESIAN_POINT('', (0.03, 0.015, 0.003));
#76 = LINE('', #75, #74);
#77 = DIRECTION('', (-1., -0., 0.));
#78 = VECTOR('', #77, 1.);
#79 = CARTESIAN_POINT('', (0.015, 0.03, -0.003));
#80 = LINE('', #79, #78);
#81 = DIRECTION('', (0., -0., 1.));
#82 = VECTOR('', #81, 1.);
#83 = CARTESIAN_POINT('', (-0.015, 0.03, -0.003));
#84 = LINE('', #83, #82);
#85 = DIRECTION('', (-1., -0., 0.));
#86 = VECTOR('', #85, 1.);
#87 = CARTESIAN_POINT('', (0.015, 0.03, 0.003));
#88 = LINE('', #87, #86);
#89 = DIRECTION('', (-0.70710678, -0.70710678, 0.));
#90 = VECTOR('', #89, 1.);
#91 = CARTESIAN_POINT('', (-0.015, 0.03, -0.003));
#92 = LINE('', #91, #90);
#93 = DIRECTION('', (0., -0., 1.));
#94 = VECTOR('', #93, 1.);
#95 = CARTESIAN_POINT('', (-0.03, 0.015, -0.003));
#96 = LINE('', #95, #94);
#97 = DIRECTION('', (-0.70710678, -0.70710678, 0.));
#98 = VECTOR('', #97, 1.);
#99 = CARTESIAN_POINT('', (-0.015, 0.03, 0.003));
#100 = LINE('', #99, #98);
#101 = DIRECTION('', (0., -1., 0.));
#102 = VECTOR('', #101, 1.);
#103 = CARTESIAN_POINT('', (-0.03, 0.015, -0.003));
#104 = LINE('', #103, #102);
#105 = DIRECTION('', (0., -0., 1.));
#106 = VECTOR('', #105, 1.);
#107 = CARTESIAN_POINT('', (-0.03, -0.015, -0.003));
#108 = LINE('', #107, #106);
#109 = DIRECTION('', (0., -1., 0.));
#110 = VECTOR('', #109, 1.);
#111 = CARTESIAN_POINT('', (-0.03, 0.015, 0.003));
#112 = LINE('', #111, #110);
#113 = DIRECTION('', (0.70710678, -0.70710678, 0.));
#114 = VECTOR('', #113, 1.);
#115 = CARTESIAN_POINT('', (-0.03, -0.015, -0.003));
#116 = LINE('', #115, #114);
#117 = DIRECTION('', (0., -0., 1.));
#118 = VECTOR('', #117, 1.);
#119 = CARTESIAN_POINT('', (-0.015, -0.03, -0.003));
#120 = LINE('', #119, #118);
#121 = DIRECTION('', (0.70710678, -0.70710678, 0.));
#122 = VECTOR('', #121, 1.);
#123 = CARTESIAN_POINT('', (-0.03, -0.015, 0.003));
#124 = LINE('', #123, #122);
#125 = DIRECTION('', (1., -0., 0.));
#126 = VECTOR('', #125, 1.);
#127 = CARTESIAN_POINT('', (-0.015, -0.03, -0.003));
#128 = LINE('', #127, #126);
#129 = DIRECTION('', (1., -0., 0.));
#130 = VECTOR('', #129, 1.);
#131 = CARTESIAN_POINT('', (-0.015, -0.03, 0.003));
#132 = LINE('', #131, #130);
#133 = EDGE_CURVE('', #6, #8, #40, .T.);
#134 = EDGE_CURVE('', #8, #10, #44, .T.);
#135 = EDGE_CURVE('', #12, #10, #48, .T.);
#136 = EDGE_CURVE('', #6, #12, #52, .T.);
#137 = EDGE_CURVE('', #8, #14, #56, .T.);
#138 = EDGE_CURVE('', #14, #16, #60, .T.);
#139 = EDGE_CURVE('', #10, #16, #64, .T.);
#140 = EDGE_CURVE('', #14, #18, #68, .T.);
#141 = EDGE_CURVE('', #18, #20, #72, .T.);
#142 = EDGE_CURVE('', #16, #20, #76, .T.);
#143 = EDGE_CURVE('', #18, #22, #80, .T.);
#144 = EDGE_CURVE('', #22, #24, #84, .T.);
#145 = EDGE_CURVE('', #20, #24, #88, .T.);
#146 = EDGE_CURVE('', #22, #26, #92, .T.);
#147 = EDGE_CURVE('', #26, #28, #96, .T.);
#148 = EDGE_CURVE('', #24, #28, #100, .T.);
#149 = EDGE_CURVE('', #26, #30, #104, .T.);
#150 = EDGE_CURVE('', #30, #32, #108, .T.);
#151 = EDGE_CURVE('', #28, #32, #112, .T.);
#152 = EDGE_CURVE('', #30, #34, #116, .T.);
#153 = EDGE_CURVE('', #34, #36, #120, .T.);
#154 = EDGE_CURVE('', #32, #36, #124, .T.);
#155 = EDGE_CURVE('', #34, #6, #128, .T.);
#156 = EDGE_CURVE('', #36, #12, #132, .T.);
#157 = CARTESIAN_POINT('', (0.0225, -0.0225, 0.));
#158 = DIRECTION('', (0.70710678, -0.70710678, 0.));
#159 = AXIS2_PLACEMENT_3D('', #157, #158, $);
#160 = PLANE('', #159);
#161 = CARTESIAN_POINT('', (0.03, 0., 0.));
#162 = DIRECTION('', (1., -0., 0.));
#163 = AXIS2_PLACEMENT_3D('', #161, #162, $);
#164 = PLANE('', #163);
#165 = CARTESIAN_POINT('', (0.0225, 0.0225, 0.));
#166 = DIRECTION('', (0.70710678, 0.70710678, -0.));
#167 = AXIS2_PLACEMENT_3D('', #165, #166, $);
#168 = PLANE('', #167);
#169 = CARTESIAN_POINT('', (0., 0.03, 0.));
#170 = DIRECTION('', (0., 1., -0.));
#171 = AXIS2_PLACEMENT_3D('', #169, #170, $);
#172 = PLANE('', #171);
#173 = CARTESIAN_POINT('', (-0.0225, 0.0225, 0.));
#174 = DIRECTION('', (-0.70710678, 0.70710678, 0.));
#175 = AXIS2_PLACEMENT_3D('', #173, #174, $);
#176 = PLANE('', #175);
#177 = CARTESIAN_POINT('', (-0.03, 0., 0.));
#178 = DIRECTION('', (-1., -0., 0.));
#179 = AXIS2_PLACEMENT_3D('', #177, #178, $);
#180 = PLANE('', #179);
#181 = CARTESIAN_POINT('', (-0.0225, -0.0225, 0.));
#182 = DIRECTION('', (-0.70710678, -0.70710678, 0.));
#183 = AXIS2_PLACEMENT_3D('', #181, #182, $);
#184 = PLANE('', #183);
#185 = CARTESIAN_POINT('', (0., -0.03, 0.));
#186 = DIRECTION('', (0., -1., 0.));
#187 = AXIS2_PLACEMENT_3D('', #185, #186, $);
#188 = PLANE('', #187);
#189 = CARTESIAN_POINT('', (0., 0., -0.003));
#190 = DIRECTION('', (0., -0., 1.));
#191 = AXIS2_PLACEMENT_3D('', #189, #190, $);
#192 = PLANE('', #191);
#193 = CARTESIAN_POINT('', (0., 0., 0.003));
#194 = DIRECTION('', (0., -0., 1.));
#195 = AXIS2_PLACEMENT_3D('', #193, #194, $);
#196 = PLANE('', #195);
#197 = ORIENTED_EDGE('', *, *, #133, .T.);
#198 = ORIENTED_EDGE('', *, *, #134, .T.);
#199 = ORIENTED_EDGE('', *, *, #135, .F.);
#200 = ORIENTED_EDGE('', *, *, #136, .F.);
#201 = EDGE_LOOP('', (#197, #198, #199, #200));
#202 = FACE_BOUND('', #201, .T.);
#203 = ADVANCED_FACE('', (#202), #160, .T.);
#204 = ORIENTED_EDGE('', *, *, #137, .T.);
#205 = ORIENTED_EDGE('', *, *, #138, .T.);
#206 = ORIENTED_EDGE('', *, *, #139, .F.);
#207 = ORIENTED_EDGE('', *, *, #134, .F.);
#208 = EDGE_LOOP('', (#204, #205, #206, #207));
#209 = FACE_BOUND('', #208, .T.);
#210 = ADVANCED_FACE('', (#209), #164, .T.);
#211 = ORIENTED_EDGE('', *, *, #140, .T.);
#212 = ORIENTED_EDGE('', *, *, #141, .T.);
#213 = ORIENTED_EDGE('', *, *, #142, .F.);
#214 = ORIENTED_EDGE('', *, *, #138, .F.);
#215 = EDGE_LOOP('', (#211, #212, #213, #214));
#216 = FACE_BOUND('', #215, .T.);
#217 = ADVANCED_FACE('', (#216), #168, .T.);
#218 = ORIENTED_EDGE('', *, *, #143, .T.);
#219 = ORIENTED_EDGE('', *, *, #144, .T.);
#220 = ORIENTED_EDGE('', *, *, #145, .F.);
#221 = ORIENTED_EDGE('', *, *, #141, .F.);
#222 = EDGE_LOOP('', (#218, #219, #220, #221));
#223 = FACE_BOUND('', #222, .T.);
#224 = ADVANCED_FACE('', (#223), #172, .T.);
#225 = ORIENTED_EDGE('', *, *, #146, .T.);
#226 = ORIENTED_EDGE('', *, *, #147, .T.);
#227 = ORIENTED_EDGE('', *, *, #148, .F.);
#228 = ORIENTED_EDGE('', *, *, #144, .F.);
#229 = EDGE_LOOP('', (#225, #226, #227, #228));
#230 = FACE_BOUND('', #229, .T.);
#231 = ADVANCED_FACE('', (#230), #176, .T.);
#232 = ORIENTED_EDGE('', *, *, #149, .T.);
#233 = ORIENTED_EDGE('', *, *, #150, .T.);
#234 = ORIENTED_EDGE('', *, *, #151, .F.);
#235 = ORIENTED_EDGE('', *, *, #147, .F.);
#236 = EDGE_LOOP('', (#232, #233, #234, #235));
#237 = FACE_BOUND('', #236, .T.);
#238 = ADVANCED_FACE('', (#237), #180, .T.);
#239 = ORIENTED_EDGE('', *, *, #152, .T.);
#240 = ORIENTED_EDGE('', *, *, #153, .T.);
#241 = ORIENTED_EDGE('', *, *, #154, .F.);
#242 = ORIENTED_EDGE('', *, *, #150, .F.);
#243 = EDGE_LOOP('', (#239, #240, #241, #242));
#244 = FACE_BOUND('', #243, .T.);
#245 = ADVANCED_FACE('', (#244), #184, .T.);
#246 = ORIENTED_EDGE('', *, *, #155, .T.);
#247 = ORIENTED_EDGE('', *, *, #136, .T.);
#248 = ORIENTED_EDGE('', *, *, #156, .F.);
#249 = ORIENTED_EDGE('', *, *, #153, .F.);
#250 = EDGE_LOOP('', (#246, #247, #248, #249));
#251 = FACE_BOUND('', #250, .T.);
#252 = ADVANCED_FACE('', (#251), #188, .T.);
#253 = ORIENTED_EDGE('', *, *, #155, .F.);
#254 = ORIENTED_EDGE('', *, *, #152, .F.);
#255 = ORIENTED_EDGE('', *, *, #149, .F.);
#256 = ORIENTED_EDGE('', *, *, #146, .F.);
#257 = ORIENTED_EDGE('', *, *, #143, .F.);
#258 = ORIENTED_EDGE('', *, *, #140, .F.);
#259 = ORIENTED_EDGE('', *, *, #137, .F.);
#260 = ORIENTED_EDGE('', *, *, #133, .F.);
#261 = EDGE_LOOP('', (#253, #254, #255, #256, #257, #258, #259, #260));
#262 = FACE_BOUND('', #261, .T.);
#263 = ADVANCED_FACE('', (#262), #192, .F.);
#264 = ORIENTED_EDGE('', *, *, #135, .T.);
#265 = ORIENTED_EDGE('', *, *, #139, .T.);
#266 = ORIENTED_EDGE('', *, *, #142, .T.);
#267 = ORIENTED_EDGE('', *, *, #145, .T.);
#268 = ORIENTED_EDGE('', *, *, #148, .T.);
#269 = ORIENTED_EDGE('', *, *, #151, .T.);
#270 = ORIENTED_EDGE('', *, *, #154, .T.);
#271 = ORIENTED_EDGE('', *, *, #156, .T.);
#272 = EDGE_LOOP('', (#264, #265, #266, #267, #268, #269, #270, #271));
#273 = FACE_BOUND('', #272, .T.);
#274 = ADVANCED_FACE('', (#273), #196, .T.);
#275 = CLOSED_SHELL('', (#203, #210, #217, #224, #231, #238, #245, #252, #263, #274));
#276 = MANIFOLD_SOLID_BREP('', #275);
#277 = APPLICATION_CONTEXT('configuration controlled 3D design of mechanical parts and assemblies');
#278 = PRODUCT_DEFINITION_CONTEXT('part definition', #277, 'design');
#279 = PRODUCT_CONTEXT('', #277, 'mechanical');
#280 = PRODUCT('UNIDENTIFIED_PRODUCT', '', $, (#279));
#281 = PRODUCT_DEFINITION_FORMATION('', $, #280);
#282 = PRODUCT_DEFINITION('design', $, #281, #278);
#283 = PRODUCT_DEFINITION_SHAPE('', '', #282);
#284 = ADVANCED_BREP_SHAPE_REPRESENTATION('', (#276), #4);
#285 = SHAPE_DEFINITION_REPRESENTATION(#283, #284);
#286 = COLOUR_RGB('', 0.89999998, 0.89999998, 0.89999998);
#287 = FILL_AREA_STYLE_COLOUR('', #286);
#288 = FILL_AREA_STYLE('', (#287));
#289 = SURFACE_STYLE_FILL_AREA(#288);
#290 = SURFACE_SIDE_STYLE('', (#289));
#291 = SURFACE_STYLE_USAGE(.BOTH., #290);
#292 = PRESENTATION_STYLE_ASSIGNMENT((#291));
#293 = STYLED_ITEM('', (#292), #276);
#294 = MECHANICAL_DESIGN_GEOMETRIC_PRESENTATION_REPRESENTATION('', (#293), #4);
ENDSEC;
END-ISO-10303-21;
