ISO-10303-21;
HEADER;
FILE_DESCRIPTION(('zoo.dev export'), '2;1');
FILE_NAME('output.step', '2026-07-29T04:46:46.720546074+00:00', (''), (''), 'zoo.dev beta', 'zoo.dev', '');
FILE_SCHEMA(('AP242_MANAGED_MODEL_BASED_3D_ENGINEERING_MIM_LF'));
ENDSEC;
DATA;
#1 = (
  LENGTH_UNIT()
  NAMED_UNIT(*)
  SI_UNIT($, .METRE.)
);
#2 = (
  NAMED_UNIT(*)
  PLANE_ANGLE_UNIT()
  SI_UNIT($, .RADIAN.)
);
#3 = UNCERTAINTY_MEASURE_WITH_UNIT(LENGTH_MEASURE(0.00001), #1, 'DISTANCE_ACCURACY_VALUE', $);
#4 = (
  GEOMETRIC_REPRESENTATION_CONTEXT(3)
  GLOBAL_UNCERTAINTY_ASSIGNED_CONTEXT((#3))
  GLOBAL_UNIT_ASSIGNED_CONTEXT((#1, #2))
  REPRESENTATION_CONTEXT('3D', '3D context')
);
#5 = CARTESIAN_POINT('', (0.03, -0.03, -0.005));
#6 = VERTEX_POINT('', #5);
#7 = CARTESIAN_POINT('', (0.03, 0.03, -0.005));
#8 = VERTEX_POINT('', #7);
#9 = CARTESIAN_POINT('', (0.03, 0.03, 0.005));
#10 = VERTEX_POINT('', #9);
#11 = CARTESIAN_POINT('', (0.03, -0.03, 0.005));
#12 = VERTEX_POINT('', #11);
#13 = CARTESIAN_POINT('', (-0.03, 0.03, -0.005));
#14 = VERTEX_POINT('', #13);
#15 = CARTESIAN_POINT('', (-0.03, 0.03, 0.005));
#16 = VERTEX_POINT('', #15);
#17 = CARTESIAN_POINT('', (-0.03, -0.03, -0.005));
#18 = VERTEX_POINT('', #17);
#19 = CARTESIAN_POINT('', (-0.03, -0.03, 0.005));
#20 = VERTEX_POINT('', #19);
#21 = CARTESIAN_POINT('', (0.0025, 0., -0.005));
#22 = VERTEX_POINT('', #21);
#23 = CARTESIAN_POINT('', (-0.0025, 0., -0.005));
#24 = VERTEX_POINT('', #23);
#25 = CARTESIAN_POINT('', (-0., -0.0025, -0.005));
#26 = VERTEX_POINT('', #25);
#27 = CARTESIAN_POINT('', (0., 0.0025, -0.005));
#28 = VERTEX_POINT('', #27);
#29 = CARTESIAN_POINT('', (0.005, 0., 0.001));
#30 = VERTEX_POINT('', #29);
#31 = CARTESIAN_POINT('', (0.005, 0., 0.005));
#32 = VERTEX_POINT('', #31);
#33 = CARTESIAN_POINT('', (-0.005, 0., 0.001));
#34 = VERTEX_POINT('', #33);
#35 = CARTESIAN_POINT('', (-0.005, 0., 0.005));
#36 = VERTEX_POINT('', #35);
#37 = CARTESIAN_POINT('', (0.0025, 0., 0.001));
#38 = VERTEX_POINT('', #37);
#39 = CARTESIAN_POINT('', (-0.0025, 0., 0.001));
#40 = VERTEX_POINT('', #39);
#41 = CARTESIAN_POINT('', (-0., -0.005, 0.005));
#42 = VERTEX_POINT('', #41);
#43 = CARTESIAN_POINT('', (0., 0.005, 0.005));
#44 = VERTEX_POINT('', #43);
#45 = CARTESIAN_POINT('', (0., -0.0025, 0.001));
#46 = VERTEX_POINT('', #45);
#47 = CARTESIAN_POINT('', (-0., 0.0025, 0.001));
#48 = VERTEX_POINT('', #47);
#49 = DIRECTION('', (0., 1., 0.));
#50 = VECTOR('', #49, 1.);
#51 = CARTESIAN_POINT('', (0.03, -0.03, -0.005));
#52 = LINE('', #51, #50);
#53 = DIRECTION('', (0., -0., 1.));
#54 = VECTOR('', #53, 1.);
#55 = CARTESIAN_POINT('', (0.03, 0.03, -0.005));
#56 = LINE('', #55, #54);
#57 = DIRECTION('', (0., 1., 0.));
#58 = VECTOR('', #57, 1.);
#59 = CARTESIAN_POINT('', (0.03, -0.03, 0.005));
#60 = LINE('', #59, #58);
#61 = DIRECTION('', (0., -0., 1.));
#62 = VECTOR('', #61, 1.);
#63 = CARTESIAN_POINT('', (0.03, -0.03, -0.005));
#64 = LINE('', #63, #62);
#65 = DIRECTION('', (-1., -0., 0.));
#66 = VECTOR('', #65, 1.);
#67 = CARTESIAN_POINT('', (0.03, 0.03, -0.005));
#68 = LINE('', #67, #66);
#69 = DIRECTION('', (0., -0., 1.));
#70 = VECTOR('', #69, 1.);
#71 = CARTESIAN_POINT('', (-0.03, 0.03, -0.005));
#72 = LINE('', #71, #70);
#73 = DIRECTION('', (-1., -0., 0.));
#74 = VECTOR('', #73, 1.);
#75 = CARTESIAN_POINT('', (0.03, 0.03, 0.005));
#76 = LINE('', #75, #74);
#77 = DIRECTION('', (0., -1., 0.));
#78 = VECTOR('', #77, 1.);
#79 = CARTESIAN_POINT('', (-0.03, 0.03, -0.005));
#80 = LINE('', #79, #78);
#81 = DIRECTION('', (0., -0., 1.));
#82 = VECTOR('', #81, 1.);
#83 = CARTESIAN_POINT('', (-0.03, -0.03, -0.005));
#84 = LINE('', #83, #82);
#85 = DIRECTION('', (0., -1., 0.));
#86 = VECTOR('', #85, 1.);
#87 = CARTESIAN_POINT('', (-0.03, 0.03, 0.005));
#88 = LINE('', #87, #86);
#89 = DIRECTION('', (1., -0., 0.));
#90 = VECTOR('', #89, 1.);
#91 = CARTESIAN_POINT('', (-0.03, -0.03, -0.005));
#92 = LINE('', #91, #90);
#93 = DIRECTION('', (1., -0., 0.));
#94 = VECTOR('', #93, 1.);
#95 = CARTESIAN_POINT('', (-0.03, -0.03, 0.005));
#96 = LINE('', #95, #94);
#97 = DIRECTION('', (1., -0., 0.));
#98 = DIRECTION('', (-0., -0., 1.));
#99 = CARTESIAN_POINT('', (0., 0., -0.005));
#100 = AXIS2_PLACEMENT_3D('', #99, #98, #97);
#101 = CIRCLE('', #100, 0.0025);
#102 = DIRECTION('', (0., -0., 1.));
#103 = VECTOR('', #102, 1.);
#104 = CARTESIAN_POINT('', (0.0025, 0., -0.005));
#105 = LINE('', #104, #103);
#106 = DIRECTION('', (0., -0., 1.));
#107 = VECTOR('', #106, 1.);
#108 = CARTESIAN_POINT('', (-0.0025, 0., -0.005));
#109 = LINE('', #108, #107);
#110 = DIRECTION('', (-1., 0., 0.));
#111 = DIRECTION('', (0., -0., 1.));
#112 = CARTESIAN_POINT('', (-0., -0., -0.005));
#113 = AXIS2_PLACEMENT_3D('', #112, #111, #110);
#114 = CIRCLE('', #113, 0.0025);
#115 = DIRECTION('', (-0., -1., 0.));
#116 = DIRECTION('', (0., 0., 1.));
#117 = CARTESIAN_POINT('', (-0., 0., -0.005));
#118 = AXIS2_PLACEMENT_3D('', #117, #116, #115);
#119 = CIRCLE('', #118, 0.0025);
#120 = DIRECTION('', (0., 1., 0.));
#121 = DIRECTION('', (0., -0., 1.));
#122 = CARTESIAN_POINT('', (-0., 0., -0.005));
#123 = AXIS2_PLACEMENT_3D('', #122, #121, #120);
#124 = CIRCLE('', #123, 0.0025);
#125 = DIRECTION('', (1., 0., 0.));
#126 = DIRECTION('', (0., -0., 1.));
#127 = CARTESIAN_POINT('', (0., -0., 0.001));
#128 = AXIS2_PLACEMENT_3D('', #127, #126, #125);
#129 = CIRCLE('', #128, 0.005);
#130 = DIRECTION('', (0., -0., 1.));
#131 = VECTOR('', #130, 1.);
#132 = CARTESIAN_POINT('', (0.005, 0., 0.001));
#133 = LINE('', #132, #131);
#134 = DIRECTION('', (1., -0., 0.));
#135 = DIRECTION('', (-0., -0., 1.));
#136 = CARTESIAN_POINT('', (0., 0., 0.005));
#137 = AXIS2_PLACEMENT_3D('', #136, #135, #134);
#138 = CIRCLE('', #137, 0.005);
#139 = DIRECTION('', (-1., 0., 0.));
#140 = DIRECTION('', (0., -0., 1.));
#141 = CARTESIAN_POINT('', (0., 0., 0.001));
#142 = AXIS2_PLACEMENT_3D('', #141, #140, #139);
#143 = CIRCLE('', #142, 0.005);
#144 = DIRECTION('', (0., -0., 1.));
#145 = VECTOR('', #144, 1.);
#146 = CARTESIAN_POINT('', (-0.005, 0., 0.001));
#147 = LINE('', #146, #145);
#148 = DIRECTION('', (1., -0., 0.));
#149 = DIRECTION('', (0., -0., -1.));
#150 = CARTESIAN_POINT('', (-0., 0., 0.005));
#151 = AXIS2_PLACEMENT_3D('', #150, #149, #148);
#152 = CIRCLE('', #151, 0.005);
#153 = DIRECTION('', (1., -0., 0.));
#154 = DIRECTION('', (-0., -0., 1.));
#155 = CARTESIAN_POINT('', (0., 0., 0.001));
#156 = AXIS2_PLACEMENT_3D('', #155, #154, #153);
#157 = CIRCLE('', #156, 0.0025);
#158 = DIRECTION('', (1., -0., 0.));
#159 = DIRECTION('', (0., 0., -1.));
#160 = CARTESIAN_POINT('', (-0., 0., 0.001));
#161 = AXIS2_PLACEMENT_3D('', #160, #159, #158);
#162 = CIRCLE('', #161, 0.0025);
#163 = DIRECTION('', (-0., -1., 0.));
#164 = DIRECTION('', (-0., -0., -1.));
#165 = CARTESIAN_POINT('', (-0., -0., 0.005));
#166 = AXIS2_PLACEMENT_3D('', #165, #164, #163);
#167 = CIRCLE('', #166, 0.005);
#168 = DIRECTION('', (0., 1., 0.));
#169 = DIRECTION('', (0., -0., 1.));
#170 = CARTESIAN_POINT('', (-0., 0., 0.005));
#171 = AXIS2_PLACEMENT_3D('', #170, #169, #168);
#172 = CIRCLE('', #171, 0.005);
#173 = DIRECTION('', (0.00000001, -1., 0.));
#174 = DIRECTION('', (-0., -0., -1.));
#175 = CARTESIAN_POINT('', (-0., -0., 0.001));
#176 = AXIS2_PLACEMENT_3D('', #175, #174, #173);
#177 = CIRCLE('', #176, 0.0025);
#178 = DIRECTION('', (-0.00000001, 1., -0.));
#179 = DIRECTION('', (-0., 0., 1.));
#180 = CARTESIAN_POINT('', (0., -0., 0.001));
#181 = AXIS2_PLACEMENT_3D('', #180, #179, #178);
#182 = CIRCLE('', #181, 0.0025);
#183 = EDGE_CURVE('', #6, #8, #52, .T.);
#184 = EDGE_CURVE('', #8, #10, #56, .T.);
#185 = EDGE_CURVE('', #12, #10, #60, .T.);
#186 = EDGE_CURVE('', #6, #12, #64, .T.);
#187 = EDGE_CURVE('', #8, #14, #68, .T.);
#188 = EDGE_CURVE('', #14, #16, #72, .T.);
#189 = EDGE_CURVE('', #10, #16, #76, .T.);
#190 = EDGE_CURVE('', #14, #18, #80, .T.);
#191 = EDGE_CURVE('', #18, #20, #84, .T.);
#192 = EDGE_CURVE('', #16, #20, #88, .T.);
#193 = EDGE_CURVE('', #18, #6, #92, .T.);
#194 = EDGE_CURVE('', #20, #12, #96, .T.);
#195 = EDGE_CURVE('', #22, #28, #101, .T.);
#196 = EDGE_CURVE('', #22, #38, #105, .T.);
#197 = EDGE_CURVE('', #24, #40, #109, .T.);
#198 = EDGE_CURVE('', #24, #26, #114, .T.);
#199 = EDGE_CURVE('', #26, #22, #119, .T.);
#200 = EDGE_CURVE('', #28, #24, #124, .T.);
#201 = EDGE_CURVE('', #30, #34, #129, .T.);
#202 = EDGE_CURVE('', #30, #32, #133, .T.);
#203 = EDGE_CURVE('', #32, #44, #138, .T.);
#204 = EDGE_CURVE('', #34, #30, #143, .T.);
#205 = EDGE_CURVE('', #34, #36, #147, .T.);
#206 = EDGE_CURVE('', #32, #42, #152, .T.);
#207 = EDGE_CURVE('', #38, #48, #157, .T.);
#208 = EDGE_CURVE('', #38, #46, #162, .T.);
#209 = EDGE_CURVE('', #42, #36, #167, .T.);
#210 = EDGE_CURVE('', #44, #36, #172, .T.);
#211 = EDGE_CURVE('', #46, #40, #177, .T.);
#212 = EDGE_CURVE('', #48, #40, #182, .T.);
#213 = CARTESIAN_POINT('', (0.03, 0., 0.));
#214 = DIRECTION('', (1., -0., 0.));
#215 = AXIS2_PLACEMENT_3D('', #213, #214, $);
#216 = PLANE('', #215);
#217 = CARTESIAN_POINT('', (0., 0.03, 0.));
#218 = DIRECTION('', (0., 1., -0.));
#219 = AXIS2_PLACEMENT_3D('', #217, #218, $);
#220 = PLANE('', #219);
#221 = CARTESIAN_POINT('', (-0.03, 0., 0.));
#222 = DIRECTION('', (-1., -0., 0.));
#223 = AXIS2_PLACEMENT_3D('', #221, #222, $);
#224 = PLANE('', #223);
#225 = CARTESIAN_POINT('', (0., -0.03, 0.));
#226 = DIRECTION('', (0., -1., 0.));
#227 = AXIS2_PLACEMENT_3D('', #225, #226, $);
#228 = PLANE('', #227);
#229 = CARTESIAN_POINT('', (0., 0., -0.005));
#230 = DIRECTION('', (0., -0., 1.));
#231 = AXIS2_PLACEMENT_3D('', #229, #230, $);
#232 = PLANE('', #231);
#233 = CARTESIAN_POINT('', (0., 0., 0.005));
#234 = DIRECTION('', (0., -0., 1.));
#235 = AXIS2_PLACEMENT_3D('', #233, #234, $);
#236 = PLANE('', #235);
#237 = CARTESIAN_POINT('', (0., -0., 0.));
#238 = DIRECTION('', (0., -0., 1.));
#239 = DIRECTION('', (1., 0., 0.));
#240 = AXIS2_PLACEMENT_3D('', #237, #238, #239);
#241 = CYLINDRICAL_SURFACE('', #240, 0.0025);
#242 = CARTESIAN_POINT('', (0., -0., 0.003));
#243 = DIRECTION('', (0., -0., 1.));
#244 = DIRECTION('', (1., 0., 0.));
#245 = AXIS2_PLACEMENT_3D('', #242, #243, #244);
#246 = CYLINDRICAL_SURFACE('', #245, 0.005);
#247 = CARTESIAN_POINT('', (0., 0., 0.001));
#248 = DIRECTION('', (0., -0., 1.));
#249 = AXIS2_PLACEMENT_3D('', #247, #248, $);
#250 = PLANE('', #249);
#251 = ORIENTED_EDGE('', *, *, #183, .T.);
#252 = ORIENTED_EDGE('', *, *, #184, .T.);
#253 = ORIENTED_EDGE('', *, *, #185, .F.);
#254 = ORIENTED_EDGE('', *, *, #186, .F.);
#255 = EDGE_LOOP('', (#251, #252, #253, #254));
#256 = FACE_BOUND('', #255, .T.);
#257 = ADVANCED_FACE('', (#256), #216, .T.);
#258 = ORIENTED_EDGE('', *, *, #187, .T.);
#259 = ORIENTED_EDGE('', *, *, #188, .T.);
#260 = ORIENTED_EDGE('', *, *, #189, .F.);
#261 = ORIENTED_EDGE('', *, *, #184, .F.);
#262 = EDGE_LOOP('', (#258, #259, #260, #261));
#263 = FACE_BOUND('', #262, .T.);
#264 = ADVANCED_FACE('', (#263), #220, .T.);
#265 = ORIENTED_EDGE('', *, *, #190, .T.);
#266 = ORIENTED_EDGE('', *, *, #191, .T.);
#267 = ORIENTED_EDGE('', *, *, #192, .F.);
#268 = ORIENTED_EDGE('', *, *, #188, .F.);
#269 = EDGE_LOOP('', (#265, #266, #267, #268));
#270 = FACE_BOUND('', #269, .T.);
#271 = ADVANCED_FACE('', (#270), #224, .T.);
#272 = ORIENTED_EDGE('', *, *, #193, .T.);
#273 = ORIENTED_EDGE('', *, *, #186, .T.);
#274 = ORIENTED_EDGE('', *, *, #194, .F.);
#275 = ORIENTED_EDGE('', *, *, #191, .F.);
#276 = EDGE_LOOP('', (#272, #273, #274, #275));
#277 = FACE_BOUND('', #276, .T.);
#278 = ADVANCED_FACE('', (#277), #228, .T.);
#279 = ORIENTED_EDGE('', *, *, #193, .F.);
#280 = ORIENTED_EDGE('', *, *, #190, .F.);
#281 = ORIENTED_EDGE('', *, *, #187, .F.);
#282 = ORIENTED_EDGE('', *, *, #183, .F.);
#283 = ORIENTED_EDGE('', *, *, #200, .T.);
#284 = ORIENTED_EDGE('', *, *, #198, .T.);
#285 = ORIENTED_EDGE('', *, *, #199, .T.);
#286 = ORIENTED_EDGE('', *, *, #195, .T.);
#287 = EDGE_LOOP('', (#279, #280, #281, #282));
#288 = FACE_BOUND('', #287, .T.);
#289 = EDGE_LOOP('', (#283, #284, #285, #286));
#290 = FACE_BOUND('', #289, .T.);
#291 = ADVANCED_FACE('', (#288, #290), #232, .F.);
#292 = ORIENTED_EDGE('', *, *, #185, .T.);
#293 = ORIENTED_EDGE('', *, *, #189, .T.);
#294 = ORIENTED_EDGE('', *, *, #192, .T.);
#295 = ORIENTED_EDGE('', *, *, #194, .T.);
#296 = ORIENTED_EDGE('', *, *, #210, .F.);
#297 = ORIENTED_EDGE('', *, *, #203, .F.);
#298 = ORIENTED_EDGE('', *, *, #206, .T.);
#299 = ORIENTED_EDGE('', *, *, #209, .T.);
#300 = EDGE_LOOP('', (#292, #293, #294, #295));
#301 = FACE_BOUND('', #300, .T.);
#302 = EDGE_LOOP('', (#296, #297, #298, #299));
#303 = FACE_BOUND('', #302, .T.);
#304 = ADVANCED_FACE('', (#301, #303), #236, .T.);
#305 = ORIENTED_EDGE('', *, *, #200, .F.);
#306 = ORIENTED_EDGE('', *, *, #195, .F.);
#307 = ORIENTED_EDGE('', *, *, #196, .T.);
#308 = ORIENTED_EDGE('', *, *, #207, .T.);
#309 = ORIENTED_EDGE('', *, *, #212, .T.);
#310 = ORIENTED_EDGE('', *, *, #197, .F.);
#311 = EDGE_LOOP('', (#305, #306, #307, #308, #309, #310));
#312 = FACE_BOUND('', #311, .T.);
#313 = ADVANCED_FACE('', (#312), #241, .F.);
#314 = ORIENTED_EDGE('', *, *, #201, .F.);
#315 = ORIENTED_EDGE('', *, *, #202, .T.);
#316 = ORIENTED_EDGE('', *, *, #203, .T.);
#317 = ORIENTED_EDGE('', *, *, #210, .T.);
#318 = ORIENTED_EDGE('', *, *, #205, .F.);
#319 = EDGE_LOOP('', (#314, #315, #316, #317, #318));
#320 = FACE_BOUND('', #319, .T.);
#321 = ADVANCED_FACE('', (#320), #246, .F.);
#322 = ORIENTED_EDGE('', *, *, #201, .T.);
#323 = ORIENTED_EDGE('', *, *, #204, .T.);
#324 = ORIENTED_EDGE('', *, *, #207, .F.);
#325 = ORIENTED_EDGE('', *, *, #208, .T.);
#326 = ORIENTED_EDGE('', *, *, #211, .T.);
#327 = ORIENTED_EDGE('', *, *, #212, .F.);
#328 = EDGE_LOOP('', (#322, #323));
#329 = FACE_BOUND('', #328, .T.);
#330 = EDGE_LOOP('', (#324, #325, #326, #327));
#331 = FACE_BOUND('', #330, .T.);
#332 = ADVANCED_FACE('', (#329, #331), #250, .T.);
#333 = ORIENTED_EDGE('', *, *, #209, .F.);
#334 = ORIENTED_EDGE('', *, *, #206, .F.);
#335 = ORIENTED_EDGE('', *, *, #202, .F.);
#336 = ORIENTED_EDGE('', *, *, #204, .F.);
#337 = ORIENTED_EDGE('', *, *, #205, .T.);
#338 = EDGE_LOOP('', (#333, #334, #335, #336, #337));
#339 = FACE_BOUND('', #338, .T.);
#340 = ADVANCED_FACE('', (#339), #246, .F.);
#341 = ORIENTED_EDGE('', *, *, #211, .F.);
#342 = ORIENTED_EDGE('', *, *, #208, .F.);
#343 = ORIENTED_EDGE('', *, *, #196, .F.);
#344 = ORIENTED_EDGE('', *, *, #199, .F.);
#345 = ORIENTED_EDGE('', *, *, #198, .F.);
#346 = ORIENTED_EDGE('', *, *, #197, .T.);
#347 = EDGE_LOOP('', (#341, #342, #343, #344, #345, #346));
#348 = FACE_BOUND('', #347, .T.);
#349 = ADVANCED_FACE('', (#348), #241, .F.);
#350 = CLOSED_SHELL('', (#257, #264, #271, #278, #291, #304, #313, #321, #332, #340, #349));
#351 = MANIFOLD_SOLID_BREP('', #350);
#352 = APPLICATION_CONTEXT('configuration controlled 3D design of mechanical parts and assemblies');
#353 = PRODUCT_DEFINITION_CONTEXT('part definition', #352, 'design');
#354 = PRODUCT_CONTEXT('', #352, 'mechanical');
#355 = PRODUCT('UNIDENTIFIED_PRODUCT', '', $, (#354));
#356 = PRODUCT_DEFINITION_FORMATION('', $, #355);
#357 = PRODUCT_DEFINITION('design', $, #356, #353);
#358 = PRODUCT_DEFINITION_SHAPE('', '', #357);
#359 = ADVANCED_BREP_SHAPE_REPRESENTATION('', (#351), #4);
#360 = SHAPE_DEFINITION_REPRESENTATION(#358, #359);
#361 = COLOUR_RGB('', 0.89999998, 0.89999998, 0.89999998);
#362 = FILL_AREA_STYLE_COLOUR('', #361);
#363 = FILL_AREA_STYLE('', (#362));
#364 = SURFACE_STYLE_FILL_AREA(#363);
#365 = SURFACE_SIDE_STYLE('', (#364));
#366 = SURFACE_STYLE_USAGE(.BOTH., #365);
#367 = PRESENTATION_STYLE_ASSIGNMENT((#366));
#368 = STYLED_ITEM('', (#367), #351);
#369 = MECHANICAL_DESIGN_GEOMETRIC_PRESENTATION_REPRESENTATION('', (#368), #4);
ENDSEC;
END-ISO-10303-21;
