ISO-10303-21;
HEADER;
FILE_DESCRIPTION(('zoo.dev export'), '2;1');
FILE_NAME('output.step', '2026-08-05T07:46:18.289150804+00:00', (''), (''), 'zoo.dev beta', 'zoo.dev', '');
FILE_SCHEMA(('AP242_MANAGED_MODEL_BASED_3D_ENGINEERING_MIM_LF'));
ENDSEC;
DATA;
#1 = (
  LENGTH_UNIT()
  NAMED_UNIT(*)
  SI_UNIT($, .METRE.)
);
#2 = (
  NAMED_UNIT(*)
  PLANE_ANGLE_UNIT()
  SI_UNIT($, .RADIAN.)
);
#3 = UNCERTAINTY_MEASURE_WITH_UNIT(LENGTH_MEASURE(0.00001), #1, 'DISTANCE_ACCURACY_VALUE', $);
#4 = (
  GEOMETRIC_REPRESENTATION_CONTEXT(3)
  GLOBAL_UNCERTAINTY_ASSIGNED_CONTEXT((#3))
  GLOBAL_UNIT_ASSIGNED_CONTEXT((#1, #2))
  REPRESENTATION_CONTEXT('3D', '3D context')
);
#5 = CARTESIAN_POINT('', (0.05, -0.0282, -0.0035));
#6 = VERTEX_POINT('', #5);
#7 = CARTESIAN_POINT('', (0.05, 0.0282, -0.0035));
#8 = VERTEX_POINT('', #7);
#9 = CARTESIAN_POINT('', (0.05, 0.0282, 0.0035));
#10 = VERTEX_POINT('', #9);
#11 = CARTESIAN_POINT('', (0.05, -0.0282, 0.0035));
#12 = VERTEX_POINT('', #11);
#13 = CARTESIAN_POINT('', (-0.05, 0.0282, -0.0035));
#14 = VERTEX_POINT('', #13);
#15 = CARTESIAN_POINT('', (-0.05, 0.0282, 0.0035));
#16 = VERTEX_POINT('', #15);
#17 = CARTESIAN_POINT('', (-0.05, -0.0282, -0.0035));
#18 = VERTEX_POINT('', #17);
#19 = CARTESIAN_POINT('', (-0.05, -0.0282, 0.0035));
#20 = VERTEX_POINT('', #19);
#21 = CARTESIAN_POINT('', (0.011, 0., -0.0035));
#22 = VERTEX_POINT('', #21);
#23 = CARTESIAN_POINT('', (-0.011, 0., -0.0035));
#24 = VERTEX_POINT('', #23);
#25 = CARTESIAN_POINT('', (0.011, -0., 0.0035));
#26 = VERTEX_POINT('', #25);
#27 = CARTESIAN_POINT('', (-0.011, 0., 0.0035));
#28 = VERTEX_POINT('', #27);
#29 = CARTESIAN_POINT('', (0., -0.011, -0.0035));
#30 = VERTEX_POINT('', #29);
#31 = CARTESIAN_POINT('', (-0., 0.011, -0.0035));
#32 = VERTEX_POINT('', #31);
#33 = CARTESIAN_POINT('', (-0., -0.011, 0.0035));
#34 = VERTEX_POINT('', #33);
#35 = CARTESIAN_POINT('', (0., 0.011, 0.0035));
#36 = VERTEX_POINT('', #35);
#37 = CARTESIAN_POINT('', (-0.02082, -0.02357, -0.0035));
#38 = VERTEX_POINT('', #37);
#39 = CARTESIAN_POINT('', (-0.02632, -0.02357, -0.0035));
#40 = VERTEX_POINT('', #39);
#41 = CARTESIAN_POINT('', (-0.02082, -0.02357, 0.0035));
#42 = VERTEX_POINT('', #41);
#43 = CARTESIAN_POINT('', (-0.02632, -0.02357, 0.0035));
#44 = VERTEX_POINT('', #43);
#45 = CARTESIAN_POINT('', (-0.02357, -0.02632, -0.0035));
#46 = VERTEX_POINT('', #45);
#47 = CARTESIAN_POINT('', (-0.02357, -0.02082, -0.0035));
#48 = VERTEX_POINT('', #47);
#49 = CARTESIAN_POINT('', (-0.02357, -0.02632, 0.0035));
#50 = VERTEX_POINT('', #49);
#51 = CARTESIAN_POINT('', (-0.02357, -0.02082, 0.0035));
#52 = VERTEX_POINT('', #51);
#53 = CARTESIAN_POINT('', (-0.02082, 0.02357, -0.0035));
#54 = VERTEX_POINT('', #53);
#55 = CARTESIAN_POINT('', (-0.02632, 0.02357, -0.0035));
#56 = VERTEX_POINT('', #55);
#57 = CARTESIAN_POINT('', (-0.02082, 0.02357, 0.0035));
#58 = VERTEX_POINT('', #57);
#59 = CARTESIAN_POINT('', (-0.02632, 0.02357, 0.0035));
#60 = VERTEX_POINT('', #59);
#61 = CARTESIAN_POINT('', (-0.02357, 0.02082, -0.0035));
#62 = VERTEX_POINT('', #61);
#63 = CARTESIAN_POINT('', (-0.02357, 0.02632, -0.0035));
#64 = VERTEX_POINT('', #63);
#65 = CARTESIAN_POINT('', (-0.02357, 0.02082, 0.0035));
#66 = VERTEX_POINT('', #65);
#67 = CARTESIAN_POINT('', (-0.02357, 0.02632, 0.0035));
#68 = VERTEX_POINT('', #67);
#69 = CARTESIAN_POINT('', (0.02632, -0.02357, -0.0035));
#70 = VERTEX_POINT('', #69);
#71 = CARTESIAN_POINT('', (0.02082, -0.02357, -0.0035));
#72 = VERTEX_POINT('', #71);
#73 = CARTESIAN_POINT('', (0.02632, -0.02357, 0.0035));
#74 = VERTEX_POINT('', #73);
#75 = CARTESIAN_POINT('', (0.02082, -0.02357, 0.0035));
#76 = VERTEX_POINT('', #75);
#77 = CARTESIAN_POINT('', (0.02357, -0.02632, -0.0035));
#78 = VERTEX_POINT('', #77);
#79 = CARTESIAN_POINT('', (0.02357, -0.02082, -0.0035));
#80 = VERTEX_POINT('', #79);
#81 = CARTESIAN_POINT('', (0.02357, -0.02632, 0.0035));
#82 = VERTEX_POINT('', #81);
#83 = CARTESIAN_POINT('', (0.02357, -0.02082, 0.0035));
#84 = VERTEX_POINT('', #83);
#85 = CARTESIAN_POINT('', (0.02632, 0.02357, -0.0035));
#86 = VERTEX_POINT('', #85);
#87 = CARTESIAN_POINT('', (0.02082, 0.02357, -0.0035));
#88 = VERTEX_POINT('', #87);
#89 = CARTESIAN_POINT('', (0.02632, 0.02357, 0.0035));
#90 = VERTEX_POINT('', #89);
#91 = CARTESIAN_POINT('', (0.02082, 0.02357, 0.0035));
#92 = VERTEX_POINT('', #91);
#93 = CARTESIAN_POINT('', (0.02357, 0.02082, -0.0035));
#94 = VERTEX_POINT('', #93);
#95 = CARTESIAN_POINT('', (0.02357, 0.02632, -0.0035));
#96 = VERTEX_POINT('', #95);
#97 = CARTESIAN_POINT('', (0.02357, 0.02082, 0.0035));
#98 = VERTEX_POINT('', #97);
#99 = CARTESIAN_POINT('', (0.02357, 0.02632, 0.0035));
#100 = VERTEX_POINT('', #99);
#101 = CARTESIAN_POINT('', (-0.03725, -0.00475, -0.0035));
#102 = VERTEX_POINT('', #101);
#103 = CARTESIAN_POINT('', (-0.03725, 0.00475, -0.0035));
#104 = VERTEX_POINT('', #103);
#105 = CARTESIAN_POINT('', (-0.04275, 0.00475, -0.0035));
#106 = VERTEX_POINT('', #105);
#107 = CARTESIAN_POINT('', (-0.04275, -0.00475, -0.0035));
#108 = VERTEX_POINT('', #107);
#109 = CARTESIAN_POINT('', (-0.03725, -0.00475, 0.0035));
#110 = VERTEX_POINT('', #109);
#111 = CARTESIAN_POINT('', (-0.03725, 0.00475, 0.0035));
#112 = VERTEX_POINT('', #111);
#113 = CARTESIAN_POINT('', (-0.04275, 0.00475, 0.0035));
#114 = VERTEX_POINT('', #113);
#115 = CARTESIAN_POINT('', (-0.04275, -0.00475, 0.0035));
#116 = VERTEX_POINT('', #115);
#117 = CARTESIAN_POINT('', (0.04275, -0.00475, -0.0035));
#118 = VERTEX_POINT('', #117);
#119 = CARTESIAN_POINT('', (0.04275, 0.00475, -0.0035));
#120 = VERTEX_POINT('', #119);
#121 = CARTESIAN_POINT('', (0.03725, 0.00475, -0.0035));
#122 = VERTEX_POINT('', #121);
#123 = CARTESIAN_POINT('', (0.03725, -0.00475, -0.0035));
#124 = VERTEX_POINT('', #123);
#125 = CARTESIAN_POINT('', (0.04275, -0.00475, 0.0035));
#126 = VERTEX_POINT('', #125);
#127 = CARTESIAN_POINT('', (0.04275, 0.00475, 0.0035));
#128 = VERTEX_POINT('', #127);
#129 = CARTESIAN_POINT('', (0.03725, 0.00475, 0.0035));
#130 = VERTEX_POINT('', #129);
#131 = CARTESIAN_POINT('', (0.03725, -0.00475, 0.0035));
#132 = VERTEX_POINT('', #131);
#133 = CARTESIAN_POINT('', (-0.04, -0.0075, -0.0035));
#134 = VERTEX_POINT('', #133);
#135 = CARTESIAN_POINT('', (-0.04, -0.0075, 0.0035));
#136 = VERTEX_POINT('', #135);
#137 = CARTESIAN_POINT('', (0.04, -0.0075, -0.0035));
#138 = VERTEX_POINT('', #137);
#139 = CARTESIAN_POINT('', (0.04, -0.0075, 0.0035));
#140 = VERTEX_POINT('', #139);
#141 = CARTESIAN_POINT('', (-0.04, 0.0075, -0.0035));
#142 = VERTEX_POINT('', #141);
#143 = CARTESIAN_POINT('', (-0.04, 0.0075, 0.0035));
#144 = VERTEX_POINT('', #143);
#145 = CARTESIAN_POINT('', (0.04, 0.0075, -0.0035));
#146 = VERTEX_POINT('', #145);
#147 = CARTESIAN_POINT('', (0.04, 0.0075, 0.0035));
#148 = VERTEX_POINT('', #147);
#149 = DIRECTION('', (0., 1., 0.));
#150 = VECTOR('', #149, 1.);
#151 = CARTESIAN_POINT('', (0.05, -0.0282, -0.0035));
#152 = LINE('', #151, #150);
#153 = DIRECTION('', (0., -0., 1.));
#154 = VECTOR('', #153, 1.);
#155 = CARTESIAN_POINT('', (0.05, 0.0282, -0.0035));
#156 = LINE('', #155, #154);
#157 = DIRECTION('', (0., 1., 0.));
#158 = VECTOR('', #157, 1.);
#159 = CARTESIAN_POINT('', (0.05, -0.0282, 0.0035));
#160 = LINE('', #159, #158);
#161 = DIRECTION('', (0., -0., 1.));
#162 = VECTOR('', #161, 1.);
#163 = CARTESIAN_POINT('', (0.05, -0.0282, -0.0035));
#164 = LINE('', #163, #162);
#165 = DIRECTION('', (-1., -0., 0.));
#166 = VECTOR('', #165, 1.);
#167 = CARTESIAN_POINT('', (0.05, 0.0282, -0.0035));
#168 = LINE('', #167, #166);
#169 = DIRECTION('', (0., -0., 1.));
#170 = VECTOR('', #169, 1.);
#171 = CARTESIAN_POINT('', (-0.05, 0.0282, -0.0035));
#172 = LINE('', #171, #170);
#173 = DIRECTION('', (-1., -0., 0.));
#174 = VECTOR('', #173, 1.);
#175 = CARTESIAN_POINT('', (0.05, 0.0282, 0.0035));
#176 = LINE('', #175, #174);
#177 = DIRECTION('', (0., -1., 0.));
#178 = VECTOR('', #177, 1.);
#179 = CARTESIAN_POINT('', (-0.05, 0.0282, -0.0035));
#180 = LINE('', #179, #178);
#181 = DIRECTION('', (0., -0., 1.));
#182 = VECTOR('', #181, 1.);
#183 = CARTESIAN_POINT('', (-0.05, -0.0282, -0.0035));
#184 = LINE('', #183, #182);
#185 = DIRECTION('', (0., -1., 0.));
#186 = VECTOR('', #185, 1.);
#187 = CARTESIAN_POINT('', (-0.05, 0.0282, 0.0035));
#188 = LINE('', #187, #186);
#189 = DIRECTION('', (1., -0., 0.));
#190 = VECTOR('', #189, 1.);
#191 = CARTESIAN_POINT('', (-0.05, -0.0282, -0.0035));
#192 = LINE('', #191, #190);
#193 = DIRECTION('', (1., -0., 0.));
#194 = VECTOR('', #193, 1.);
#195 = CARTESIAN_POINT('', (-0.05, -0.0282, 0.0035));
#196 = LINE('', #195, #194);
#197 = DIRECTION('', (1., 0., 0.));
#198 = DIRECTION('', (-0., -0., 1.));
#199 = CARTESIAN_POINT('', (-0., -0., -0.0035));
#200 = AXIS2_PLACEMENT_3D('', #199, #198, #197);
#201 = CIRCLE('', #200, 0.011);
#202 = DIRECTION('', (1., -0., 0.));
#203 = DIRECTION('', (0., -0., -1.));
#204 = CARTESIAN_POINT('', (-0., 0., -0.0035));
#205 = AXIS2_PLACEMENT_3D('', #204, #203, #202);
#206 = CIRCLE('', #205, 0.011);
#207 = DIRECTION('', (1., -0., 0.));
#208 = DIRECTION('', (-0., -0., 1.));
#209 = CARTESIAN_POINT('', (0., 0., 0.0035));
#210 = AXIS2_PLACEMENT_3D('', #209, #208, #207);
#211 = CIRCLE('', #210, 0.011);
#212 = DIRECTION('', (1., 0., 0.));
#213 = DIRECTION('', (0., -0., -1.));
#214 = CARTESIAN_POINT('', (0., -0., 0.0035));
#215 = AXIS2_PLACEMENT_3D('', #214, #213, #212);
#216 = CIRCLE('', #215, 0.011);
#217 = DIRECTION('', (0., -1., 0.));
#218 = DIRECTION('', (-0., -0., -1.));
#219 = CARTESIAN_POINT('', (0., 0., -0.0035));
#220 = AXIS2_PLACEMENT_3D('', #219, #218, #217);
#221 = CIRCLE('', #220, 0.011);
#222 = DIRECTION('', (-0., 1., 0.));
#223 = DIRECTION('', (0., -0., 1.));
#224 = CARTESIAN_POINT('', (0., -0., -0.0035));
#225 = AXIS2_PLACEMENT_3D('', #224, #223, #222);
#226 = CIRCLE('', #225, 0.011);
#227 = DIRECTION('', (0., -1., -0.));
#228 = DIRECTION('', (-0., 0., -1.));
#229 = CARTESIAN_POINT('', (-0., -0., 0.0035));
#230 = AXIS2_PLACEMENT_3D('', #229, #228, #227);
#231 = CIRCLE('', #230, 0.011);
#232 = DIRECTION('', (0., 1., -0.));
#233 = DIRECTION('', (-0., 0., 1.));
#234 = CARTESIAN_POINT('', (-0., 0., 0.0035));
#235 = AXIS2_PLACEMENT_3D('', #234, #233, #232);
#236 = CIRCLE('', #235, 0.011);
#237 = DIRECTION('', (0., -0., 1.));
#238 = VECTOR('', #237, 1.);
#239 = CARTESIAN_POINT('', (-0.011, 0., -0.0035));
#240 = LINE('', #239, #238);
#241 = DIRECTION('', (0., -0., 1.));
#242 = VECTOR('', #241, 1.);
#243 = CARTESIAN_POINT('', (0.011, 0., -0.0035));
#244 = LINE('', #243, #242);
#245 = DIRECTION('', (1., 0., -0.));
#246 = DIRECTION('', (0., 0., 1.));
#247 = CARTESIAN_POINT('', (-0.02357, -0.02357, -0.0035));
#248 = AXIS2_PLACEMENT_3D('', #247, #246, #245);
#249 = CIRCLE('', #248, 0.00275);
#250 = DIRECTION('', (1., -0., 0.));
#251 = DIRECTION('', (0., -0., -1.));
#252 = CARTESIAN_POINT('', (-0.02357, -0.02357, -0.0035));
#253 = AXIS2_PLACEMENT_3D('', #252, #251, #250);
#254 = CIRCLE('', #253, 0.00275);
#255 = DIRECTION('', (1., -0., -0.));
#256 = DIRECTION('', (0., 0., 1.));
#257 = CARTESIAN_POINT('', (-0.02357, -0.02357, 0.0035));
#258 = AXIS2_PLACEMENT_3D('', #257, #256, #255);
#259 = CIRCLE('', #258, 0.00275);
#260 = DIRECTION('', (1., -0., 0.));
#261 = DIRECTION('', (0., 0., -1.));
#262 = CARTESIAN_POINT('', (-0.02357, -0.02357, 0.0035));
#263 = AXIS2_PLACEMENT_3D('', #262, #261, #260);
#264 = CIRCLE('', #263, 0.00275);
#265 = DIRECTION('', (0.00000003, -1., 0.));
#266 = DIRECTION('', (-0., -0., -1.));
#267 = CARTESIAN_POINT('', (-0.02357, -0.02357, -0.0035));
#268 = AXIS2_PLACEMENT_3D('', #267, #266, #265);
#269 = CIRCLE('', #268, 0.00275);
#270 = DIRECTION('', (-0.00000001, 1., 0.));
#271 = DIRECTION('', (0., -0., 1.));
#272 = CARTESIAN_POINT('', (-0.02357, -0.02357, -0.0035));
#273 = AXIS2_PLACEMENT_3D('', #272, #271, #270);
#274 = CIRCLE('', #273, 0.00275);
#275 = DIRECTION('', (-0.00000001, -1., -0.));
#276 = DIRECTION('', (0., 0., -1.));
#277 = CARTESIAN_POINT('', (-0.02357, -0.02357, 0.0035));
#278 = AXIS2_PLACEMENT_3D('', #277, #276, #275);
#279 = CIRCLE('', #278, 0.00275);
#280 = DIRECTION('', (0.00000001, 1., -0.));
#281 = DIRECTION('', (-0., 0., 1.));
#282 = CARTESIAN_POINT('', (-0.02357, -0.02357, 0.0035));
#283 = AXIS2_PLACEMENT_3D('', #282, #281, #280);
#284 = CIRCLE('', #283, 0.00275);
#285 = DIRECTION('', (0., -0., 1.));
#286 = VECTOR('', #285, 1.);
#287 = CARTESIAN_POINT('', (-0.02632, -0.02357, -0.0035));
#288 = LINE('', #287, #286);
#289 = DIRECTION('', (0., -0., 1.));
#290 = VECTOR('', #289, 1.);
#291 = CARTESIAN_POINT('', (-0.02082, -0.02357, -0.0035));
#292 = LINE('', #291, #290);
#293 = DIRECTION('', (1., 0., 0.));
#294 = DIRECTION('', (-0., -0., 1.));
#295 = CARTESIAN_POINT('', (-0.02357, 0.02357, -0.0035));
#296 = AXIS2_PLACEMENT_3D('', #295, #294, #293);
#297 = CIRCLE('', #296, 0.00275);
#298 = DIRECTION('', (1., 0., 0.));
#299 = DIRECTION('', (0., -0., -1.));
#300 = CARTESIAN_POINT('', (-0.02357, 0.02357, -0.0035));
#301 = AXIS2_PLACEMENT_3D('', #300, #299, #298);
#302 = CIRCLE('', #301, 0.00275);
#303 = DIRECTION('', (1., 0., -0.));
#304 = DIRECTION('', (0., 0., 1.));
#305 = CARTESIAN_POINT('', (-0.02357, 0.02357, 0.0035));
#306 = AXIS2_PLACEMENT_3D('', #305, #304, #303);
#307 = CIRCLE('', #306, 0.00275);
#308 = DIRECTION('', (1., -0., -0.));
#309 = DIRECTION('', (-0., 0., -1.));
#310 = CARTESIAN_POINT('', (-0.02357, 0.02357, 0.0035));
#311 = AXIS2_PLACEMENT_3D('', #310, #309, #308);
#312 = CIRCLE('', #311, 0.00275);
#313 = DIRECTION('', (0.00000001, -1., 0.));
#314 = DIRECTION('', (-0., -0., -1.));
#315 = CARTESIAN_POINT('', (-0.02357, 0.02357, -0.0035));
#316 = AXIS2_PLACEMENT_3D('', #315, #314, #313);
#317 = CIRCLE('', #316, 0.00275);
#318 = DIRECTION('', (-0.00000001, 1., 0.));
#319 = DIRECTION('', (-0., -0., 1.));
#320 = CARTESIAN_POINT('', (-0.02357, 0.02357, -0.0035));
#321 = AXIS2_PLACEMENT_3D('', #320, #319, #318);
#322 = CIRCLE('', #321, 0.00275);
#323 = DIRECTION('', (0., -1., -0.));
#324 = DIRECTION('', (0., 0., -1.));
#325 = CARTESIAN_POINT('', (-0.02357, 0.02357, 0.0035));
#326 = AXIS2_PLACEMENT_3D('', #325, #324, #323);
#327 = CIRCLE('', #326, 0.00275);
#328 = DIRECTION('', (0.00000003, 1., -0.));
#329 = DIRECTION('', (-0., 0., 1.));
#330 = CARTESIAN_POINT('', (-0.02357, 0.02357, 0.0035));
#331 = AXIS2_PLACEMENT_3D('', #330, #329, #328);
#332 = CIRCLE('', #331, 0.00275);
#333 = DIRECTION('', (0., -0., 1.));
#334 = VECTOR('', #333, 1.);
#335 = CARTESIAN_POINT('', (-0.02632, 0.02357, -0.0035));
#336 = LINE('', #335, #334);
#337 = DIRECTION('', (0., -0., 1.));
#338 = VECTOR('', #337, 1.);
#339 = CARTESIAN_POINT('', (-0.02082, 0.02357, -0.0035));
#340 = LINE('', #339, #338);
#341 = DIRECTION('', (1., 0., 0.));
#342 = DIRECTION('', (-0., -0., 1.));
#343 = CARTESIAN_POINT('', (0.02357, -0.02357, -0.0035));
#344 = AXIS2_PLACEMENT_3D('', #343, #342, #341);
#345 = CIRCLE('', #344, 0.00275);
#346 = DIRECTION('', (1., -0., 0.));
#347 = DIRECTION('', (0., -0., -1.));
#348 = CARTESIAN_POINT('', (0.02357, -0.02357, -0.0035));
#349 = AXIS2_PLACEMENT_3D('', #348, #347, #346);
#350 = CIRCLE('', #349, 0.00275);
#351 = DIRECTION('', (1., -0., -0.));
#352 = DIRECTION('', (0., 0., 1.));
#353 = CARTESIAN_POINT('', (0.02357, -0.02357, 0.0035));
#354 = AXIS2_PLACEMENT_3D('', #353, #352, #351);
#355 = CIRCLE('', #354, 0.00275);
#356 = DIRECTION('', (1., -0., 0.));
#357 = DIRECTION('', (0., -0., -1.));
#358 = CARTESIAN_POINT('', (0.02357, -0.02357, 0.0035));
#359 = AXIS2_PLACEMENT_3D('', #358, #357, #356);
#360 = CIRCLE('', #359, 0.00275);
#361 = DIRECTION('', (0.00000001, -1., 0.));
#362 = DIRECTION('', (0., -0., -1.));
#363 = CARTESIAN_POINT('', (0.02357, -0.02357, -0.0035));
#364 = AXIS2_PLACEMENT_3D('', #363, #362, #361);
#365 = CIRCLE('', #364, 0.00275);
#366 = DIRECTION('', (-0.00000001, 1., -0.));
#367 = DIRECTION('', (-0., 0., 1.));
#368 = CARTESIAN_POINT('', (0.02357, -0.02357, -0.0035));
#369 = AXIS2_PLACEMENT_3D('', #368, #367, #366);
#370 = CIRCLE('', #369, 0.00275);
#371 = DIRECTION('', (-0.00000003, -1., -0.));
#372 = DIRECTION('', (0., 0., -1.));
#373 = CARTESIAN_POINT('', (0.02357, -0.02357, 0.0035));
#374 = AXIS2_PLACEMENT_3D('', #373, #372, #371);
#375 = CIRCLE('', #374, 0.00275);
#376 = DIRECTION('', (-0., 1., -0.));
#377 = DIRECTION('', (0., 0., 1.));
#378 = CARTESIAN_POINT('', (0.02357, -0.02357, 0.0035));
#379 = AXIS2_PLACEMENT_3D('', #378, #377, #376);
#380 = CIRCLE('', #379, 0.00275);
#381 = DIRECTION('', (0., -0., 1.));
#382 = VECTOR('', #381, 1.);
#383 = CARTESIAN_POINT('', (0.02082, -0.02357, -0.0035));
#384 = LINE('', #383, #382);
#385 = DIRECTION('', (0., -0., 1.));
#386 = VECTOR('', #385, 1.);
#387 = CARTESIAN_POINT('', (0.02632, -0.02357, -0.0035));
#388 = LINE('', #387, #386);
#389 = DIRECTION('', (1., 0., 0.));
#390 = DIRECTION('', (-0., -0., 1.));
#391 = CARTESIAN_POINT('', (0.02357, 0.02357, -0.0035));
#392 = AXIS2_PLACEMENT_3D('', #391, #390, #389);
#393 = CIRCLE('', #392, 0.00275);
#394 = DIRECTION('', (1., 0., -0.));
#395 = DIRECTION('', (-0., 0., -1.));
#396 = CARTESIAN_POINT('', (0.02357, 0.02357, -0.0035));
#397 = AXIS2_PLACEMENT_3D('', #396, #395, #394);
#398 = CIRCLE('', #397, 0.00275);
#399 = DIRECTION('', (1., 0., 0.));
#400 = DIRECTION('', (-0., 0., 1.));
#401 = CARTESIAN_POINT('', (0.02357, 0.02357, 0.0035));
#402 = AXIS2_PLACEMENT_3D('', #401, #400, #399);
#403 = CIRCLE('', #402, 0.00275);
#404 = DIRECTION('', (1., -0., -0.));
#405 = DIRECTION('', (-0., 0., -1.));
#406 = CARTESIAN_POINT('', (0.02357, 0.02357, 0.0035));
#407 = AXIS2_PLACEMENT_3D('', #406, #405, #404);
#408 = CIRCLE('', #407, 0.00275);
#409 = DIRECTION('', (0.00000001, -1., 0.));
#410 = DIRECTION('', (-0., -0., -1.));
#411 = CARTESIAN_POINT('', (0.02357, 0.02357, -0.0035));
#412 = AXIS2_PLACEMENT_3D('', #411, #410, #409);
#413 = CIRCLE('', #412, 0.00275);
#414 = DIRECTION('', (-0.00000003, 1., 0.));
#415 = DIRECTION('', (0., -0., 1.));
#416 = CARTESIAN_POINT('', (0.02357, 0.02357, -0.0035));
#417 = AXIS2_PLACEMENT_3D('', #416, #415, #414);
#418 = CIRCLE('', #417, 0.00275);
#419 = DIRECTION('', (-0.00000001, -1., -0.));
#420 = DIRECTION('', (0., 0., -1.));
#421 = CARTESIAN_POINT('', (0.02357, 0.02357, 0.0035));
#422 = AXIS2_PLACEMENT_3D('', #421, #420, #419);
#423 = CIRCLE('', #422, 0.00275);
#424 = DIRECTION('', (0.00000001, 1., -0.));
#425 = DIRECTION('', (-0., 0., 1.));
#426 = CARTESIAN_POINT('', (0.02357, 0.02357, 0.0035));
#427 = AXIS2_PLACEMENT_3D('', #426, #425, #424);
#428 = CIRCLE('', #427, 0.00275);
#429 = DIRECTION('', (0., -0., 1.));
#430 = VECTOR('', #429, 1.);
#431 = CARTESIAN_POINT('', (0.02082, 0.02357, -0.0035));
#432 = LINE('', #431, #430);
#433 = DIRECTION('', (0., -0., 1.));
#434 = VECTOR('', #433, 1.);
#435 = CARTESIAN_POINT('', (0.02632, 0.02357, -0.0035));
#436 = LINE('', #435, #434);
#437 = DIRECTION('', (0., 1., 0.));
#438 = VECTOR('', #437, 1.);
#439 = CARTESIAN_POINT('', (-0.03725, -0.00475, -0.0035));
#440 = LINE('', #439, #438);
#441 = DIRECTION('', (0., -1., 0.));
#442 = VECTOR('', #441, 1.);
#443 = CARTESIAN_POINT('', (-0.04275, 0.00475, -0.0035));
#444 = LINE('', #443, #442);
#445 = DIRECTION('', (0., 1., 0.));
#446 = VECTOR('', #445, 1.);
#447 = CARTESIAN_POINT('', (-0.03725, -0.00475, 0.0035));
#448 = LINE('', #447, #446);
#449 = DIRECTION('', (0., -1., 0.));
#450 = VECTOR('', #449, 1.);
#451 = CARTESIAN_POINT('', (-0.04275, 0.00475, 0.0035));
#452 = LINE('', #451, #450);
#453 = DIRECTION('', (0., -0., 1.));
#454 = VECTOR('', #453, 1.);
#455 = CARTESIAN_POINT('', (-0.04275, -0.00475, -0.0035));
#456 = LINE('', #455, #454);
#457 = DIRECTION('', (0., -0., 1.));
#458 = VECTOR('', #457, 1.);
#459 = CARTESIAN_POINT('', (-0.04275, 0.00475, -0.0035));
#460 = LINE('', #459, #458);
#461 = DIRECTION('', (0., -0., 1.));
#462 = VECTOR('', #461, 1.);
#463 = CARTESIAN_POINT('', (-0.03725, 0.00475, -0.0035));
#464 = LINE('', #463, #462);
#465 = DIRECTION('', (0., -0., 1.));
#466 = VECTOR('', #465, 1.);
#467 = CARTESIAN_POINT('', (-0.03725, -0.00475, -0.0035));
#468 = LINE('', #467, #466);
#469 = DIRECTION('', (0., 1., 0.));
#470 = VECTOR('', #469, 1.);
#471 = CARTESIAN_POINT('', (0.04275, -0.00475, -0.0035));
#472 = LINE('', #471, #470);
#473 = DIRECTION('', (0., -1., 0.));
#474 = VECTOR('', #473, 1.);
#475 = CARTESIAN_POINT('', (0.03725, 0.00475, -0.0035));
#476 = LINE('', #475, #474);
#477 = DIRECTION('', (0., 1., 0.));
#478 = VECTOR('', #477, 1.);
#479 = CARTESIAN_POINT('', (0.04275, -0.00475, 0.0035));
#480 = LINE('', #479, #478);
#481 = DIRECTION('', (0., -1., 0.));
#482 = VECTOR('', #481, 1.);
#483 = CARTESIAN_POINT('', (0.03725, 0.00475, 0.0035));
#484 = LINE('', #483, #482);
#485 = DIRECTION('', (0., -0., 1.));
#486 = VECTOR('', #485, 1.);
#487 = CARTESIAN_POINT('', (0.03725, -0.00475, -0.0035));
#488 = LINE('', #487, #486);
#489 = DIRECTION('', (0., -0., 1.));
#490 = VECTOR('', #489, 1.);
#491 = CARTESIAN_POINT('', (0.03725, 0.00475, -0.0035));
#492 = LINE('', #491, #490);
#493 = DIRECTION('', (0., -0., 1.));
#494 = VECTOR('', #493, 1.);
#495 = CARTESIAN_POINT('', (0.04275, 0.00475, -0.0035));
#496 = LINE('', #495, #494);
#497 = DIRECTION('', (0., -0., 1.));
#498 = VECTOR('', #497, 1.);
#499 = CARTESIAN_POINT('', (0.04275, -0.00475, -0.0035));
#500 = LINE('', #499, #498);
#501 = DIRECTION('', (1., -0., 0.));
#502 = DIRECTION('', (0., -0., -1.));
#503 = CARTESIAN_POINT('', (-0.04, -0.00475, -0.0035));
#504 = AXIS2_PLACEMENT_3D('', #503, #502, #501);
#505 = CIRCLE('', #504, 0.00275);
#506 = DIRECTION('', (1., 0., -0.));
#507 = DIRECTION('', (-0., 0., -1.));
#508 = CARTESIAN_POINT('', (-0.04, -0.00475, 0.0035));
#509 = AXIS2_PLACEMENT_3D('', #508, #507, #506);
#510 = CIRCLE('', #509, 0.00275);
#511 = DIRECTION('', (0.00000001, -1., 0.));
#512 = DIRECTION('', (-0., -0., -1.));
#513 = CARTESIAN_POINT('', (-0.04, -0.00475, -0.0035));
#514 = AXIS2_PLACEMENT_3D('', #513, #512, #511);
#515 = CIRCLE('', #514, 0.00275);
#516 = DIRECTION('', (-0., -1., 0.));
#517 = DIRECTION('', (-0., -0., -1.));
#518 = CARTESIAN_POINT('', (-0.04, -0.00475, 0.0035));
#519 = AXIS2_PLACEMENT_3D('', #518, #517, #516);
#520 = CIRCLE('', #519, 0.00275);
#521 = DIRECTION('', (1., 0., -0.));
#522 = DIRECTION('', (-0., 0., -1.));
#523 = CARTESIAN_POINT('', (0.04, -0.00475, -0.0035));
#524 = AXIS2_PLACEMENT_3D('', #523, #522, #521);
#525 = CIRCLE('', #524, 0.00275);
#526 = DIRECTION('', (1., -0., 0.));
#527 = DIRECTION('', (0., -0., -1.));
#528 = CARTESIAN_POINT('', (0.04, -0.00475, 0.0035));
#529 = AXIS2_PLACEMENT_3D('', #528, #527, #526);
#530 = CIRCLE('', #529, 0.00275);
#531 = DIRECTION('', (0., -1., -0.));
#532 = DIRECTION('', (0., 0., -1.));
#533 = CARTESIAN_POINT('', (0.04, -0.00475, -0.0035));
#534 = AXIS2_PLACEMENT_3D('', #533, #532, #531);
#535 = CIRCLE('', #534, 0.00275);
#536 = DIRECTION('', (-0.00000001, -1., -0.));
#537 = DIRECTION('', (0., 0., -1.));
#538 = CARTESIAN_POINT('', (0.04, -0.00475, 0.0035));
#539 = AXIS2_PLACEMENT_3D('', #538, #537, #536);
#540 = CIRCLE('', #539, 0.00275);
#541 = DIRECTION('', (1., -0., -0.));
#542 = DIRECTION('', (0., 0., 1.));
#543 = CARTESIAN_POINT('', (-0.04, 0.00475, -0.0035));
#544 = AXIS2_PLACEMENT_3D('', #543, #542, #541);
#545 = CIRCLE('', #544, 0.00275);
#546 = DIRECTION('', (1., 0., 0.));
#547 = DIRECTION('', (-0., 0., 1.));
#548 = CARTESIAN_POINT('', (-0.04, 0.00475, 0.0035));
#549 = AXIS2_PLACEMENT_3D('', #548, #547, #546);
#550 = CIRCLE('', #549, 0.00275);
#551 = DIRECTION('', (-0., 1., 0.));
#552 = DIRECTION('', (0., -0., 1.));
#553 = CARTESIAN_POINT('', (-0.04, 0.00475, -0.0035));
#554 = AXIS2_PLACEMENT_3D('', #553, #552, #551);
#555 = CIRCLE('', #554, 0.00275);
#556 = DIRECTION('', (0.00000001, 1., 0.));
#557 = DIRECTION('', (0., -0., 1.));
#558 = CARTESIAN_POINT('', (-0.04, 0.00475, 0.0035));
#559 = AXIS2_PLACEMENT_3D('', #558, #557, #556);
#560 = CIRCLE('', #559, 0.00275);
#561 = DIRECTION('', (1., 0., -0.));
#562 = DIRECTION('', (0., 0., 1.));
#563 = CARTESIAN_POINT('', (0.04, 0.00475, -0.0035));
#564 = AXIS2_PLACEMENT_3D('', #563, #562, #561);
#565 = CIRCLE('', #564, 0.00275);
#566 = DIRECTION('', (1., -0., -0.));
#567 = DIRECTION('', (0., 0., 1.));
#568 = CARTESIAN_POINT('', (0.04, 0.00475, 0.0035));
#569 = AXIS2_PLACEMENT_3D('', #568, #567, #566);
#570 = CIRCLE('', #569, 0.00275);
#571 = DIRECTION('', (-0.00000001, 1., -0.));
#572 = DIRECTION('', (-0., 0., 1.));
#573 = CARTESIAN_POINT('', (0.04, 0.00475, -0.0035));
#574 = AXIS2_PLACEMENT_3D('', #573, #572, #571);
#575 = CIRCLE('', #574, 0.00275);
#576 = DIRECTION('', (0., 1., -0.));
#577 = DIRECTION('', (-0., 0., 1.));
#578 = CARTESIAN_POINT('', (0.04, 0.00475, 0.0035));
#579 = AXIS2_PLACEMENT_3D('', #578, #577, #576);
#580 = CIRCLE('', #579, 0.00275);
#581 = EDGE_CURVE('', #6, #8, #152, .T.);
#582 = EDGE_CURVE('', #8, #10, #156, .T.);
#583 = EDGE_CURVE('', #12, #10, #160, .T.);
#584 = EDGE_CURVE('', #6, #12, #164, .T.);
#585 = EDGE_CURVE('', #8, #14, #168, .T.);
#586 = EDGE_CURVE('', #14, #16, #172, .T.);
#587 = EDGE_CURVE('', #10, #16, #176, .T.);
#588 = EDGE_CURVE('', #14, #18, #180, .T.);
#589 = EDGE_CURVE('', #18, #20, #184, .T.);
#590 = EDGE_CURVE('', #16, #20, #188, .T.);
#591 = EDGE_CURVE('', #18, #6, #192, .T.);
#592 = EDGE_CURVE('', #20, #12, #196, .T.);
#593 = EDGE_CURVE('', #22, #32, #201, .T.);
#594 = EDGE_CURVE('', #22, #30, #206, .T.);
#595 = EDGE_CURVE('', #26, #36, #211, .T.);
#596 = EDGE_CURVE('', #26, #34, #216, .T.);
#597 = EDGE_CURVE('', #30, #24, #221, .T.);
#598 = EDGE_CURVE('', #32, #24, #226, .T.);
#599 = EDGE_CURVE('', #34, #28, #231, .T.);
#600 = EDGE_CURVE('', #36, #28, #236, .T.);
#601 = EDGE_CURVE('', #24, #28, #240, .T.);
#602 = EDGE_CURVE('', #22, #26, #244, .T.);
#603 = EDGE_CURVE('', #38, #48, #249, .T.);
#604 = EDGE_CURVE('', #38, #46, #254, .T.);
#605 = EDGE_CURVE('', #42, #52, #259, .T.);
#606 = EDGE_CURVE('', #42, #50, #264, .T.);
#607 = EDGE_CURVE('', #46, #40, #269, .T.);
#608 = EDGE_CURVE('', #48, #40, #274, .T.);
#609 = EDGE_CURVE('', #50, #44, #279, .T.);
#610 = EDGE_CURVE('', #52, #44, #284, .T.);
#611 = EDGE_CURVE('', #40, #44, #288, .T.);
#612 = EDGE_CURVE('', #38, #42, #292, .T.);
#613 = EDGE_CURVE('', #54, #64, #297, .T.);
#614 = EDGE_CURVE('', #54, #62, #302, .T.);
#615 = EDGE_CURVE('', #58, #68, #307, .T.);
#616 = EDGE_CURVE('', #58, #66, #312, .T.);
#617 = EDGE_CURVE('', #62, #56, #317, .T.);
#618 = EDGE_CURVE('', #64, #56, #322, .T.);
#619 = EDGE_CURVE('', #66, #60, #327, .T.);
#620 = EDGE_CURVE('', #68, #60, #332, .T.);
#621 = EDGE_CURVE('', #56, #60, #336, .T.);
#622 = EDGE_CURVE('', #54, #58, #340, .T.);
#623 = EDGE_CURVE('', #70, #80, #345, .T.);
#624 = EDGE_CURVE('', #70, #78, #350, .T.);
#625 = EDGE_CURVE('', #74, #84, #355, .T.);
#626 = EDGE_CURVE('', #74, #82, #360, .T.);
#627 = EDGE_CURVE('', #78, #72, #365, .T.);
#628 = EDGE_CURVE('', #80, #72, #370, .T.);
#629 = EDGE_CURVE('', #82, #76, #375, .T.);
#630 = EDGE_CURVE('', #84, #76, #380, .T.);
#631 = EDGE_CURVE('', #72, #76, #384, .T.);
#632 = EDGE_CURVE('', #70, #74, #388, .T.);
#633 = EDGE_CURVE('', #86, #96, #393, .T.);
#634 = EDGE_CURVE('', #86, #94, #398, .T.);
#635 = EDGE_CURVE('', #90, #100, #403, .T.);
#636 = EDGE_CURVE('', #90, #98, #408, .T.);
#637 = EDGE_CURVE('', #94, #88, #413, .T.);
#638 = EDGE_CURVE('', #96, #88, #418, .T.);
#639 = EDGE_CURVE('', #98, #92, #423, .T.);
#640 = EDGE_CURVE('', #100, #92, #428, .T.);
#641 = EDGE_CURVE('', #88, #92, #432, .T.);
#642 = EDGE_CURVE('', #86, #90, #436, .T.);
#643 = EDGE_CURVE('', #102, #104, #440, .T.);
#644 = EDGE_CURVE('', #106, #108, #444, .T.);
#645 = EDGE_CURVE('', #110, #112, #448, .T.);
#646 = EDGE_CURVE('', #114, #116, #452, .T.);
#647 = EDGE_CURVE('', #108, #116, #456, .T.);
#648 = EDGE_CURVE('', #106, #114, #460, .T.);
#649 = EDGE_CURVE('', #104, #112, #464, .T.);
#650 = EDGE_CURVE('', #102, #110, #468, .T.);
#651 = EDGE_CURVE('', #118, #120, #472, .T.);
#652 = EDGE_CURVE('', #122, #124, #476, .T.);
#653 = EDGE_CURVE('', #126, #128, #480, .T.);
#654 = EDGE_CURVE('', #130, #132, #484, .T.);
#655 = EDGE_CURVE('', #124, #132, #488, .T.);
#656 = EDGE_CURVE('', #122, #130, #492, .T.);
#657 = EDGE_CURVE('', #120, #128, #496, .T.);
#658 = EDGE_CURVE('', #118, #126, #500, .T.);
#659 = EDGE_CURVE('', #102, #134, #505, .T.);
#660 = EDGE_CURVE('', #110, #136, #510, .T.);
#661 = EDGE_CURVE('', #134, #108, #515, .T.);
#662 = EDGE_CURVE('', #136, #116, #520, .T.);
#663 = EDGE_CURVE('', #118, #138, #525, .T.);
#664 = EDGE_CURVE('', #126, #140, #530, .T.);
#665 = EDGE_CURVE('', #138, #124, #535, .T.);
#666 = EDGE_CURVE('', #140, #132, #540, .T.);
#667 = EDGE_CURVE('', #104, #142, #545, .T.);
#668 = EDGE_CURVE('', #112, #144, #550, .T.);
#669 = EDGE_CURVE('', #142, #106, #555, .T.);
#670 = EDGE_CURVE('', #144, #114, #560, .T.);
#671 = EDGE_CURVE('', #120, #146, #565, .T.);
#672 = EDGE_CURVE('', #128, #148, #570, .T.);
#673 = EDGE_CURVE('', #146, #122, #575, .T.);
#674 = EDGE_CURVE('', #148, #130, #580, .T.);
#675 = CARTESIAN_POINT('', (0.05, 0., 0.));
#676 = DIRECTION('', (1., -0., 0.));
#677 = AXIS2_PLACEMENT_3D('', #675, #676, $);
#678 = PLANE('', #677);
#679 = CARTESIAN_POINT('', (-0., 0.0282, 0.));
#680 = DIRECTION('', (0., 1., -0.));
#681 = AXIS2_PLACEMENT_3D('', #679, #680, $);
#682 = PLANE('', #681);
#683 = CARTESIAN_POINT('', (-0.05, -0., 0.));
#684 = DIRECTION('', (-1., -0., 0.));
#685 = AXIS2_PLACEMENT_3D('', #683, #684, $);
#686 = PLANE('', #685);
#687 = CARTESIAN_POINT('', (0., -0.0282, 0.));
#688 = DIRECTION('', (0., -1., 0.));
#689 = AXIS2_PLACEMENT_3D('', #687, #688, $);
#690 = PLANE('', #689);
#691 = CARTESIAN_POINT('', (0., 0., -0.0035));
#692 = DIRECTION('', (0., -0., 1.));
#693 = AXIS2_PLACEMENT_3D('', #691, #692, $);
#694 = PLANE('', #693);
#695 = CARTESIAN_POINT('', (0., 0., 0.0035));
#696 = DIRECTION('', (0., -0., 1.));
#697 = AXIS2_PLACEMENT_3D('', #695, #696, $);
#698 = PLANE('', #697);
#699 = CARTESIAN_POINT('', (0., -0., 0.));
#700 = DIRECTION('', (0., -0., 1.));
#701 = DIRECTION('', (1., 0., 0.));
#702 = AXIS2_PLACEMENT_3D('', #699, #700, #701);
#703 = CYLINDRICAL_SURFACE('', #702, 0.011);
#704 = CARTESIAN_POINT('', (-0.02357, -0.02357, 0.));
#705 = DIRECTION('', (0., -0., 1.));
#706 = DIRECTION('', (1., 0., 0.));
#707 = AXIS2_PLACEMENT_3D('', #704, #705, #706);
#708 = CYLINDRICAL_SURFACE('', #707, 0.00275);
#709 = CARTESIAN_POINT('', (-0.02357, 0.02357, 0.));
#710 = DIRECTION('', (0., -0., 1.));
#711 = DIRECTION('', (1., 0., 0.));
#712 = AXIS2_PLACEMENT_3D('', #709, #710, #711);
#713 = CYLINDRICAL_SURFACE('', #712, 0.00275);
#714 = CARTESIAN_POINT('', (0.02357, -0.02357, 0.));
#715 = DIRECTION('', (0., -0., 1.));
#716 = DIRECTION('', (1., 0., 0.));
#717 = AXIS2_PLACEMENT_3D('', #714, #715, #716);
#718 = CYLINDRICAL_SURFACE('', #717, 0.00275);
#719 = CARTESIAN_POINT('', (0.02357, 0.02357, 0.));
#720 = DIRECTION('', (0., -0., 1.));
#721 = DIRECTION('', (1., 0., 0.));
#722 = AXIS2_PLACEMENT_3D('', #719, #720, #721);
#723 = CYLINDRICAL_SURFACE('', #722, 0.00275);
#724 = CARTESIAN_POINT('', (-0.03725, 0., 0.));
#725 = DIRECTION('', (1., -0., 0.));
#726 = AXIS2_PLACEMENT_3D('', #724, #725, $);
#727 = PLANE('', #726);
#728 = CARTESIAN_POINT('', (-0.04275, 0., 0.));
#729 = DIRECTION('', (-1., -0., 0.));
#730 = AXIS2_PLACEMENT_3D('', #728, #729, $);
#731 = PLANE('', #730);
#732 = CARTESIAN_POINT('', (0.04275, 0., 0.));
#733 = DIRECTION('', (1., -0., 0.));
#734 = AXIS2_PLACEMENT_3D('', #732, #733, $);
#735 = PLANE('', #734);
#736 = CARTESIAN_POINT('', (0.03725, 0., 0.));
#737 = DIRECTION('', (-1., -0., 0.));
#738 = AXIS2_PLACEMENT_3D('', #736, #737, $);
#739 = PLANE('', #738);
#740 = CARTESIAN_POINT('', (-0.04, -0.00475, 0.));
#741 = DIRECTION('', (0., -0., 1.));
#742 = DIRECTION('', (1., 0., 0.));
#743 = AXIS2_PLACEMENT_3D('', #740, #741, #742);
#744 = CYLINDRICAL_SURFACE('', #743, 0.00275);
#745 = CARTESIAN_POINT('', (0.04, -0.00475, 0.));
#746 = DIRECTION('', (0., -0., 1.));
#747 = DIRECTION('', (1., 0., 0.));
#748 = AXIS2_PLACEMENT_3D('', #745, #746, #747);
#749 = CYLINDRICAL_SURFACE('', #748, 0.00275);
#750 = CARTESIAN_POINT('', (-0.04, 0.00475, 0.));
#751 = DIRECTION('', (0., -0., 1.));
#752 = DIRECTION('', (1., 0., 0.));
#753 = AXIS2_PLACEMENT_3D('', #750, #751, #752);
#754 = CYLINDRICAL_SURFACE('', #753, 0.00275);
#755 = CARTESIAN_POINT('', (0.04, 0.00475, 0.));
#756 = DIRECTION('', (0., -0., 1.));
#757 = DIRECTION('', (1., 0., 0.));
#758 = AXIS2_PLACEMENT_3D('', #755, #756, #757);
#759 = CYLINDRICAL_SURFACE('', #758, 0.00275);
#760 = ORIENTED_EDGE('', *, *, #581, .T.);
#761 = ORIENTED_EDGE('', *, *, #582, .T.);
#762 = ORIENTED_EDGE('', *, *, #583, .F.);
#763 = ORIENTED_EDGE('', *, *, #584, .F.);
#764 = EDGE_LOOP('', (#760, #761, #762, #763));
#765 = FACE_BOUND('', #764, .T.);
#766 = ADVANCED_FACE('', (#765), #678, .T.);
#767 = ORIENTED_EDGE('', *, *, #585, .T.);
#768 = ORIENTED_EDGE('', *, *, #586, .T.);
#769 = ORIENTED_EDGE('', *, *, #587, .F.);
#770 = ORIENTED_EDGE('', *, *, #582, .F.);
#771 = EDGE_LOOP('', (#767, #768, #769, #770));
#772 = FACE_BOUND('', #771, .T.);
#773 = ADVANCED_FACE('', (#772), #682, .T.);
#774 = ORIENTED_EDGE('', *, *, #588, .T.);
#775 = ORIENTED_EDGE('', *, *, #589, .T.);
#776 = ORIENTED_EDGE('', *, *, #590, .F.);
#777 = ORIENTED_EDGE('', *, *, #586, .F.);
#778 = EDGE_LOOP('', (#774, #775, #776, #777));
#779 = FACE_BOUND('', #778, .T.);
#780 = ADVANCED_FACE('', (#779), #686, .T.);
#781 = ORIENTED_EDGE('', *, *, #591, .T.);
#782 = ORIENTED_EDGE('', *, *, #584, .T.);
#783 = ORIENTED_EDGE('', *, *, #592, .F.);
#784 = ORIENTED_EDGE('', *, *, #589, .F.);
#785 = EDGE_LOOP('', (#781, #782, #783, #784));
#786 = FACE_BOUND('', #785, .T.);
#787 = ADVANCED_FACE('', (#786), #690, .T.);
#788 = ORIENTED_EDGE('', *, *, #591, .F.);
#789 = ORIENTED_EDGE('', *, *, #588, .F.);
#790 = ORIENTED_EDGE('', *, *, #585, .F.);
#791 = ORIENTED_EDGE('', *, *, #581, .F.);
#792 = ORIENTED_EDGE('', *, *, #598, .T.);
#793 = ORIENTED_EDGE('', *, *, #597, .F.);
#794 = ORIENTED_EDGE('', *, *, #594, .F.);
#795 = ORIENTED_EDGE('', *, *, #593, .T.);
#796 = ORIENTED_EDGE('', *, *, #608, .T.);
#797 = ORIENTED_EDGE('', *, *, #607, .F.);
#798 = ORIENTED_EDGE('', *, *, #604, .F.);
#799 = ORIENTED_EDGE('', *, *, #603, .T.);
#800 = ORIENTED_EDGE('', *, *, #618, .T.);
#801 = ORIENTED_EDGE('', *, *, #617, .F.);
#802 = ORIENTED_EDGE('', *, *, #614, .F.);
#803 = ORIENTED_EDGE('', *, *, #613, .T.);
#804 = ORIENTED_EDGE('', *, *, #628, .T.);
#805 = ORIENTED_EDGE('', *, *, #627, .F.);
#806 = ORIENTED_EDGE('', *, *, #624, .F.);
#807 = ORIENTED_EDGE('', *, *, #623, .T.);
#808 = ORIENTED_EDGE('', *, *, #638, .T.);
#809 = ORIENTED_EDGE('', *, *, #637, .F.);
#810 = ORIENTED_EDGE('', *, *, #634, .F.);
#811 = ORIENTED_EDGE('', *, *, #633, .T.);
#812 = ORIENTED_EDGE('', *, *, #667, .T.);
#813 = ORIENTED_EDGE('', *, *, #669, .T.);
#814 = ORIENTED_EDGE('', *, *, #644, .T.);
#815 = ORIENTED_EDGE('', *, *, #661, .F.);
#816 = ORIENTED_EDGE('', *, *, #659, .F.);
#817 = ORIENTED_EDGE('', *, *, #643, .T.);
#818 = ORIENTED_EDGE('', *, *, #671, .T.);
#819 = ORIENTED_EDGE('', *, *, #673, .T.);
#820 = ORIENTED_EDGE('', *, *, #652, .T.);
#821 = ORIENTED_EDGE('', *, *, #665, .F.);
#822 = ORIENTED_EDGE('', *, *, #663, .F.);
#823 = ORIENTED_EDGE('', *, *, #651, .T.);
#824 = EDGE_LOOP('', (#788, #789, #790, #791));
#825 = FACE_BOUND('', #824, .T.);
#826 = EDGE_LOOP('', (#792, #793, #794, #795));
#827 = FACE_BOUND('', #826, .T.);
#828 = EDGE_LOOP('', (#796, #797, #798, #799));
#829 = FACE_BOUND('', #828, .T.);
#830 = EDGE_LOOP('', (#800, #801, #802, #803));
#831 = FACE_BOUND('', #830, .T.);
#832 = EDGE_LOOP('', (#804, #805, #806, #807));
#833 = FACE_BOUND('', #832, .T.);
#834 = EDGE_LOOP('', (#808, #809, #810, #811));
#835 = FACE_BOUND('', #834, .T.);
#836 = EDGE_LOOP('', (#812, #813, #814, #815, #816, #817));
#837 = FACE_BOUND('', #836, .T.);
#838 = EDGE_LOOP('', (#818, #819, #820, #821, #822, #823));
#839 = FACE_BOUND('', #838, .T.);
#840 = ADVANCED_FACE('', (#825, #827, #829, #831, #833, #835, #837, #839), #694, .F.);
#841 = ORIENTED_EDGE('', *, *, #583, .T.);
#842 = ORIENTED_EDGE('', *, *, #587, .T.);
#843 = ORIENTED_EDGE('', *, *, #590, .T.);
#844 = ORIENTED_EDGE('', *, *, #592, .T.);
#845 = ORIENTED_EDGE('', *, *, #595, .F.);
#846 = ORIENTED_EDGE('', *, *, #596, .T.);
#847 = ORIENTED_EDGE('', *, *, #599, .T.);
#848 = ORIENTED_EDGE('', *, *, #600, .F.);
#849 = ORIENTED_EDGE('', *, *, #605, .F.);
#850 = ORIENTED_EDGE('', *, *, #606, .T.);
#851 = ORIENTED_EDGE('', *, *, #609, .T.);
#852 = ORIENTED_EDGE('', *, *, #610, .F.);
#853 = ORIENTED_EDGE('', *, *, #615, .F.);
#854 = ORIENTED_EDGE('', *, *, #616, .T.);
#855 = ORIENTED_EDGE('', *, *, #619, .T.);
#856 = ORIENTED_EDGE('', *, *, #620, .F.);
#857 = ORIENTED_EDGE('', *, *, #625, .F.);
#858 = ORIENTED_EDGE('', *, *, #626, .T.);
#859 = ORIENTED_EDGE('', *, *, #629, .T.);
#860 = ORIENTED_EDGE('', *, *, #630, .F.);
#861 = ORIENTED_EDGE('', *, *, #635, .F.);
#862 = ORIENTED_EDGE('', *, *, #636, .T.);
#863 = ORIENTED_EDGE('', *, *, #639, .T.);
#864 = ORIENTED_EDGE('', *, *, #640, .F.);
#865 = ORIENTED_EDGE('', *, *, #645, .F.);
#866 = ORIENTED_EDGE('', *, *, #660, .T.);
#867 = ORIENTED_EDGE('', *, *, #662, .T.);
#868 = ORIENTED_EDGE('', *, *, #646, .F.);
#869 = ORIENTED_EDGE('', *, *, #670, .F.);
#870 = ORIENTED_EDGE('', *, *, #668, .F.);
#871 = ORIENTED_EDGE('', *, *, #653, .F.);
#872 = ORIENTED_EDGE('', *, *, #664, .T.);
#873 = ORIENTED_EDGE('', *, *, #666, .T.);
#874 = ORIENTED_EDGE('', *, *, #654, .F.);
#875 = ORIENTED_EDGE('', *, *, #674, .F.);
#876 = ORIENTED_EDGE('', *, *, #672, .F.);
#877 = EDGE_LOOP('', (#841, #842, #843, #844));
#878 = FACE_BOUND('', #877, .T.);
#879 = EDGE_LOOP('', (#845, #846, #847, #848));
#880 = FACE_BOUND('', #879, .T.);
#881 = EDGE_LOOP('', (#849, #850, #851, #852));
#882 = FACE_BOUND('', #881, .T.);
#883 = EDGE_LOOP('', (#853, #854, #855, #856));
#884 = FACE_BOUND('', #883, .T.);
#885 = EDGE_LOOP('', (#857, #858, #859, #860));
#886 = FACE_BOUND('', #885, .T.);
#887 = EDGE_LOOP('', (#861, #862, #863, #864));
#888 = FACE_BOUND('', #887, .T.);
#889 = EDGE_LOOP('', (#865, #866, #867, #868, #869, #870));
#890 = FACE_BOUND('', #889, .T.);
#891 = EDGE_LOOP('', (#871, #872, #873, #874, #875, #876));
#892 = FACE_BOUND('', #891, .T.);
#893 = ADVANCED_FACE('', (#878, #880, #882, #884, #886, #888, #890, #892), #698, .T.);
#894 = ORIENTED_EDGE('', *, *, #598, .F.);
#895 = ORIENTED_EDGE('', *, *, #593, .F.);
#896 = ORIENTED_EDGE('', *, *, #602, .T.);
#897 = ORIENTED_EDGE('', *, *, #595, .T.);
#898 = ORIENTED_EDGE('', *, *, #600, .T.);
#899 = ORIENTED_EDGE('', *, *, #601, .F.);
#900 = EDGE_LOOP('', (#894, #895, #896, #897, #898, #899));
#901 = FACE_BOUND('', #900, .T.);
#902 = ADVANCED_FACE('', (#901), #703, .F.);
#903 = ORIENTED_EDGE('', *, *, #599, .F.);
#904 = ORIENTED_EDGE('', *, *, #596, .F.);
#905 = ORIENTED_EDGE('', *, *, #602, .F.);
#906 = ORIENTED_EDGE('', *, *, #594, .T.);
#907 = ORIENTED_EDGE('', *, *, #597, .T.);
#908 = ORIENTED_EDGE('', *, *, #601, .T.);
#909 = EDGE_LOOP('', (#903, #904, #905, #906, #907, #908));
#910 = FACE_BOUND('', #909, .T.);
#911 = ADVANCED_FACE('', (#910), #703, .F.);
#912 = ORIENTED_EDGE('', *, *, #608, .F.);
#913 = ORIENTED_EDGE('', *, *, #603, .F.);
#914 = ORIENTED_EDGE('', *, *, #612, .T.);
#915 = ORIENTED_EDGE('', *, *, #605, .T.);
#916 = ORIENTED_EDGE('', *, *, #610, .T.);
#917 = ORIENTED_EDGE('', *, *, #611, .F.);
#918 = EDGE_LOOP('', (#912, #913, #914, #915, #916, #917));
#919 = FACE_BOUND('', #918, .T.);
#920 = ADVANCED_FACE('', (#919), #708, .F.);
#921 = ORIENTED_EDGE('', *, *, #609, .F.);
#922 = ORIENTED_EDGE('', *, *, #606, .F.);
#923 = ORIENTED_EDGE('', *, *, #612, .F.);
#924 = ORIENTED_EDGE('', *, *, #604, .T.);
#925 = ORIENTED_EDGE('', *, *, #607, .T.);
#926 = ORIENTED_EDGE('', *, *, #611, .T.);
#927 = EDGE_LOOP('', (#921, #922, #923, #924, #925, #926));
#928 = FACE_BOUND('', #927, .T.);
#929 = ADVANCED_FACE('', (#928), #708, .F.);
#930 = ORIENTED_EDGE('', *, *, #618, .F.);
#931 = ORIENTED_EDGE('', *, *, #613, .F.);
#932 = ORIENTED_EDGE('', *, *, #622, .T.);
#933 = ORIENTED_EDGE('', *, *, #615, .T.);
#934 = ORIENTED_EDGE('', *, *, #620, .T.);
#935 = ORIENTED_EDGE('', *, *, #621, .F.);
#936 = EDGE_LOOP('', (#930, #931, #932, #933, #934, #935));
#937 = FACE_BOUND('', #936, .T.);
#938 = ADVANCED_FACE('', (#937), #713, .F.);
#939 = ORIENTED_EDGE('', *, *, #619, .F.);
#940 = ORIENTED_EDGE('', *, *, #616, .F.);
#941 = ORIENTED_EDGE('', *, *, #622, .F.);
#942 = ORIENTED_EDGE('', *, *, #614, .T.);
#943 = ORIENTED_EDGE('', *, *, #617, .T.);
#944 = ORIENTED_EDGE('', *, *, #621, .T.);
#945 = EDGE_LOOP('', (#939, #940, #941, #942, #943, #944));
#946 = FACE_BOUND('', #945, .T.);
#947 = ADVANCED_FACE('', (#946), #713, .F.);
#948 = ORIENTED_EDGE('', *, *, #628, .F.);
#949 = ORIENTED_EDGE('', *, *, #623, .F.);
#950 = ORIENTED_EDGE('', *, *, #632, .T.);
#951 = ORIENTED_EDGE('', *, *, #625, .T.);
#952 = ORIENTED_EDGE('', *, *, #630, .T.);
#953 = ORIENTED_EDGE('', *, *, #631, .F.);
#954 = EDGE_LOOP('', (#948, #949, #950, #951, #952, #953));
#955 = FACE_BOUND('', #954, .T.);
#956 = ADVANCED_FACE('', (#955), #718, .F.);
#957 = ORIENTED_EDGE('', *, *, #629, .F.);
#958 = ORIENTED_EDGE('', *, *, #626, .F.);
#959 = ORIENTED_EDGE('', *, *, #632, .F.);
#960 = ORIENTED_EDGE('', *, *, #624, .T.);
#961 = ORIENTED_EDGE('', *, *, #627, .T.);
#962 = ORIENTED_EDGE('', *, *, #631, .T.);
#963 = EDGE_LOOP('', (#957, #958, #959, #960, #961, #962));
#964 = FACE_BOUND('', #963, .T.);
#965 = ADVANCED_FACE('', (#964), #718, .F.);
#966 = ORIENTED_EDGE('', *, *, #638, .F.);
#967 = ORIENTED_EDGE('', *, *, #633, .F.);
#968 = ORIENTED_EDGE('', *, *, #642, .T.);
#969 = ORIENTED_EDGE('', *, *, #635, .T.);
#970 = ORIENTED_EDGE('', *, *, #640, .T.);
#971 = ORIENTED_EDGE('', *, *, #641, .F.);
#972 = EDGE_LOOP('', (#966, #967, #968, #969, #970, #971));
#973 = FACE_BOUND('', #972, .T.);
#974 = ADVANCED_FACE('', (#973), #723, .F.);
#975 = ORIENTED_EDGE('', *, *, #639, .F.);
#976 = ORIENTED_EDGE('', *, *, #636, .F.);
#977 = ORIENTED_EDGE('', *, *, #642, .F.);
#978 = ORIENTED_EDGE('', *, *, #634, .T.);
#979 = ORIENTED_EDGE('', *, *, #637, .T.);
#980 = ORIENTED_EDGE('', *, *, #641, .T.);
#981 = EDGE_LOOP('', (#975, #976, #977, #978, #979, #980));
#982 = FACE_BOUND('', #981, .T.);
#983 = ADVANCED_FACE('', (#982), #723, .F.);
#984 = ORIENTED_EDGE('', *, *, #644, .F.);
#985 = ORIENTED_EDGE('', *, *, #648, .T.);
#986 = ORIENTED_EDGE('', *, *, #646, .T.);
#987 = ORIENTED_EDGE('', *, *, #647, .F.);
#988 = EDGE_LOOP('', (#984, #985, #986, #987));
#989 = FACE_BOUND('', #988, .T.);
#990 = ADVANCED_FACE('', (#989), #731, .F.);
#991 = ORIENTED_EDGE('', *, *, #643, .F.);
#992 = ORIENTED_EDGE('', *, *, #650, .T.);
#993 = ORIENTED_EDGE('', *, *, #645, .T.);
#994 = ORIENTED_EDGE('', *, *, #649, .F.);
#995 = EDGE_LOOP('', (#991, #992, #993, #994));
#996 = FACE_BOUND('', #995, .T.);
#997 = ADVANCED_FACE('', (#996), #727, .F.);
#998 = ORIENTED_EDGE('', *, *, #652, .F.);
#999 = ORIENTED_EDGE('', *, *, #656, .T.);
#1000 = ORIENTED_EDGE('', *, *, #654, .T.);
#1001 = ORIENTED_EDGE('', *, *, #655, .F.);
#1002 = EDGE_LOOP('', (#998, #999, #1000, #1001));
#1003 = FACE_BOUND('', #1002, .T.);
#1004 = ADVANCED_FACE('', (#1003), #739, .F.);
#1005 = ORIENTED_EDGE('', *, *, #651, .F.);
#1006 = ORIENTED_EDGE('', *, *, #658, .T.);
#1007 = ORIENTED_EDGE('', *, *, #653, .T.);
#1008 = ORIENTED_EDGE('', *, *, #657, .F.);
#1009 = EDGE_LOOP('', (#1005, #1006, #1007, #1008));
#1010 = FACE_BOUND('', #1009, .T.);
#1011 = ADVANCED_FACE('', (#1010), #735, .F.);
#1012 = ORIENTED_EDGE('', *, *, #662, .F.);
#1013 = ORIENTED_EDGE('', *, *, #660, .F.);
#1014 = ORIENTED_EDGE('', *, *, #650, .F.);
#1015 = ORIENTED_EDGE('', *, *, #659, .T.);
#1016 = ORIENTED_EDGE('', *, *, #661, .T.);
#1017 = ORIENTED_EDGE('', *, *, #647, .T.);
#1018 = EDGE_LOOP('', (#1012, #1013, #1014, #1015, #1016, #1017));
#1019 = FACE_BOUND('', #1018, .T.);
#1020 = ADVANCED_FACE('', (#1019), #744, .F.);
#1021 = ORIENTED_EDGE('', *, *, #666, .F.);
#1022 = ORIENTED_EDGE('', *, *, #664, .F.);
#1023 = ORIENTED_EDGE('', *, *, #658, .F.);
#1024 = ORIENTED_EDGE('', *, *, #663, .T.);
#1025 = ORIENTED_EDGE('', *, *, #665, .T.);
#1026 = ORIENTED_EDGE('', *, *, #655, .T.);
#1027 = EDGE_LOOP('', (#1021, #1022, #1023, #1024, #1025, #1026));
#1028 = FACE_BOUND('', #1027, .T.);
#1029 = ADVANCED_FACE('', (#1028), #749, .F.);
#1030 = ORIENTED_EDGE('', *, *, #669, .F.);
#1031 = ORIENTED_EDGE('', *, *, #667, .F.);
#1032 = ORIENTED_EDGE('', *, *, #649, .T.);
#1033 = ORIENTED_EDGE('', *, *, #668, .T.);
#1034 = ORIENTED_EDGE('', *, *, #670, .T.);
#1035 = ORIENTED_EDGE('', *, *, #648, .F.);
#1036 = EDGE_LOOP('', (#1030, #1031, #1032, #1033, #1034, #1035));
#1037 = FACE_BOUND('', #1036, .T.);
#1038 = ADVANCED_FACE('', (#1037), #754, .F.);
#1039 = ORIENTED_EDGE('', *, *, #673, .F.);
#1040 = ORIENTED_EDGE('', *, *, #671, .F.);
#1041 = ORIENTED_EDGE('', *, *, #657, .T.);
#1042 = ORIENTED_EDGE('', *, *, #672, .T.);
#1043 = ORIENTED_EDGE('', *, *, #674, .T.);
#1044 = ORIENTED_EDGE('', *, *, #656, .F.);
#1045 = EDGE_LOOP('', (#1039, #1040, #1041, #1042, #1043, #1044));
#1046 = FACE_BOUND('', #1045, .T.);
#1047 = ADVANCED_FACE('', (#1046), #759, .F.);
#1048 = CLOSED_SHELL('', (#766, #773, #780, #787, #840, #893, #902, #911, #920, #929, #938, #947, #956, #965, #974, #983, #990, #997, #1004, #1011, #1020, #1029, #1038, #1047));
#1049 = MANIFOLD_SOLID_BREP('', #1048);
#1050 = APPLICATION_CONTEXT('configuration controlled 3D design of mechanical parts and assemblies');
#1051 = PRODUCT_DEFINITION_CONTEXT('part definition', #1050, 'design');
#1052 = PRODUCT_CONTEXT('', #1050, 'mechanical');
#1053 = PRODUCT('UNIDENTIFIED_PRODUCT', '', $, (#1052));
#1054 = PRODUCT_DEFINITION_FORMATION('', $, #1053);
#1055 = PRODUCT_DEFINITION('design', $, #1054, #1051);
#1056 = PRODUCT_DEFINITION_SHAPE('', '', #1055);
#1057 = ADVANCED_BREP_SHAPE_REPRESENTATION('', (#1049), #4);
#1058 = SHAPE_DEFINITION_REPRESENTATION(#1056, #1057);
#1059 = COLOUR_RGB('', 0.68235296, 0.71372551, 0.74901962);
#1060 = FILL_AREA_STYLE_COLOUR('', #1059);
#1061 = FILL_AREA_STYLE('', (#1060));
#1062 = SURFACE_STYLE_FILL_AREA(#1061);
#1063 = SURFACE_SIDE_STYLE('', (#1062));
#1064 = SURFACE_STYLE_USAGE(.BOTH., #1063);
#1065 = PRESENTATION_STYLE_ASSIGNMENT((#1064));
#1066 = STYLED_ITEM('', (#1065), #1049);
#1067 = MECHANICAL_DESIGN_GEOMETRIC_PRESENTATION_REPRESENTATION('', (#1066), #4);
ENDSEC;
END-ISO-10303-21;
