ISO-10303-21;
HEADER;
FILE_DESCRIPTION(('zoo.dev export'), '2;1');
FILE_NAME('output.step', '2026-08-04T21:38:51.661973573+00:00', (''), (''), 'zoo.dev beta', 'zoo.dev', '');
FILE_SCHEMA(('AP242_MANAGED_MODEL_BASED_3D_ENGINEERING_MIM_LF'));
ENDSEC;
DATA;
#1 = (
  LENGTH_UNIT()
  NAMED_UNIT(*)
  SI_UNIT($, .METRE.)
);
#2 = (
  NAMED_UNIT(*)
  PLANE_ANGLE_UNIT()
  SI_UNIT($, .RADIAN.)
);
#3 = UNCERTAINTY_MEASURE_WITH_UNIT(LENGTH_MEASURE(0.00001), #1, 'DISTANCE_ACCURACY_VALUE', $);
#4 = (
  GEOMETRIC_REPRESENTATION_CONTEXT(3)
  GLOBAL_UNCERTAINTY_ASSIGNED_CONTEXT((#3))
  GLOBAL_UNIT_ASSIGNED_CONTEXT((#1, #2))
  REPRESENTATION_CONTEXT('3D', '3D context')
);
#5 = CARTESIAN_POINT('', (0.0025, 0., -0.020525));
#6 = VERTEX_POINT('', #5);
#7 = CARTESIAN_POINT('', (0.0025, 0., 0.000525));
#8 = VERTEX_POINT('', #7);
#9 = CARTESIAN_POINT('', (0.011, 0., -0.001475));
#10 = VERTEX_POINT('', #9);
#11 = CARTESIAN_POINT('', (0.011, 0., 0.000525));
#12 = VERTEX_POINT('', #11);
#13 = CARTESIAN_POINT('', (0.02115, -0.02115, 0.000525));
#14 = VERTEX_POINT('', #13);
#15 = CARTESIAN_POINT('', (0.02115, 0.02115, 0.000525));
#16 = VERTEX_POINT('', #15);
#17 = CARTESIAN_POINT('', (0.02115, 0.02115, 0.040525));
#18 = VERTEX_POINT('', #17);
#19 = CARTESIAN_POINT('', (0.02115, -0.02115, 0.040525));
#20 = VERTEX_POINT('', #19);
#21 = CARTESIAN_POINT('', (-0.02115, 0.02115, 0.000525));
#22 = VERTEX_POINT('', #21);
#23 = CARTESIAN_POINT('', (-0.02115, 0.02115, 0.040525));
#24 = VERTEX_POINT('', #23);
#25 = CARTESIAN_POINT('', (-0.02115, -0.02115, 0.000525));
#26 = VERTEX_POINT('', #25);
#27 = CARTESIAN_POINT('', (-0.02115, -0.02115, 0.040525));
#28 = VERTEX_POINT('', #27);
#29 = CARTESIAN_POINT('', (0.04, -0.02115, -0.000525));
#30 = VERTEX_POINT('', #29);
#31 = CARTESIAN_POINT('', (0.04, 0.02115, -0.000525));
#32 = VERTEX_POINT('', #31);
#33 = CARTESIAN_POINT('', (0.04, 0.02115, 0.000525));
#34 = VERTEX_POINT('', #33);
#35 = CARTESIAN_POINT('', (0.04, -0.02115, 0.000525));
#36 = VERTEX_POINT('', #35);
#37 = CARTESIAN_POINT('', (-0.04, 0.02115, -0.000525));
#38 = VERTEX_POINT('', #37);
#39 = CARTESIAN_POINT('', (-0.04, 0.02115, 0.000525));
#40 = VERTEX_POINT('', #39);
#41 = CARTESIAN_POINT('', (-0.04, -0.02115, -0.000525));
#42 = VERTEX_POINT('', #41);
#43 = CARTESIAN_POINT('', (-0.04, -0.02115, 0.000525));
#44 = VERTEX_POINT('', #43);
#45 = CARTESIAN_POINT('', (-0.0138, -0.0155, -0.000525));
#46 = VERTEX_POINT('', #45);
#47 = CARTESIAN_POINT('', (-0.0172, -0.0155, -0.000525));
#48 = VERTEX_POINT('', #47);
#49 = CARTESIAN_POINT('', (-0.0138, -0.0155, 0.000525));
#50 = VERTEX_POINT('', #49);
#51 = CARTESIAN_POINT('', (-0.0172, -0.0155, 0.000525));
#52 = VERTEX_POINT('', #51);
#53 = CARTESIAN_POINT('', (-0.0155, -0.0172, -0.000525));
#54 = VERTEX_POINT('', #53);
#55 = CARTESIAN_POINT('', (-0.0155, -0.0138, -0.000525));
#56 = VERTEX_POINT('', #55);
#57 = CARTESIAN_POINT('', (-0.0155, -0.0172, 0.000525));
#58 = VERTEX_POINT('', #57);
#59 = CARTESIAN_POINT('', (-0.0155, -0.0138, 0.000525));
#60 = VERTEX_POINT('', #59);
#61 = CARTESIAN_POINT('', (-0.0138, 0.0155, -0.000525));
#62 = VERTEX_POINT('', #61);
#63 = CARTESIAN_POINT('', (-0.0172, 0.0155, -0.000525));
#64 = VERTEX_POINT('', #63);
#65 = CARTESIAN_POINT('', (-0.0138, 0.0155, 0.000525));
#66 = VERTEX_POINT('', #65);
#67 = CARTESIAN_POINT('', (-0.0172, 0.0155, 0.000525));
#68 = VERTEX_POINT('', #67);
#69 = CARTESIAN_POINT('', (-0.0155, 0.0138, -0.000525));
#70 = VERTEX_POINT('', #69);
#71 = CARTESIAN_POINT('', (-0.0155, 0.0172, -0.000525));
#72 = VERTEX_POINT('', #71);
#73 = CARTESIAN_POINT('', (-0.0155, 0.0138, 0.000525));
#74 = VERTEX_POINT('', #73);
#75 = CARTESIAN_POINT('', (-0.0155, 0.0172, 0.000525));
#76 = VERTEX_POINT('', #75);
#77 = CARTESIAN_POINT('', (0.0172, -0.0155, -0.000525));
#78 = VERTEX_POINT('', #77);
#79 = CARTESIAN_POINT('', (0.0138, -0.0155, -0.000525));
#80 = VERTEX_POINT('', #79);
#81 = CARTESIAN_POINT('', (0.0172, -0.0155, 0.000525));
#82 = VERTEX_POINT('', #81);
#83 = CARTESIAN_POINT('', (0.0138, -0.0155, 0.000525));
#84 = VERTEX_POINT('', #83);
#85 = CARTESIAN_POINT('', (0.0155, -0.0172, -0.000525));
#86 = VERTEX_POINT('', #85);
#87 = CARTESIAN_POINT('', (0.0155, -0.0138, -0.000525));
#88 = VERTEX_POINT('', #87);
#89 = CARTESIAN_POINT('', (0.0155, -0.0172, 0.000525));
#90 = VERTEX_POINT('', #89);
#91 = CARTESIAN_POINT('', (0.0155, -0.0138, 0.000525));
#92 = VERTEX_POINT('', #91);
#93 = CARTESIAN_POINT('', (0.0172, 0.0155, -0.000525));
#94 = VERTEX_POINT('', #93);
#95 = CARTESIAN_POINT('', (0.0138, 0.0155, -0.000525));
#96 = VERTEX_POINT('', #95);
#97 = CARTESIAN_POINT('', (0.0172, 0.0155, 0.000525));
#98 = VERTEX_POINT('', #97);
#99 = CARTESIAN_POINT('', (0.0138, 0.0155, 0.000525));
#100 = VERTEX_POINT('', #99);
#101 = CARTESIAN_POINT('', (0.0155, 0.0138, -0.000525));
#102 = VERTEX_POINT('', #101);
#103 = CARTESIAN_POINT('', (0.0155, 0.0172, -0.000525));
#104 = VERTEX_POINT('', #103);
#105 = CARTESIAN_POINT('', (0.0155, 0.0138, 0.000525));
#106 = VERTEX_POINT('', #105);
#107 = CARTESIAN_POINT('', (0.0155, 0.0172, 0.000525));
#108 = VERTEX_POINT('', #107);
#109 = CARTESIAN_POINT('', (0.011, 0., -0.000525));
#110 = VERTEX_POINT('', #109);
#111 = CARTESIAN_POINT('', (-0.011, 0., -0.000525));
#112 = VERTEX_POINT('', #111);
#113 = CARTESIAN_POINT('', (0.011, 0., 0.000525));
#114 = VERTEX_POINT('', #113);
#115 = CARTESIAN_POINT('', (-0.011, 0., 0.000525));
#116 = VERTEX_POINT('', #115);
#117 = CARTESIAN_POINT('', (-0., -0.011, -0.000525));
#118 = VERTEX_POINT('', #117);
#119 = CARTESIAN_POINT('', (0., 0.011, -0.000525));
#120 = VERTEX_POINT('', #119);
#121 = CARTESIAN_POINT('', (-0., -0.011, 0.000525));
#122 = VERTEX_POINT('', #121);
#123 = CARTESIAN_POINT('', (0., 0.011, 0.000525));
#124 = VERTEX_POINT('', #123);
#125 = CARTESIAN_POINT('', (-0.02725, 0.00475, -0.000525));
#126 = VERTEX_POINT('', #125);
#127 = CARTESIAN_POINT('', (-0.03275, 0.00475, -0.000525));
#128 = VERTEX_POINT('', #127);
#129 = CARTESIAN_POINT('', (-0.03275, -0.00475, -0.000525));
#130 = VERTEX_POINT('', #129);
#131 = CARTESIAN_POINT('', (-0.02725, -0.00475, -0.000525));
#132 = VERTEX_POINT('', #131);
#133 = CARTESIAN_POINT('', (-0.02725, 0.00475, 0.000525));
#134 = VERTEX_POINT('', #133);
#135 = CARTESIAN_POINT('', (-0.03275, 0.00475, 0.000525));
#136 = VERTEX_POINT('', #135);
#137 = CARTESIAN_POINT('', (-0.03275, -0.00475, 0.000525));
#138 = VERTEX_POINT('', #137);
#139 = CARTESIAN_POINT('', (-0.02725, -0.00475, 0.000525));
#140 = VERTEX_POINT('', #139);
#141 = CARTESIAN_POINT('', (0.03275, 0.00475, -0.000525));
#142 = VERTEX_POINT('', #141);
#143 = CARTESIAN_POINT('', (0.02725, 0.00475, -0.000525));
#144 = VERTEX_POINT('', #143);
#145 = CARTESIAN_POINT('', (0.02725, -0.00475, -0.000525));
#146 = VERTEX_POINT('', #145);
#147 = CARTESIAN_POINT('', (0.03275, -0.00475, -0.000525));
#148 = VERTEX_POINT('', #147);
#149 = CARTESIAN_POINT('', (0.03275, 0.00475, 0.000525));
#150 = VERTEX_POINT('', #149);
#151 = CARTESIAN_POINT('', (0.02725, 0.00475, 0.000525));
#152 = VERTEX_POINT('', #151);
#153 = CARTESIAN_POINT('', (0.02725, -0.00475, 0.000525));
#154 = VERTEX_POINT('', #153);
#155 = CARTESIAN_POINT('', (0.03275, -0.00475, 0.000525));
#156 = VERTEX_POINT('', #155);
#157 = DIRECTION('', (1., 0., 0.));
#158 = DIRECTION('', (0., -0., 1.));
#159 = CARTESIAN_POINT('', (0., -0., -0.020525));
#160 = AXIS2_PLACEMENT_3D('', #159, #158, #157);
#161 = CIRCLE('', #160, 0.0025);
#162 = DIRECTION('', (0., -0., 1.));
#163 = VECTOR('', #162, 1.);
#164 = CARTESIAN_POINT('', (0.0025, 0., -0.020525));
#165 = LINE('', #164, #163);
#166 = DIRECTION('', (1., 0., 0.));
#167 = DIRECTION('', (0., -0., 1.));
#168 = CARTESIAN_POINT('', (0., -0., 0.000525));
#169 = AXIS2_PLACEMENT_3D('', #168, #167, #166);
#170 = CIRCLE('', #169, 0.0025);
#171 = DIRECTION('', (1., 0., 0.));
#172 = DIRECTION('', (0., -0., 1.));
#173 = CARTESIAN_POINT('', (0., -0., -0.001475));
#174 = AXIS2_PLACEMENT_3D('', #173, #172, #171);
#175 = CIRCLE('', #174, 0.011);
#176 = DIRECTION('', (0., -0., 1.));
#177 = VECTOR('', #176, 1.);
#178 = CARTESIAN_POINT('', (0.011, 0., -0.001475));
#179 = LINE('', #178, #177);
#180 = DIRECTION('', (1., 0., 0.));
#181 = DIRECTION('', (0., -0., 1.));
#182 = CARTESIAN_POINT('', (0., -0., 0.000525));
#183 = AXIS2_PLACEMENT_3D('', #182, #181, #180);
#184 = CIRCLE('', #183, 0.011);
#185 = DIRECTION('', (0., 1., 0.));
#186 = VECTOR('', #185, 1.);
#187 = CARTESIAN_POINT('', (0.02115, -0.02115, 0.000525));
#188 = LINE('', #187, #186);
#189 = DIRECTION('', (0., -0., 1.));
#190 = VECTOR('', #189, 1.);
#191 = CARTESIAN_POINT('', (0.02115, 0.02115, 0.000525));
#192 = LINE('', #191, #190);
#193 = DIRECTION('', (0., 1., 0.));
#194 = VECTOR('', #193, 1.);
#195 = CARTESIAN_POINT('', (0.02115, -0.02115, 0.040525));
#196 = LINE('', #195, #194);
#197 = DIRECTION('', (0., -0., 1.));
#198 = VECTOR('', #197, 1.);
#199 = CARTESIAN_POINT('', (0.02115, -0.02115, 0.000525));
#200 = LINE('', #199, #198);
#201 = DIRECTION('', (-1., -0., 0.));
#202 = VECTOR('', #201, 1.);
#203 = CARTESIAN_POINT('', (0.02115, 0.02115, 0.000525));
#204 = LINE('', #203, #202);
#205 = DIRECTION('', (0., -0., 1.));
#206 = VECTOR('', #205, 1.);
#207 = CARTESIAN_POINT('', (-0.02115, 0.02115, 0.000525));
#208 = LINE('', #207, #206);
#209 = DIRECTION('', (-1., -0., 0.));
#210 = VECTOR('', #209, 1.);
#211 = CARTESIAN_POINT('', (0.02115, 0.02115, 0.040525));
#212 = LINE('', #211, #210);
#213 = DIRECTION('', (0., -1., 0.));
#214 = VECTOR('', #213, 1.);
#215 = CARTESIAN_POINT('', (-0.02115, 0.02115, 0.000525));
#216 = LINE('', #215, #214);
#217 = DIRECTION('', (0., -0., 1.));
#218 = VECTOR('', #217, 1.);
#219 = CARTESIAN_POINT('', (-0.02115, -0.02115, 0.000525));
#220 = LINE('', #219, #218);
#221 = DIRECTION('', (0., -1., 0.));
#222 = VECTOR('', #221, 1.);
#223 = CARTESIAN_POINT('', (-0.02115, 0.02115, 0.040525));
#224 = LINE('', #223, #222);
#225 = DIRECTION('', (1., -0., 0.));
#226 = VECTOR('', #225, 1.);
#227 = CARTESIAN_POINT('', (-0.02115, -0.02115, 0.000525));
#228 = LINE('', #227, #226);
#229 = DIRECTION('', (1., -0., 0.));
#230 = VECTOR('', #229, 1.);
#231 = CARTESIAN_POINT('', (-0.02115, -0.02115, 0.040525));
#232 = LINE('', #231, #230);
#233 = DIRECTION('', (0., 1., 0.));
#234 = VECTOR('', #233, 1.);
#235 = CARTESIAN_POINT('', (0.04, -0.02115, -0.000525));
#236 = LINE('', #235, #234);
#237 = DIRECTION('', (0., -0., 1.));
#238 = VECTOR('', #237, 1.);
#239 = CARTESIAN_POINT('', (0.04, 0.02115, -0.000525));
#240 = LINE('', #239, #238);
#241 = DIRECTION('', (0., 1., 0.));
#242 = VECTOR('', #241, 1.);
#243 = CARTESIAN_POINT('', (0.04, -0.02115, 0.000525));
#244 = LINE('', #243, #242);
#245 = DIRECTION('', (0., -0., 1.));
#246 = VECTOR('', #245, 1.);
#247 = CARTESIAN_POINT('', (0.04, -0.02115, -0.000525));
#248 = LINE('', #247, #246);
#249 = DIRECTION('', (-1., -0., 0.));
#250 = VECTOR('', #249, 1.);
#251 = CARTESIAN_POINT('', (0.04, 0.02115, -0.000525));
#252 = LINE('', #251, #250);
#253 = DIRECTION('', (0., -0., 1.));
#254 = VECTOR('', #253, 1.);
#255 = CARTESIAN_POINT('', (-0.04, 0.02115, -0.000525));
#256 = LINE('', #255, #254);
#257 = DIRECTION('', (-1., -0., 0.));
#258 = VECTOR('', #257, 1.);
#259 = CARTESIAN_POINT('', (0.04, 0.02115, 0.000525));
#260 = LINE('', #259, #258);
#261 = DIRECTION('', (0., -1., 0.));
#262 = VECTOR('', #261, 1.);
#263 = CARTESIAN_POINT('', (-0.04, 0.02115, -0.000525));
#264 = LINE('', #263, #262);
#265 = DIRECTION('', (0., -0., 1.));
#266 = VECTOR('', #265, 1.);
#267 = CARTESIAN_POINT('', (-0.04, -0.02115, -0.000525));
#268 = LINE('', #267, #266);
#269 = DIRECTION('', (0., -1., 0.));
#270 = VECTOR('', #269, 1.);
#271 = CARTESIAN_POINT('', (-0.04, 0.02115, 0.000525));
#272 = LINE('', #271, #270);
#273 = DIRECTION('', (1., -0., 0.));
#274 = VECTOR('', #273, 1.);
#275 = CARTESIAN_POINT('', (-0.04, -0.02115, -0.000525));
#276 = LINE('', #275, #274);
#277 = DIRECTION('', (1., -0., 0.));
#278 = VECTOR('', #277, 1.);
#279 = CARTESIAN_POINT('', (-0.04, -0.02115, 0.000525));
#280 = LINE('', #279, #278);
#281 = DIRECTION('', (1., -0., 0.));
#282 = DIRECTION('', (-0., -0., 1.));
#283 = CARTESIAN_POINT('', (-0.0155, -0.0155, -0.000525));
#284 = AXIS2_PLACEMENT_3D('', #283, #282, #281);
#285 = CIRCLE('', #284, 0.0017);
#286 = DIRECTION('', (1., 0., 0.));
#287 = DIRECTION('', (0., 0., -1.));
#288 = CARTESIAN_POINT('', (-0.0155, -0.0155, -0.000525));
#289 = AXIS2_PLACEMENT_3D('', #288, #287, #286);
#290 = CIRCLE('', #289, 0.0017);
#291 = DIRECTION('', (1., -0., -0.));
#292 = DIRECTION('', (0., 0., 1.));
#293 = CARTESIAN_POINT('', (-0.0155, -0.0155, 0.000525));
#294 = AXIS2_PLACEMENT_3D('', #293, #292, #291);
#295 = CIRCLE('', #294, 0.0017);
#296 = DIRECTION('', (1., 0., 0.));
#297 = DIRECTION('', (0., -0., -1.));
#298 = CARTESIAN_POINT('', (-0.0155, -0.0155, 0.000525));
#299 = AXIS2_PLACEMENT_3D('', #298, #297, #296);
#300 = CIRCLE('', #299, 0.0017);
#301 = DIRECTION('', (0.00000001, -1., 0.));
#302 = DIRECTION('', (-0., -0., -1.));
#303 = CARTESIAN_POINT('', (-0.0155, -0.0155, -0.000525));
#304 = AXIS2_PLACEMENT_3D('', #303, #302, #301);
#305 = CIRCLE('', #304, 0.0017);
#306 = DIRECTION('', (-0.00000001, 1., -0.));
#307 = DIRECTION('', (0., 0., 1.));
#308 = CARTESIAN_POINT('', (-0.0155, -0.0155, -0.000525));
#309 = AXIS2_PLACEMENT_3D('', #308, #307, #306);
#310 = CIRCLE('', #309, 0.0017);
#311 = DIRECTION('', (-0.00000001, -1., 0.));
#312 = DIRECTION('', (-0., -0., -1.));
#313 = CARTESIAN_POINT('', (-0.0155, -0.0155, 0.000525));
#314 = AXIS2_PLACEMENT_3D('', #313, #312, #311);
#315 = CIRCLE('', #314, 0.0017);
#316 = DIRECTION('', (0.00000001, 1., 0.));
#317 = DIRECTION('', (0., -0., 1.));
#318 = CARTESIAN_POINT('', (-0.0155, -0.0155, 0.000525));
#319 = AXIS2_PLACEMENT_3D('', #318, #317, #316);
#320 = CIRCLE('', #319, 0.0017);
#321 = DIRECTION('', (0., -0., 1.));
#322 = VECTOR('', #321, 1.);
#323 = CARTESIAN_POINT('', (-0.0172, -0.0155, -0.000525));
#324 = LINE('', #323, #322);
#325 = DIRECTION('', (0., -0., 1.));
#326 = VECTOR('', #325, 1.);
#327 = CARTESIAN_POINT('', (-0.0138, -0.0155, -0.000525));
#328 = LINE('', #327, #326);
#329 = DIRECTION('', (1., -0., -0.));
#330 = DIRECTION('', (0., 0., 1.));
#331 = CARTESIAN_POINT('', (-0.0155, 0.0155, -0.000525));
#332 = AXIS2_PLACEMENT_3D('', #331, #330, #329);
#333 = CIRCLE('', #332, 0.0017);
#334 = DIRECTION('', (1., 0., 0.));
#335 = DIRECTION('', (0., -0., -1.));
#336 = CARTESIAN_POINT('', (-0.0155, 0.0155, -0.000525));
#337 = AXIS2_PLACEMENT_3D('', #336, #335, #334);
#338 = CIRCLE('', #337, 0.0017);
#339 = DIRECTION('', (1., -0., -0.));
#340 = DIRECTION('', (0., 0., 1.));
#341 = CARTESIAN_POINT('', (-0.0155, 0.0155, 0.000525));
#342 = AXIS2_PLACEMENT_3D('', #341, #340, #339);
#343 = CIRCLE('', #342, 0.0017);
#344 = DIRECTION('', (1., 0., -0.));
#345 = DIRECTION('', (-0., 0., -1.));
#346 = CARTESIAN_POINT('', (-0.0155, 0.0155, 0.000525));
#347 = AXIS2_PLACEMENT_3D('', #346, #345, #344);
#348 = CIRCLE('', #347, 0.0017);
#349 = DIRECTION('', (0.00000001, -1., 0.));
#350 = DIRECTION('', (-0., -0., -1.));
#351 = CARTESIAN_POINT('', (-0.0155, 0.0155, -0.000525));
#352 = AXIS2_PLACEMENT_3D('', #351, #350, #349);
#353 = CIRCLE('', #352, 0.0017);
#354 = DIRECTION('', (-0.00000001, 1., -0.));
#355 = DIRECTION('', (-0., 0., 1.));
#356 = CARTESIAN_POINT('', (-0.0155, 0.0155, -0.000525));
#357 = AXIS2_PLACEMENT_3D('', #356, #355, #354);
#358 = CIRCLE('', #357, 0.0017);
#359 = DIRECTION('', (-0.00000001, -1., -0.));
#360 = DIRECTION('', (0., 0., -1.));
#361 = CARTESIAN_POINT('', (-0.0155, 0.0155, 0.000525));
#362 = AXIS2_PLACEMENT_3D('', #361, #360, #359);
#363 = CIRCLE('', #362, 0.0017);
#364 = DIRECTION('', (0.00000001, 1., -0.));
#365 = DIRECTION('', (-0., 0., 1.));
#366 = CARTESIAN_POINT('', (-0.0155, 0.0155, 0.000525));
#367 = AXIS2_PLACEMENT_3D('', #366, #365, #364);
#368 = CIRCLE('', #367, 0.0017);
#369 = DIRECTION('', (0., -0., 1.));
#370 = VECTOR('', #369, 1.);
#371 = CARTESIAN_POINT('', (-0.0172, 0.0155, -0.000525));
#372 = LINE('', #371, #370);
#373 = DIRECTION('', (0., -0., 1.));
#374 = VECTOR('', #373, 1.);
#375 = CARTESIAN_POINT('', (-0.0138, 0.0155, -0.000525));
#376 = LINE('', #375, #374);
#377 = DIRECTION('', (1., -0., 0.));
#378 = DIRECTION('', (-0., -0., 1.));
#379 = CARTESIAN_POINT('', (0.0155, -0.0155, -0.000525));
#380 = AXIS2_PLACEMENT_3D('', #379, #378, #377);
#381 = CIRCLE('', #380, 0.0017);
#382 = DIRECTION('', (1., 0., -0.));
#383 = DIRECTION('', (-0., 0., -1.));
#384 = CARTESIAN_POINT('', (0.0155, -0.0155, -0.000525));
#385 = AXIS2_PLACEMENT_3D('', #384, #383, #382);
#386 = CIRCLE('', #385, 0.0017);
#387 = DIRECTION('', (1., -0., -0.));
#388 = DIRECTION('', (0., 0., 1.));
#389 = CARTESIAN_POINT('', (0.0155, -0.0155, 0.000525));
#390 = AXIS2_PLACEMENT_3D('', #389, #388, #387);
#391 = CIRCLE('', #390, 0.0017);
#392 = DIRECTION('', (1., 0., 0.));
#393 = DIRECTION('', (0., -0., -1.));
#394 = CARTESIAN_POINT('', (0.0155, -0.0155, 0.000525));
#395 = AXIS2_PLACEMENT_3D('', #394, #393, #392);
#396 = CIRCLE('', #395, 0.0017);
#397 = DIRECTION('', (0.00000001, -1., -0.));
#398 = DIRECTION('', (0., 0., -1.));
#399 = CARTESIAN_POINT('', (0.0155, -0.0155, -0.000525));
#400 = AXIS2_PLACEMENT_3D('', #399, #398, #397);
#401 = CIRCLE('', #400, 0.0017);
#402 = DIRECTION('', (-0.00000001, 1., 0.));
#403 = DIRECTION('', (0., -0., 1.));
#404 = CARTESIAN_POINT('', (0.0155, -0.0155, -0.000525));
#405 = AXIS2_PLACEMENT_3D('', #404, #403, #402);
#406 = CIRCLE('', #405, 0.0017);
#407 = DIRECTION('', (-0.00000001, -1., 0.));
#408 = DIRECTION('', (-0., -0., -1.));
#409 = CARTESIAN_POINT('', (0.0155, -0.0155, 0.000525));
#410 = AXIS2_PLACEMENT_3D('', #409, #408, #407);
#411 = CIRCLE('', #410, 0.0017);
#412 = DIRECTION('', (0.00000001, 1., 0.));
#413 = DIRECTION('', (0., -0., 1.));
#414 = CARTESIAN_POINT('', (0.0155, -0.0155, 0.000525));
#415 = AXIS2_PLACEMENT_3D('', #414, #413, #412);
#416 = CIRCLE('', #415, 0.0017);
#417 = DIRECTION('', (0., -0., 1.));
#418 = VECTOR('', #417, 1.);
#419 = CARTESIAN_POINT('', (0.0138, -0.0155, -0.000525));
#420 = LINE('', #419, #418);
#421 = DIRECTION('', (0., -0., 1.));
#422 = VECTOR('', #421, 1.);
#423 = CARTESIAN_POINT('', (0.0172, -0.0155, -0.000525));
#424 = LINE('', #423, #422);
#425 = DIRECTION('', (1., -0., -0.));
#426 = DIRECTION('', (0., 0., 1.));
#427 = CARTESIAN_POINT('', (0.0155, 0.0155, -0.000525));
#428 = AXIS2_PLACEMENT_3D('', #427, #426, #425);
#429 = CIRCLE('', #428, 0.0017);
#430 = DIRECTION('', (1., 0., 0.));
#431 = DIRECTION('', (0., 0., -1.));
#432 = CARTESIAN_POINT('', (0.0155, 0.0155, -0.000525));
#433 = AXIS2_PLACEMENT_3D('', #432, #431, #430);
#434 = CIRCLE('', #433, 0.0017);
#435 = DIRECTION('', (1., -0., 0.));
#436 = DIRECTION('', (0., 0., 1.));
#437 = CARTESIAN_POINT('', (0.0155, 0.0155, 0.000525));
#438 = AXIS2_PLACEMENT_3D('', #437, #436, #435);
#439 = CIRCLE('', #438, 0.0017);
#440 = DIRECTION('', (1., 0., 0.));
#441 = DIRECTION('', (0., 0., -1.));
#442 = CARTESIAN_POINT('', (0.0155, 0.0155, 0.000525));
#443 = AXIS2_PLACEMENT_3D('', #442, #441, #440);
#444 = CIRCLE('', #443, 0.0017);
#445 = DIRECTION('', (0.00000001, -1., -0.));
#446 = DIRECTION('', (0., 0., -1.));
#447 = CARTESIAN_POINT('', (0.0155, 0.0155, -0.000525));
#448 = AXIS2_PLACEMENT_3D('', #447, #446, #445);
#449 = CIRCLE('', #448, 0.0017);
#450 = DIRECTION('', (-0.00000001, 1., -0.));
#451 = DIRECTION('', (-0., 0., 1.));
#452 = CARTESIAN_POINT('', (0.0155, 0.0155, -0.000525));
#453 = AXIS2_PLACEMENT_3D('', #452, #451, #450);
#454 = CIRCLE('', #453, 0.0017);
#455 = DIRECTION('', (-0.00000001, -1., -0.));
#456 = DIRECTION('', (-0., 0., -1.));
#457 = CARTESIAN_POINT('', (0.0155, 0.0155, 0.000525));
#458 = AXIS2_PLACEMENT_3D('', #457, #456, #455);
#459 = CIRCLE('', #458, 0.0017);
#460 = DIRECTION('', (0.00000001, 1., -0.));
#461 = DIRECTION('', (0., 0., 1.));
#462 = CARTESIAN_POINT('', (0.0155, 0.0155, 0.000525));
#463 = AXIS2_PLACEMENT_3D('', #462, #461, #460);
#464 = CIRCLE('', #463, 0.0017);
#465 = DIRECTION('', (0., -0., 1.));
#466 = VECTOR('', #465, 1.);
#467 = CARTESIAN_POINT('', (0.0138, 0.0155, -0.000525));
#468 = LINE('', #467, #466);
#469 = DIRECTION('', (0., -0., 1.));
#470 = VECTOR('', #469, 1.);
#471 = CARTESIAN_POINT('', (0.0172, 0.0155, -0.000525));
#472 = LINE('', #471, #470);
#473 = DIRECTION('', (1., -0., 0.));
#474 = DIRECTION('', (-0., -0., 1.));
#475 = CARTESIAN_POINT('', (0., 0., -0.000525));
#476 = AXIS2_PLACEMENT_3D('', #475, #474, #473);
#477 = CIRCLE('', #476, 0.011);
#478 = DIRECTION('', (1., -0., 0.));
#479 = DIRECTION('', (0., -0., -1.));
#480 = CARTESIAN_POINT('', (-0., 0., -0.000525));
#481 = AXIS2_PLACEMENT_3D('', #480, #479, #478);
#482 = CIRCLE('', #481, 0.011);
#483 = DIRECTION('', (1., 0., -0.));
#484 = DIRECTION('', (0., -0., 1.));
#485 = CARTESIAN_POINT('', (-0., -0., 0.000525));
#486 = AXIS2_PLACEMENT_3D('', #485, #484, #483);
#487 = CIRCLE('', #486, 0.011);
#488 = DIRECTION('', (1., 0., 0.));
#489 = DIRECTION('', (0., -0., -1.));
#490 = CARTESIAN_POINT('', (0., -0., 0.000525));
#491 = AXIS2_PLACEMENT_3D('', #490, #489, #488);
#492 = CIRCLE('', #491, 0.011);
#493 = DIRECTION('', (-0., -1., 0.));
#494 = DIRECTION('', (-0., -0., -1.));
#495 = CARTESIAN_POINT('', (-0., -0., -0.000525));
#496 = AXIS2_PLACEMENT_3D('', #495, #494, #493);
#497 = CIRCLE('', #496, 0.011);
#498 = DIRECTION('', (0., 1., 0.));
#499 = DIRECTION('', (0., -0., 1.));
#500 = CARTESIAN_POINT('', (0., -0., -0.000525));
#501 = AXIS2_PLACEMENT_3D('', #500, #499, #498);
#502 = CIRCLE('', #501, 0.011);
#503 = DIRECTION('', (-0.00000014, -1., 0.));
#504 = DIRECTION('', (-0., -0., -1.));
#505 = CARTESIAN_POINT('', (0., 0., 0.000525));
#506 = AXIS2_PLACEMENT_3D('', #505, #504, #503);
#507 = CIRCLE('', #506, 0.011);
#508 = DIRECTION('', (0.00000014, 1., -0.));
#509 = DIRECTION('', (-0., 0., 1.));
#510 = CARTESIAN_POINT('', (-0., 0., 0.000525));
#511 = AXIS2_PLACEMENT_3D('', #510, #509, #508);
#512 = CIRCLE('', #511, 0.011);
#513 = DIRECTION('', (0., -0., 1.));
#514 = VECTOR('', #513, 1.);
#515 = CARTESIAN_POINT('', (-0.011, 0., -0.000525));
#516 = LINE('', #515, #514);
#517 = DIRECTION('', (0., -0., 1.));
#518 = VECTOR('', #517, 1.);
#519 = CARTESIAN_POINT('', (0.011, 0., -0.000525));
#520 = LINE('', #519, #518);
#521 = DIRECTION('', (1., -0., 0.));
#522 = DIRECTION('', (-0., -0., 1.));
#523 = CARTESIAN_POINT('', (-0.03, 0.00475, -0.000525));
#524 = AXIS2_PLACEMENT_3D('', #523, #522, #521);
#525 = CIRCLE('', #524, 0.00275);
#526 = DIRECTION('', (0., -1., 0.));
#527 = VECTOR('', #526, 1.);
#528 = CARTESIAN_POINT('', (-0.03275, 0.00475, -0.000525));
#529 = LINE('', #528, #527);
#530 = DIRECTION('', (1., 0., 0.));
#531 = DIRECTION('', (0., -0., -1.));
#532 = CARTESIAN_POINT('', (-0.03, -0.00475, -0.000525));
#533 = AXIS2_PLACEMENT_3D('', #532, #531, #530);
#534 = CIRCLE('', #533, 0.00275);
#535 = DIRECTION('', (0., 1., 0.));
#536 = VECTOR('', #535, 1.);
#537 = CARTESIAN_POINT('', (-0.02725, -0.00475, -0.000525));
#538 = LINE('', #537, #536);
#539 = DIRECTION('', (1., 0., 0.));
#540 = DIRECTION('', (0., -0., 1.));
#541 = CARTESIAN_POINT('', (-0.03, 0.00475, 0.000525));
#542 = AXIS2_PLACEMENT_3D('', #541, #540, #539);
#543 = CIRCLE('', #542, 0.00275);
#544 = DIRECTION('', (0., -1., 0.));
#545 = VECTOR('', #544, 1.);
#546 = CARTESIAN_POINT('', (-0.03275, 0.00475, 0.000525));
#547 = LINE('', #546, #545);
#548 = DIRECTION('', (1., -0., 0.));
#549 = DIRECTION('', (-0., -0., -1.));
#550 = CARTESIAN_POINT('', (-0.03, -0.00475, 0.000525));
#551 = AXIS2_PLACEMENT_3D('', #550, #549, #548);
#552 = CIRCLE('', #551, 0.00275);
#553 = DIRECTION('', (0., 1., 0.));
#554 = VECTOR('', #553, 1.);
#555 = CARTESIAN_POINT('', (-0.02725, -0.00475, 0.000525));
#556 = LINE('', #555, #554);
#557 = DIRECTION('', (0., -0., 1.));
#558 = VECTOR('', #557, 1.);
#559 = CARTESIAN_POINT('', (-0.02725, -0.00475, -0.000525));
#560 = LINE('', #559, #558);
#561 = DIRECTION('', (0., -0., 1.));
#562 = VECTOR('', #561, 1.);
#563 = CARTESIAN_POINT('', (-0.03275, -0.00475, -0.000525));
#564 = LINE('', #563, #562);
#565 = DIRECTION('', (0., -0., 1.));
#566 = VECTOR('', #565, 1.);
#567 = CARTESIAN_POINT('', (-0.03275, 0.00475, -0.000525));
#568 = LINE('', #567, #566);
#569 = DIRECTION('', (0., -0., 1.));
#570 = VECTOR('', #569, 1.);
#571 = CARTESIAN_POINT('', (-0.02725, 0.00475, -0.000525));
#572 = LINE('', #571, #570);
#573 = DIRECTION('', (1., -0., 0.));
#574 = DIRECTION('', (-0., -0., 1.));
#575 = CARTESIAN_POINT('', (0.03, 0.00475, -0.000525));
#576 = AXIS2_PLACEMENT_3D('', #575, #574, #573);
#577 = CIRCLE('', #576, 0.00275);
#578 = DIRECTION('', (0., -1., 0.));
#579 = VECTOR('', #578, 1.);
#580 = CARTESIAN_POINT('', (0.02725, 0.00475, -0.000525));
#581 = LINE('', #580, #579);
#582 = DIRECTION('', (1., 0., 0.));
#583 = DIRECTION('', (0., -0., -1.));
#584 = CARTESIAN_POINT('', (0.03, -0.00475, -0.000525));
#585 = AXIS2_PLACEMENT_3D('', #584, #583, #582);
#586 = CIRCLE('', #585, 0.00275);
#587 = DIRECTION('', (0., 1., 0.));
#588 = VECTOR('', #587, 1.);
#589 = CARTESIAN_POINT('', (0.03275, -0.00475, -0.000525));
#590 = LINE('', #589, #588);
#591 = DIRECTION('', (1., -0., 0.));
#592 = DIRECTION('', (-0., -0., 1.));
#593 = CARTESIAN_POINT('', (0.03, 0.00475, 0.000525));
#594 = AXIS2_PLACEMENT_3D('', #593, #592, #591);
#595 = CIRCLE('', #594, 0.00275);
#596 = DIRECTION('', (0., -1., 0.));
#597 = VECTOR('', #596, 1.);
#598 = CARTESIAN_POINT('', (0.02725, 0.00475, 0.000525));
#599 = LINE('', #598, #597);
#600 = DIRECTION('', (1., -0., 0.));
#601 = DIRECTION('', (0., 0., -1.));
#602 = CARTESIAN_POINT('', (0.03, -0.00475, 0.000525));
#603 = AXIS2_PLACEMENT_3D('', #602, #601, #600);
#604 = CIRCLE('', #603, 0.00275);
#605 = DIRECTION('', (0., 1., 0.));
#606 = VECTOR('', #605, 1.);
#607 = CARTESIAN_POINT('', (0.03275, -0.00475, 0.000525));
#608 = LINE('', #607, #606);
#609 = DIRECTION('', (0., -0., 1.));
#610 = VECTOR('', #609, 1.);
#611 = CARTESIAN_POINT('', (0.03275, -0.00475, -0.000525));
#612 = LINE('', #611, #610);
#613 = DIRECTION('', (0., -0., 1.));
#614 = VECTOR('', #613, 1.);
#615 = CARTESIAN_POINT('', (0.02725, -0.00475, -0.000525));
#616 = LINE('', #615, #614);
#617 = DIRECTION('', (0., -0., 1.));
#618 = VECTOR('', #617, 1.);
#619 = CARTESIAN_POINT('', (0.02725, 0.00475, -0.000525));
#620 = LINE('', #619, #618);
#621 = DIRECTION('', (0., -0., 1.));
#622 = VECTOR('', #621, 1.);
#623 = CARTESIAN_POINT('', (0.03275, 0.00475, -0.000525));
#624 = LINE('', #623, #622);
#625 = EDGE_CURVE('', #6, #6, #161, .T.);
#626 = EDGE_CURVE('', #6, #8, #165, .T.);
#627 = EDGE_CURVE('', #8, #8, #170, .T.);
#628 = EDGE_CURVE('', #10, #10, #175, .T.);
#629 = EDGE_CURVE('', #10, #12, #179, .T.);
#630 = EDGE_CURVE('', #12, #12, #184, .T.);
#631 = EDGE_CURVE('', #14, #16, #188, .T.);
#632 = EDGE_CURVE('', #16, #18, #192, .T.);
#633 = EDGE_CURVE('', #20, #18, #196, .T.);
#634 = EDGE_CURVE('', #14, #20, #200, .T.);
#635 = EDGE_CURVE('', #16, #22, #204, .T.);
#636 = EDGE_CURVE('', #22, #24, #208, .T.);
#637 = EDGE_CURVE('', #18, #24, #212, .T.);
#638 = EDGE_CURVE('', #22, #26, #216, .T.);
#639 = EDGE_CURVE('', #26, #28, #220, .T.);
#640 = EDGE_CURVE('', #24, #28, #224, .T.);
#641 = EDGE_CURVE('', #26, #14, #228, .T.);
#642 = EDGE_CURVE('', #28, #20, #232, .T.);
#643 = EDGE_CURVE('', #30, #32, #236, .T.);
#644 = EDGE_CURVE('', #32, #34, #240, .T.);
#645 = EDGE_CURVE('', #36, #34, #244, .T.);
#646 = EDGE_CURVE('', #30, #36, #248, .T.);
#647 = EDGE_CURVE('', #32, #38, #252, .T.);
#648 = EDGE_CURVE('', #38, #40, #256, .T.);
#649 = EDGE_CURVE('', #34, #40, #260, .T.);
#650 = EDGE_CURVE('', #38, #42, #264, .T.);
#651 = EDGE_CURVE('', #42, #44, #268, .T.);
#652 = EDGE_CURVE('', #40, #44, #272, .T.);
#653 = EDGE_CURVE('', #42, #30, #276, .T.);
#654 = EDGE_CURVE('', #44, #36, #280, .T.);
#655 = EDGE_CURVE('', #46, #56, #285, .T.);
#656 = EDGE_CURVE('', #46, #54, #290, .T.);
#657 = EDGE_CURVE('', #50, #60, #295, .T.);
#658 = EDGE_CURVE('', #50, #58, #300, .T.);
#659 = EDGE_CURVE('', #54, #48, #305, .T.);
#660 = EDGE_CURVE('', #56, #48, #310, .T.);
#661 = EDGE_CURVE('', #58, #52, #315, .T.);
#662 = EDGE_CURVE('', #60, #52, #320, .T.);
#663 = EDGE_CURVE('', #48, #52, #324, .T.);
#664 = EDGE_CURVE('', #46, #50, #328, .T.);
#665 = EDGE_CURVE('', #62, #72, #333, .T.);
#666 = EDGE_CURVE('', #62, #70, #338, .T.);
#667 = EDGE_CURVE('', #66, #76, #343, .T.);
#668 = EDGE_CURVE('', #66, #74, #348, .T.);
#669 = EDGE_CURVE('', #70, #64, #353, .T.);
#670 = EDGE_CURVE('', #72, #64, #358, .T.);
#671 = EDGE_CURVE('', #74, #68, #363, .T.);
#672 = EDGE_CURVE('', #76, #68, #368, .T.);
#673 = EDGE_CURVE('', #64, #68, #372, .T.);
#674 = EDGE_CURVE('', #62, #66, #376, .T.);
#675 = EDGE_CURVE('', #78, #88, #381, .T.);
#676 = EDGE_CURVE('', #78, #86, #386, .T.);
#677 = EDGE_CURVE('', #82, #92, #391, .T.);
#678 = EDGE_CURVE('', #82, #90, #396, .T.);
#679 = EDGE_CURVE('', #86, #80, #401, .T.);
#680 = EDGE_CURVE('', #88, #80, #406, .T.);
#681 = EDGE_CURVE('', #90, #84, #411, .T.);
#682 = EDGE_CURVE('', #92, #84, #416, .T.);
#683 = EDGE_CURVE('', #80, #84, #420, .T.);
#684 = EDGE_CURVE('', #78, #82, #424, .T.);
#685 = EDGE_CURVE('', #94, #104, #429, .T.);
#686 = EDGE_CURVE('', #94, #102, #434, .T.);
#687 = EDGE_CURVE('', #98, #108, #439, .T.);
#688 = EDGE_CURVE('', #98, #106, #444, .T.);
#689 = EDGE_CURVE('', #102, #96, #449, .T.);
#690 = EDGE_CURVE('', #104, #96, #454, .T.);
#691 = EDGE_CURVE('', #106, #100, #459, .T.);
#692 = EDGE_CURVE('', #108, #100, #464, .T.);
#693 = EDGE_CURVE('', #96, #100, #468, .T.);
#694 = EDGE_CURVE('', #94, #98, #472, .T.);
#695 = EDGE_CURVE('', #110, #120, #477, .T.);
#696 = EDGE_CURVE('', #110, #118, #482, .T.);
#697 = EDGE_CURVE('', #114, #124, #487, .T.);
#698 = EDGE_CURVE('', #114, #122, #492, .T.);
#699 = EDGE_CURVE('', #118, #112, #497, .T.);
#700 = EDGE_CURVE('', #120, #112, #502, .T.);
#701 = EDGE_CURVE('', #122, #116, #507, .T.);
#702 = EDGE_CURVE('', #124, #116, #512, .T.);
#703 = EDGE_CURVE('', #112, #116, #516, .T.);
#704 = EDGE_CURVE('', #110, #114, #520, .T.);
#705 = EDGE_CURVE('', #126, #128, #525, .T.);
#706 = EDGE_CURVE('', #128, #130, #529, .T.);
#707 = EDGE_CURVE('', #132, #130, #534, .T.);
#708 = EDGE_CURVE('', #132, #126, #538, .T.);
#709 = EDGE_CURVE('', #134, #136, #543, .T.);
#710 = EDGE_CURVE('', #136, #138, #547, .T.);
#711 = EDGE_CURVE('', #140, #138, #552, .T.);
#712 = EDGE_CURVE('', #140, #134, #556, .T.);
#713 = EDGE_CURVE('', #132, #140, #560, .T.);
#714 = EDGE_CURVE('', #130, #138, #564, .T.);
#715 = EDGE_CURVE('', #128, #136, #568, .T.);
#716 = EDGE_CURVE('', #126, #134, #572, .T.);
#717 = EDGE_CURVE('', #142, #144, #577, .T.);
#718 = EDGE_CURVE('', #144, #146, #581, .T.);
#719 = EDGE_CURVE('', #148, #146, #586, .T.);
#720 = EDGE_CURVE('', #148, #142, #590, .T.);
#721 = EDGE_CURVE('', #150, #152, #595, .T.);
#722 = EDGE_CURVE('', #152, #154, #599, .T.);
#723 = EDGE_CURVE('', #156, #154, #604, .T.);
#724 = EDGE_CURVE('', #156, #150, #608, .T.);
#725 = EDGE_CURVE('', #148, #156, #612, .T.);
#726 = EDGE_CURVE('', #146, #154, #616, .T.);
#727 = EDGE_CURVE('', #144, #152, #620, .T.);
#728 = EDGE_CURVE('', #142, #150, #624, .T.);
#729 = CARTESIAN_POINT('', (0., -0., -0.01));
#730 = DIRECTION('', (0., -0., 1.));
#731 = DIRECTION('', (1., 0., 0.));
#732 = AXIS2_PLACEMENT_3D('', #729, #730, #731);
#733 = CYLINDRICAL_SURFACE('', #732, 0.0025);
#734 = CARTESIAN_POINT('', (0., 0., -0.020525));
#735 = DIRECTION('', (0., -0., 1.));
#736 = AXIS2_PLACEMENT_3D('', #734, #735, $);
#737 = PLANE('', #736);
#738 = CARTESIAN_POINT('', (0., 0., 0.000525));
#739 = DIRECTION('', (0., -0., 1.));
#740 = AXIS2_PLACEMENT_3D('', #738, #739, $);
#741 = PLANE('', #740);
#742 = CARTESIAN_POINT('', (0., -0., -0.000475));
#743 = DIRECTION('', (0., -0., 1.));
#744 = DIRECTION('', (1., 0., 0.));
#745 = AXIS2_PLACEMENT_3D('', #742, #743, #744);
#746 = CYLINDRICAL_SURFACE('', #745, 0.011);
#747 = CARTESIAN_POINT('', (0., 0., -0.001475));
#748 = DIRECTION('', (0., -0., 1.));
#749 = AXIS2_PLACEMENT_3D('', #747, #748, $);
#750 = PLANE('', #749);
#751 = CARTESIAN_POINT('', (0., 0., 0.000525));
#752 = DIRECTION('', (0., -0., 1.));
#753 = AXIS2_PLACEMENT_3D('', #751, #752, $);
#754 = PLANE('', #753);
#755 = CARTESIAN_POINT('', (0.02115, 0., 0.020525));
#756 = DIRECTION('', (1., -0., 0.));
#757 = AXIS2_PLACEMENT_3D('', #755, #756, $);
#758 = PLANE('', #757);
#759 = CARTESIAN_POINT('', (0., 0.02115, 0.020525));
#760 = DIRECTION('', (0., 1., -0.));
#761 = AXIS2_PLACEMENT_3D('', #759, #760, $);
#762 = PLANE('', #761);
#763 = CARTESIAN_POINT('', (-0.02115, 0., 0.020525));
#764 = DIRECTION('', (-1., -0., 0.));
#765 = AXIS2_PLACEMENT_3D('', #763, #764, $);
#766 = PLANE('', #765);
#767 = CARTESIAN_POINT('', (0., -0.02115, 0.020525));
#768 = DIRECTION('', (0., -1., 0.));
#769 = AXIS2_PLACEMENT_3D('', #767, #768, $);
#770 = PLANE('', #769);
#771 = CARTESIAN_POINT('', (0., 0., 0.000525));
#772 = DIRECTION('', (0., -0., 1.));
#773 = AXIS2_PLACEMENT_3D('', #771, #772, $);
#774 = PLANE('', #773);
#775 = CARTESIAN_POINT('', (0., 0., 0.040525));
#776 = DIRECTION('', (0., -0., 1.));
#777 = AXIS2_PLACEMENT_3D('', #775, #776, $);
#778 = PLANE('', #777);
#779 = CARTESIAN_POINT('', (0.04, 0., 0.));
#780 = DIRECTION('', (1., -0., 0.));
#781 = AXIS2_PLACEMENT_3D('', #779, #780, $);
#782 = PLANE('', #781);
#783 = CARTESIAN_POINT('', (0., 0.02115, 0.));
#784 = DIRECTION('', (0., 1., -0.));
#785 = AXIS2_PLACEMENT_3D('', #783, #784, $);
#786 = PLANE('', #785);
#787 = CARTESIAN_POINT('', (-0.04, 0., 0.));
#788 = DIRECTION('', (-1., -0., 0.));
#789 = AXIS2_PLACEMENT_3D('', #787, #788, $);
#790 = PLANE('', #789);
#791 = CARTESIAN_POINT('', (0., -0.02115, 0.));
#792 = DIRECTION('', (0., -1., 0.));
#793 = AXIS2_PLACEMENT_3D('', #791, #792, $);
#794 = PLANE('', #793);
#795 = CARTESIAN_POINT('', (0., 0., -0.000525));
#796 = DIRECTION('', (0., -0., 1.));
#797 = AXIS2_PLACEMENT_3D('', #795, #796, $);
#798 = PLANE('', #797);
#799 = CARTESIAN_POINT('', (0., 0., 0.000525));
#800 = DIRECTION('', (0., -0., 1.));
#801 = AXIS2_PLACEMENT_3D('', #799, #800, $);
#802 = PLANE('', #801);
#803 = CARTESIAN_POINT('', (-0.0155, -0.0155, 0.));
#804 = DIRECTION('', (0., -0., 1.));
#805 = DIRECTION('', (1., 0., 0.));
#806 = AXIS2_PLACEMENT_3D('', #803, #804, #805);
#807 = CYLINDRICAL_SURFACE('', #806, 0.0017);
#808 = CARTESIAN_POINT('', (-0.0155, 0.0155, 0.));
#809 = DIRECTION('', (0., -0., 1.));
#810 = DIRECTION('', (1., 0., 0.));
#811 = AXIS2_PLACEMENT_3D('', #808, #809, #810);
#812 = CYLINDRICAL_SURFACE('', #811, 0.0017);
#813 = CARTESIAN_POINT('', (0.0155, -0.0155, 0.));
#814 = DIRECTION('', (-0., -0., 1.));
#815 = DIRECTION('', (1., -0., 0.));
#816 = AXIS2_PLACEMENT_3D('', #813, #814, #815);
#817 = CYLINDRICAL_SURFACE('', #816, 0.0017);
#818 = CARTESIAN_POINT('', (0.0155, 0.0155, 0.));
#819 = DIRECTION('', (-0., -0., 1.));
#820 = DIRECTION('', (1., -0., 0.));
#821 = AXIS2_PLACEMENT_3D('', #818, #819, #820);
#822 = CYLINDRICAL_SURFACE('', #821, 0.0017);
#823 = CARTESIAN_POINT('', (0., -0., 0.));
#824 = DIRECTION('', (0., -0., 1.));
#825 = DIRECTION('', (1., 0., 0.));
#826 = AXIS2_PLACEMENT_3D('', #823, #824, #825);
#827 = CYLINDRICAL_SURFACE('', #826, 0.011);
#828 = CARTESIAN_POINT('', (-0.03, 0.00475, 0.));
#829 = DIRECTION('', (0., -0., 1.));
#830 = DIRECTION('', (1., 0., 0.));
#831 = AXIS2_PLACEMENT_3D('', #828, #829, #830);
#832 = CYLINDRICAL_SURFACE('', #831, 0.00275);
#833 = CARTESIAN_POINT('', (-0.03275, 0., 0.));
#834 = DIRECTION('', (-1., -0., 0.));
#835 = AXIS2_PLACEMENT_3D('', #833, #834, $);
#836 = PLANE('', #835);
#837 = CARTESIAN_POINT('', (-0.03, -0.00475, 0.));
#838 = DIRECTION('', (0., 0., 1.));
#839 = DIRECTION('', (-1., -0., 0.));
#840 = AXIS2_PLACEMENT_3D('', #837, #838, #839);
#841 = CYLINDRICAL_SURFACE('', #840, 0.00275);
#842 = CARTESIAN_POINT('', (-0.02725, 0., 0.));
#843 = DIRECTION('', (1., -0., 0.));
#844 = AXIS2_PLACEMENT_3D('', #842, #843, $);
#845 = PLANE('', #844);
#846 = CARTESIAN_POINT('', (0.03, 0.00475, 0.));
#847 = DIRECTION('', (0., -0., 1.));
#848 = DIRECTION('', (1., 0., 0.));
#849 = AXIS2_PLACEMENT_3D('', #846, #847, #848);
#850 = CYLINDRICAL_SURFACE('', #849, 0.00275);
#851 = CARTESIAN_POINT('', (0.02725, 0., 0.));
#852 = DIRECTION('', (-1., -0., 0.));
#853 = AXIS2_PLACEMENT_3D('', #851, #852, $);
#854 = PLANE('', #853);
#855 = CARTESIAN_POINT('', (0.03, -0.00475, 0.));
#856 = DIRECTION('', (0., 0., 1.));
#857 = DIRECTION('', (-1., -0., 0.));
#858 = AXIS2_PLACEMENT_3D('', #855, #856, #857);
#859 = CYLINDRICAL_SURFACE('', #858, 0.00275);
#860 = CARTESIAN_POINT('', (0.03275, 0., 0.));
#861 = DIRECTION('', (1., -0., 0.));
#862 = AXIS2_PLACEMENT_3D('', #860, #861, $);
#863 = PLANE('', #862);
#864 = ORIENTED_EDGE('', *, *, #625, .T.);
#865 = ORIENTED_EDGE('', *, *, #627, .F.);
#866 = EDGE_LOOP('', (#864));
#867 = FACE_BOUND('', #866, .T.);
#868 = EDGE_LOOP('', (#865));
#869 = FACE_BOUND('', #868, .T.);
#870 = ADVANCED_FACE('', (#867, #869), #733, .T.);
#871 = ORIENTED_EDGE('', *, *, #625, .F.);
#872 = EDGE_LOOP('', (#871));
#873 = FACE_BOUND('', #872, .T.);
#874 = ADVANCED_FACE('', (#873), #737, .F.);
#875 = ORIENTED_EDGE('', *, *, #627, .T.);
#876 = EDGE_LOOP('', (#875));
#877 = FACE_BOUND('', #876, .T.);
#878 = ADVANCED_FACE('', (#877), #741, .T.);
#879 = ORIENTED_EDGE('', *, *, #628, .T.);
#880 = ORIENTED_EDGE('', *, *, #630, .F.);
#881 = EDGE_LOOP('', (#879));
#882 = FACE_BOUND('', #881, .T.);
#883 = EDGE_LOOP('', (#880));
#884 = FACE_BOUND('', #883, .T.);
#885 = ADVANCED_FACE('', (#882, #884), #746, .T.);
#886 = ORIENTED_EDGE('', *, *, #628, .F.);
#887 = EDGE_LOOP('', (#886));
#888 = FACE_BOUND('', #887, .T.);
#889 = ADVANCED_FACE('', (#888), #750, .F.);
#890 = ORIENTED_EDGE('', *, *, #630, .T.);
#891 = EDGE_LOOP('', (#890));
#892 = FACE_BOUND('', #891, .T.);
#893 = ADVANCED_FACE('', (#892), #754, .T.);
#894 = ORIENTED_EDGE('', *, *, #631, .T.);
#895 = ORIENTED_EDGE('', *, *, #632, .T.);
#896 = ORIENTED_EDGE('', *, *, #633, .F.);
#897 = ORIENTED_EDGE('', *, *, #634, .F.);
#898 = EDGE_LOOP('', (#894, #895, #896, #897));
#899 = FACE_BOUND('', #898, .T.);
#900 = ADVANCED_FACE('', (#899), #758, .T.);
#901 = ORIENTED_EDGE('', *, *, #635, .T.);
#902 = ORIENTED_EDGE('', *, *, #636, .T.);
#903 = ORIENTED_EDGE('', *, *, #637, .F.);
#904 = ORIENTED_EDGE('', *, *, #632, .F.);
#905 = EDGE_LOOP('', (#901, #902, #903, #904));
#906 = FACE_BOUND('', #905, .T.);
#907 = ADVANCED_FACE('', (#906), #762, .T.);
#908 = ORIENTED_EDGE('', *, *, #638, .T.);
#909 = ORIENTED_EDGE('', *, *, #639, .T.);
#910 = ORIENTED_EDGE('', *, *, #640, .F.);
#911 = ORIENTED_EDGE('', *, *, #636, .F.);
#912 = EDGE_LOOP('', (#908, #909, #910, #911));
#913 = FACE_BOUND('', #912, .T.);
#914 = ADVANCED_FACE('', (#913), #766, .T.);
#915 = ORIENTED_EDGE('', *, *, #641, .T.);
#916 = ORIENTED_EDGE('', *, *, #634, .T.);
#917 = ORIENTED_EDGE('', *, *, #642, .F.);
#918 = ORIENTED_EDGE('', *, *, #639, .F.);
#919 = EDGE_LOOP('', (#915, #916, #917, #918));
#920 = FACE_BOUND('', #919, .T.);
#921 = ADVANCED_FACE('', (#920), #770, .T.);
#922 = ORIENTED_EDGE('', *, *, #641, .F.);
#923 = ORIENTED_EDGE('', *, *, #638, .F.);
#924 = ORIENTED_EDGE('', *, *, #635, .F.);
#925 = ORIENTED_EDGE('', *, *, #631, .F.);
#926 = EDGE_LOOP('', (#922, #923, #924, #925));
#927 = FACE_BOUND('', #926, .T.);
#928 = ADVANCED_FACE('', (#927), #774, .F.);
#929 = ORIENTED_EDGE('', *, *, #633, .T.);
#930 = ORIENTED_EDGE('', *, *, #637, .T.);
#931 = ORIENTED_EDGE('', *, *, #640, .T.);
#932 = ORIENTED_EDGE('', *, *, #642, .T.);
#933 = EDGE_LOOP('', (#929, #930, #931, #932));
#934 = FACE_BOUND('', #933, .T.);
#935 = ADVANCED_FACE('', (#934), #778, .T.);
#936 = ORIENTED_EDGE('', *, *, #643, .T.);
#937 = ORIENTED_EDGE('', *, *, #644, .T.);
#938 = ORIENTED_EDGE('', *, *, #645, .F.);
#939 = ORIENTED_EDGE('', *, *, #646, .F.);
#940 = EDGE_LOOP('', (#936, #937, #938, #939));
#941 = FACE_BOUND('', #940, .T.);
#942 = ADVANCED_FACE('', (#941), #782, .T.);
#943 = ORIENTED_EDGE('', *, *, #647, .T.);
#944 = ORIENTED_EDGE('', *, *, #648, .T.);
#945 = ORIENTED_EDGE('', *, *, #649, .F.);
#946 = ORIENTED_EDGE('', *, *, #644, .F.);
#947 = EDGE_LOOP('', (#943, #944, #945, #946));
#948 = FACE_BOUND('', #947, .T.);
#949 = ADVANCED_FACE('', (#948), #786, .T.);
#950 = ORIENTED_EDGE('', *, *, #650, .T.);
#951 = ORIENTED_EDGE('', *, *, #651, .T.);
#952 = ORIENTED_EDGE('', *, *, #652, .F.);
#953 = ORIENTED_EDGE('', *, *, #648, .F.);
#954 = EDGE_LOOP('', (#950, #951, #952, #953));
#955 = FACE_BOUND('', #954, .T.);
#956 = ADVANCED_FACE('', (#955), #790, .T.);
#957 = ORIENTED_EDGE('', *, *, #653, .T.);
#958 = ORIENTED_EDGE('', *, *, #646, .T.);
#959 = ORIENTED_EDGE('', *, *, #654, .F.);
#960 = ORIENTED_EDGE('', *, *, #651, .F.);
#961 = EDGE_LOOP('', (#957, #958, #959, #960));
#962 = FACE_BOUND('', #961, .T.);
#963 = ADVANCED_FACE('', (#962), #794, .T.);
#964 = ORIENTED_EDGE('', *, *, #653, .F.);
#965 = ORIENTED_EDGE('', *, *, #650, .F.);
#966 = ORIENTED_EDGE('', *, *, #647, .F.);
#967 = ORIENTED_EDGE('', *, *, #643, .F.);
#968 = ORIENTED_EDGE('', *, *, #660, .T.);
#969 = ORIENTED_EDGE('', *, *, #659, .F.);
#970 = ORIENTED_EDGE('', *, *, #656, .F.);
#971 = ORIENTED_EDGE('', *, *, #655, .T.);
#972 = ORIENTED_EDGE('', *, *, #670, .T.);
#973 = ORIENTED_EDGE('', *, *, #669, .F.);
#974 = ORIENTED_EDGE('', *, *, #666, .F.);
#975 = ORIENTED_EDGE('', *, *, #665, .T.);
#976 = ORIENTED_EDGE('', *, *, #680, .T.);
#977 = ORIENTED_EDGE('', *, *, #679, .F.);
#978 = ORIENTED_EDGE('', *, *, #676, .F.);
#979 = ORIENTED_EDGE('', *, *, #675, .T.);
#980 = ORIENTED_EDGE('', *, *, #690, .T.);
#981 = ORIENTED_EDGE('', *, *, #689, .F.);
#982 = ORIENTED_EDGE('', *, *, #686, .F.);
#983 = ORIENTED_EDGE('', *, *, #685, .T.);
#984 = ORIENTED_EDGE('', *, *, #700, .T.);
#985 = ORIENTED_EDGE('', *, *, #699, .F.);
#986 = ORIENTED_EDGE('', *, *, #696, .F.);
#987 = ORIENTED_EDGE('', *, *, #695, .T.);
#988 = ORIENTED_EDGE('', *, *, #706, .T.);
#989 = ORIENTED_EDGE('', *, *, #707, .F.);
#990 = ORIENTED_EDGE('', *, *, #708, .T.);
#991 = ORIENTED_EDGE('', *, *, #705, .T.);
#992 = ORIENTED_EDGE('', *, *, #718, .T.);
#993 = ORIENTED_EDGE('', *, *, #719, .F.);
#994 = ORIENTED_EDGE('', *, *, #720, .T.);
#995 = ORIENTED_EDGE('', *, *, #717, .T.);
#996 = EDGE_LOOP('', (#964, #965, #966, #967));
#997 = FACE_BOUND('', #996, .T.);
#998 = EDGE_LOOP('', (#968, #969, #970, #971));
#999 = FACE_BOUND('', #998, .T.);
#1000 = EDGE_LOOP('', (#972, #973, #974, #975));
#1001 = FACE_BOUND('', #1000, .T.);
#1002 = EDGE_LOOP('', (#976, #977, #978, #979));
#1003 = FACE_BOUND('', #1002, .T.);
#1004 = EDGE_LOOP('', (#980, #981, #982, #983));
#1005 = FACE_BOUND('', #1004, .T.);
#1006 = EDGE_LOOP('', (#984, #985, #986, #987));
#1007 = FACE_BOUND('', #1006, .T.);
#1008 = EDGE_LOOP('', (#988, #989, #990, #991));
#1009 = FACE_BOUND('', #1008, .T.);
#1010 = EDGE_LOOP('', (#992, #993, #994, #995));
#1011 = FACE_BOUND('', #1010, .T.);
#1012 = ADVANCED_FACE('', (#997, #999, #1001, #1003, #1005, #1007, #1009, #1011), #798, .F.);
#1013 = ORIENTED_EDGE('', *, *, #645, .T.);
#1014 = ORIENTED_EDGE('', *, *, #649, .T.);
#1015 = ORIENTED_EDGE('', *, *, #652, .T.);
#1016 = ORIENTED_EDGE('', *, *, #654, .T.);
#1017 = ORIENTED_EDGE('', *, *, #657, .F.);
#1018 = ORIENTED_EDGE('', *, *, #658, .T.);
#1019 = ORIENTED_EDGE('', *, *, #661, .T.);
#1020 = ORIENTED_EDGE('', *, *, #662, .F.);
#1021 = ORIENTED_EDGE('', *, *, #667, .F.);
#1022 = ORIENTED_EDGE('', *, *, #668, .T.);
#1023 = ORIENTED_EDGE('', *, *, #671, .T.);
#1024 = ORIENTED_EDGE('', *, *, #672, .F.);
#1025 = ORIENTED_EDGE('', *, *, #677, .F.);
#1026 = ORIENTED_EDGE('', *, *, #678, .T.);
#1027 = ORIENTED_EDGE('', *, *, #681, .T.);
#1028 = ORIENTED_EDGE('', *, *, #682, .F.);
#1029 = ORIENTED_EDGE('', *, *, #687, .F.);
#1030 = ORIENTED_EDGE('', *, *, #688, .T.);
#1031 = ORIENTED_EDGE('', *, *, #691, .T.);
#1032 = ORIENTED_EDGE('', *, *, #692, .F.);
#1033 = ORIENTED_EDGE('', *, *, #697, .F.);
#1034 = ORIENTED_EDGE('', *, *, #698, .T.);
#1035 = ORIENTED_EDGE('', *, *, #701, .T.);
#1036 = ORIENTED_EDGE('', *, *, #702, .F.);
#1037 = ORIENTED_EDGE('', *, *, #709, .F.);
#1038 = ORIENTED_EDGE('', *, *, #712, .F.);
#1039 = ORIENTED_EDGE('', *, *, #711, .T.);
#1040 = ORIENTED_EDGE('', *, *, #710, .F.);
#1041 = ORIENTED_EDGE('', *, *, #721, .F.);
#1042 = ORIENTED_EDGE('', *, *, #724, .F.);
#1043 = ORIENTED_EDGE('', *, *, #723, .T.);
#1044 = ORIENTED_EDGE('', *, *, #722, .F.);
#1045 = EDGE_LOOP('', (#1013, #1014, #1015, #1016));
#1046 = FACE_BOUND('', #1045, .T.);
#1047 = EDGE_LOOP('', (#1017, #1018, #1019, #1020));
#1048 = FACE_BOUND('', #1047, .T.);
#1049 = EDGE_LOOP('', (#1021, #1022, #1023, #1024));
#1050 = FACE_BOUND('', #1049, .T.);
#1051 = EDGE_LOOP('', (#1025, #1026, #1027, #1028));
#1052 = FACE_BOUND('', #1051, .T.);
#1053 = EDGE_LOOP('', (#1029, #1030, #1031, #1032));
#1054 = FACE_BOUND('', #1053, .T.);
#1055 = EDGE_LOOP('', (#1033, #1034, #1035, #1036));
#1056 = FACE_BOUND('', #1055, .T.);
#1057 = EDGE_LOOP('', (#1037, #1038, #1039, #1040));
#1058 = FACE_BOUND('', #1057, .T.);
#1059 = EDGE_LOOP('', (#1041, #1042, #1043, #1044));
#1060 = FACE_BOUND('', #1059, .T.);
#1061 = ADVANCED_FACE('', (#1046, #1048, #1050, #1052, #1054, #1056, #1058, #1060), #802, .T.);
#1062 = ORIENTED_EDGE('', *, *, #660, .F.);
#1063 = ORIENTED_EDGE('', *, *, #655, .F.);
#1064 = ORIENTED_EDGE('', *, *, #664, .T.);
#1065 = ORIENTED_EDGE('', *, *, #657, .T.);
#1066 = ORIENTED_EDGE('', *, *, #662, .T.);
#1067 = ORIENTED_EDGE('', *, *, #663, .F.);
#1068 = EDGE_LOOP('', (#1062, #1063, #1064, #1065, #1066, #1067));
#1069 = FACE_BOUND('', #1068, .T.);
#1070 = ADVANCED_FACE('', (#1069), #807, .F.);
#1071 = ORIENTED_EDGE('', *, *, #661, .F.);
#1072 = ORIENTED_EDGE('', *, *, #658, .F.);
#1073 = ORIENTED_EDGE('', *, *, #664, .F.);
#1074 = ORIENTED_EDGE('', *, *, #656, .T.);
#1075 = ORIENTED_EDGE('', *, *, #659, .T.);
#1076 = ORIENTED_EDGE('', *, *, #663, .T.);
#1077 = EDGE_LOOP('', (#1071, #1072, #1073, #1074, #1075, #1076));
#1078 = FACE_BOUND('', #1077, .T.);
#1079 = ADVANCED_FACE('', (#1078), #807, .F.);
#1080 = ORIENTED_EDGE('', *, *, #670, .F.);
#1081 = ORIENTED_EDGE('', *, *, #665, .F.);
#1082 = ORIENTED_EDGE('', *, *, #674, .T.);
#1083 = ORIENTED_EDGE('', *, *, #667, .T.);
#1084 = ORIENTED_EDGE('', *, *, #672, .T.);
#1085 = ORIENTED_EDGE('', *, *, #673, .F.);
#1086 = EDGE_LOOP('', (#1080, #1081, #1082, #1083, #1084, #1085));
#1087 = FACE_BOUND('', #1086, .T.);
#1088 = ADVANCED_FACE('', (#1087), #812, .F.);
#1089 = ORIENTED_EDGE('', *, *, #671, .F.);
#1090 = ORIENTED_EDGE('', *, *, #668, .F.);
#1091 = ORIENTED_EDGE('', *, *, #674, .F.);
#1092 = ORIENTED_EDGE('', *, *, #666, .T.);
#1093 = ORIENTED_EDGE('', *, *, #669, .T.);
#1094 = ORIENTED_EDGE('', *, *, #673, .T.);
#1095 = EDGE_LOOP('', (#1089, #1090, #1091, #1092, #1093, #1094));
#1096 = FACE_BOUND('', #1095, .T.);
#1097 = ADVANCED_FACE('', (#1096), #812, .F.);
#1098 = ORIENTED_EDGE('', *, *, #680, .F.);
#1099 = ORIENTED_EDGE('', *, *, #675, .F.);
#1100 = ORIENTED_EDGE('', *, *, #684, .T.);
#1101 = ORIENTED_EDGE('', *, *, #677, .T.);
#1102 = ORIENTED_EDGE('', *, *, #682, .T.);
#1103 = ORIENTED_EDGE('', *, *, #683, .F.);
#1104 = EDGE_LOOP('', (#1098, #1099, #1100, #1101, #1102, #1103));
#1105 = FACE_BOUND('', #1104, .T.);
#1106 = ADVANCED_FACE('', (#1105), #817, .F.);
#1107 = ORIENTED_EDGE('', *, *, #681, .F.);
#1108 = ORIENTED_EDGE('', *, *, #678, .F.);
#1109 = ORIENTED_EDGE('', *, *, #684, .F.);
#1110 = ORIENTED_EDGE('', *, *, #676, .T.);
#1111 = ORIENTED_EDGE('', *, *, #679, .T.);
#1112 = ORIENTED_EDGE('', *, *, #683, .T.);
#1113 = EDGE_LOOP('', (#1107, #1108, #1109, #1110, #1111, #1112));
#1114 = FACE_BOUND('', #1113, .T.);
#1115 = ADVANCED_FACE('', (#1114), #817, .F.);
#1116 = ORIENTED_EDGE('', *, *, #690, .F.);
#1117 = ORIENTED_EDGE('', *, *, #685, .F.);
#1118 = ORIENTED_EDGE('', *, *, #694, .T.);
#1119 = ORIENTED_EDGE('', *, *, #687, .T.);
#1120 = ORIENTED_EDGE('', *, *, #692, .T.);
#1121 = ORIENTED_EDGE('', *, *, #693, .F.);
#1122 = EDGE_LOOP('', (#1116, #1117, #1118, #1119, #1120, #1121));
#1123 = FACE_BOUND('', #1122, .T.);
#1124 = ADVANCED_FACE('', (#1123), #822, .F.);
#1125 = ORIENTED_EDGE('', *, *, #691, .F.);
#1126 = ORIENTED_EDGE('', *, *, #688, .F.);
#1127 = ORIENTED_EDGE('', *, *, #694, .F.);
#1128 = ORIENTED_EDGE('', *, *, #686, .T.);
#1129 = ORIENTED_EDGE('', *, *, #689, .T.);
#1130 = ORIENTED_EDGE('', *, *, #693, .T.);
#1131 = EDGE_LOOP('', (#1125, #1126, #1127, #1128, #1129, #1130));
#1132 = FACE_BOUND('', #1131, .T.);
#1133 = ADVANCED_FACE('', (#1132), #822, .F.);
#1134 = ORIENTED_EDGE('', *, *, #700, .F.);
#1135 = ORIENTED_EDGE('', *, *, #695, .F.);
#1136 = ORIENTED_EDGE('', *, *, #704, .T.);
#1137 = ORIENTED_EDGE('', *, *, #697, .T.);
#1138 = ORIENTED_EDGE('', *, *, #702, .T.);
#1139 = ORIENTED_EDGE('', *, *, #703, .F.);
#1140 = EDGE_LOOP('', (#1134, #1135, #1136, #1137, #1138, #1139));
#1141 = FACE_BOUND('', #1140, .T.);
#1142 = ADVANCED_FACE('', (#1141), #827, .F.);
#1143 = ORIENTED_EDGE('', *, *, #701, .F.);
#1144 = ORIENTED_EDGE('', *, *, #698, .F.);
#1145 = ORIENTED_EDGE('', *, *, #704, .F.);
#1146 = ORIENTED_EDGE('', *, *, #696, .T.);
#1147 = ORIENTED_EDGE('', *, *, #699, .T.);
#1148 = ORIENTED_EDGE('', *, *, #703, .T.);
#1149 = EDGE_LOOP('', (#1143, #1144, #1145, #1146, #1147, #1148));
#1150 = FACE_BOUND('', #1149, .T.);
#1151 = ADVANCED_FACE('', (#1150), #827, .F.);
#1152 = ORIENTED_EDGE('', *, *, #708, .F.);
#1153 = ORIENTED_EDGE('', *, *, #713, .T.);
#1154 = ORIENTED_EDGE('', *, *, #712, .T.);
#1155 = ORIENTED_EDGE('', *, *, #716, .F.);
#1156 = EDGE_LOOP('', (#1152, #1153, #1154, #1155));
#1157 = FACE_BOUND('', #1156, .T.);
#1158 = ADVANCED_FACE('', (#1157), #845, .F.);
#1159 = ORIENTED_EDGE('', *, *, #707, .T.);
#1160 = ORIENTED_EDGE('', *, *, #714, .T.);
#1161 = ORIENTED_EDGE('', *, *, #711, .F.);
#1162 = ORIENTED_EDGE('', *, *, #713, .F.);
#1163 = EDGE_LOOP('', (#1159, #1160, #1161, #1162));
#1164 = FACE_BOUND('', #1163, .T.);
#1165 = ADVANCED_FACE('', (#1164), #841, .F.);
#1166 = ORIENTED_EDGE('', *, *, #705, .F.);
#1167 = ORIENTED_EDGE('', *, *, #716, .T.);
#1168 = ORIENTED_EDGE('', *, *, #709, .T.);
#1169 = ORIENTED_EDGE('', *, *, #715, .F.);
#1170 = EDGE_LOOP('', (#1166, #1167, #1168, #1169));
#1171 = FACE_BOUND('', #1170, .T.);
#1172 = ADVANCED_FACE('', (#1171), #832, .F.);
#1173 = ORIENTED_EDGE('', *, *, #706, .F.);
#1174 = ORIENTED_EDGE('', *, *, #715, .T.);
#1175 = ORIENTED_EDGE('', *, *, #710, .T.);
#1176 = ORIENTED_EDGE('', *, *, #714, .F.);
#1177 = EDGE_LOOP('', (#1173, #1174, #1175, #1176));
#1178 = FACE_BOUND('', #1177, .T.);
#1179 = ADVANCED_FACE('', (#1178), #836, .F.);
#1180 = ORIENTED_EDGE('', *, *, #720, .F.);
#1181 = ORIENTED_EDGE('', *, *, #725, .T.);
#1182 = ORIENTED_EDGE('', *, *, #724, .T.);
#1183 = ORIENTED_EDGE('', *, *, #728, .F.);
#1184 = EDGE_LOOP('', (#1180, #1181, #1182, #1183));
#1185 = FACE_BOUND('', #1184, .T.);
#1186 = ADVANCED_FACE('', (#1185), #863, .F.);
#1187 = ORIENTED_EDGE('', *, *, #719, .T.);
#1188 = ORIENTED_EDGE('', *, *, #726, .T.);
#1189 = ORIENTED_EDGE('', *, *, #723, .F.);
#1190 = ORIENTED_EDGE('', *, *, #725, .F.);
#1191 = EDGE_LOOP('', (#1187, #1188, #1189, #1190));
#1192 = FACE_BOUND('', #1191, .T.);
#1193 = ADVANCED_FACE('', (#1192), #859, .F.);
#1194 = ORIENTED_EDGE('', *, *, #718, .F.);
#1195 = ORIENTED_EDGE('', *, *, #727, .T.);
#1196 = ORIENTED_EDGE('', *, *, #722, .T.);
#1197 = ORIENTED_EDGE('', *, *, #726, .F.);
#1198 = EDGE_LOOP('', (#1194, #1195, #1196, #1197));
#1199 = FACE_BOUND('', #1198, .T.);
#1200 = ADVANCED_FACE('', (#1199), #854, .F.);
#1201 = ORIENTED_EDGE('', *, *, #717, .F.);
#1202 = ORIENTED_EDGE('', *, *, #728, .T.);
#1203 = ORIENTED_EDGE('', *, *, #721, .T.);
#1204 = ORIENTED_EDGE('', *, *, #727, .F.);
#1205 = EDGE_LOOP('', (#1201, #1202, #1203, #1204));
#1206 = FACE_BOUND('', #1205, .T.);
#1207 = ADVANCED_FACE('', (#1206), #850, .F.);
#1208 = CLOSED_SHELL('', (#870, #874, #878));
#1209 = CLOSED_SHELL('', (#885, #889, #893));
#1210 = CLOSED_SHELL('', (#900, #907, #914, #921, #928, #935));
#1211 = CLOSED_SHELL('', (#942, #949, #956, #963, #1012, #1061, #1070, #1079, #1088, #1097, #1106, #1115, #1124, #1133, #1142, #1151, #1158, #1165, #1172, #1179, #1186, #1193, #1200, #1207));
#1212 = MANIFOLD_SOLID_BREP('', #1208);
#1213 = MANIFOLD_SOLID_BREP('', #1209);
#1214 = MANIFOLD_SOLID_BREP('', #1210);
#1215 = MANIFOLD_SOLID_BREP('', #1211);
#1216 = APPLICATION_CONTEXT('configuration controlled 3D design of mechanical parts and assemblies');
#1217 = PRODUCT_DEFINITION_CONTEXT('part definition', #1216, 'design');
#1218 = PRODUCT_CONTEXT('', #1216, 'mechanical');
#1219 = PRODUCT('UNIDENTIFIED_PRODUCT', '', $, (#1218));
#1220 = PRODUCT_DEFINITION_FORMATION('', $, #1219);
#1221 = PRODUCT_DEFINITION('design', $, #1220, #1217);
#1222 = PRODUCT_DEFINITION_SHAPE('', '', #1221);
#1223 = ADVANCED_BREP_SHAPE_REPRESENTATION('', (#1215), #4);
#1224 = SHAPE_DEFINITION_REPRESENTATION(#1222, #1223);
#1225 = COLOUR_RGB('', 0.72156864, 0.74509805, 0.7764706);
#1226 = FILL_AREA_STYLE_COLOUR('', #1225);
#1227 = FILL_AREA_STYLE('', (#1226));
#1228 = SURFACE_STYLE_FILL_AREA(#1227);
#1229 = SURFACE_SIDE_STYLE('', (#1228));
#1230 = SURFACE_STYLE_USAGE(.BOTH., #1229);
#1231 = PRESENTATION_STYLE_ASSIGNMENT((#1230));
#1232 = STYLED_ITEM('', (#1231), #1215);
#1233 = MECHANICAL_DESIGN_GEOMETRIC_PRESENTATION_REPRESENTATION('', (#1232), #4);
#1234 = PRODUCT_CONTEXT('', #1216, 'mechanical');
#1235 = PRODUCT('UNIDENTIFIED_PRODUCT', '', $, (#1234));
#1236 = PRODUCT_DEFINITION_FORMATION('', $, #1235);
#1237 = PRODUCT_DEFINITION('design', $, #1236, #1217);
#1238 = PRODUCT_DEFINITION_SHAPE('', '', #1237);
#1239 = ADVANCED_BREP_SHAPE_REPRESENTATION('', (#1214), #4);
#1240 = SHAPE_DEFINITION_REPRESENTATION(#1238, #1239);
#1241 = COLOUR_RGB('', 0.23921569, 0.27843139, 0.33725491);
#1242 = FILL_AREA_STYLE_COLOUR('', #1241);
#1243 = FILL_AREA_STYLE('', (#1242));
#1244 = SURFACE_STYLE_FILL_AREA(#1243);
#1245 = SURFACE_SIDE_STYLE('', (#1244));
#1246 = SURFACE_STYLE_USAGE(.BOTH., #1245);
#1247 = PRESENTATION_STYLE_ASSIGNMENT((#1246));
#1248 = STYLED_ITEM('', (#1247), #1214);
#1249 = MECHANICAL_DESIGN_GEOMETRIC_PRESENTATION_REPRESENTATION('', (#1248), #4);
#1250 = PRODUCT_CONTEXT('', #1216, 'mechanical');
#1251 = PRODUCT('UNIDENTIFIED_PRODUCT', '', $, (#1250));
#1252 = PRODUCT_DEFINITION_FORMATION('', $, #1251);
#1253 = PRODUCT_DEFINITION('design', $, #1252, #1217);
#1254 = PRODUCT_DEFINITION_SHAPE('', '', #1253);
#1255 = ADVANCED_BREP_SHAPE_REPRESENTATION('', (#1213), #4);
#1256 = SHAPE_DEFINITION_REPRESENTATION(#1254, #1255);
#1257 = COLOUR_RGB('', 0.23921569, 0.27843139, 0.33725491);
#1258 = FILL_AREA_STYLE_COLOUR('', #1257);
#1259 = FILL_AREA_STYLE('', (#1258));
#1260 = SURFACE_STYLE_FILL_AREA(#1259);
#1261 = SURFACE_SIDE_STYLE('', (#1260));
#1262 = SURFACE_STYLE_USAGE(.BOTH., #1261);
#1263 = PRESENTATION_STYLE_ASSIGNMENT((#1262));
#1264 = STYLED_ITEM('', (#1263), #1213);
#1265 = MECHANICAL_DESIGN_GEOMETRIC_PRESENTATION_REPRESENTATION('', (#1264), #4);
#1266 = PRODUCT_CONTEXT('', #1216, 'mechanical');
#1267 = PRODUCT('UNIDENTIFIED_PRODUCT', '', $, (#1266));
#1268 = PRODUCT_DEFINITION_FORMATION('', $, #1267);
#1269 = PRODUCT_DEFINITION('design', $, #1268, #1217);
#1270 = PRODUCT_DEFINITION_SHAPE('', '', #1269);
#1271 = ADVANCED_BREP_SHAPE_REPRESENTATION('', (#1212), #4);
#1272 = SHAPE_DEFINITION_REPRESENTATION(#1270, #1271);
#1273 = COLOUR_RGB('', 0.78431374, 0.80000001, 0.82352942);
#1274 = FILL_AREA_STYLE_COLOUR('', #1273);
#1275 = FILL_AREA_STYLE('', (#1274));
#1276 = SURFACE_STYLE_FILL_AREA(#1275);
#1277 = SURFACE_SIDE_STYLE('', (#1276));
#1278 = SURFACE_STYLE_USAGE(.BOTH., #1277);
#1279 = PRESENTATION_STYLE_ASSIGNMENT((#1278));
#1280 = STYLED_ITEM('', (#1279), #1212);
#1281 = MECHANICAL_DESIGN_GEOMETRIC_PRESENTATION_REPRESENTATION('', (#1280), #4);
ENDSEC;
END-ISO-10303-21;
