ISO-10303-21;
HEADER;
FILE_DESCRIPTION(('zoo.dev export'), '2;1');
FILE_NAME('output.step', '2026-08-04T20:51:15.154285410+00:00', (''), (''), 'zoo.dev beta', 'zoo.dev', '');
FILE_SCHEMA(('AP242_MANAGED_MODEL_BASED_3D_ENGINEERING_MIM_LF'));
ENDSEC;
DATA;
#1 = (
  LENGTH_UNIT()
  NAMED_UNIT(*)
  SI_UNIT($, .METRE.)
);
#2 = (
  NAMED_UNIT(*)
  PLANE_ANGLE_UNIT()
  SI_UNIT($, .RADIAN.)
);
#3 = UNCERTAINTY_MEASURE_WITH_UNIT(LENGTH_MEASURE(0.00001), #1, 'DISTANCE_ACCURACY_VALUE', $);
#4 = (
  GEOMETRIC_REPRESENTATION_CONTEXT(3)
  GLOBAL_UNCERTAINTY_ASSIGNED_CONTEXT((#3))
  GLOBAL_UNIT_ASSIGNED_CONTEXT((#1, #2))
  REPRESENTATION_CONTEXT('3D', '3D context')
);
#5 = CARTESIAN_POINT('', (0.022, -0.022, -0.0055));
#6 = VERTEX_POINT('', #5);
#7 = CARTESIAN_POINT('', (0.022, 0.022, -0.0055));
#8 = VERTEX_POINT('', #7);
#9 = CARTESIAN_POINT('', (0.022, 0.022, 0.0055));
#10 = VERTEX_POINT('', #9);
#11 = CARTESIAN_POINT('', (0.022, -0.022, 0.0055));
#12 = VERTEX_POINT('', #11);
#13 = CARTESIAN_POINT('', (-0.022, 0.022, -0.0055));
#14 = VERTEX_POINT('', #13);
#15 = CARTESIAN_POINT('', (-0.022, 0.022, 0.0055));
#16 = VERTEX_POINT('', #15);
#17 = CARTESIAN_POINT('', (-0.022, -0.022, -0.0055));
#18 = VERTEX_POINT('', #17);
#19 = CARTESIAN_POINT('', (-0.022, -0.022, 0.0055));
#20 = VERTEX_POINT('', #19);
#21 = CARTESIAN_POINT('', (0.0207, -0., -0.0055));
#22 = VERTEX_POINT('', #21);
#23 = CARTESIAN_POINT('', (0.0173, 0., -0.0055));
#24 = VERTEX_POINT('', #23);
#25 = CARTESIAN_POINT('', (0.0207, -0., 0.0055));
#26 = VERTEX_POINT('', #25);
#27 = CARTESIAN_POINT('', (0.0173, 0., 0.0055));
#28 = VERTEX_POINT('', #27);
#29 = CARTESIAN_POINT('', (0.019, -0.0017, -0.0055));
#30 = VERTEX_POINT('', #29);
#31 = CARTESIAN_POINT('', (0.019, 0.0017, -0.0055));
#32 = VERTEX_POINT('', #31);
#33 = CARTESIAN_POINT('', (0.019, -0.0017, 0.0055));
#34 = VERTEX_POINT('', #33);
#35 = CARTESIAN_POINT('', (0.019, 0.0017, 0.0055));
#36 = VERTEX_POINT('', #35);
#37 = CARTESIAN_POINT('', (0.0017, 0.019, -0.0055));
#38 = VERTEX_POINT('', #37);
#39 = CARTESIAN_POINT('', (-0.0017, 0.019, -0.0055));
#40 = VERTEX_POINT('', #39);
#41 = CARTESIAN_POINT('', (0.0017, 0.019, 0.0055));
#42 = VERTEX_POINT('', #41);
#43 = CARTESIAN_POINT('', (-0.0017, 0.019, 0.0055));
#44 = VERTEX_POINT('', #43);
#45 = CARTESIAN_POINT('', (-0., 0.0173, -0.0055));
#46 = VERTEX_POINT('', #45);
#47 = CARTESIAN_POINT('', (0., 0.0207, -0.0055));
#48 = VERTEX_POINT('', #47);
#49 = CARTESIAN_POINT('', (-0., 0.0173, 0.0055));
#50 = VERTEX_POINT('', #49);
#51 = CARTESIAN_POINT('', (-0., 0.0207, 0.0055));
#52 = VERTEX_POINT('', #51);
#53 = CARTESIAN_POINT('', (-0.0173, 0., -0.0055));
#54 = VERTEX_POINT('', #53);
#55 = CARTESIAN_POINT('', (-0.0207, 0., -0.0055));
#56 = VERTEX_POINT('', #55);
#57 = CARTESIAN_POINT('', (-0.0173, 0., 0.0055));
#58 = VERTEX_POINT('', #57);
#59 = CARTESIAN_POINT('', (-0.0207, 0., 0.0055));
#60 = VERTEX_POINT('', #59);
#61 = CARTESIAN_POINT('', (-0.019, -0.0017, -0.0055));
#62 = VERTEX_POINT('', #61);
#63 = CARTESIAN_POINT('', (-0.019, 0.0017, -0.0055));
#64 = VERTEX_POINT('', #63);
#65 = CARTESIAN_POINT('', (-0.019, -0.0017, 0.0055));
#66 = VERTEX_POINT('', #65);
#67 = CARTESIAN_POINT('', (-0.019, 0.0017, 0.0055));
#68 = VERTEX_POINT('', #67);
#69 = CARTESIAN_POINT('', (0.0017, -0.019, -0.0055));
#70 = VERTEX_POINT('', #69);
#71 = CARTESIAN_POINT('', (-0.0017, -0.019, -0.0055));
#72 = VERTEX_POINT('', #71);
#73 = CARTESIAN_POINT('', (0.0017, -0.019, 0.0055));
#74 = VERTEX_POINT('', #73);
#75 = CARTESIAN_POINT('', (-0.0017, -0.019, 0.0055));
#76 = VERTEX_POINT('', #75);
#77 = CARTESIAN_POINT('', (-0., -0.0207, -0.0055));
#78 = VERTEX_POINT('', #77);
#79 = CARTESIAN_POINT('', (0., -0.0173, -0.0055));
#80 = VERTEX_POINT('', #79);
#81 = CARTESIAN_POINT('', (-0., -0.0207, 0.0055));
#82 = VERTEX_POINT('', #81);
#83 = CARTESIAN_POINT('', (-0., -0.0173, 0.0055));
#84 = VERTEX_POINT('', #83);
#85 = CARTESIAN_POINT('', (0.013, 0., -0.0035));
#86 = VERTEX_POINT('', #85);
#87 = CARTESIAN_POINT('', (0.0065, 0., -0.0035));
#88 = VERTEX_POINT('', #87);
#89 = CARTESIAN_POINT('', (-0.013, 0., -0.0035));
#90 = VERTEX_POINT('', #89);
#91 = CARTESIAN_POINT('', (-0.0065, 0., -0.0035));
#92 = VERTEX_POINT('', #91);
#93 = CARTESIAN_POINT('', (0.0065, 0., -0.0055));
#94 = VERTEX_POINT('', #93);
#95 = CARTESIAN_POINT('', (-0.0065, 0., -0.0055));
#96 = VERTEX_POINT('', #95);
#97 = CARTESIAN_POINT('', (0.013, 0., 0.0055));
#98 = VERTEX_POINT('', #97);
#99 = CARTESIAN_POINT('', (-0.013, 0., 0.0055));
#100 = VERTEX_POINT('', #99);
#101 = CARTESIAN_POINT('', (-0., -0.0065, -0.0055));
#102 = VERTEX_POINT('', #101);
#103 = CARTESIAN_POINT('', (0., 0.0065, -0.0055));
#104 = VERTEX_POINT('', #103);
#105 = CARTESIAN_POINT('', (0., -0.013, 0.0055));
#106 = VERTEX_POINT('', #105);
#107 = CARTESIAN_POINT('', (-0., 0.013, 0.0055));
#108 = VERTEX_POINT('', #107);
#109 = DIRECTION('', (-0., 1., 0.));
#110 = VECTOR('', #109, 1.);
#111 = CARTESIAN_POINT('', (0.022, -0.022, -0.0055));
#112 = LINE('', #111, #110);
#113 = DIRECTION('', (0., -0., 1.));
#114 = VECTOR('', #113, 1.);
#115 = CARTESIAN_POINT('', (0.022, 0.022, -0.0055));
#116 = LINE('', #115, #114);
#117 = DIRECTION('', (-0., 1., 0.));
#118 = VECTOR('', #117, 1.);
#119 = CARTESIAN_POINT('', (0.022, -0.022, 0.0055));
#120 = LINE('', #119, #118);
#121 = DIRECTION('', (0., -0., 1.));
#122 = VECTOR('', #121, 1.);
#123 = CARTESIAN_POINT('', (0.022, -0.022, -0.0055));
#124 = LINE('', #123, #122);
#125 = DIRECTION('', (-1., -0., 0.));
#126 = VECTOR('', #125, 1.);
#127 = CARTESIAN_POINT('', (0.022, 0.022, -0.0055));
#128 = LINE('', #127, #126);
#129 = DIRECTION('', (0., -0., 1.));
#130 = VECTOR('', #129, 1.);
#131 = CARTESIAN_POINT('', (-0.022, 0.022, -0.0055));
#132 = LINE('', #131, #130);
#133 = DIRECTION('', (-1., -0., 0.));
#134 = VECTOR('', #133, 1.);
#135 = CARTESIAN_POINT('', (0.022, 0.022, 0.0055));
#136 = LINE('', #135, #134);
#137 = DIRECTION('', (0., -1., 0.));
#138 = VECTOR('', #137, 1.);
#139 = CARTESIAN_POINT('', (-0.022, 0.022, -0.0055));
#140 = LINE('', #139, #138);
#141 = DIRECTION('', (0., -0., 1.));
#142 = VECTOR('', #141, 1.);
#143 = CARTESIAN_POINT('', (-0.022, -0.022, -0.0055));
#144 = LINE('', #143, #142);
#145 = DIRECTION('', (0., -1., 0.));
#146 = VECTOR('', #145, 1.);
#147 = CARTESIAN_POINT('', (-0.022, 0.022, 0.0055));
#148 = LINE('', #147, #146);
#149 = DIRECTION('', (1., -0., 0.));
#150 = VECTOR('', #149, 1.);
#151 = CARTESIAN_POINT('', (-0.022, -0.022, -0.0055));
#152 = LINE('', #151, #150);
#153 = DIRECTION('', (1., -0., 0.));
#154 = VECTOR('', #153, 1.);
#155 = CARTESIAN_POINT('', (-0.022, -0.022, 0.0055));
#156 = LINE('', #155, #154);
#157 = DIRECTION('', (1., 0., -0.));
#158 = DIRECTION('', (0., 0., 1.));
#159 = CARTESIAN_POINT('', (0.019, -0., -0.0055));
#160 = AXIS2_PLACEMENT_3D('', #159, #158, #157);
#161 = CIRCLE('', #160, 0.0017);
#162 = DIRECTION('', (1., -0., 0.));
#163 = DIRECTION('', (0., -0., -1.));
#164 = CARTESIAN_POINT('', (0.019, 0., -0.0055));
#165 = AXIS2_PLACEMENT_3D('', #164, #163, #162);
#166 = CIRCLE('', #165, 0.0017);
#167 = DIRECTION('', (1., 0., 0.));
#168 = DIRECTION('', (0., -0., 1.));
#169 = CARTESIAN_POINT('', (0.019, -0., 0.0055));
#170 = AXIS2_PLACEMENT_3D('', #169, #168, #167);
#171 = CIRCLE('', #170, 0.0017);
#172 = DIRECTION('', (1., 0., 0.));
#173 = DIRECTION('', (0., -0., -1.));
#174 = CARTESIAN_POINT('', (0.019, -0., 0.0055));
#175 = AXIS2_PLACEMENT_3D('', #174, #173, #172);
#176 = CIRCLE('', #175, 0.0017);
#177 = DIRECTION('', (-0., -1., -0.));
#178 = DIRECTION('', (0., 0., -1.));
#179 = CARTESIAN_POINT('', (0.019, 0., -0.0055));
#180 = AXIS2_PLACEMENT_3D('', #179, #178, #177);
#181 = CIRCLE('', #180, 0.0017);
#182 = DIRECTION('', (0., 1., 0.));
#183 = DIRECTION('', (0., -0., 1.));
#184 = CARTESIAN_POINT('', (0.019, -0., -0.0055));
#185 = AXIS2_PLACEMENT_3D('', #184, #183, #182);
#186 = CIRCLE('', #185, 0.0017);
#187 = DIRECTION('', (-0., -1., 0.));
#188 = DIRECTION('', (-0., -0., -1.));
#189 = CARTESIAN_POINT('', (0.019, 0., 0.0055));
#190 = AXIS2_PLACEMENT_3D('', #189, #188, #187);
#191 = CIRCLE('', #190, 0.0017);
#192 = DIRECTION('', (0., 1., -0.));
#193 = DIRECTION('', (-0., 0., 1.));
#194 = CARTESIAN_POINT('', (0.019, -0., 0.0055));
#195 = AXIS2_PLACEMENT_3D('', #194, #193, #192);
#196 = CIRCLE('', #195, 0.0017);
#197 = DIRECTION('', (0., -0., 1.));
#198 = VECTOR('', #197, 1.);
#199 = CARTESIAN_POINT('', (0.0173, 0., -0.0055));
#200 = LINE('', #199, #198);
#201 = DIRECTION('', (0., -0., 1.));
#202 = VECTOR('', #201, 1.);
#203 = CARTESIAN_POINT('', (0.0207, 0., -0.0055));
#204 = LINE('', #203, #202);
#205 = DIRECTION('', (1., 0., 0.));
#206 = DIRECTION('', (0., -0., 1.));
#207 = CARTESIAN_POINT('', (-0., 0.019, -0.0055));
#208 = AXIS2_PLACEMENT_3D('', #207, #206, #205);
#209 = CIRCLE('', #208, 0.0017);
#210 = DIRECTION('', (1., -0., 0.));
#211 = DIRECTION('', (0., -0., -1.));
#212 = CARTESIAN_POINT('', (-0., 0.019, -0.0055));
#213 = AXIS2_PLACEMENT_3D('', #212, #211, #210);
#214 = CIRCLE('', #213, 0.0017);
#215 = DIRECTION('', (1., -0., 0.));
#216 = DIRECTION('', (-0., -0., 1.));
#217 = CARTESIAN_POINT('', (-0., 0.019, 0.0055));
#218 = AXIS2_PLACEMENT_3D('', #217, #216, #215);
#219 = CIRCLE('', #218, 0.0017);
#220 = DIRECTION('', (1., 0., 0.));
#221 = DIRECTION('', (0., -0., -1.));
#222 = CARTESIAN_POINT('', (-0., 0.019, 0.0055));
#223 = AXIS2_PLACEMENT_3D('', #222, #221, #220);
#224 = CIRCLE('', #223, 0.0017);
#225 = DIRECTION('', (-0., -1., 0.));
#226 = DIRECTION('', (-0., -0., -1.));
#227 = CARTESIAN_POINT('', (-0., 0.019, -0.0055));
#228 = AXIS2_PLACEMENT_3D('', #227, #226, #225);
#229 = CIRCLE('', #228, 0.0017);
#230 = DIRECTION('', (0., 1., -0.));
#231 = DIRECTION('', (-0., 0., 1.));
#232 = CARTESIAN_POINT('', (-0., 0.019, -0.0055));
#233 = AXIS2_PLACEMENT_3D('', #232, #231, #230);
#234 = CIRCLE('', #233, 0.0017);
#235 = DIRECTION('', (-0., -1., 0.));
#236 = DIRECTION('', (-0., -0., -1.));
#237 = CARTESIAN_POINT('', (-0., 0.019, 0.0055));
#238 = AXIS2_PLACEMENT_3D('', #237, #236, #235);
#239 = CIRCLE('', #238, 0.0017);
#240 = DIRECTION('', (-0., 1., -0.));
#241 = DIRECTION('', (-0., 0., 1.));
#242 = CARTESIAN_POINT('', (-0., 0.019, 0.0055));
#243 = AXIS2_PLACEMENT_3D('', #242, #241, #240);
#244 = CIRCLE('', #243, 0.0017);
#245 = DIRECTION('', (0., -0., 1.));
#246 = VECTOR('', #245, 1.);
#247 = CARTESIAN_POINT('', (-0.0017, 0.019, -0.0055));
#248 = LINE('', #247, #246);
#249 = DIRECTION('', (-0., -0., 1.));
#250 = VECTOR('', #249, 1.);
#251 = CARTESIAN_POINT('', (0.0017, 0.019, -0.0055));
#252 = LINE('', #251, #250);
#253 = DIRECTION('', (1., 0., 0.));
#254 = DIRECTION('', (-0., -0., 1.));
#255 = CARTESIAN_POINT('', (-0.019, -0., -0.0055));
#256 = AXIS2_PLACEMENT_3D('', #255, #254, #253);
#257 = CIRCLE('', #256, 0.0017);
#258 = DIRECTION('', (1., -0., 0.));
#259 = DIRECTION('', (0., -0., -1.));
#260 = CARTESIAN_POINT('', (-0.019, 0., -0.0055));
#261 = AXIS2_PLACEMENT_3D('', #260, #259, #258);
#262 = CIRCLE('', #261, 0.0017);
#263 = DIRECTION('', (1., 0., 0.));
#264 = DIRECTION('', (0., -0., 1.));
#265 = CARTESIAN_POINT('', (-0.019, -0., 0.0055));
#266 = AXIS2_PLACEMENT_3D('', #265, #264, #263);
#267 = CIRCLE('', #266, 0.0017);
#268 = DIRECTION('', (1., -0., 0.));
#269 = DIRECTION('', (0., -0., -1.));
#270 = CARTESIAN_POINT('', (-0.019, 0., 0.0055));
#271 = AXIS2_PLACEMENT_3D('', #270, #269, #268);
#272 = CIRCLE('', #271, 0.0017);
#273 = DIRECTION('', (-0., -1., 0.));
#274 = DIRECTION('', (-0., -0., -1.));
#275 = CARTESIAN_POINT('', (-0.019, 0., -0.0055));
#276 = AXIS2_PLACEMENT_3D('', #275, #274, #273);
#277 = CIRCLE('', #276, 0.0017);
#278 = DIRECTION('', (0., 1., -0.));
#279 = DIRECTION('', (-0., 0., 1.));
#280 = CARTESIAN_POINT('', (-0.019, -0., -0.0055));
#281 = AXIS2_PLACEMENT_3D('', #280, #279, #278);
#282 = CIRCLE('', #281, 0.0017);
#283 = DIRECTION('', (-0., -1., 0.));
#284 = DIRECTION('', (-0., -0., -1.));
#285 = CARTESIAN_POINT('', (-0.019, 0., 0.0055));
#286 = AXIS2_PLACEMENT_3D('', #285, #284, #283);
#287 = CIRCLE('', #286, 0.0017);
#288 = DIRECTION('', (0., 1., 0.));
#289 = DIRECTION('', (0., -0., 1.));
#290 = CARTESIAN_POINT('', (-0.019, 0., 0.0055));
#291 = AXIS2_PLACEMENT_3D('', #290, #289, #288);
#292 = CIRCLE('', #291, 0.0017);
#293 = DIRECTION('', (0., -0., 1.));
#294 = VECTOR('', #293, 1.);
#295 = CARTESIAN_POINT('', (-0.0207, 0., -0.0055));
#296 = LINE('', #295, #294);
#297 = DIRECTION('', (0., -0., 1.));
#298 = VECTOR('', #297, 1.);
#299 = CARTESIAN_POINT('', (-0.0173, 0., -0.0055));
#300 = LINE('', #299, #298);
#301 = DIRECTION('', (1., 0., -0.));
#302 = DIRECTION('', (0., 0., 1.));
#303 = CARTESIAN_POINT('', (-0., -0.019, -0.0055));
#304 = AXIS2_PLACEMENT_3D('', #303, #302, #301);
#305 = CIRCLE('', #304, 0.0017);
#306 = DIRECTION('', (1., -0., 0.));
#307 = DIRECTION('', (0., -0., -1.));
#308 = CARTESIAN_POINT('', (-0., -0.019, -0.0055));
#309 = AXIS2_PLACEMENT_3D('', #308, #307, #306);
#310 = CIRCLE('', #309, 0.0017);
#311 = DIRECTION('', (1., 0., -0.));
#312 = DIRECTION('', (0., 0., 1.));
#313 = CARTESIAN_POINT('', (-0., -0.019, 0.0055));
#314 = AXIS2_PLACEMENT_3D('', #313, #312, #311);
#315 = CIRCLE('', #314, 0.0017);
#316 = DIRECTION('', (1., 0., 0.));
#317 = DIRECTION('', (0., -0., -1.));
#318 = CARTESIAN_POINT('', (-0., -0.019, 0.0055));
#319 = AXIS2_PLACEMENT_3D('', #318, #317, #316);
#320 = CIRCLE('', #319, 0.0017);
#321 = DIRECTION('', (-0., -1., 0.));
#322 = DIRECTION('', (-0., -0., -1.));
#323 = CARTESIAN_POINT('', (-0., -0.019, -0.0055));
#324 = AXIS2_PLACEMENT_3D('', #323, #322, #321);
#325 = CIRCLE('', #324, 0.0017);
#326 = DIRECTION('', (0., 1., 0.));
#327 = DIRECTION('', (0., -0., 1.));
#328 = CARTESIAN_POINT('', (-0., -0.019, -0.0055));
#329 = AXIS2_PLACEMENT_3D('', #328, #327, #326);
#330 = CIRCLE('', #329, 0.0017);
#331 = DIRECTION('', (-0., -1., -0.));
#332 = DIRECTION('', (0., 0., -1.));
#333 = CARTESIAN_POINT('', (-0., -0.019, 0.0055));
#334 = AXIS2_PLACEMENT_3D('', #333, #332, #331);
#335 = CIRCLE('', #334, 0.0017);
#336 = DIRECTION('', (0., 1., -0.));
#337 = DIRECTION('', (-0., 0., 1.));
#338 = CARTESIAN_POINT('', (-0., -0.019, 0.0055));
#339 = AXIS2_PLACEMENT_3D('', #338, #337, #336);
#340 = CIRCLE('', #339, 0.0017);
#341 = DIRECTION('', (0., -0., 1.));
#342 = VECTOR('', #341, 1.);
#343 = CARTESIAN_POINT('', (-0.0017, -0.019, -0.0055));
#344 = LINE('', #343, #342);
#345 = DIRECTION('', (-0., -0., 1.));
#346 = VECTOR('', #345, 1.);
#347 = CARTESIAN_POINT('', (0.0017, -0.019, -0.0055));
#348 = LINE('', #347, #346);
#349 = DIRECTION('', (1., 0., 0.));
#350 = DIRECTION('', (0., -0., 1.));
#351 = CARTESIAN_POINT('', (-0., -0., -0.0035));
#352 = AXIS2_PLACEMENT_3D('', #351, #350, #349);
#353 = CIRCLE('', #352, 0.013);
#354 = DIRECTION('', (-1., -0., 0.));
#355 = VECTOR('', #354, 1.);
#356 = CARTESIAN_POINT('', (0.013, 0., -0.0035));
#357 = LINE('', #356, #355);
#358 = DIRECTION('', (1., 0., 0.));
#359 = DIRECTION('', (0., -0., 1.));
#360 = CARTESIAN_POINT('', (-0., -0., -0.0035));
#361 = AXIS2_PLACEMENT_3D('', #360, #359, #358);
#362 = CIRCLE('', #361, 0.0065);
#363 = DIRECTION('', (0., -0., -1.));
#364 = VECTOR('', #363, 1.);
#365 = CARTESIAN_POINT('', (0.0065, 0., -0.0035));
#366 = LINE('', #365, #364);
#367 = DIRECTION('', (-1., 0., 0.));
#368 = DIRECTION('', (0., -0., 1.));
#369 = CARTESIAN_POINT('', (0., -0., -0.0035));
#370 = AXIS2_PLACEMENT_3D('', #369, #368, #367);
#371 = CIRCLE('', #370, 0.013);
#372 = DIRECTION('', (-1., 0., 0.));
#373 = DIRECTION('', (0., -0., 1.));
#374 = CARTESIAN_POINT('', (0., -0., -0.0035));
#375 = AXIS2_PLACEMENT_3D('', #374, #373, #372);
#376 = CIRCLE('', #375, 0.0065);
#377 = DIRECTION('', (1., -0., 0.));
#378 = VECTOR('', #377, 1.);
#379 = CARTESIAN_POINT('', (-0.013, 0., -0.0035));
#380 = LINE('', #379, #378);
#381 = DIRECTION('', (-0., -0., -1.));
#382 = VECTOR('', #381, 1.);
#383 = CARTESIAN_POINT('', (-0.0065, 0., -0.0035));
#384 = LINE('', #383, #382);
#385 = DIRECTION('', (1., 0., 0.));
#386 = DIRECTION('', (0., -0., 1.));
#387 = CARTESIAN_POINT('', (-0., -0., -0.0055));
#388 = AXIS2_PLACEMENT_3D('', #387, #386, #385);
#389 = CIRCLE('', #388, 0.0065);
#390 = DIRECTION('', (1., -0., 0.));
#391 = DIRECTION('', (0., -0., -1.));
#392 = CARTESIAN_POINT('', (-0., 0., -0.0055));
#393 = AXIS2_PLACEMENT_3D('', #392, #391, #390);
#394 = CIRCLE('', #393, 0.0065);
#395 = DIRECTION('', (1., -0., -0.));
#396 = DIRECTION('', (0., 0., 1.));
#397 = CARTESIAN_POINT('', (0., 0., 0.0055));
#398 = AXIS2_PLACEMENT_3D('', #397, #396, #395);
#399 = CIRCLE('', #398, 0.013);
#400 = DIRECTION('', (1., 0., 0.));
#401 = DIRECTION('', (0., -0., -1.));
#402 = CARTESIAN_POINT('', (0., -0., 0.0055));
#403 = AXIS2_PLACEMENT_3D('', #402, #401, #400);
#404 = CIRCLE('', #403, 0.013);
#405 = DIRECTION('', (-0.00000013, -1., 0.));
#406 = DIRECTION('', (-0., -0., -1.));
#407 = CARTESIAN_POINT('', (0., 0., -0.0055));
#408 = AXIS2_PLACEMENT_3D('', #407, #406, #405);
#409 = CIRCLE('', #408, 0.0065);
#410 = DIRECTION('', (0.00000013, 1., 0.));
#411 = DIRECTION('', (0., -0., 1.));
#412 = CARTESIAN_POINT('', (0., -0., -0.0055));
#413 = AXIS2_PLACEMENT_3D('', #412, #411, #410);
#414 = CIRCLE('', #413, 0.0065);
#415 = DIRECTION('', (0.00000025, -1., 0.));
#416 = DIRECTION('', (0., -0., -1.));
#417 = CARTESIAN_POINT('', (-0., -0., 0.0055));
#418 = AXIS2_PLACEMENT_3D('', #417, #416, #415);
#419 = CIRCLE('', #418, 0.013);
#420 = DIRECTION('', (-0.00000025, 1., 0.));
#421 = DIRECTION('', (0., -0., 1.));
#422 = CARTESIAN_POINT('', (-0., 0., 0.0055));
#423 = AXIS2_PLACEMENT_3D('', #422, #421, #420);
#424 = CIRCLE('', #423, 0.013);
#425 = DIRECTION('', (0., -0., -1.));
#426 = VECTOR('', #425, 1.);
#427 = CARTESIAN_POINT('', (-0.013, 0., 0.0055));
#428 = LINE('', #427, #426);
#429 = DIRECTION('', (0., -0., -1.));
#430 = VECTOR('', #429, 1.);
#431 = CARTESIAN_POINT('', (0.013, 0., 0.0055));
#432 = LINE('', #431, #430);
#433 = EDGE_CURVE('', #6, #8, #112, .T.);
#434 = EDGE_CURVE('', #8, #10, #116, .T.);
#435 = EDGE_CURVE('', #12, #10, #120, .T.);
#436 = EDGE_CURVE('', #6, #12, #124, .T.);
#437 = EDGE_CURVE('', #8, #14, #128, .T.);
#438 = EDGE_CURVE('', #14, #16, #132, .T.);
#439 = EDGE_CURVE('', #10, #16, #136, .T.);
#440 = EDGE_CURVE('', #14, #18, #140, .T.);
#441 = EDGE_CURVE('', #18, #20, #144, .T.);
#442 = EDGE_CURVE('', #16, #20, #148, .T.);
#443 = EDGE_CURVE('', #18, #6, #152, .T.);
#444 = EDGE_CURVE('', #20, #12, #156, .T.);
#445 = EDGE_CURVE('', #22, #32, #161, .T.);
#446 = EDGE_CURVE('', #22, #30, #166, .T.);
#447 = EDGE_CURVE('', #26, #36, #171, .T.);
#448 = EDGE_CURVE('', #26, #34, #176, .T.);
#449 = EDGE_CURVE('', #30, #24, #181, .T.);
#450 = EDGE_CURVE('', #32, #24, #186, .T.);
#451 = EDGE_CURVE('', #34, #28, #191, .T.);
#452 = EDGE_CURVE('', #36, #28, #196, .T.);
#453 = EDGE_CURVE('', #24, #28, #200, .T.);
#454 = EDGE_CURVE('', #22, #26, #204, .T.);
#455 = EDGE_CURVE('', #38, #48, #209, .T.);
#456 = EDGE_CURVE('', #38, #46, #214, .T.);
#457 = EDGE_CURVE('', #42, #52, #219, .T.);
#458 = EDGE_CURVE('', #42, #50, #224, .T.);
#459 = EDGE_CURVE('', #46, #40, #229, .T.);
#460 = EDGE_CURVE('', #48, #40, #234, .T.);
#461 = EDGE_CURVE('', #50, #44, #239, .T.);
#462 = EDGE_CURVE('', #52, #44, #244, .T.);
#463 = EDGE_CURVE('', #40, #44, #248, .T.);
#464 = EDGE_CURVE('', #38, #42, #252, .T.);
#465 = EDGE_CURVE('', #54, #64, #257, .T.);
#466 = EDGE_CURVE('', #54, #62, #262, .T.);
#467 = EDGE_CURVE('', #58, #68, #267, .T.);
#468 = EDGE_CURVE('', #58, #66, #272, .T.);
#469 = EDGE_CURVE('', #62, #56, #277, .T.);
#470 = EDGE_CURVE('', #64, #56, #282, .T.);
#471 = EDGE_CURVE('', #66, #60, #287, .T.);
#472 = EDGE_CURVE('', #68, #60, #292, .T.);
#473 = EDGE_CURVE('', #56, #60, #296, .T.);
#474 = EDGE_CURVE('', #54, #58, #300, .T.);
#475 = EDGE_CURVE('', #70, #80, #305, .T.);
#476 = EDGE_CURVE('', #70, #78, #310, .T.);
#477 = EDGE_CURVE('', #74, #84, #315, .T.);
#478 = EDGE_CURVE('', #74, #82, #320, .T.);
#479 = EDGE_CURVE('', #78, #72, #325, .T.);
#480 = EDGE_CURVE('', #80, #72, #330, .T.);
#481 = EDGE_CURVE('', #82, #76, #335, .T.);
#482 = EDGE_CURVE('', #84, #76, #340, .T.);
#483 = EDGE_CURVE('', #72, #76, #344, .T.);
#484 = EDGE_CURVE('', #70, #74, #348, .T.);
#485 = EDGE_CURVE('', #86, #90, #353, .T.);
#486 = EDGE_CURVE('', #86, #88, #357, .T.);
#487 = EDGE_CURVE('', #88, #92, #362, .T.);
#488 = EDGE_CURVE('', #88, #94, #366, .T.);
#489 = EDGE_CURVE('', #90, #86, #371, .T.);
#490 = EDGE_CURVE('', #92, #88, #376, .T.);
#491 = EDGE_CURVE('', #90, #92, #380, .T.);
#492 = EDGE_CURVE('', #92, #96, #384, .T.);
#493 = EDGE_CURVE('', #94, #104, #389, .T.);
#494 = EDGE_CURVE('', #94, #102, #394, .T.);
#495 = EDGE_CURVE('', #98, #108, #399, .T.);
#496 = EDGE_CURVE('', #98, #106, #404, .T.);
#497 = EDGE_CURVE('', #102, #96, #409, .T.);
#498 = EDGE_CURVE('', #104, #96, #414, .T.);
#499 = EDGE_CURVE('', #106, #100, #419, .T.);
#500 = EDGE_CURVE('', #108, #100, #424, .T.);
#501 = EDGE_CURVE('', #100, #90, #428, .T.);
#502 = EDGE_CURVE('', #98, #86, #432, .T.);
#503 = CARTESIAN_POINT('', (0.022, -0., 0.));
#504 = DIRECTION('', (1., 0., -0.));
#505 = AXIS2_PLACEMENT_3D('', #503, #504, $);
#506 = PLANE('', #505);
#507 = CARTESIAN_POINT('', (-0., 0.022, 0.));
#508 = DIRECTION('', (-0., 1., 0.));
#509 = AXIS2_PLACEMENT_3D('', #507, #508, $);
#510 = PLANE('', #509);
#511 = CARTESIAN_POINT('', (-0.022, -0., 0.));
#512 = DIRECTION('', (-1., -0., 0.));
#513 = AXIS2_PLACEMENT_3D('', #511, #512, $);
#514 = PLANE('', #513);
#515 = CARTESIAN_POINT('', (-0., -0.022, 0.));
#516 = DIRECTION('', (-0., -1., 0.));
#517 = AXIS2_PLACEMENT_3D('', #515, #516, $);
#518 = PLANE('', #517);
#519 = CARTESIAN_POINT('', (0., 0., -0.0055));
#520 = DIRECTION('', (0., -0., 1.));
#521 = AXIS2_PLACEMENT_3D('', #519, #520, $);
#522 = PLANE('', #521);
#523 = CARTESIAN_POINT('', (0., 0., 0.0055));
#524 = DIRECTION('', (0., -0., 1.));
#525 = AXIS2_PLACEMENT_3D('', #523, #524, $);
#526 = PLANE('', #525);
#527 = CARTESIAN_POINT('', (0.019, -0., 0.));
#528 = DIRECTION('', (0., -0., 1.));
#529 = DIRECTION('', (1., 0., 0.));
#530 = AXIS2_PLACEMENT_3D('', #527, #528, #529);
#531 = CYLINDRICAL_SURFACE('', #530, 0.0017);
#532 = CARTESIAN_POINT('', (-0., 0.019, 0.));
#533 = DIRECTION('', (0., -0., 1.));
#534 = DIRECTION('', (1., 0., 0.));
#535 = AXIS2_PLACEMENT_3D('', #532, #533, #534);
#536 = CYLINDRICAL_SURFACE('', #535, 0.0017);
#537 = CARTESIAN_POINT('', (-0.019, 0., 0.));
#538 = DIRECTION('', (-0., -0., 1.));
#539 = DIRECTION('', (1., -0., 0.));
#540 = AXIS2_PLACEMENT_3D('', #537, #538, #539);
#541 = CYLINDRICAL_SURFACE('', #540, 0.0017);
#542 = CARTESIAN_POINT('', (-0., -0.019, 0.));
#543 = DIRECTION('', (0., -0., 1.));
#544 = DIRECTION('', (1., 0., 0.));
#545 = AXIS2_PLACEMENT_3D('', #542, #543, #544);
#546 = CYLINDRICAL_SURFACE('', #545, 0.0017);
#547 = CARTESIAN_POINT('', (0., 0., 0.011));
#548 = DIRECTION('', (0., -0., -1.));
#549 = DIRECTION('', (1., 0., 0.));
#550 = AXIS2_PLACEMENT_3D('', #547, #548, #549);
#551 = CYLINDRICAL_SURFACE('', #550, 0.013);
#552 = CARTESIAN_POINT('', (0.013, 0., -0.0035));
#553 = DIRECTION('', (0., -0., 1.));
#554 = AXIS2_PLACEMENT_3D('', #552, #553, $);
#555 = PLANE('', #554);
#556 = CARTESIAN_POINT('', (0., 0., -0.0035));
#557 = DIRECTION('', (0., -0., -1.));
#558 = DIRECTION('', (1., 0., 0.));
#559 = AXIS2_PLACEMENT_3D('', #556, #557, #558);
#560 = CYLINDRICAL_SURFACE('', #559, 0.0065);
#561 = ORIENTED_EDGE('', *, *, #433, .T.);
#562 = ORIENTED_EDGE('', *, *, #434, .T.);
#563 = ORIENTED_EDGE('', *, *, #435, .F.);
#564 = ORIENTED_EDGE('', *, *, #436, .F.);
#565 = EDGE_LOOP('', (#561, #562, #563, #564));
#566 = FACE_BOUND('', #565, .T.);
#567 = ADVANCED_FACE('', (#566), #506, .T.);
#568 = ORIENTED_EDGE('', *, *, #437, .T.);
#569 = ORIENTED_EDGE('', *, *, #438, .T.);
#570 = ORIENTED_EDGE('', *, *, #439, .F.);
#571 = ORIENTED_EDGE('', *, *, #434, .F.);
#572 = EDGE_LOOP('', (#568, #569, #570, #571));
#573 = FACE_BOUND('', #572, .T.);
#574 = ADVANCED_FACE('', (#573), #510, .T.);
#575 = ORIENTED_EDGE('', *, *, #440, .T.);
#576 = ORIENTED_EDGE('', *, *, #441, .T.);
#577 = ORIENTED_EDGE('', *, *, #442, .F.);
#578 = ORIENTED_EDGE('', *, *, #438, .F.);
#579 = EDGE_LOOP('', (#575, #576, #577, #578));
#580 = FACE_BOUND('', #579, .T.);
#581 = ADVANCED_FACE('', (#580), #514, .T.);
#582 = ORIENTED_EDGE('', *, *, #443, .T.);
#583 = ORIENTED_EDGE('', *, *, #436, .T.);
#584 = ORIENTED_EDGE('', *, *, #444, .F.);
#585 = ORIENTED_EDGE('', *, *, #441, .F.);
#586 = EDGE_LOOP('', (#582, #583, #584, #585));
#587 = FACE_BOUND('', #586, .T.);
#588 = ADVANCED_FACE('', (#587), #518, .T.);
#589 = ORIENTED_EDGE('', *, *, #443, .F.);
#590 = ORIENTED_EDGE('', *, *, #440, .F.);
#591 = ORIENTED_EDGE('', *, *, #437, .F.);
#592 = ORIENTED_EDGE('', *, *, #433, .F.);
#593 = ORIENTED_EDGE('', *, *, #450, .T.);
#594 = ORIENTED_EDGE('', *, *, #449, .F.);
#595 = ORIENTED_EDGE('', *, *, #446, .F.);
#596 = ORIENTED_EDGE('', *, *, #445, .T.);
#597 = ORIENTED_EDGE('', *, *, #460, .T.);
#598 = ORIENTED_EDGE('', *, *, #459, .F.);
#599 = ORIENTED_EDGE('', *, *, #456, .F.);
#600 = ORIENTED_EDGE('', *, *, #455, .T.);
#601 = ORIENTED_EDGE('', *, *, #470, .T.);
#602 = ORIENTED_EDGE('', *, *, #469, .F.);
#603 = ORIENTED_EDGE('', *, *, #466, .F.);
#604 = ORIENTED_EDGE('', *, *, #465, .T.);
#605 = ORIENTED_EDGE('', *, *, #480, .T.);
#606 = ORIENTED_EDGE('', *, *, #479, .F.);
#607 = ORIENTED_EDGE('', *, *, #476, .F.);
#608 = ORIENTED_EDGE('', *, *, #475, .T.);
#609 = ORIENTED_EDGE('', *, *, #498, .T.);
#610 = ORIENTED_EDGE('', *, *, #497, .F.);
#611 = ORIENTED_EDGE('', *, *, #494, .F.);
#612 = ORIENTED_EDGE('', *, *, #493, .T.);
#613 = EDGE_LOOP('', (#589, #590, #591, #592));
#614 = FACE_BOUND('', #613, .T.);
#615 = EDGE_LOOP('', (#593, #594, #595, #596));
#616 = FACE_BOUND('', #615, .T.);
#617 = EDGE_LOOP('', (#597, #598, #599, #600));
#618 = FACE_BOUND('', #617, .T.);
#619 = EDGE_LOOP('', (#601, #602, #603, #604));
#620 = FACE_BOUND('', #619, .T.);
#621 = EDGE_LOOP('', (#605, #606, #607, #608));
#622 = FACE_BOUND('', #621, .T.);
#623 = EDGE_LOOP('', (#609, #610, #611, #612));
#624 = FACE_BOUND('', #623, .T.);
#625 = ADVANCED_FACE('', (#614, #616, #618, #620, #622, #624), #522, .F.);
#626 = ORIENTED_EDGE('', *, *, #435, .T.);
#627 = ORIENTED_EDGE('', *, *, #439, .T.);
#628 = ORIENTED_EDGE('', *, *, #442, .T.);
#629 = ORIENTED_EDGE('', *, *, #444, .T.);
#630 = ORIENTED_EDGE('', *, *, #447, .F.);
#631 = ORIENTED_EDGE('', *, *, #448, .T.);
#632 = ORIENTED_EDGE('', *, *, #451, .T.);
#633 = ORIENTED_EDGE('', *, *, #452, .F.);
#634 = ORIENTED_EDGE('', *, *, #457, .F.);
#635 = ORIENTED_EDGE('', *, *, #458, .T.);
#636 = ORIENTED_EDGE('', *, *, #461, .T.);
#637 = ORIENTED_EDGE('', *, *, #462, .F.);
#638 = ORIENTED_EDGE('', *, *, #467, .F.);
#639 = ORIENTED_EDGE('', *, *, #468, .T.);
#640 = ORIENTED_EDGE('', *, *, #471, .T.);
#641 = ORIENTED_EDGE('', *, *, #472, .F.);
#642 = ORIENTED_EDGE('', *, *, #477, .F.);
#643 = ORIENTED_EDGE('', *, *, #478, .T.);
#644 = ORIENTED_EDGE('', *, *, #481, .T.);
#645 = ORIENTED_EDGE('', *, *, #482, .F.);
#646 = ORIENTED_EDGE('', *, *, #495, .F.);
#647 = ORIENTED_EDGE('', *, *, #496, .T.);
#648 = ORIENTED_EDGE('', *, *, #499, .T.);
#649 = ORIENTED_EDGE('', *, *, #500, .F.);
#650 = EDGE_LOOP('', (#626, #627, #628, #629));
#651 = FACE_BOUND('', #650, .T.);
#652 = EDGE_LOOP('', (#630, #631, #632, #633));
#653 = FACE_BOUND('', #652, .T.);
#654 = EDGE_LOOP('', (#634, #635, #636, #637));
#655 = FACE_BOUND('', #654, .T.);
#656 = EDGE_LOOP('', (#638, #639, #640, #641));
#657 = FACE_BOUND('', #656, .T.);
#658 = EDGE_LOOP('', (#642, #643, #644, #645));
#659 = FACE_BOUND('', #658, .T.);
#660 = EDGE_LOOP('', (#646, #647, #648, #649));
#661 = FACE_BOUND('', #660, .T.);
#662 = ADVANCED_FACE('', (#651, #653, #655, #657, #659, #661), #526, .T.);
#663 = ORIENTED_EDGE('', *, *, #450, .F.);
#664 = ORIENTED_EDGE('', *, *, #445, .F.);
#665 = ORIENTED_EDGE('', *, *, #454, .T.);
#666 = ORIENTED_EDGE('', *, *, #447, .T.);
#667 = ORIENTED_EDGE('', *, *, #452, .T.);
#668 = ORIENTED_EDGE('', *, *, #453, .F.);
#669 = EDGE_LOOP('', (#663, #664, #665, #666, #667, #668));
#670 = FACE_BOUND('', #669, .T.);
#671 = ADVANCED_FACE('', (#670), #531, .F.);
#672 = ORIENTED_EDGE('', *, *, #451, .F.);
#673 = ORIENTED_EDGE('', *, *, #448, .F.);
#674 = ORIENTED_EDGE('', *, *, #454, .F.);
#675 = ORIENTED_EDGE('', *, *, #446, .T.);
#676 = ORIENTED_EDGE('', *, *, #449, .T.);
#677 = ORIENTED_EDGE('', *, *, #453, .T.);
#678 = EDGE_LOOP('', (#672, #673, #674, #675, #676, #677));
#679 = FACE_BOUND('', #678, .T.);
#680 = ADVANCED_FACE('', (#679), #531, .F.);
#681 = ORIENTED_EDGE('', *, *, #460, .F.);
#682 = ORIENTED_EDGE('', *, *, #455, .F.);
#683 = ORIENTED_EDGE('', *, *, #464, .T.);
#684 = ORIENTED_EDGE('', *, *, #457, .T.);
#685 = ORIENTED_EDGE('', *, *, #462, .T.);
#686 = ORIENTED_EDGE('', *, *, #463, .F.);
#687 = EDGE_LOOP('', (#681, #682, #683, #684, #685, #686));
#688 = FACE_BOUND('', #687, .T.);
#689 = ADVANCED_FACE('', (#688), #536, .F.);
#690 = ORIENTED_EDGE('', *, *, #461, .F.);
#691 = ORIENTED_EDGE('', *, *, #458, .F.);
#692 = ORIENTED_EDGE('', *, *, #464, .F.);
#693 = ORIENTED_EDGE('', *, *, #456, .T.);
#694 = ORIENTED_EDGE('', *, *, #459, .T.);
#695 = ORIENTED_EDGE('', *, *, #463, .T.);
#696 = EDGE_LOOP('', (#690, #691, #692, #693, #694, #695));
#697 = FACE_BOUND('', #696, .T.);
#698 = ADVANCED_FACE('', (#697), #536, .F.);
#699 = ORIENTED_EDGE('', *, *, #470, .F.);
#700 = ORIENTED_EDGE('', *, *, #465, .F.);
#701 = ORIENTED_EDGE('', *, *, #474, .T.);
#702 = ORIENTED_EDGE('', *, *, #467, .T.);
#703 = ORIENTED_EDGE('', *, *, #472, .T.);
#704 = ORIENTED_EDGE('', *, *, #473, .F.);
#705 = EDGE_LOOP('', (#699, #700, #701, #702, #703, #704));
#706 = FACE_BOUND('', #705, .T.);
#707 = ADVANCED_FACE('', (#706), #541, .F.);
#708 = ORIENTED_EDGE('', *, *, #471, .F.);
#709 = ORIENTED_EDGE('', *, *, #468, .F.);
#710 = ORIENTED_EDGE('', *, *, #474, .F.);
#711 = ORIENTED_EDGE('', *, *, #466, .T.);
#712 = ORIENTED_EDGE('', *, *, #469, .T.);
#713 = ORIENTED_EDGE('', *, *, #473, .T.);
#714 = EDGE_LOOP('', (#708, #709, #710, #711, #712, #713));
#715 = FACE_BOUND('', #714, .T.);
#716 = ADVANCED_FACE('', (#715), #541, .F.);
#717 = ORIENTED_EDGE('', *, *, #480, .F.);
#718 = ORIENTED_EDGE('', *, *, #475, .F.);
#719 = ORIENTED_EDGE('', *, *, #484, .T.);
#720 = ORIENTED_EDGE('', *, *, #477, .T.);
#721 = ORIENTED_EDGE('', *, *, #482, .T.);
#722 = ORIENTED_EDGE('', *, *, #483, .F.);
#723 = EDGE_LOOP('', (#717, #718, #719, #720, #721, #722));
#724 = FACE_BOUND('', #723, .T.);
#725 = ADVANCED_FACE('', (#724), #546, .F.);
#726 = ORIENTED_EDGE('', *, *, #481, .F.);
#727 = ORIENTED_EDGE('', *, *, #478, .F.);
#728 = ORIENTED_EDGE('', *, *, #484, .F.);
#729 = ORIENTED_EDGE('', *, *, #476, .T.);
#730 = ORIENTED_EDGE('', *, *, #479, .T.);
#731 = ORIENTED_EDGE('', *, *, #483, .T.);
#732 = EDGE_LOOP('', (#726, #727, #728, #729, #730, #731));
#733 = FACE_BOUND('', #732, .T.);
#734 = ADVANCED_FACE('', (#733), #546, .F.);
#735 = ORIENTED_EDGE('', *, *, #491, .T.);
#736 = ORIENTED_EDGE('', *, *, #487, .F.);
#737 = ORIENTED_EDGE('', *, *, #486, .F.);
#738 = ORIENTED_EDGE('', *, *, #485, .T.);
#739 = EDGE_LOOP('', (#735, #736, #737, #738));
#740 = FACE_BOUND('', #739, .T.);
#741 = ADVANCED_FACE('', (#740), #555, .T.);
#742 = ORIENTED_EDGE('', *, *, #492, .T.);
#743 = ORIENTED_EDGE('', *, *, #498, .F.);
#744 = ORIENTED_EDGE('', *, *, #493, .F.);
#745 = ORIENTED_EDGE('', *, *, #488, .F.);
#746 = ORIENTED_EDGE('', *, *, #487, .T.);
#747 = EDGE_LOOP('', (#742, #743, #744, #745, #746));
#748 = FACE_BOUND('', #747, .T.);
#749 = ADVANCED_FACE('', (#748), #560, .F.);
#750 = ORIENTED_EDGE('', *, *, #501, .F.);
#751 = ORIENTED_EDGE('', *, *, #499, .F.);
#752 = ORIENTED_EDGE('', *, *, #496, .F.);
#753 = ORIENTED_EDGE('', *, *, #502, .T.);
#754 = ORIENTED_EDGE('', *, *, #489, .F.);
#755 = EDGE_LOOP('', (#750, #751, #752, #753, #754));
#756 = FACE_BOUND('', #755, .T.);
#757 = ADVANCED_FACE('', (#756), #551, .F.);
#758 = ORIENTED_EDGE('', *, *, #491, .F.);
#759 = ORIENTED_EDGE('', *, *, #489, .T.);
#760 = ORIENTED_EDGE('', *, *, #486, .T.);
#761 = ORIENTED_EDGE('', *, *, #490, .F.);
#762 = EDGE_LOOP('', (#758, #759, #760, #761));
#763 = FACE_BOUND('', #762, .T.);
#764 = ADVANCED_FACE('', (#763), #555, .T.);
#765 = ORIENTED_EDGE('', *, *, #501, .T.);
#766 = ORIENTED_EDGE('', *, *, #485, .F.);
#767 = ORIENTED_EDGE('', *, *, #502, .F.);
#768 = ORIENTED_EDGE('', *, *, #495, .T.);
#769 = ORIENTED_EDGE('', *, *, #500, .T.);
#770 = EDGE_LOOP('', (#765, #766, #767, #768, #769));
#771 = FACE_BOUND('', #770, .T.);
#772 = ADVANCED_FACE('', (#771), #551, .F.);
#773 = ORIENTED_EDGE('', *, *, #492, .F.);
#774 = ORIENTED_EDGE('', *, *, #490, .T.);
#775 = ORIENTED_EDGE('', *, *, #488, .T.);
#776 = ORIENTED_EDGE('', *, *, #494, .T.);
#777 = ORIENTED_EDGE('', *, *, #497, .T.);
#778 = EDGE_LOOP('', (#773, #774, #775, #776, #777));
#779 = FACE_BOUND('', #778, .T.);
#780 = ADVANCED_FACE('', (#779), #560, .F.);
#781 = CLOSED_SHELL('', (#567, #574, #581, #588, #625, #662, #671, #680, #689, #698, #707, #716, #725, #734, #741, #749, #757, #764, #772, #780));
#782 = MANIFOLD_SOLID_BREP('', #781);
#783 = APPLICATION_CONTEXT('configuration controlled 3D design of mechanical parts and assemblies');
#784 = PRODUCT_DEFINITION_CONTEXT('part definition', #783, 'design');
#785 = PRODUCT_CONTEXT('', #783, 'mechanical');
#786 = PRODUCT('UNIDENTIFIED_PRODUCT', '', $, (#785));
#787 = PRODUCT_DEFINITION_FORMATION('', $, #786);
#788 = PRODUCT_DEFINITION('design', $, #787, #784);
#789 = PRODUCT_DEFINITION_SHAPE('', '', #788);
#790 = ADVANCED_BREP_SHAPE_REPRESENTATION('', (#782), #4);
#791 = SHAPE_DEFINITION_REPRESENTATION(#789, #790);
#792 = COLOUR_RGB('', 0.68235296, 0.71764708, 0.76078433);
#793 = FILL_AREA_STYLE_COLOUR('', #792);
#794 = FILL_AREA_STYLE('', (#793));
#795 = SURFACE_STYLE_FILL_AREA(#794);
#796 = SURFACE_SIDE_STYLE('', (#795));
#797 = SURFACE_STYLE_USAGE(.BOTH., #796);
#798 = PRESENTATION_STYLE_ASSIGNMENT((#797));
#799 = STYLED_ITEM('', (#798), #782);
#800 = MECHANICAL_DESIGN_GEOMETRIC_PRESENTATION_REPRESENTATION('', (#799), #4);
ENDSEC;
END-ISO-10303-21;
