ISO-10303-21;
HEADER;
FILE_DESCRIPTION(('zoo.dev export'), '2;1');
FILE_NAME('output.step', '2026-07-24T23:26:58.745997542+00:00', (''), (''), 'zoo.dev beta', 'zoo.dev', '');
FILE_SCHEMA(('AP242_MANAGED_MODEL_BASED_3D_ENGINEERING_MIM_LF'));
ENDSEC;
DATA;
#1 = (
  LENGTH_UNIT()
  NAMED_UNIT(*)
  SI_UNIT($, .METRE.)
);
#2 = (
  NAMED_UNIT(*)
  PLANE_ANGLE_UNIT()
  SI_UNIT($, .RADIAN.)
);
#3 = UNCERTAINTY_MEASURE_WITH_UNIT(LENGTH_MEASURE(0.00001), #1, 'DISTANCE_ACCURACY_VALUE', $);
#4 = (
  GEOMETRIC_REPRESENTATION_CONTEXT(3)
  GLOBAL_UNCERTAINTY_ASSIGNED_CONTEXT((#3))
  GLOBAL_UNIT_ASSIGNED_CONTEXT((#1, #2))
  REPRESENTATION_CONTEXT('3D', '3D context')
);
#5 = CARTESIAN_POINT('', (0.02115, -0.02115, -0.002325));
#6 = VERTEX_POINT('', #5);
#7 = CARTESIAN_POINT('', (0.02115, 0.02115, -0.002325));
#8 = VERTEX_POINT('', #7);
#9 = CARTESIAN_POINT('', (0.02115, 0.02115, 0.002325));
#10 = VERTEX_POINT('', #9);
#11 = CARTESIAN_POINT('', (0.02115, -0.02115, 0.002325));
#12 = VERTEX_POINT('', #11);
#13 = CARTESIAN_POINT('', (-0.02115, 0.02115, -0.002325));
#14 = VERTEX_POINT('', #13);
#15 = CARTESIAN_POINT('', (-0.02115, 0.02115, 0.002325));
#16 = VERTEX_POINT('', #15);
#17 = CARTESIAN_POINT('', (-0.02115, -0.02115, -0.002325));
#18 = VERTEX_POINT('', #17);
#19 = CARTESIAN_POINT('', (-0.02115, -0.02115, 0.002325));
#20 = VERTEX_POINT('', #19);
#21 = CARTESIAN_POINT('', (0.017, -0., -0.002325));
#22 = VERTEX_POINT('', #21);
#23 = CARTESIAN_POINT('', (0.014, 0., -0.002325));
#24 = VERTEX_POINT('', #23);
#25 = CARTESIAN_POINT('', (0.017, -0., 0.002325));
#26 = VERTEX_POINT('', #25);
#27 = CARTESIAN_POINT('', (0.014, 0., 0.002325));
#28 = VERTEX_POINT('', #27);
#29 = CARTESIAN_POINT('', (0.0155, -0.0015, -0.002325));
#30 = VERTEX_POINT('', #29);
#31 = CARTESIAN_POINT('', (0.0155, 0.0015, -0.002325));
#32 = VERTEX_POINT('', #31);
#33 = CARTESIAN_POINT('', (0.0155, -0.0015, 0.002325));
#34 = VERTEX_POINT('', #33);
#35 = CARTESIAN_POINT('', (0.0155, 0.0015, 0.002325));
#36 = VERTEX_POINT('', #35);
#37 = CARTESIAN_POINT('', (0.0015, 0.0155, -0.002325));
#38 = VERTEX_POINT('', #37);
#39 = CARTESIAN_POINT('', (-0.0015, 0.0155, -0.002325));
#40 = VERTEX_POINT('', #39);
#41 = CARTESIAN_POINT('', (0.0015, 0.0155, 0.002325));
#42 = VERTEX_POINT('', #41);
#43 = CARTESIAN_POINT('', (-0.0015, 0.0155, 0.002325));
#44 = VERTEX_POINT('', #43);
#45 = CARTESIAN_POINT('', (-0., 0.014, -0.002325));
#46 = VERTEX_POINT('', #45);
#47 = CARTESIAN_POINT('', (0., 0.017, -0.002325));
#48 = VERTEX_POINT('', #47);
#49 = CARTESIAN_POINT('', (0., 0.014, 0.002325));
#50 = VERTEX_POINT('', #49);
#51 = CARTESIAN_POINT('', (-0., 0.017, 0.002325));
#52 = VERTEX_POINT('', #51);
#53 = CARTESIAN_POINT('', (-0.014, 0., -0.002325));
#54 = VERTEX_POINT('', #53);
#55 = CARTESIAN_POINT('', (-0.017, 0., -0.002325));
#56 = VERTEX_POINT('', #55);
#57 = CARTESIAN_POINT('', (-0.014, 0., 0.002325));
#58 = VERTEX_POINT('', #57);
#59 = CARTESIAN_POINT('', (-0.017, 0., 0.002325));
#60 = VERTEX_POINT('', #59);
#61 = CARTESIAN_POINT('', (-0.0155, -0.0015, -0.002325));
#62 = VERTEX_POINT('', #61);
#63 = CARTESIAN_POINT('', (-0.0155, 0.0015, -0.002325));
#64 = VERTEX_POINT('', #63);
#65 = CARTESIAN_POINT('', (-0.0155, -0.0015, 0.002325));
#66 = VERTEX_POINT('', #65);
#67 = CARTESIAN_POINT('', (-0.0155, 0.0015, 0.002325));
#68 = VERTEX_POINT('', #67);
#69 = CARTESIAN_POINT('', (0.0015, -0.0155, -0.002325));
#70 = VERTEX_POINT('', #69);
#71 = CARTESIAN_POINT('', (-0.0015, -0.0155, -0.002325));
#72 = VERTEX_POINT('', #71);
#73 = CARTESIAN_POINT('', (0.0015, -0.0155, 0.002325));
#74 = VERTEX_POINT('', #73);
#75 = CARTESIAN_POINT('', (-0.0015, -0.0155, 0.002325));
#76 = VERTEX_POINT('', #75);
#77 = CARTESIAN_POINT('', (-0., -0.017, -0.002325));
#78 = VERTEX_POINT('', #77);
#79 = CARTESIAN_POINT('', (0., -0.014, -0.002325));
#80 = VERTEX_POINT('', #79);
#81 = CARTESIAN_POINT('', (0., -0.017, 0.002325));
#82 = VERTEX_POINT('', #81);
#83 = CARTESIAN_POINT('', (-0., -0.014, 0.002325));
#84 = VERTEX_POINT('', #83);
#85 = CARTESIAN_POINT('', (0.011, 0., -0.002325));
#86 = VERTEX_POINT('', #85);
#87 = CARTESIAN_POINT('', (-0.011, 0., -0.002325));
#88 = VERTEX_POINT('', #87);
#89 = CARTESIAN_POINT('', (0.011, 0., 0.002325));
#90 = VERTEX_POINT('', #89);
#91 = CARTESIAN_POINT('', (-0.011, 0., 0.002325));
#92 = VERTEX_POINT('', #91);
#93 = CARTESIAN_POINT('', (-0., -0.011, -0.002325));
#94 = VERTEX_POINT('', #93);
#95 = CARTESIAN_POINT('', (0., 0.011, -0.002325));
#96 = VERTEX_POINT('', #95);
#97 = CARTESIAN_POINT('', (0., -0.011, 0.002325));
#98 = VERTEX_POINT('', #97);
#99 = CARTESIAN_POINT('', (-0., 0.011, 0.002325));
#100 = VERTEX_POINT('', #99);
#101 = DIRECTION('', (0., 1., 0.));
#102 = VECTOR('', #101, 1.);
#103 = CARTESIAN_POINT('', (0.02115, -0.02115, -0.002325));
#104 = LINE('', #103, #102);
#105 = DIRECTION('', (0., -0., 1.));
#106 = VECTOR('', #105, 1.);
#107 = CARTESIAN_POINT('', (0.02115, 0.02115, -0.002325));
#108 = LINE('', #107, #106);
#109 = DIRECTION('', (0., 1., 0.));
#110 = VECTOR('', #109, 1.);
#111 = CARTESIAN_POINT('', (0.02115, -0.02115, 0.002325));
#112 = LINE('', #111, #110);
#113 = DIRECTION('', (0., -0., 1.));
#114 = VECTOR('', #113, 1.);
#115 = CARTESIAN_POINT('', (0.02115, -0.02115, -0.002325));
#116 = LINE('', #115, #114);
#117 = DIRECTION('', (-1., -0., 0.));
#118 = VECTOR('', #117, 1.);
#119 = CARTESIAN_POINT('', (0.02115, 0.02115, -0.002325));
#120 = LINE('', #119, #118);
#121 = DIRECTION('', (0., -0., 1.));
#122 = VECTOR('', #121, 1.);
#123 = CARTESIAN_POINT('', (-0.02115, 0.02115, -0.002325));
#124 = LINE('', #123, #122);
#125 = DIRECTION('', (-1., -0., 0.));
#126 = VECTOR('', #125, 1.);
#127 = CARTESIAN_POINT('', (0.02115, 0.02115, 0.002325));
#128 = LINE('', #127, #126);
#129 = DIRECTION('', (0., -1., 0.));
#130 = VECTOR('', #129, 1.);
#131 = CARTESIAN_POINT('', (-0.02115, 0.02115, -0.002325));
#132 = LINE('', #131, #130);
#133 = DIRECTION('', (0., -0., 1.));
#134 = VECTOR('', #133, 1.);
#135 = CARTESIAN_POINT('', (-0.02115, -0.02115, -0.002325));
#136 = LINE('', #135, #134);
#137 = DIRECTION('', (0., -1., 0.));
#138 = VECTOR('', #137, 1.);
#139 = CARTESIAN_POINT('', (-0.02115, 0.02115, 0.002325));
#140 = LINE('', #139, #138);
#141 = DIRECTION('', (1., -0., 0.));
#142 = VECTOR('', #141, 1.);
#143 = CARTESIAN_POINT('', (-0.02115, -0.02115, -0.002325));
#144 = LINE('', #143, #142);
#145 = DIRECTION('', (1., -0., 0.));
#146 = VECTOR('', #145, 1.);
#147 = CARTESIAN_POINT('', (-0.02115, -0.02115, 0.002325));
#148 = LINE('', #147, #146);
#149 = DIRECTION('', (1., -0., -0.));
#150 = DIRECTION('', (0., 0., 1.));
#151 = CARTESIAN_POINT('', (0.0155, 0., -0.002325));
#152 = AXIS2_PLACEMENT_3D('', #151, #150, #149);
#153 = CIRCLE('', #152, 0.0015);
#154 = DIRECTION('', (1., -0., 0.));
#155 = DIRECTION('', (0., -0., -1.));
#156 = CARTESIAN_POINT('', (0.0155, 0., -0.002325));
#157 = AXIS2_PLACEMENT_3D('', #156, #155, #154);
#158 = CIRCLE('', #157, 0.0015);
#159 = DIRECTION('', (1., -0., 0.));
#160 = DIRECTION('', (-0., -0., 1.));
#161 = CARTESIAN_POINT('', (0.0155, 0., 0.002325));
#162 = AXIS2_PLACEMENT_3D('', #161, #160, #159);
#163 = CIRCLE('', #162, 0.0015);
#164 = DIRECTION('', (1., 0., -0.));
#165 = DIRECTION('', (-0., 0., -1.));
#166 = CARTESIAN_POINT('', (0.0155, -0., 0.002325));
#167 = AXIS2_PLACEMENT_3D('', #166, #165, #164);
#168 = CIRCLE('', #167, 0.0015);
#169 = DIRECTION('', (-0.00000001, -1., -0.));
#170 = DIRECTION('', (0., 0., -1.));
#171 = CARTESIAN_POINT('', (0.0155, -0., -0.002325));
#172 = AXIS2_PLACEMENT_3D('', #171, #170, #169);
#173 = CIRCLE('', #172, 0.0015);
#174 = DIRECTION('', (0.00000002, 1., 0.));
#175 = DIRECTION('', (0., -0., 1.));
#176 = CARTESIAN_POINT('', (0.0155, -0., -0.002325));
#177 = AXIS2_PLACEMENT_3D('', #176, #175, #174);
#178 = CIRCLE('', #177, 0.0015);
#179 = DIRECTION('', (0.00000002, -1., 0.));
#180 = DIRECTION('', (0., -0., -1.));
#181 = CARTESIAN_POINT('', (0.0155, 0., 0.002325));
#182 = AXIS2_PLACEMENT_3D('', #181, #180, #179);
#183 = CIRCLE('', #182, 0.0015);
#184 = DIRECTION('', (-0.00000001, 1., -0.));
#185 = DIRECTION('', (-0., 0., 1.));
#186 = CARTESIAN_POINT('', (0.0155, 0., 0.002325));
#187 = AXIS2_PLACEMENT_3D('', #186, #185, #184);
#188 = CIRCLE('', #187, 0.0015);
#189 = DIRECTION('', (0., -0., 1.));
#190 = VECTOR('', #189, 1.);
#191 = CARTESIAN_POINT('', (0.014, 0., -0.002325));
#192 = LINE('', #191, #190);
#193 = DIRECTION('', (0., -0., 1.));
#194 = VECTOR('', #193, 1.);
#195 = CARTESIAN_POINT('', (0.017, 0., -0.002325));
#196 = LINE('', #195, #194);
#197 = DIRECTION('', (1., 0., -0.));
#198 = DIRECTION('', (0., 0., 1.));
#199 = CARTESIAN_POINT('', (-0., 0.0155, -0.002325));
#200 = AXIS2_PLACEMENT_3D('', #199, #198, #197);
#201 = CIRCLE('', #200, 0.0015);
#202 = DIRECTION('', (1., -0., -0.));
#203 = DIRECTION('', (-0., 0., -1.));
#204 = CARTESIAN_POINT('', (-0., 0.0155, -0.002325));
#205 = AXIS2_PLACEMENT_3D('', #204, #203, #202);
#206 = CIRCLE('', #205, 0.0015);
#207 = DIRECTION('', (1., 0., 0.));
#208 = DIRECTION('', (-0., -0., 1.));
#209 = CARTESIAN_POINT('', (-0., 0.0155, 0.002325));
#210 = AXIS2_PLACEMENT_3D('', #209, #208, #207);
#211 = CIRCLE('', #210, 0.0015);
#212 = DIRECTION('', (1., -0., -0.));
#213 = DIRECTION('', (-0., -0., -1.));
#214 = CARTESIAN_POINT('', (-0., 0.0155, 0.002325));
#215 = AXIS2_PLACEMENT_3D('', #214, #213, #212);
#216 = CIRCLE('', #215, 0.0015);
#217 = DIRECTION('', (-0.00000001, -1., -0.));
#218 = DIRECTION('', (0., 0., -1.));
#219 = CARTESIAN_POINT('', (0., 0.0155, -0.002325));
#220 = AXIS2_PLACEMENT_3D('', #219, #218, #217);
#221 = CIRCLE('', #220, 0.0015);
#222 = DIRECTION('', (0.00000001, 1., 0.));
#223 = DIRECTION('', (0., -0., 1.));
#224 = CARTESIAN_POINT('', (0., 0.0155, -0.002325));
#225 = AXIS2_PLACEMENT_3D('', #224, #223, #222);
#226 = CIRCLE('', #225, 0.0015);
#227 = DIRECTION('', (0.00000001, -1., 0.));
#228 = DIRECTION('', (0., 0., -1.));
#229 = CARTESIAN_POINT('', (0., 0.0155, 0.002325));
#230 = AXIS2_PLACEMENT_3D('', #229, #228, #227);
#231 = CIRCLE('', #230, 0.0015);
#232 = DIRECTION('', (-0.00000001, 1., -0.));
#233 = DIRECTION('', (-0., 0., 1.));
#234 = CARTESIAN_POINT('', (-0., 0.0155, 0.002325));
#235 = AXIS2_PLACEMENT_3D('', #234, #233, #232);
#236 = CIRCLE('', #235, 0.0015);
#237 = DIRECTION('', (0., -0., 1.));
#238 = VECTOR('', #237, 1.);
#239 = CARTESIAN_POINT('', (-0.0015, 0.0155, -0.002325));
#240 = LINE('', #239, #238);
#241 = DIRECTION('', (0., -0., 1.));
#242 = VECTOR('', #241, 1.);
#243 = CARTESIAN_POINT('', (0.0015, 0.0155, -0.002325));
#244 = LINE('', #243, #242);
#245 = DIRECTION('', (1., -0., 0.));
#246 = DIRECTION('', (-0., -0., 1.));
#247 = CARTESIAN_POINT('', (-0.0155, 0., -0.002325));
#248 = AXIS2_PLACEMENT_3D('', #247, #246, #245);
#249 = CIRCLE('', #248, 0.0015);
#250 = DIRECTION('', (1., -0., -0.));
#251 = DIRECTION('', (-0., 0., -1.));
#252 = CARTESIAN_POINT('', (-0.0155, 0., -0.002325));
#253 = AXIS2_PLACEMENT_3D('', #252, #251, #250);
#254 = CIRCLE('', #253, 0.0015);
#255 = DIRECTION('', (1., 0., -0.));
#256 = DIRECTION('', (0., 0., 1.));
#257 = CARTESIAN_POINT('', (-0.0155, -0., 0.002325));
#258 = AXIS2_PLACEMENT_3D('', #257, #256, #255);
#259 = CIRCLE('', #258, 0.0015);
#260 = DIRECTION('', (1., 0., 0.));
#261 = DIRECTION('', (-0., 0., -1.));
#262 = CARTESIAN_POINT('', (-0.0155, -0., 0.002325));
#263 = AXIS2_PLACEMENT_3D('', #262, #261, #260);
#264 = CIRCLE('', #263, 0.0015);
#265 = DIRECTION('', (-0.00000002, -1., -0.));
#266 = DIRECTION('', (0., 0., -1.));
#267 = CARTESIAN_POINT('', (-0.0155, -0., -0.002325));
#268 = AXIS2_PLACEMENT_3D('', #267, #266, #265);
#269 = CIRCLE('', #268, 0.0015);
#270 = DIRECTION('', (0.00000001, 1., 0.));
#271 = DIRECTION('', (0., -0., 1.));
#272 = CARTESIAN_POINT('', (-0.0155, -0., -0.002325));
#273 = AXIS2_PLACEMENT_3D('', #272, #271, #270);
#274 = CIRCLE('', #273, 0.0015);
#275 = DIRECTION('', (0.00000001, -1., -0.));
#276 = DIRECTION('', (0., 0., -1.));
#277 = CARTESIAN_POINT('', (-0.0155, -0., 0.002325));
#278 = AXIS2_PLACEMENT_3D('', #277, #276, #275);
#279 = CIRCLE('', #278, 0.0015);
#280 = DIRECTION('', (-0.00000002, 1., -0.));
#281 = DIRECTION('', (-0., 0., 1.));
#282 = CARTESIAN_POINT('', (-0.0155, 0., 0.002325));
#283 = AXIS2_PLACEMENT_3D('', #282, #281, #280);
#284 = CIRCLE('', #283, 0.0015);
#285 = DIRECTION('', (0., -0., 1.));
#286 = VECTOR('', #285, 1.);
#287 = CARTESIAN_POINT('', (-0.017, 0., -0.002325));
#288 = LINE('', #287, #286);
#289 = DIRECTION('', (0., -0., 1.));
#290 = VECTOR('', #289, 1.);
#291 = CARTESIAN_POINT('', (-0.014, 0., -0.002325));
#292 = LINE('', #291, #290);
#293 = DIRECTION('', (1., 0., -0.));
#294 = DIRECTION('', (0., 0., 1.));
#295 = CARTESIAN_POINT('', (-0., -0.0155, -0.002325));
#296 = AXIS2_PLACEMENT_3D('', #295, #294, #293);
#297 = CIRCLE('', #296, 0.0015);
#298 = DIRECTION('', (1., -0., 0.));
#299 = DIRECTION('', (0., -0., -1.));
#300 = CARTESIAN_POINT('', (-0., -0.0155, -0.002325));
#301 = AXIS2_PLACEMENT_3D('', #300, #299, #298);
#302 = CIRCLE('', #301, 0.0015);
#303 = DIRECTION('', (1., 0., 0.));
#304 = DIRECTION('', (-0., -0., 1.));
#305 = CARTESIAN_POINT('', (-0., -0.0155, 0.002325));
#306 = AXIS2_PLACEMENT_3D('', #305, #304, #303);
#307 = CIRCLE('', #306, 0.0015);
#308 = DIRECTION('', (1., 0., 0.));
#309 = DIRECTION('', (0., -0., -1.));
#310 = CARTESIAN_POINT('', (0., -0.0155, 0.002325));
#311 = AXIS2_PLACEMENT_3D('', #310, #309, #308);
#312 = CIRCLE('', #311, 0.0015);
#313 = DIRECTION('', (-0.00000001, -1., 0.));
#314 = DIRECTION('', (-0., -0., -1.));
#315 = CARTESIAN_POINT('', (0., -0.0155, -0.002325));
#316 = AXIS2_PLACEMENT_3D('', #315, #314, #313);
#317 = CIRCLE('', #316, 0.0015);
#318 = DIRECTION('', (0.00000001, 1., -0.));
#319 = DIRECTION('', (-0., 0., 1.));
#320 = CARTESIAN_POINT('', (0., -0.0155, -0.002325));
#321 = AXIS2_PLACEMENT_3D('', #320, #319, #318);
#322 = CIRCLE('', #321, 0.0015);
#323 = DIRECTION('', (0.00000001, -1., 0.));
#324 = DIRECTION('', (-0., -0., -1.));
#325 = CARTESIAN_POINT('', (0., -0.0155, 0.002325));
#326 = AXIS2_PLACEMENT_3D('', #325, #324, #323);
#327 = CIRCLE('', #326, 0.0015);
#328 = DIRECTION('', (-0.00000001, 1., 0.));
#329 = DIRECTION('', (0., -0., 1.));
#330 = CARTESIAN_POINT('', (0., -0.0155, 0.002325));
#331 = AXIS2_PLACEMENT_3D('', #330, #329, #328);
#332 = CIRCLE('', #331, 0.0015);
#333 = DIRECTION('', (0., -0., 1.));
#334 = VECTOR('', #333, 1.);
#335 = CARTESIAN_POINT('', (-0.0015, -0.0155, -0.002325));
#336 = LINE('', #335, #334);
#337 = DIRECTION('', (0., -0., 1.));
#338 = VECTOR('', #337, 1.);
#339 = CARTESIAN_POINT('', (0.0015, -0.0155, -0.002325));
#340 = LINE('', #339, #338);
#341 = DIRECTION('', (1., 0., 0.));
#342 = DIRECTION('', (-0., -0., 1.));
#343 = CARTESIAN_POINT('', (-0., -0., -0.002325));
#344 = AXIS2_PLACEMENT_3D('', #343, #342, #341);
#345 = CIRCLE('', #344, 0.011);
#346 = DIRECTION('', (1., -0., -0.));
#347 = DIRECTION('', (-0., 0., -1.));
#348 = CARTESIAN_POINT('', (-0., 0., -0.002325));
#349 = AXIS2_PLACEMENT_3D('', #348, #347, #346);
#350 = CIRCLE('', #349, 0.011);
#351 = DIRECTION('', (1., -0., 0.));
#352 = DIRECTION('', (-0., -0., 1.));
#353 = CARTESIAN_POINT('', (0., 0., 0.002325));
#354 = AXIS2_PLACEMENT_3D('', #353, #352, #351);
#355 = CIRCLE('', #354, 0.011);
#356 = DIRECTION('', (1., 0., 0.));
#357 = DIRECTION('', (0., -0., -1.));
#358 = CARTESIAN_POINT('', (0., -0., 0.002325));
#359 = AXIS2_PLACEMENT_3D('', #358, #357, #356);
#360 = CIRCLE('', #359, 0.011);
#361 = DIRECTION('', (-0., -1., -0.));
#362 = DIRECTION('', (0., 0., -1.));
#363 = CARTESIAN_POINT('', (0., 0., -0.002325));
#364 = AXIS2_PLACEMENT_3D('', #363, #362, #361);
#365 = CIRCLE('', #364, 0.011);
#366 = DIRECTION('', (0., 1., 0.));
#367 = DIRECTION('', (0., -0., 1.));
#368 = CARTESIAN_POINT('', (0., -0., -0.002325));
#369 = AXIS2_PLACEMENT_3D('', #368, #367, #366);
#370 = CIRCLE('', #369, 0.011);
#371 = DIRECTION('', (0., -1., 0.));
#372 = DIRECTION('', (0., -0., -1.));
#373 = CARTESIAN_POINT('', (-0., -0., 0.002325));
#374 = AXIS2_PLACEMENT_3D('', #373, #372, #371);
#375 = CIRCLE('', #374, 0.011);
#376 = DIRECTION('', (-0., 1., -0.));
#377 = DIRECTION('', (-0., 0., 1.));
#378 = CARTESIAN_POINT('', (-0., 0., 0.002325));
#379 = AXIS2_PLACEMENT_3D('', #378, #377, #376);
#380 = CIRCLE('', #379, 0.011);
#381 = DIRECTION('', (0., -0., 1.));
#382 = VECTOR('', #381, 1.);
#383 = CARTESIAN_POINT('', (-0.011, 0., -0.002325));
#384 = LINE('', #383, #382);
#385 = DIRECTION('', (0., -0., 1.));
#386 = VECTOR('', #385, 1.);
#387 = CARTESIAN_POINT('', (0.011, 0., -0.002325));
#388 = LINE('', #387, #386);
#389 = EDGE_CURVE('', #6, #8, #104, .T.);
#390 = EDGE_CURVE('', #8, #10, #108, .T.);
#391 = EDGE_CURVE('', #12, #10, #112, .T.);
#392 = EDGE_CURVE('', #6, #12, #116, .T.);
#393 = EDGE_CURVE('', #8, #14, #120, .T.);
#394 = EDGE_CURVE('', #14, #16, #124, .T.);
#395 = EDGE_CURVE('', #10, #16, #128, .T.);
#396 = EDGE_CURVE('', #14, #18, #132, .T.);
#397 = EDGE_CURVE('', #18, #20, #136, .T.);
#398 = EDGE_CURVE('', #16, #20, #140, .T.);
#399 = EDGE_CURVE('', #18, #6, #144, .T.);
#400 = EDGE_CURVE('', #20, #12, #148, .T.);
#401 = EDGE_CURVE('', #22, #32, #153, .T.);
#402 = EDGE_CURVE('', #22, #30, #158, .T.);
#403 = EDGE_CURVE('', #26, #36, #163, .T.);
#404 = EDGE_CURVE('', #26, #34, #168, .T.);
#405 = EDGE_CURVE('', #30, #24, #173, .T.);
#406 = EDGE_CURVE('', #32, #24, #178, .T.);
#407 = EDGE_CURVE('', #34, #28, #183, .T.);
#408 = EDGE_CURVE('', #36, #28, #188, .T.);
#409 = EDGE_CURVE('', #24, #28, #192, .T.);
#410 = EDGE_CURVE('', #22, #26, #196, .T.);
#411 = EDGE_CURVE('', #38, #48, #201, .T.);
#412 = EDGE_CURVE('', #38, #46, #206, .T.);
#413 = EDGE_CURVE('', #42, #52, #211, .T.);
#414 = EDGE_CURVE('', #42, #50, #216, .T.);
#415 = EDGE_CURVE('', #46, #40, #221, .T.);
#416 = EDGE_CURVE('', #48, #40, #226, .T.);
#417 = EDGE_CURVE('', #50, #44, #231, .T.);
#418 = EDGE_CURVE('', #52, #44, #236, .T.);
#419 = EDGE_CURVE('', #40, #44, #240, .T.);
#420 = EDGE_CURVE('', #38, #42, #244, .T.);
#421 = EDGE_CURVE('', #54, #64, #249, .T.);
#422 = EDGE_CURVE('', #54, #62, #254, .T.);
#423 = EDGE_CURVE('', #58, #68, #259, .T.);
#424 = EDGE_CURVE('', #58, #66, #264, .T.);
#425 = EDGE_CURVE('', #62, #56, #269, .T.);
#426 = EDGE_CURVE('', #64, #56, #274, .T.);
#427 = EDGE_CURVE('', #66, #60, #279, .T.);
#428 = EDGE_CURVE('', #68, #60, #284, .T.);
#429 = EDGE_CURVE('', #56, #60, #288, .T.);
#430 = EDGE_CURVE('', #54, #58, #292, .T.);
#431 = EDGE_CURVE('', #70, #80, #297, .T.);
#432 = EDGE_CURVE('', #70, #78, #302, .T.);
#433 = EDGE_CURVE('', #74, #84, #307, .T.);
#434 = EDGE_CURVE('', #74, #82, #312, .T.);
#435 = EDGE_CURVE('', #78, #72, #317, .T.);
#436 = EDGE_CURVE('', #80, #72, #322, .T.);
#437 = EDGE_CURVE('', #82, #76, #327, .T.);
#438 = EDGE_CURVE('', #84, #76, #332, .T.);
#439 = EDGE_CURVE('', #72, #76, #336, .T.);
#440 = EDGE_CURVE('', #70, #74, #340, .T.);
#441 = EDGE_CURVE('', #86, #96, #345, .T.);
#442 = EDGE_CURVE('', #86, #94, #350, .T.);
#443 = EDGE_CURVE('', #90, #100, #355, .T.);
#444 = EDGE_CURVE('', #90, #98, #360, .T.);
#445 = EDGE_CURVE('', #94, #88, #365, .T.);
#446 = EDGE_CURVE('', #96, #88, #370, .T.);
#447 = EDGE_CURVE('', #98, #92, #375, .T.);
#448 = EDGE_CURVE('', #100, #92, #380, .T.);
#449 = EDGE_CURVE('', #88, #92, #384, .T.);
#450 = EDGE_CURVE('', #86, #90, #388, .T.);
#451 = CARTESIAN_POINT('', (0.02115, 0., 0.));
#452 = DIRECTION('', (1., -0., 0.));
#453 = AXIS2_PLACEMENT_3D('', #451, #452, $);
#454 = PLANE('', #453);
#455 = CARTESIAN_POINT('', (0., 0.02115, 0.));
#456 = DIRECTION('', (0., 1., -0.));
#457 = AXIS2_PLACEMENT_3D('', #455, #456, $);
#458 = PLANE('', #457);
#459 = CARTESIAN_POINT('', (-0.02115, 0., 0.));
#460 = DIRECTION('', (-1., -0., 0.));
#461 = AXIS2_PLACEMENT_3D('', #459, #460, $);
#462 = PLANE('', #461);
#463 = CARTESIAN_POINT('', (0., -0.02115, 0.));
#464 = DIRECTION('', (0., -1., 0.));
#465 = AXIS2_PLACEMENT_3D('', #463, #464, $);
#466 = PLANE('', #465);
#467 = CARTESIAN_POINT('', (0., 0., -0.002325));
#468 = DIRECTION('', (0., -0., 1.));
#469 = AXIS2_PLACEMENT_3D('', #467, #468, $);
#470 = PLANE('', #469);
#471 = CARTESIAN_POINT('', (0., 0., 0.002325));
#472 = DIRECTION('', (0., -0., 1.));
#473 = AXIS2_PLACEMENT_3D('', #471, #472, $);
#474 = PLANE('', #473);
#475 = CARTESIAN_POINT('', (0.0155, 0., 0.));
#476 = DIRECTION('', (-0., -0., 1.));
#477 = DIRECTION('', (1., -0., 0.));
#478 = AXIS2_PLACEMENT_3D('', #475, #476, #477);
#479 = CYLINDRICAL_SURFACE('', #478, 0.0015);
#480 = CARTESIAN_POINT('', (0., 0.0155, 0.));
#481 = DIRECTION('', (0., -0., 1.));
#482 = DIRECTION('', (1., 0., 0.));
#483 = AXIS2_PLACEMENT_3D('', #480, #481, #482);
#484 = CYLINDRICAL_SURFACE('', #483, 0.0015);
#485 = CARTESIAN_POINT('', (-0.0155, -0., 0.));
#486 = DIRECTION('', (0., -0., 1.));
#487 = DIRECTION('', (1., 0., 0.));
#488 = AXIS2_PLACEMENT_3D('', #485, #486, #487);
#489 = CYLINDRICAL_SURFACE('', #488, 0.0015);
#490 = CARTESIAN_POINT('', (-0., -0.0155, 0.));
#491 = DIRECTION('', (0., -0., 1.));
#492 = DIRECTION('', (1., 0., 0.));
#493 = AXIS2_PLACEMENT_3D('', #490, #491, #492);
#494 = CYLINDRICAL_SURFACE('', #493, 0.0015);
#495 = CARTESIAN_POINT('', (0., -0., 0.));
#496 = DIRECTION('', (0., -0., 1.));
#497 = DIRECTION('', (1., 0., 0.));
#498 = AXIS2_PLACEMENT_3D('', #495, #496, #497);
#499 = CYLINDRICAL_SURFACE('', #498, 0.011);
#500 = ORIENTED_EDGE('', *, *, #389, .T.);
#501 = ORIENTED_EDGE('', *, *, #390, .T.);
#502 = ORIENTED_EDGE('', *, *, #391, .F.);
#503 = ORIENTED_EDGE('', *, *, #392, .F.);
#504 = EDGE_LOOP('', (#500, #501, #502, #503));
#505 = FACE_BOUND('', #504, .T.);
#506 = ADVANCED_FACE('', (#505), #454, .T.);
#507 = ORIENTED_EDGE('', *, *, #393, .T.);
#508 = ORIENTED_EDGE('', *, *, #394, .T.);
#509 = ORIENTED_EDGE('', *, *, #395, .F.);
#510 = ORIENTED_EDGE('', *, *, #390, .F.);
#511 = EDGE_LOOP('', (#507, #508, #509, #510));
#512 = FACE_BOUND('', #511, .T.);
#513 = ADVANCED_FACE('', (#512), #458, .T.);
#514 = ORIENTED_EDGE('', *, *, #396, .T.);
#515 = ORIENTED_EDGE('', *, *, #397, .T.);
#516 = ORIENTED_EDGE('', *, *, #398, .F.);
#517 = ORIENTED_EDGE('', *, *, #394, .F.);
#518 = EDGE_LOOP('', (#514, #515, #516, #517));
#519 = FACE_BOUND('', #518, .T.);
#520 = ADVANCED_FACE('', (#519), #462, .T.);
#521 = ORIENTED_EDGE('', *, *, #399, .T.);
#522 = ORIENTED_EDGE('', *, *, #392, .T.);
#523 = ORIENTED_EDGE('', *, *, #400, .F.);
#524 = ORIENTED_EDGE('', *, *, #397, .F.);
#525 = EDGE_LOOP('', (#521, #522, #523, #524));
#526 = FACE_BOUND('', #525, .T.);
#527 = ADVANCED_FACE('', (#526), #466, .T.);
#528 = ORIENTED_EDGE('', *, *, #399, .F.);
#529 = ORIENTED_EDGE('', *, *, #396, .F.);
#530 = ORIENTED_EDGE('', *, *, #393, .F.);
#531 = ORIENTED_EDGE('', *, *, #389, .F.);
#532 = ORIENTED_EDGE('', *, *, #406, .T.);
#533 = ORIENTED_EDGE('', *, *, #405, .F.);
#534 = ORIENTED_EDGE('', *, *, #402, .F.);
#535 = ORIENTED_EDGE('', *, *, #401, .T.);
#536 = ORIENTED_EDGE('', *, *, #416, .T.);
#537 = ORIENTED_EDGE('', *, *, #415, .F.);
#538 = ORIENTED_EDGE('', *, *, #412, .F.);
#539 = ORIENTED_EDGE('', *, *, #411, .T.);
#540 = ORIENTED_EDGE('', *, *, #426, .T.);
#541 = ORIENTED_EDGE('', *, *, #425, .F.);
#542 = ORIENTED_EDGE('', *, *, #422, .F.);
#543 = ORIENTED_EDGE('', *, *, #421, .T.);
#544 = ORIENTED_EDGE('', *, *, #436, .T.);
#545 = ORIENTED_EDGE('', *, *, #435, .F.);
#546 = ORIENTED_EDGE('', *, *, #432, .F.);
#547 = ORIENTED_EDGE('', *, *, #431, .T.);
#548 = ORIENTED_EDGE('', *, *, #446, .T.);
#549 = ORIENTED_EDGE('', *, *, #445, .F.);
#550 = ORIENTED_EDGE('', *, *, #442, .F.);
#551 = ORIENTED_EDGE('', *, *, #441, .T.);
#552 = EDGE_LOOP('', (#528, #529, #530, #531));
#553 = FACE_BOUND('', #552, .T.);
#554 = EDGE_LOOP('', (#532, #533, #534, #535));
#555 = FACE_BOUND('', #554, .T.);
#556 = EDGE_LOOP('', (#536, #537, #538, #539));
#557 = FACE_BOUND('', #556, .T.);
#558 = EDGE_LOOP('', (#540, #541, #542, #543));
#559 = FACE_BOUND('', #558, .T.);
#560 = EDGE_LOOP('', (#544, #545, #546, #547));
#561 = FACE_BOUND('', #560, .T.);
#562 = EDGE_LOOP('', (#548, #549, #550, #551));
#563 = FACE_BOUND('', #562, .T.);
#564 = ADVANCED_FACE('', (#553, #555, #557, #559, #561, #563), #470, .F.);
#565 = ORIENTED_EDGE('', *, *, #391, .T.);
#566 = ORIENTED_EDGE('', *, *, #395, .T.);
#567 = ORIENTED_EDGE('', *, *, #398, .T.);
#568 = ORIENTED_EDGE('', *, *, #400, .T.);
#569 = ORIENTED_EDGE('', *, *, #403, .F.);
#570 = ORIENTED_EDGE('', *, *, #404, .T.);
#571 = ORIENTED_EDGE('', *, *, #407, .T.);
#572 = ORIENTED_EDGE('', *, *, #408, .F.);
#573 = ORIENTED_EDGE('', *, *, #413, .F.);
#574 = ORIENTED_EDGE('', *, *, #414, .T.);
#575 = ORIENTED_EDGE('', *, *, #417, .T.);
#576 = ORIENTED_EDGE('', *, *, #418, .F.);
#577 = ORIENTED_EDGE('', *, *, #423, .F.);
#578 = ORIENTED_EDGE('', *, *, #424, .T.);
#579 = ORIENTED_EDGE('', *, *, #427, .T.);
#580 = ORIENTED_EDGE('', *, *, #428, .F.);
#581 = ORIENTED_EDGE('', *, *, #433, .F.);
#582 = ORIENTED_EDGE('', *, *, #434, .T.);
#583 = ORIENTED_EDGE('', *, *, #437, .T.);
#584 = ORIENTED_EDGE('', *, *, #438, .F.);
#585 = ORIENTED_EDGE('', *, *, #443, .F.);
#586 = ORIENTED_EDGE('', *, *, #444, .T.);
#587 = ORIENTED_EDGE('', *, *, #447, .T.);
#588 = ORIENTED_EDGE('', *, *, #448, .F.);
#589 = EDGE_LOOP('', (#565, #566, #567, #568));
#590 = FACE_BOUND('', #589, .T.);
#591 = EDGE_LOOP('', (#569, #570, #571, #572));
#592 = FACE_BOUND('', #591, .T.);
#593 = EDGE_LOOP('', (#573, #574, #575, #576));
#594 = FACE_BOUND('', #593, .T.);
#595 = EDGE_LOOP('', (#577, #578, #579, #580));
#596 = FACE_BOUND('', #595, .T.);
#597 = EDGE_LOOP('', (#581, #582, #583, #584));
#598 = FACE_BOUND('', #597, .T.);
#599 = EDGE_LOOP('', (#585, #586, #587, #588));
#600 = FACE_BOUND('', #599, .T.);
#601 = ADVANCED_FACE('', (#590, #592, #594, #596, #598, #600), #474, .T.);
#602 = ORIENTED_EDGE('', *, *, #406, .F.);
#603 = ORIENTED_EDGE('', *, *, #401, .F.);
#604 = ORIENTED_EDGE('', *, *, #410, .T.);
#605 = ORIENTED_EDGE('', *, *, #403, .T.);
#606 = ORIENTED_EDGE('', *, *, #408, .T.);
#607 = ORIENTED_EDGE('', *, *, #409, .F.);
#608 = EDGE_LOOP('', (#602, #603, #604, #605, #606, #607));
#609 = FACE_BOUND('', #608, .T.);
#610 = ADVANCED_FACE('', (#609), #479, .F.);
#611 = ORIENTED_EDGE('', *, *, #407, .F.);
#612 = ORIENTED_EDGE('', *, *, #404, .F.);
#613 = ORIENTED_EDGE('', *, *, #410, .F.);
#614 = ORIENTED_EDGE('', *, *, #402, .T.);
#615 = ORIENTED_EDGE('', *, *, #405, .T.);
#616 = ORIENTED_EDGE('', *, *, #409, .T.);
#617 = EDGE_LOOP('', (#611, #612, #613, #614, #615, #616));
#618 = FACE_BOUND('', #617, .T.);
#619 = ADVANCED_FACE('', (#618), #479, .F.);
#620 = ORIENTED_EDGE('', *, *, #416, .F.);
#621 = ORIENTED_EDGE('', *, *, #411, .F.);
#622 = ORIENTED_EDGE('', *, *, #420, .T.);
#623 = ORIENTED_EDGE('', *, *, #413, .T.);
#624 = ORIENTED_EDGE('', *, *, #418, .T.);
#625 = ORIENTED_EDGE('', *, *, #419, .F.);
#626 = EDGE_LOOP('', (#620, #621, #622, #623, #624, #625));
#627 = FACE_BOUND('', #626, .T.);
#628 = ADVANCED_FACE('', (#627), #484, .F.);
#629 = ORIENTED_EDGE('', *, *, #417, .F.);
#630 = ORIENTED_EDGE('', *, *, #414, .F.);
#631 = ORIENTED_EDGE('', *, *, #420, .F.);
#632 = ORIENTED_EDGE('', *, *, #412, .T.);
#633 = ORIENTED_EDGE('', *, *, #415, .T.);
#634 = ORIENTED_EDGE('', *, *, #419, .T.);
#635 = EDGE_LOOP('', (#629, #630, #631, #632, #633, #634));
#636 = FACE_BOUND('', #635, .T.);
#637 = ADVANCED_FACE('', (#636), #484, .F.);
#638 = ORIENTED_EDGE('', *, *, #426, .F.);
#639 = ORIENTED_EDGE('', *, *, #421, .F.);
#640 = ORIENTED_EDGE('', *, *, #430, .T.);
#641 = ORIENTED_EDGE('', *, *, #423, .T.);
#642 = ORIENTED_EDGE('', *, *, #428, .T.);
#643 = ORIENTED_EDGE('', *, *, #429, .F.);
#644 = EDGE_LOOP('', (#638, #639, #640, #641, #642, #643));
#645 = FACE_BOUND('', #644, .T.);
#646 = ADVANCED_FACE('', (#645), #489, .F.);
#647 = ORIENTED_EDGE('', *, *, #427, .F.);
#648 = ORIENTED_EDGE('', *, *, #424, .F.);
#649 = ORIENTED_EDGE('', *, *, #430, .F.);
#650 = ORIENTED_EDGE('', *, *, #422, .T.);
#651 = ORIENTED_EDGE('', *, *, #425, .T.);
#652 = ORIENTED_EDGE('', *, *, #429, .T.);
#653 = EDGE_LOOP('', (#647, #648, #649, #650, #651, #652));
#654 = FACE_BOUND('', #653, .T.);
#655 = ADVANCED_FACE('', (#654), #489, .F.);
#656 = ORIENTED_EDGE('', *, *, #436, .F.);
#657 = ORIENTED_EDGE('', *, *, #431, .F.);
#658 = ORIENTED_EDGE('', *, *, #440, .T.);
#659 = ORIENTED_EDGE('', *, *, #433, .T.);
#660 = ORIENTED_EDGE('', *, *, #438, .T.);
#661 = ORIENTED_EDGE('', *, *, #439, .F.);
#662 = EDGE_LOOP('', (#656, #657, #658, #659, #660, #661));
#663 = FACE_BOUND('', #662, .T.);
#664 = ADVANCED_FACE('', (#663), #494, .F.);
#665 = ORIENTED_EDGE('', *, *, #437, .F.);
#666 = ORIENTED_EDGE('', *, *, #434, .F.);
#667 = ORIENTED_EDGE('', *, *, #440, .F.);
#668 = ORIENTED_EDGE('', *, *, #432, .T.);
#669 = ORIENTED_EDGE('', *, *, #435, .T.);
#670 = ORIENTED_EDGE('', *, *, #439, .T.);
#671 = EDGE_LOOP('', (#665, #666, #667, #668, #669, #670));
#672 = FACE_BOUND('', #671, .T.);
#673 = ADVANCED_FACE('', (#672), #494, .F.);
#674 = ORIENTED_EDGE('', *, *, #446, .F.);
#675 = ORIENTED_EDGE('', *, *, #441, .F.);
#676 = ORIENTED_EDGE('', *, *, #450, .T.);
#677 = ORIENTED_EDGE('', *, *, #443, .T.);
#678 = ORIENTED_EDGE('', *, *, #448, .T.);
#679 = ORIENTED_EDGE('', *, *, #449, .F.);
#680 = EDGE_LOOP('', (#674, #675, #676, #677, #678, #679));
#681 = FACE_BOUND('', #680, .T.);
#682 = ADVANCED_FACE('', (#681), #499, .F.);
#683 = ORIENTED_EDGE('', *, *, #447, .F.);
#684 = ORIENTED_EDGE('', *, *, #444, .F.);
#685 = ORIENTED_EDGE('', *, *, #450, .F.);
#686 = ORIENTED_EDGE('', *, *, #442, .T.);
#687 = ORIENTED_EDGE('', *, *, #445, .T.);
#688 = ORIENTED_EDGE('', *, *, #449, .T.);
#689 = EDGE_LOOP('', (#683, #684, #685, #686, #687, #688));
#690 = FACE_BOUND('', #689, .T.);
#691 = ADVANCED_FACE('', (#690), #499, .F.);
#692 = CLOSED_SHELL('', (#506, #513, #520, #527, #564, #601, #610, #619, #628, #637, #646, #655, #664, #673, #682, #691));
#693 = MANIFOLD_SOLID_BREP('', #692);
#694 = APPLICATION_CONTEXT('configuration controlled 3D design of mechanical parts and assemblies');
#695 = PRODUCT_DEFINITION_CONTEXT('part definition', #694, 'design');
#696 = PRODUCT_CONTEXT('', #694, 'mechanical');
#697 = PRODUCT('UNIDENTIFIED_PRODUCT', '', $, (#696));
#698 = PRODUCT_DEFINITION_FORMATION('', $, #697);
#699 = PRODUCT_DEFINITION('design', $, #698, #695);
#700 = PRODUCT_DEFINITION_SHAPE('', '', #699);
#701 = ADVANCED_BREP_SHAPE_REPRESENTATION('', (#693), #4);
#702 = SHAPE_DEFINITION_REPRESENTATION(#700, #701);
#703 = COLOUR_RGB('', 0.68235296, 0.71764708, 0.76078433);
#704 = FILL_AREA_STYLE_COLOUR('', #703);
#705 = FILL_AREA_STYLE('', (#704));
#706 = SURFACE_STYLE_FILL_AREA(#705);
#707 = SURFACE_SIDE_STYLE('', (#706));
#708 = SURFACE_STYLE_USAGE(.BOTH., #707);
#709 = PRESENTATION_STYLE_ASSIGNMENT((#708));
#710 = STYLED_ITEM('', (#709), #693);
#711 = MECHANICAL_DESIGN_GEOMETRIC_PRESENTATION_REPRESENTATION('', (#710), #4);
ENDSEC;
END-ISO-10303-21;
