ISO-10303-21;
HEADER;
FILE_DESCRIPTION(('zoo.dev export'), '2;1');
FILE_NAME('output.step', '2026-07-29T04:49:07.824734509+00:00', (''), (''), 'zoo.dev beta', 'zoo.dev', '');
FILE_SCHEMA(('AP242_MANAGED_MODEL_BASED_3D_ENGINEERING_MIM_LF'));
ENDSEC;
DATA;
#1 = (
  LENGTH_UNIT()
  NAMED_UNIT(*)
  SI_UNIT($, .METRE.)
);
#2 = (
  NAMED_UNIT(*)
  PLANE_ANGLE_UNIT()
  SI_UNIT($, .RADIAN.)
);
#3 = UNCERTAINTY_MEASURE_WITH_UNIT(LENGTH_MEASURE(0.00001), #1, 'DISTANCE_ACCURACY_VALUE', $);
#4 = (
  GEOMETRIC_REPRESENTATION_CONTEXT(3)
  GLOBAL_UNCERTAINTY_ASSIGNED_CONTEXT((#3))
  GLOBAL_UNIT_ASSIGNED_CONTEXT((#1, #2))
  REPRESENTATION_CONTEXT('3D', '3D context')
);
#5 = CARTESIAN_POINT('', (0.03, -0.03, -0.005));
#6 = VERTEX_POINT('', #5);
#7 = CARTESIAN_POINT('', (0.03, 0.03, -0.005));
#8 = VERTEX_POINT('', #7);
#9 = CARTESIAN_POINT('', (0.03, 0.03, 0.005));
#10 = VERTEX_POINT('', #9);
#11 = CARTESIAN_POINT('', (0.03, -0.03, 0.005));
#12 = VERTEX_POINT('', #11);
#13 = CARTESIAN_POINT('', (-0.03, 0.03, -0.005));
#14 = VERTEX_POINT('', #13);
#15 = CARTESIAN_POINT('', (-0.03, 0.03, 0.005));
#16 = VERTEX_POINT('', #15);
#17 = CARTESIAN_POINT('', (-0.03, -0.03, -0.005));
#18 = VERTEX_POINT('', #17);
#19 = CARTESIAN_POINT('', (-0.03, -0.03, 0.005));
#20 = VERTEX_POINT('', #19);
#21 = CARTESIAN_POINT('', (0.015, -0.015, 0.001));
#22 = VERTEX_POINT('', #21);
#23 = CARTESIAN_POINT('', (0.015, 0.015, 0.001));
#24 = VERTEX_POINT('', #23);
#25 = CARTESIAN_POINT('', (-0.015, 0.015, 0.001));
#26 = VERTEX_POINT('', #25);
#27 = CARTESIAN_POINT('', (-0.015, -0.015, 0.001));
#28 = VERTEX_POINT('', #27);
#29 = CARTESIAN_POINT('', (0.015, -0.015, 0.005));
#30 = VERTEX_POINT('', #29);
#31 = CARTESIAN_POINT('', (0.015, 0.015, 0.005));
#32 = VERTEX_POINT('', #31);
#33 = CARTESIAN_POINT('', (-0.015, 0.015, 0.005));
#34 = VERTEX_POINT('', #33);
#35 = CARTESIAN_POINT('', (-0.015, -0.015, 0.005));
#36 = VERTEX_POINT('', #35);
#37 = DIRECTION('', (0., 1., 0.));
#38 = VECTOR('', #37, 1.);
#39 = CARTESIAN_POINT('', (0.03, -0.03, -0.005));
#40 = LINE('', #39, #38);
#41 = DIRECTION('', (0., -0., 1.));
#42 = VECTOR('', #41, 1.);
#43 = CARTESIAN_POINT('', (0.03, 0.03, -0.005));
#44 = LINE('', #43, #42);
#45 = DIRECTION('', (0., 1., 0.));
#46 = VECTOR('', #45, 1.);
#47 = CARTESIAN_POINT('', (0.03, -0.03, 0.005));
#48 = LINE('', #47, #46);
#49 = DIRECTION('', (0., -0., 1.));
#50 = VECTOR('', #49, 1.);
#51 = CARTESIAN_POINT('', (0.03, -0.03, -0.005));
#52 = LINE('', #51, #50);
#53 = DIRECTION('', (-1., -0., 0.));
#54 = VECTOR('', #53, 1.);
#55 = CARTESIAN_POINT('', (0.03, 0.03, -0.005));
#56 = LINE('', #55, #54);
#57 = DIRECTION('', (0., -0., 1.));
#58 = VECTOR('', #57, 1.);
#59 = CARTESIAN_POINT('', (-0.03, 0.03, -0.005));
#60 = LINE('', #59, #58);
#61 = DIRECTION('', (-1., -0., 0.));
#62 = VECTOR('', #61, 1.);
#63 = CARTESIAN_POINT('', (0.03, 0.03, 0.005));
#64 = LINE('', #63, #62);
#65 = DIRECTION('', (0., -1., 0.));
#66 = VECTOR('', #65, 1.);
#67 = CARTESIAN_POINT('', (-0.03, 0.03, -0.005));
#68 = LINE('', #67, #66);
#69 = DIRECTION('', (0., -0., 1.));
#70 = VECTOR('', #69, 1.);
#71 = CARTESIAN_POINT('', (-0.03, -0.03, -0.005));
#72 = LINE('', #71, #70);
#73 = DIRECTION('', (0., -1., 0.));
#74 = VECTOR('', #73, 1.);
#75 = CARTESIAN_POINT('', (-0.03, 0.03, 0.005));
#76 = LINE('', #75, #74);
#77 = DIRECTION('', (1., -0., 0.));
#78 = VECTOR('', #77, 1.);
#79 = CARTESIAN_POINT('', (-0.03, -0.03, -0.005));
#80 = LINE('', #79, #78);
#81 = DIRECTION('', (1., -0., 0.));
#82 = VECTOR('', #81, 1.);
#83 = CARTESIAN_POINT('', (-0.03, -0.03, 0.005));
#84 = LINE('', #83, #82);
#85 = DIRECTION('', (0., 1., 0.));
#86 = VECTOR('', #85, 1.);
#87 = CARTESIAN_POINT('', (0.015, -0.015, 0.001));
#88 = LINE('', #87, #86);
#89 = DIRECTION('', (0., -0., 1.));
#90 = VECTOR('', #89, 1.);
#91 = CARTESIAN_POINT('', (0.015, 0.015, 0.001));
#92 = LINE('', #91, #90);
#93 = DIRECTION('', (0., -0., 1.));
#94 = VECTOR('', #93, 1.);
#95 = CARTESIAN_POINT('', (0.015, -0.015, 0.001));
#96 = LINE('', #95, #94);
#97 = DIRECTION('', (-1., -0., 0.));
#98 = VECTOR('', #97, 1.);
#99 = CARTESIAN_POINT('', (0.015, 0.015, 0.001));
#100 = LINE('', #99, #98);
#101 = DIRECTION('', (0., -0., 1.));
#102 = VECTOR('', #101, 1.);
#103 = CARTESIAN_POINT('', (-0.015, 0.015, 0.001));
#104 = LINE('', #103, #102);
#105 = DIRECTION('', (0., -1., 0.));
#106 = VECTOR('', #105, 1.);
#107 = CARTESIAN_POINT('', (-0.015, 0.015, 0.001));
#108 = LINE('', #107, #106);
#109 = DIRECTION('', (0., -0., 1.));
#110 = VECTOR('', #109, 1.);
#111 = CARTESIAN_POINT('', (-0.015, -0.015, 0.001));
#112 = LINE('', #111, #110);
#113 = DIRECTION('', (1., -0., 0.));
#114 = VECTOR('', #113, 1.);
#115 = CARTESIAN_POINT('', (-0.015, -0.015, 0.001));
#116 = LINE('', #115, #114);
#117 = DIRECTION('', (0., 1., 0.));
#118 = VECTOR('', #117, 1.);
#119 = CARTESIAN_POINT('', (0.015, -0.015, 0.005));
#120 = LINE('', #119, #118);
#121 = DIRECTION('', (-1., -0., 0.));
#122 = VECTOR('', #121, 1.);
#123 = CARTESIAN_POINT('', (0.015, 0.015, 0.005));
#124 = LINE('', #123, #122);
#125 = DIRECTION('', (0., -1., 0.));
#126 = VECTOR('', #125, 1.);
#127 = CARTESIAN_POINT('', (-0.015, 0.015, 0.005));
#128 = LINE('', #127, #126);
#129 = DIRECTION('', (1., -0., 0.));
#130 = VECTOR('', #129, 1.);
#131 = CARTESIAN_POINT('', (-0.015, -0.015, 0.005));
#132 = LINE('', #131, #130);
#133 = EDGE_CURVE('', #6, #8, #40, .T.);
#134 = EDGE_CURVE('', #8, #10, #44, .T.);
#135 = EDGE_CURVE('', #12, #10, #48, .T.);
#136 = EDGE_CURVE('', #6, #12, #52, .T.);
#137 = EDGE_CURVE('', #8, #14, #56, .T.);
#138 = EDGE_CURVE('', #14, #16, #60, .T.);
#139 = EDGE_CURVE('', #10, #16, #64, .T.);
#140 = EDGE_CURVE('', #14, #18, #68, .T.);
#141 = EDGE_CURVE('', #18, #20, #72, .T.);
#142 = EDGE_CURVE('', #16, #20, #76, .T.);
#143 = EDGE_CURVE('', #18, #6, #80, .T.);
#144 = EDGE_CURVE('', #20, #12, #84, .T.);
#145 = EDGE_CURVE('', #22, #24, #88, .T.);
#146 = EDGE_CURVE('', #24, #32, #92, .T.);
#147 = EDGE_CURVE('', #22, #30, #96, .T.);
#148 = EDGE_CURVE('', #24, #26, #100, .T.);
#149 = EDGE_CURVE('', #26, #34, #104, .T.);
#150 = EDGE_CURVE('', #26, #28, #108, .T.);
#151 = EDGE_CURVE('', #28, #36, #112, .T.);
#152 = EDGE_CURVE('', #28, #22, #116, .T.);
#153 = EDGE_CURVE('', #30, #32, #120, .T.);
#154 = EDGE_CURVE('', #32, #34, #124, .T.);
#155 = EDGE_CURVE('', #34, #36, #128, .T.);
#156 = EDGE_CURVE('', #36, #30, #132, .T.);
#157 = CARTESIAN_POINT('', (0.03, 0., 0.));
#158 = DIRECTION('', (1., -0., 0.));
#159 = AXIS2_PLACEMENT_3D('', #157, #158, $);
#160 = PLANE('', #159);
#161 = CARTESIAN_POINT('', (0., 0.03, 0.));
#162 = DIRECTION('', (0., 1., -0.));
#163 = AXIS2_PLACEMENT_3D('', #161, #162, $);
#164 = PLANE('', #163);
#165 = CARTESIAN_POINT('', (-0.03, 0., 0.));
#166 = DIRECTION('', (-1., -0., 0.));
#167 = AXIS2_PLACEMENT_3D('', #165, #166, $);
#168 = PLANE('', #167);
#169 = CARTESIAN_POINT('', (0., -0.03, 0.));
#170 = DIRECTION('', (0., -1., 0.));
#171 = AXIS2_PLACEMENT_3D('', #169, #170, $);
#172 = PLANE('', #171);
#173 = CARTESIAN_POINT('', (0., 0., -0.005));
#174 = DIRECTION('', (0., -0., 1.));
#175 = AXIS2_PLACEMENT_3D('', #173, #174, $);
#176 = PLANE('', #175);
#177 = CARTESIAN_POINT('', (0., 0., 0.005));
#178 = DIRECTION('', (0., -0., 1.));
#179 = AXIS2_PLACEMENT_3D('', #177, #178, $);
#180 = PLANE('', #179);
#181 = CARTESIAN_POINT('', (0.015, 0., 0.00305));
#182 = DIRECTION('', (1., -0., 0.));
#183 = AXIS2_PLACEMENT_3D('', #181, #182, $);
#184 = PLANE('', #183);
#185 = CARTESIAN_POINT('', (0., 0.015, 0.00305));
#186 = DIRECTION('', (0., 1., -0.));
#187 = AXIS2_PLACEMENT_3D('', #185, #186, $);
#188 = PLANE('', #187);
#189 = CARTESIAN_POINT('', (-0.015, 0., 0.00305));
#190 = DIRECTION('', (-1., -0., 0.));
#191 = AXIS2_PLACEMENT_3D('', #189, #190, $);
#192 = PLANE('', #191);
#193 = CARTESIAN_POINT('', (0., -0.015, 0.00305));
#194 = DIRECTION('', (0., -1., 0.));
#195 = AXIS2_PLACEMENT_3D('', #193, #194, $);
#196 = PLANE('', #195);
#197 = CARTESIAN_POINT('', (0., 0., 0.001));
#198 = DIRECTION('', (0., -0., 1.));
#199 = AXIS2_PLACEMENT_3D('', #197, #198, $);
#200 = PLANE('', #199);
#201 = ORIENTED_EDGE('', *, *, #133, .T.);
#202 = ORIENTED_EDGE('', *, *, #134, .T.);
#203 = ORIENTED_EDGE('', *, *, #135, .F.);
#204 = ORIENTED_EDGE('', *, *, #136, .F.);
#205 = EDGE_LOOP('', (#201, #202, #203, #204));
#206 = FACE_BOUND('', #205, .T.);
#207 = ADVANCED_FACE('', (#206), #160, .T.);
#208 = ORIENTED_EDGE('', *, *, #137, .T.);
#209 = ORIENTED_EDGE('', *, *, #138, .T.);
#210 = ORIENTED_EDGE('', *, *, #139, .F.);
#211 = ORIENTED_EDGE('', *, *, #134, .F.);
#212 = EDGE_LOOP('', (#208, #209, #210, #211));
#213 = FACE_BOUND('', #212, .T.);
#214 = ADVANCED_FACE('', (#213), #164, .T.);
#215 = ORIENTED_EDGE('', *, *, #140, .T.);
#216 = ORIENTED_EDGE('', *, *, #141, .T.);
#217 = ORIENTED_EDGE('', *, *, #142, .F.);
#218 = ORIENTED_EDGE('', *, *, #138, .F.);
#219 = EDGE_LOOP('', (#215, #216, #217, #218));
#220 = FACE_BOUND('', #219, .T.);
#221 = ADVANCED_FACE('', (#220), #168, .T.);
#222 = ORIENTED_EDGE('', *, *, #143, .T.);
#223 = ORIENTED_EDGE('', *, *, #136, .T.);
#224 = ORIENTED_EDGE('', *, *, #144, .F.);
#225 = ORIENTED_EDGE('', *, *, #141, .F.);
#226 = EDGE_LOOP('', (#222, #223, #224, #225));
#227 = FACE_BOUND('', #226, .T.);
#228 = ADVANCED_FACE('', (#227), #172, .T.);
#229 = ORIENTED_EDGE('', *, *, #143, .F.);
#230 = ORIENTED_EDGE('', *, *, #140, .F.);
#231 = ORIENTED_EDGE('', *, *, #137, .F.);
#232 = ORIENTED_EDGE('', *, *, #133, .F.);
#233 = EDGE_LOOP('', (#229, #230, #231, #232));
#234 = FACE_BOUND('', #233, .T.);
#235 = ADVANCED_FACE('', (#234), #176, .F.);
#236 = ORIENTED_EDGE('', *, *, #135, .T.);
#237 = ORIENTED_EDGE('', *, *, #139, .T.);
#238 = ORIENTED_EDGE('', *, *, #142, .T.);
#239 = ORIENTED_EDGE('', *, *, #144, .T.);
#240 = ORIENTED_EDGE('', *, *, #153, .F.);
#241 = ORIENTED_EDGE('', *, *, #156, .F.);
#242 = ORIENTED_EDGE('', *, *, #155, .F.);
#243 = ORIENTED_EDGE('', *, *, #154, .F.);
#244 = EDGE_LOOP('', (#236, #237, #238, #239));
#245 = FACE_BOUND('', #244, .T.);
#246 = EDGE_LOOP('', (#240, #241, #242, #243));
#247 = FACE_BOUND('', #246, .T.);
#248 = ADVANCED_FACE('', (#245, #247), #180, .T.);
#249 = ORIENTED_EDGE('', *, *, #147, .T.);
#250 = ORIENTED_EDGE('', *, *, #153, .T.);
#251 = ORIENTED_EDGE('', *, *, #146, .F.);
#252 = ORIENTED_EDGE('', *, *, #145, .F.);
#253 = EDGE_LOOP('', (#249, #250, #251, #252));
#254 = FACE_BOUND('', #253, .T.);
#255 = ADVANCED_FACE('', (#254), #184, .F.);
#256 = ORIENTED_EDGE('', *, *, #146, .T.);
#257 = ORIENTED_EDGE('', *, *, #154, .T.);
#258 = ORIENTED_EDGE('', *, *, #149, .F.);
#259 = ORIENTED_EDGE('', *, *, #148, .F.);
#260 = EDGE_LOOP('', (#256, #257, #258, #259));
#261 = FACE_BOUND('', #260, .T.);
#262 = ADVANCED_FACE('', (#261), #188, .F.);
#263 = ORIENTED_EDGE('', *, *, #149, .T.);
#264 = ORIENTED_EDGE('', *, *, #155, .T.);
#265 = ORIENTED_EDGE('', *, *, #151, .F.);
#266 = ORIENTED_EDGE('', *, *, #150, .F.);
#267 = EDGE_LOOP('', (#263, #264, #265, #266));
#268 = FACE_BOUND('', #267, .T.);
#269 = ADVANCED_FACE('', (#268), #192, .F.);
#270 = ORIENTED_EDGE('', *, *, #151, .T.);
#271 = ORIENTED_EDGE('', *, *, #156, .T.);
#272 = ORIENTED_EDGE('', *, *, #147, .F.);
#273 = ORIENTED_EDGE('', *, *, #152, .F.);
#274 = EDGE_LOOP('', (#270, #271, #272, #273));
#275 = FACE_BOUND('', #274, .T.);
#276 = ADVANCED_FACE('', (#275), #196, .F.);
#277 = ORIENTED_EDGE('', *, *, #145, .T.);
#278 = ORIENTED_EDGE('', *, *, #148, .T.);
#279 = ORIENTED_EDGE('', *, *, #150, .T.);
#280 = ORIENTED_EDGE('', *, *, #152, .T.);
#281 = EDGE_LOOP('', (#277, #278, #279, #280));
#282 = FACE_BOUND('', #281, .T.);
#283 = ADVANCED_FACE('', (#282), #200, .T.);
#284 = CLOSED_SHELL('', (#207, #214, #221, #228, #235, #248, #255, #262, #269, #276, #283));
#285 = MANIFOLD_SOLID_BREP('', #284);
#286 = APPLICATION_CONTEXT('configuration controlled 3D design of mechanical parts and assemblies');
#287 = PRODUCT_DEFINITION_CONTEXT('part definition', #286, 'design');
#288 = PRODUCT_CONTEXT('', #286, 'mechanical');
#289 = PRODUCT('UNIDENTIFIED_PRODUCT', '', $, (#288));
#290 = PRODUCT_DEFINITION_FORMATION('', $, #289);
#291 = PRODUCT_DEFINITION('design', $, #290, #287);
#292 = PRODUCT_DEFINITION_SHAPE('', '', #291);
#293 = ADVANCED_BREP_SHAPE_REPRESENTATION('', (#285), #4);
#294 = SHAPE_DEFINITION_REPRESENTATION(#292, #293);
#295 = COLOUR_RGB('', 0.89999998, 0.89999998, 0.89999998);
#296 = FILL_AREA_STYLE_COLOUR('', #295);
#297 = FILL_AREA_STYLE('', (#296));
#298 = SURFACE_STYLE_FILL_AREA(#297);
#299 = SURFACE_SIDE_STYLE('', (#298));
#300 = SURFACE_STYLE_USAGE(.BOTH., #299);
#301 = PRESENTATION_STYLE_ASSIGNMENT((#300));
#302 = STYLED_ITEM('', (#301), #285);
#303 = MECHANICAL_DESIGN_GEOMETRIC_PRESENTATION_REPRESENTATION('', (#302), #4);
ENDSEC;
END-ISO-10303-21;
