ISO-10303-21;
HEADER;
FILE_DESCRIPTION(('zoo.dev export'), '2;1');
FILE_NAME('output.step', '2026-08-02T04:17:53.286666125+00:00', (''), (''), 'zoo.dev beta', 'zoo.dev', '');
FILE_SCHEMA(('AP242_MANAGED_MODEL_BASED_3D_ENGINEERING_MIM_LF'));
ENDSEC;
DATA;
#1 = (
  LENGTH_UNIT()
  NAMED_UNIT(*)
  SI_UNIT($, .METRE.)
);
#2 = (
  NAMED_UNIT(*)
  PLANE_ANGLE_UNIT()
  SI_UNIT($, .RADIAN.)
);
#3 = UNCERTAINTY_MEASURE_WITH_UNIT(LENGTH_MEASURE(0.00001), #1, 'DISTANCE_ACCURACY_VALUE', $);
#4 = (
  GEOMETRIC_REPRESENTATION_CONTEXT(3)
  GLOBAL_UNCERTAINTY_ASSIGNED_CONTEXT((#3))
  GLOBAL_UNIT_ASSIGNED_CONTEXT((#1, #2))
  REPRESENTATION_CONTEXT('3D', '3D context')
);
#5 = CARTESIAN_POINT('', (0.055, -0.02115, -0.0005));
#6 = VERTEX_POINT('', #5);
#7 = CARTESIAN_POINT('', (0.055, 0.02115, -0.0005));
#8 = VERTEX_POINT('', #7);
#9 = CARTESIAN_POINT('', (0.055, 0.02115, 0.0005));
#10 = VERTEX_POINT('', #9);
#11 = CARTESIAN_POINT('', (0.055, -0.02115, 0.0005));
#12 = VERTEX_POINT('', #11);
#13 = CARTESIAN_POINT('', (-0.055, 0.02115, -0.0005));
#14 = VERTEX_POINT('', #13);
#15 = CARTESIAN_POINT('', (-0.055, 0.02115, 0.0005));
#16 = VERTEX_POINT('', #15);
#17 = CARTESIAN_POINT('', (-0.055, -0.02115, -0.0005));
#18 = VERTEX_POINT('', #17);
#19 = CARTESIAN_POINT('', (-0.055, -0.02115, 0.0005));
#20 = VERTEX_POINT('', #19);
#21 = CARTESIAN_POINT('', (0.011, 0., -0.0005));
#22 = VERTEX_POINT('', #21);
#23 = CARTESIAN_POINT('', (-0.011, 0., -0.0005));
#24 = VERTEX_POINT('', #23);
#25 = CARTESIAN_POINT('', (0.011, 0., 0.0005));
#26 = VERTEX_POINT('', #25);
#27 = CARTESIAN_POINT('', (-0.011, 0., 0.0005));
#28 = VERTEX_POINT('', #27);
#29 = CARTESIAN_POINT('', (0., -0.011, -0.0005));
#30 = VERTEX_POINT('', #29);
#31 = CARTESIAN_POINT('', (-0., 0.011, -0.0005));
#32 = VERTEX_POINT('', #31);
#33 = CARTESIAN_POINT('', (-0., -0.011, 0.0005));
#34 = VERTEX_POINT('', #33);
#35 = CARTESIAN_POINT('', (0., 0.011, 0.0005));
#36 = VERTEX_POINT('', #35);
#37 = CARTESIAN_POINT('', (-0.0138, -0.0155, -0.0005));
#38 = VERTEX_POINT('', #37);
#39 = CARTESIAN_POINT('', (-0.0172, -0.0155, -0.0005));
#40 = VERTEX_POINT('', #39);
#41 = CARTESIAN_POINT('', (-0.0138, -0.0155, 0.0005));
#42 = VERTEX_POINT('', #41);
#43 = CARTESIAN_POINT('', (-0.0172, -0.0155, 0.0005));
#44 = VERTEX_POINT('', #43);
#45 = CARTESIAN_POINT('', (-0.0155, -0.0172, -0.0005));
#46 = VERTEX_POINT('', #45);
#47 = CARTESIAN_POINT('', (-0.0155, -0.0138, -0.0005));
#48 = VERTEX_POINT('', #47);
#49 = CARTESIAN_POINT('', (-0.0155, -0.0172, 0.0005));
#50 = VERTEX_POINT('', #49);
#51 = CARTESIAN_POINT('', (-0.0155, -0.0138, 0.0005));
#52 = VERTEX_POINT('', #51);
#53 = CARTESIAN_POINT('', (-0.0138, 0.0155, -0.0005));
#54 = VERTEX_POINT('', #53);
#55 = CARTESIAN_POINT('', (-0.0172, 0.0155, -0.0005));
#56 = VERTEX_POINT('', #55);
#57 = CARTESIAN_POINT('', (-0.0138, 0.0155, 0.0005));
#58 = VERTEX_POINT('', #57);
#59 = CARTESIAN_POINT('', (-0.0172, 0.0155, 0.0005));
#60 = VERTEX_POINT('', #59);
#61 = CARTESIAN_POINT('', (-0.0155, 0.0138, -0.0005));
#62 = VERTEX_POINT('', #61);
#63 = CARTESIAN_POINT('', (-0.0155, 0.0172, -0.0005));
#64 = VERTEX_POINT('', #63);
#65 = CARTESIAN_POINT('', (-0.0155, 0.0138, 0.0005));
#66 = VERTEX_POINT('', #65);
#67 = CARTESIAN_POINT('', (-0.0155, 0.0172, 0.0005));
#68 = VERTEX_POINT('', #67);
#69 = CARTESIAN_POINT('', (0.0172, -0.0155, -0.0005));
#70 = VERTEX_POINT('', #69);
#71 = CARTESIAN_POINT('', (0.0138, -0.0155, -0.0005));
#72 = VERTEX_POINT('', #71);
#73 = CARTESIAN_POINT('', (0.0172, -0.0155, 0.0005));
#74 = VERTEX_POINT('', #73);
#75 = CARTESIAN_POINT('', (0.0138, -0.0155, 0.0005));
#76 = VERTEX_POINT('', #75);
#77 = CARTESIAN_POINT('', (0.0155, -0.0172, -0.0005));
#78 = VERTEX_POINT('', #77);
#79 = CARTESIAN_POINT('', (0.0155, -0.0138, -0.0005));
#80 = VERTEX_POINT('', #79);
#81 = CARTESIAN_POINT('', (0.0155, -0.0172, 0.0005));
#82 = VERTEX_POINT('', #81);
#83 = CARTESIAN_POINT('', (0.0155, -0.0138, 0.0005));
#84 = VERTEX_POINT('', #83);
#85 = CARTESIAN_POINT('', (0.0172, 0.0155, -0.0005));
#86 = VERTEX_POINT('', #85);
#87 = CARTESIAN_POINT('', (0.0138, 0.0155, -0.0005));
#88 = VERTEX_POINT('', #87);
#89 = CARTESIAN_POINT('', (0.0172, 0.0155, 0.0005));
#90 = VERTEX_POINT('', #89);
#91 = CARTESIAN_POINT('', (0.0138, 0.0155, 0.0005));
#92 = VERTEX_POINT('', #91);
#93 = CARTESIAN_POINT('', (0.0155, 0.0138, -0.0005));
#94 = VERTEX_POINT('', #93);
#95 = CARTESIAN_POINT('', (0.0155, 0.0172, -0.0005));
#96 = VERTEX_POINT('', #95);
#97 = CARTESIAN_POINT('', (0.0155, 0.0138, 0.0005));
#98 = VERTEX_POINT('', #97);
#99 = CARTESIAN_POINT('', (0.0155, 0.0172, 0.0005));
#100 = VERTEX_POINT('', #99);
#101 = CARTESIAN_POINT('', (-0.0355, -0.0055, -0.0005));
#102 = VERTEX_POINT('', #101);
#103 = CARTESIAN_POINT('', (-0.0445, -0.0055, -0.0005));
#104 = VERTEX_POINT('', #103);
#105 = CARTESIAN_POINT('', (-0.0355, 0.0055, -0.0005));
#106 = VERTEX_POINT('', #105);
#107 = CARTESIAN_POINT('', (-0.0445, 0.0055, -0.0005));
#108 = VERTEX_POINT('', #107);
#109 = CARTESIAN_POINT('', (-0.0355, -0.0055, 0.0005));
#110 = VERTEX_POINT('', #109);
#111 = CARTESIAN_POINT('', (-0.0445, -0.0055, 0.0005));
#112 = VERTEX_POINT('', #111);
#113 = CARTESIAN_POINT('', (-0.0355, 0.0055, 0.0005));
#114 = VERTEX_POINT('', #113);
#115 = CARTESIAN_POINT('', (-0.0445, 0.0055, 0.0005));
#116 = VERTEX_POINT('', #115);
#117 = CARTESIAN_POINT('', (0.0445, -0.0055, -0.0005));
#118 = VERTEX_POINT('', #117);
#119 = CARTESIAN_POINT('', (0.0355, -0.0055, -0.0005));
#120 = VERTEX_POINT('', #119);
#121 = CARTESIAN_POINT('', (0.0445, 0.0055, -0.0005));
#122 = VERTEX_POINT('', #121);
#123 = CARTESIAN_POINT('', (0.0355, 0.0055, -0.0005));
#124 = VERTEX_POINT('', #123);
#125 = CARTESIAN_POINT('', (0.0445, -0.0055, 0.0005));
#126 = VERTEX_POINT('', #125);
#127 = CARTESIAN_POINT('', (0.0355, -0.0055, 0.0005));
#128 = VERTEX_POINT('', #127);
#129 = CARTESIAN_POINT('', (0.0445, 0.0055, 0.0005));
#130 = VERTEX_POINT('', #129);
#131 = CARTESIAN_POINT('', (0.0355, 0.0055, 0.0005));
#132 = VERTEX_POINT('', #131);
#133 = DIRECTION('', (0., 1., 0.));
#134 = VECTOR('', #133, 1.);
#135 = CARTESIAN_POINT('', (0.055, -0.02115, -0.0005));
#136 = LINE('', #135, #134);
#137 = DIRECTION('', (0., -0., 1.));
#138 = VECTOR('', #137, 1.);
#139 = CARTESIAN_POINT('', (0.055, 0.02115, -0.0005));
#140 = LINE('', #139, #138);
#141 = DIRECTION('', (0., 1., 0.));
#142 = VECTOR('', #141, 1.);
#143 = CARTESIAN_POINT('', (0.055, -0.02115, 0.0005));
#144 = LINE('', #143, #142);
#145 = DIRECTION('', (0., -0., 1.));
#146 = VECTOR('', #145, 1.);
#147 = CARTESIAN_POINT('', (0.055, -0.02115, -0.0005));
#148 = LINE('', #147, #146);
#149 = DIRECTION('', (-1., -0., 0.));
#150 = VECTOR('', #149, 1.);
#151 = CARTESIAN_POINT('', (0.055, 0.02115, -0.0005));
#152 = LINE('', #151, #150);
#153 = DIRECTION('', (0., -0., 1.));
#154 = VECTOR('', #153, 1.);
#155 = CARTESIAN_POINT('', (-0.055, 0.02115, -0.0005));
#156 = LINE('', #155, #154);
#157 = DIRECTION('', (-1., -0., 0.));
#158 = VECTOR('', #157, 1.);
#159 = CARTESIAN_POINT('', (0.055, 0.02115, 0.0005));
#160 = LINE('', #159, #158);
#161 = DIRECTION('', (0., -1., 0.));
#162 = VECTOR('', #161, 1.);
#163 = CARTESIAN_POINT('', (-0.055, 0.02115, -0.0005));
#164 = LINE('', #163, #162);
#165 = DIRECTION('', (0., -0., 1.));
#166 = VECTOR('', #165, 1.);
#167 = CARTESIAN_POINT('', (-0.055, -0.02115, -0.0005));
#168 = LINE('', #167, #166);
#169 = DIRECTION('', (0., -1., 0.));
#170 = VECTOR('', #169, 1.);
#171 = CARTESIAN_POINT('', (-0.055, 0.02115, 0.0005));
#172 = LINE('', #171, #170);
#173 = DIRECTION('', (1., -0., 0.));
#174 = VECTOR('', #173, 1.);
#175 = CARTESIAN_POINT('', (-0.055, -0.02115, -0.0005));
#176 = LINE('', #175, #174);
#177 = DIRECTION('', (1., -0., 0.));
#178 = VECTOR('', #177, 1.);
#179 = CARTESIAN_POINT('', (-0.055, -0.02115, 0.0005));
#180 = LINE('', #179, #178);
#181 = DIRECTION('', (1., -0., 0.));
#182 = DIRECTION('', (-0., -0., 1.));
#183 = CARTESIAN_POINT('', (0., 0., -0.0005));
#184 = AXIS2_PLACEMENT_3D('', #183, #182, #181);
#185 = CIRCLE('', #184, 0.011);
#186 = DIRECTION('', (1., -0., -0.));
#187 = DIRECTION('', (-0., 0., -1.));
#188 = CARTESIAN_POINT('', (-0., 0., -0.0005));
#189 = AXIS2_PLACEMENT_3D('', #188, #187, #186);
#190 = CIRCLE('', #189, 0.011);
#191 = DIRECTION('', (1., 0., 0.));
#192 = DIRECTION('', (-0., -0., 1.));
#193 = CARTESIAN_POINT('', (-0., -0., 0.0005));
#194 = AXIS2_PLACEMENT_3D('', #193, #192, #191);
#195 = CIRCLE('', #194, 0.011);
#196 = DIRECTION('', (1., 0., 0.));
#197 = DIRECTION('', (-0., 0., -1.));
#198 = CARTESIAN_POINT('', (0., -0., 0.0005));
#199 = AXIS2_PLACEMENT_3D('', #198, #197, #196);
#200 = CIRCLE('', #199, 0.011);
#201 = DIRECTION('', (0.00000015, -1., -0.));
#202 = DIRECTION('', (0., 0., -1.));
#203 = CARTESIAN_POINT('', (-0., -0., -0.0005));
#204 = AXIS2_PLACEMENT_3D('', #203, #202, #201);
#205 = CIRCLE('', #204, 0.011);
#206 = DIRECTION('', (-0.00000015, 1., 0.));
#207 = DIRECTION('', (0., -0., 1.));
#208 = CARTESIAN_POINT('', (0., -0., -0.0005));
#209 = AXIS2_PLACEMENT_3D('', #208, #207, #206);
#210 = CIRCLE('', #209, 0.011);
#211 = DIRECTION('', (-0.00000015, -1., -0.));
#212 = DIRECTION('', (0., 0., -1.));
#213 = CARTESIAN_POINT('', (0., 0., 0.0005));
#214 = AXIS2_PLACEMENT_3D('', #213, #212, #211);
#215 = CIRCLE('', #214, 0.011);
#216 = DIRECTION('', (0.00000015, 1., -0.));
#217 = DIRECTION('', (-0., 0., 1.));
#218 = CARTESIAN_POINT('', (-0., 0., 0.0005));
#219 = AXIS2_PLACEMENT_3D('', #218, #217, #216);
#220 = CIRCLE('', #219, 0.011);
#221 = DIRECTION('', (0., -0., 1.));
#222 = VECTOR('', #221, 1.);
#223 = CARTESIAN_POINT('', (-0.011, 0., -0.0005));
#224 = LINE('', #223, #222);
#225 = DIRECTION('', (0., -0., 1.));
#226 = VECTOR('', #225, 1.);
#227 = CARTESIAN_POINT('', (0.011, 0., -0.0005));
#228 = LINE('', #227, #226);
#229 = DIRECTION('', (1., -0., -0.));
#230 = DIRECTION('', (0., 0., 1.));
#231 = CARTESIAN_POINT('', (-0.0155, -0.0155, -0.0005));
#232 = AXIS2_PLACEMENT_3D('', #231, #230, #229);
#233 = CIRCLE('', #232, 0.0017);
#234 = DIRECTION('', (1., 0., -0.));
#235 = DIRECTION('', (-0., -0., -1.));
#236 = CARTESIAN_POINT('', (-0.0155, -0.0155, -0.0005));
#237 = AXIS2_PLACEMENT_3D('', #236, #235, #234);
#238 = CIRCLE('', #237, 0.0017);
#239 = DIRECTION('', (1., -0., 0.));
#240 = DIRECTION('', (0., 0., 1.));
#241 = CARTESIAN_POINT('', (-0.0155, -0.0155, 0.0005));
#242 = AXIS2_PLACEMENT_3D('', #241, #240, #239);
#243 = CIRCLE('', #242, 0.0017);
#244 = DIRECTION('', (1., 0., -0.));
#245 = DIRECTION('', (-0., 0., -1.));
#246 = CARTESIAN_POINT('', (-0.0155, -0.0155, 0.0005));
#247 = AXIS2_PLACEMENT_3D('', #246, #245, #244);
#248 = CIRCLE('', #247, 0.0017);
#249 = DIRECTION('', (0.00000001, -1., -0.));
#250 = DIRECTION('', (0., 0., -1.));
#251 = CARTESIAN_POINT('', (-0.0155, -0.0155, -0.0005));
#252 = AXIS2_PLACEMENT_3D('', #251, #250, #249);
#253 = CIRCLE('', #252, 0.0017);
#254 = DIRECTION('', (-0.00000001, 1., -0.));
#255 = DIRECTION('', (-0., 0., 1.));
#256 = CARTESIAN_POINT('', (-0.0155, -0.0155, -0.0005));
#257 = AXIS2_PLACEMENT_3D('', #256, #255, #254);
#258 = CIRCLE('', #257, 0.0017);
#259 = DIRECTION('', (-0.00000001, -1., 0.));
#260 = DIRECTION('', (-0., -0., -1.));
#261 = CARTESIAN_POINT('', (-0.0155, -0.0155, 0.0005));
#262 = AXIS2_PLACEMENT_3D('', #261, #260, #259);
#263 = CIRCLE('', #262, 0.0017);
#264 = DIRECTION('', (0.00000001, 1., -0.));
#265 = DIRECTION('', (0., 0., 1.));
#266 = CARTESIAN_POINT('', (-0.0155, -0.0155, 0.0005));
#267 = AXIS2_PLACEMENT_3D('', #266, #265, #264);
#268 = CIRCLE('', #267, 0.0017);
#269 = DIRECTION('', (0., -0., 1.));
#270 = VECTOR('', #269, 1.);
#271 = CARTESIAN_POINT('', (-0.0172, -0.0155, -0.0005));
#272 = LINE('', #271, #270);
#273 = DIRECTION('', (0., -0., 1.));
#274 = VECTOR('', #273, 1.);
#275 = CARTESIAN_POINT('', (-0.0138, -0.0155, -0.0005));
#276 = LINE('', #275, #274);
#277 = DIRECTION('', (1., 0., 0.));
#278 = DIRECTION('', (-0., -0., 1.));
#279 = CARTESIAN_POINT('', (-0.0155, 0.0155, -0.0005));
#280 = AXIS2_PLACEMENT_3D('', #279, #278, #277);
#281 = CIRCLE('', #280, 0.0017);
#282 = DIRECTION('', (1., -0., 0.));
#283 = DIRECTION('', (0., -0., -1.));
#284 = CARTESIAN_POINT('', (-0.0155, 0.0155, -0.0005));
#285 = AXIS2_PLACEMENT_3D('', #284, #283, #282);
#286 = CIRCLE('', #285, 0.0017);
#287 = DIRECTION('', (1., 0., 0.));
#288 = DIRECTION('', (-0., -0., 1.));
#289 = CARTESIAN_POINT('', (-0.0155, 0.0155, 0.0005));
#290 = AXIS2_PLACEMENT_3D('', #289, #288, #287);
#291 = CIRCLE('', #290, 0.0017);
#292 = DIRECTION('', (1., 0., 0.));
#293 = DIRECTION('', (0., -0., -1.));
#294 = CARTESIAN_POINT('', (-0.0155, 0.0155, 0.0005));
#295 = AXIS2_PLACEMENT_3D('', #294, #293, #292);
#296 = CIRCLE('', #295, 0.0017);
#297 = DIRECTION('', (0.00000001, -1., 0.));
#298 = DIRECTION('', (0., -0., -1.));
#299 = CARTESIAN_POINT('', (-0.0155, 0.0155, -0.0005));
#300 = AXIS2_PLACEMENT_3D('', #299, #298, #297);
#301 = CIRCLE('', #300, 0.0017);
#302 = DIRECTION('', (-0.00000001, 1., 0.));
#303 = DIRECTION('', (0., -0., 1.));
#304 = CARTESIAN_POINT('', (-0.0155, 0.0155, -0.0005));
#305 = AXIS2_PLACEMENT_3D('', #304, #303, #302);
#306 = CIRCLE('', #305, 0.0017);
#307 = DIRECTION('', (-0.00000001, -1., -0.));
#308 = DIRECTION('', (0., 0., -1.));
#309 = CARTESIAN_POINT('', (-0.0155, 0.0155, 0.0005));
#310 = AXIS2_PLACEMENT_3D('', #309, #308, #307);
#311 = CIRCLE('', #310, 0.0017);
#312 = DIRECTION('', (0.00000001, 1., -0.));
#313 = DIRECTION('', (0., 0., 1.));
#314 = CARTESIAN_POINT('', (-0.0155, 0.0155, 0.0005));
#315 = AXIS2_PLACEMENT_3D('', #314, #313, #312);
#316 = CIRCLE('', #315, 0.0017);
#317 = DIRECTION('', (0., -0., 1.));
#318 = VECTOR('', #317, 1.);
#319 = CARTESIAN_POINT('', (-0.0172, 0.0155, -0.0005));
#320 = LINE('', #319, #318);
#321 = DIRECTION('', (0., -0., 1.));
#322 = VECTOR('', #321, 1.);
#323 = CARTESIAN_POINT('', (-0.0138, 0.0155, -0.0005));
#324 = LINE('', #323, #322);
#325 = DIRECTION('', (1., 0., -0.));
#326 = DIRECTION('', (0., 0., 1.));
#327 = CARTESIAN_POINT('', (0.0155, -0.0155, -0.0005));
#328 = AXIS2_PLACEMENT_3D('', #327, #326, #325);
#329 = CIRCLE('', #328, 0.0017);
#330 = DIRECTION('', (1., -0., -0.));
#331 = DIRECTION('', (-0., 0., -1.));
#332 = CARTESIAN_POINT('', (0.0155, -0.0155, -0.0005));
#333 = AXIS2_PLACEMENT_3D('', #332, #331, #330);
#334 = CIRCLE('', #333, 0.0017);
#335 = DIRECTION('', (1., -0., -0.));
#336 = DIRECTION('', (0., 0., 1.));
#337 = CARTESIAN_POINT('', (0.0155, -0.0155, 0.0005));
#338 = AXIS2_PLACEMENT_3D('', #337, #336, #335);
#339 = CIRCLE('', #338, 0.0017);
#340 = DIRECTION('', (1., -0., 0.));
#341 = DIRECTION('', (0., -0., -1.));
#342 = CARTESIAN_POINT('', (0.0155, -0.0155, 0.0005));
#343 = AXIS2_PLACEMENT_3D('', #342, #341, #340);
#344 = CIRCLE('', #343, 0.0017);
#345 = DIRECTION('', (0.00000001, -1., -0.));
#346 = DIRECTION('', (0., 0., -1.));
#347 = CARTESIAN_POINT('', (0.0155, -0.0155, -0.0005));
#348 = AXIS2_PLACEMENT_3D('', #347, #346, #345);
#349 = CIRCLE('', #348, 0.0017);
#350 = DIRECTION('', (-0.00000001, 1., 0.));
#351 = DIRECTION('', (0., -0., 1.));
#352 = CARTESIAN_POINT('', (0.0155, -0.0155, -0.0005));
#353 = AXIS2_PLACEMENT_3D('', #352, #351, #350);
#354 = CIRCLE('', #353, 0.0017);
#355 = DIRECTION('', (-0.00000001, -1., 0.));
#356 = DIRECTION('', (-0., -0., -1.));
#357 = CARTESIAN_POINT('', (0.0155, -0.0155, 0.0005));
#358 = AXIS2_PLACEMENT_3D('', #357, #356, #355);
#359 = CIRCLE('', #358, 0.0017);
#360 = DIRECTION('', (0.00000001, 1., -0.));
#361 = DIRECTION('', (-0., 0., 1.));
#362 = CARTESIAN_POINT('', (0.0155, -0.0155, 0.0005));
#363 = AXIS2_PLACEMENT_3D('', #362, #361, #360);
#364 = CIRCLE('', #363, 0.0017);
#365 = DIRECTION('', (0., -0., 1.));
#366 = VECTOR('', #365, 1.);
#367 = CARTESIAN_POINT('', (0.0138, -0.0155, -0.0005));
#368 = LINE('', #367, #366);
#369 = DIRECTION('', (0., -0., 1.));
#370 = VECTOR('', #369, 1.);
#371 = CARTESIAN_POINT('', (0.0172, -0.0155, -0.0005));
#372 = LINE('', #371, #370);
#373 = DIRECTION('', (1., -0., 0.));
#374 = DIRECTION('', (-0., -0., 1.));
#375 = CARTESIAN_POINT('', (0.0155, 0.0155, -0.0005));
#376 = AXIS2_PLACEMENT_3D('', #375, #374, #373);
#377 = CIRCLE('', #376, 0.0017);
#378 = DIRECTION('', (1., 0., -0.));
#379 = DIRECTION('', (-0., 0., -1.));
#380 = CARTESIAN_POINT('', (0.0155, 0.0155, -0.0005));
#381 = AXIS2_PLACEMENT_3D('', #380, #379, #378);
#382 = CIRCLE('', #381, 0.0017);
#383 = DIRECTION('', (1., -0., 0.));
#384 = DIRECTION('', (-0., -0., 1.));
#385 = CARTESIAN_POINT('', (0.0155, 0.0155, 0.0005));
#386 = AXIS2_PLACEMENT_3D('', #385, #384, #383);
#387 = CIRCLE('', #386, 0.0017);
#388 = DIRECTION('', (1., 0., 0.));
#389 = DIRECTION('', (0., -0., -1.));
#390 = CARTESIAN_POINT('', (0.0155, 0.0155, 0.0005));
#391 = AXIS2_PLACEMENT_3D('', #390, #389, #388);
#392 = CIRCLE('', #391, 0.0017);
#393 = DIRECTION('', (0.00000001, -1., -0.));
#394 = DIRECTION('', (0., 0., -1.));
#395 = CARTESIAN_POINT('', (0.0155, 0.0155, -0.0005));
#396 = AXIS2_PLACEMENT_3D('', #395, #394, #393);
#397 = CIRCLE('', #396, 0.0017);
#398 = DIRECTION('', (-0.00000001, 1., -0.));
#399 = DIRECTION('', (-0., 0., 1.));
#400 = CARTESIAN_POINT('', (0.0155, 0.0155, -0.0005));
#401 = AXIS2_PLACEMENT_3D('', #400, #399, #398);
#402 = CIRCLE('', #401, 0.0017);
#403 = DIRECTION('', (-0.00000001, -1., -0.));
#404 = DIRECTION('', (0., 0., -1.));
#405 = CARTESIAN_POINT('', (0.0155, 0.0155, 0.0005));
#406 = AXIS2_PLACEMENT_3D('', #405, #404, #403);
#407 = CIRCLE('', #406, 0.0017);
#408 = DIRECTION('', (0.00000001, 1., -0.));
#409 = DIRECTION('', (-0., 0., 1.));
#410 = CARTESIAN_POINT('', (0.0155, 0.0155, 0.0005));
#411 = AXIS2_PLACEMENT_3D('', #410, #409, #408);
#412 = CIRCLE('', #411, 0.0017);
#413 = DIRECTION('', (0., -0., 1.));
#414 = VECTOR('', #413, 1.);
#415 = CARTESIAN_POINT('', (0.0138, 0.0155, -0.0005));
#416 = LINE('', #415, #414);
#417 = DIRECTION('', (0., -0., 1.));
#418 = VECTOR('', #417, 1.);
#419 = CARTESIAN_POINT('', (0.0172, 0.0155, -0.0005));
#420 = LINE('', #419, #418);
#421 = DIRECTION('', (1., 0., 0.));
#422 = DIRECTION('', (0., 0., -1.));
#423 = CARTESIAN_POINT('', (-0.04, -0.0055, -0.0005));
#424 = AXIS2_PLACEMENT_3D('', #423, #422, #421);
#425 = CIRCLE('', #424, 0.0045);
#426 = DIRECTION('', (0., 1., 0.));
#427 = VECTOR('', #426, 1.);
#428 = CARTESIAN_POINT('', (-0.0355, -0.0055, -0.0005));
#429 = LINE('', #428, #427);
#430 = DIRECTION('', (1., 0., 0.));
#431 = DIRECTION('', (0., -0., 1.));
#432 = CARTESIAN_POINT('', (-0.04, 0.0055, -0.0005));
#433 = AXIS2_PLACEMENT_3D('', #432, #431, #430);
#434 = CIRCLE('', #433, 0.0045);
#435 = DIRECTION('', (0., -1., 0.));
#436 = VECTOR('', #435, 1.);
#437 = CARTESIAN_POINT('', (-0.0445, 0.0055, -0.0005));
#438 = LINE('', #437, #436);
#439 = DIRECTION('', (1., 0., 0.));
#440 = DIRECTION('', (0., -0., -1.));
#441 = CARTESIAN_POINT('', (-0.04, -0.0055, 0.0005));
#442 = AXIS2_PLACEMENT_3D('', #441, #440, #439);
#443 = CIRCLE('', #442, 0.0045);
#444 = DIRECTION('', (0., 1., 0.));
#445 = VECTOR('', #444, 1.);
#446 = CARTESIAN_POINT('', (-0.0355, -0.0055, 0.0005));
#447 = LINE('', #446, #445);
#448 = DIRECTION('', (1., -0., 0.));
#449 = DIRECTION('', (-0., -0., 1.));
#450 = CARTESIAN_POINT('', (-0.04, 0.0055, 0.0005));
#451 = AXIS2_PLACEMENT_3D('', #450, #449, #448);
#452 = CIRCLE('', #451, 0.0045);
#453 = DIRECTION('', (0., -1., 0.));
#454 = VECTOR('', #453, 1.);
#455 = CARTESIAN_POINT('', (-0.0445, 0.0055, 0.0005));
#456 = LINE('', #455, #454);
#457 = DIRECTION('', (0., -0., 1.));
#458 = VECTOR('', #457, 1.);
#459 = CARTESIAN_POINT('', (-0.0445, 0.0055, -0.0005));
#460 = LINE('', #459, #458);
#461 = DIRECTION('', (0., -0., 1.));
#462 = VECTOR('', #461, 1.);
#463 = CARTESIAN_POINT('', (-0.0355, 0.0055, -0.0005));
#464 = LINE('', #463, #462);
#465 = DIRECTION('', (0., -0., 1.));
#466 = VECTOR('', #465, 1.);
#467 = CARTESIAN_POINT('', (-0.0445, -0.0055, -0.0005));
#468 = LINE('', #467, #466);
#469 = DIRECTION('', (0., -0., 1.));
#470 = VECTOR('', #469, 1.);
#471 = CARTESIAN_POINT('', (-0.0355, -0.0055, -0.0005));
#472 = LINE('', #471, #470);
#473 = DIRECTION('', (1., -0., 0.));
#474 = DIRECTION('', (0., -0., -1.));
#475 = CARTESIAN_POINT('', (0.04, -0.0055, -0.0005));
#476 = AXIS2_PLACEMENT_3D('', #475, #474, #473);
#477 = CIRCLE('', #476, 0.0045);
#478 = DIRECTION('', (0., 1., 0.));
#479 = VECTOR('', #478, 1.);
#480 = CARTESIAN_POINT('', (0.0445, -0.0055, -0.0005));
#481 = LINE('', #480, #479);
#482 = DIRECTION('', (1., -0., -0.));
#483 = DIRECTION('', (0., -0., 1.));
#484 = CARTESIAN_POINT('', (0.04, 0.0055, -0.0005));
#485 = AXIS2_PLACEMENT_3D('', #484, #483, #482);
#486 = CIRCLE('', #485, 0.0045);
#487 = DIRECTION('', (0., -1., 0.));
#488 = VECTOR('', #487, 1.);
#489 = CARTESIAN_POINT('', (0.0355, 0.0055, -0.0005));
#490 = LINE('', #489, #488);
#491 = DIRECTION('', (1., 0., 0.));
#492 = DIRECTION('', (0., -0., -1.));
#493 = CARTESIAN_POINT('', (0.04, -0.0055, 0.0005));
#494 = AXIS2_PLACEMENT_3D('', #493, #492, #491);
#495 = CIRCLE('', #494, 0.0045);
#496 = DIRECTION('', (0., 1., 0.));
#497 = VECTOR('', #496, 1.);
#498 = CARTESIAN_POINT('', (0.0445, -0.0055, 0.0005));
#499 = LINE('', #498, #497);
#500 = DIRECTION('', (1., -0., 0.));
#501 = DIRECTION('', (0., 0., 1.));
#502 = CARTESIAN_POINT('', (0.04, 0.0055, 0.0005));
#503 = AXIS2_PLACEMENT_3D('', #502, #501, #500);
#504 = CIRCLE('', #503, 0.0045);
#505 = DIRECTION('', (0., -1., 0.));
#506 = VECTOR('', #505, 1.);
#507 = CARTESIAN_POINT('', (0.0355, 0.0055, 0.0005));
#508 = LINE('', #507, #506);
#509 = DIRECTION('', (0., -0., 1.));
#510 = VECTOR('', #509, 1.);
#511 = CARTESIAN_POINT('', (0.0355, 0.0055, -0.0005));
#512 = LINE('', #511, #510);
#513 = DIRECTION('', (0., -0., 1.));
#514 = VECTOR('', #513, 1.);
#515 = CARTESIAN_POINT('', (0.0445, 0.0055, -0.0005));
#516 = LINE('', #515, #514);
#517 = DIRECTION('', (0., -0., 1.));
#518 = VECTOR('', #517, 1.);
#519 = CARTESIAN_POINT('', (0.0355, -0.0055, -0.0005));
#520 = LINE('', #519, #518);
#521 = DIRECTION('', (0., -0., 1.));
#522 = VECTOR('', #521, 1.);
#523 = CARTESIAN_POINT('', (0.0445, -0.0055, -0.0005));
#524 = LINE('', #523, #522);
#525 = EDGE_CURVE('', #6, #8, #136, .T.);
#526 = EDGE_CURVE('', #8, #10, #140, .T.);
#527 = EDGE_CURVE('', #12, #10, #144, .T.);
#528 = EDGE_CURVE('', #6, #12, #148, .T.);
#529 = EDGE_CURVE('', #8, #14, #152, .T.);
#530 = EDGE_CURVE('', #14, #16, #156, .T.);
#531 = EDGE_CURVE('', #10, #16, #160, .T.);
#532 = EDGE_CURVE('', #14, #18, #164, .T.);
#533 = EDGE_CURVE('', #18, #20, #168, .T.);
#534 = EDGE_CURVE('', #16, #20, #172, .T.);
#535 = EDGE_CURVE('', #18, #6, #176, .T.);
#536 = EDGE_CURVE('', #20, #12, #180, .T.);
#537 = EDGE_CURVE('', #22, #32, #185, .T.);
#538 = EDGE_CURVE('', #22, #30, #190, .T.);
#539 = EDGE_CURVE('', #26, #36, #195, .T.);
#540 = EDGE_CURVE('', #26, #34, #200, .T.);
#541 = EDGE_CURVE('', #30, #24, #205, .T.);
#542 = EDGE_CURVE('', #32, #24, #210, .T.);
#543 = EDGE_CURVE('', #34, #28, #215, .T.);
#544 = EDGE_CURVE('', #36, #28, #220, .T.);
#545 = EDGE_CURVE('', #24, #28, #224, .T.);
#546 = EDGE_CURVE('', #22, #26, #228, .T.);
#547 = EDGE_CURVE('', #38, #48, #233, .T.);
#548 = EDGE_CURVE('', #38, #46, #238, .T.);
#549 = EDGE_CURVE('', #42, #52, #243, .T.);
#550 = EDGE_CURVE('', #42, #50, #248, .T.);
#551 = EDGE_CURVE('', #46, #40, #253, .T.);
#552 = EDGE_CURVE('', #48, #40, #258, .T.);
#553 = EDGE_CURVE('', #50, #44, #263, .T.);
#554 = EDGE_CURVE('', #52, #44, #268, .T.);
#555 = EDGE_CURVE('', #40, #44, #272, .T.);
#556 = EDGE_CURVE('', #38, #42, #276, .T.);
#557 = EDGE_CURVE('', #54, #64, #281, .T.);
#558 = EDGE_CURVE('', #54, #62, #286, .T.);
#559 = EDGE_CURVE('', #58, #68, #291, .T.);
#560 = EDGE_CURVE('', #58, #66, #296, .T.);
#561 = EDGE_CURVE('', #62, #56, #301, .T.);
#562 = EDGE_CURVE('', #64, #56, #306, .T.);
#563 = EDGE_CURVE('', #66, #60, #311, .T.);
#564 = EDGE_CURVE('', #68, #60, #316, .T.);
#565 = EDGE_CURVE('', #56, #60, #320, .T.);
#566 = EDGE_CURVE('', #54, #58, #324, .T.);
#567 = EDGE_CURVE('', #70, #80, #329, .T.);
#568 = EDGE_CURVE('', #70, #78, #334, .T.);
#569 = EDGE_CURVE('', #74, #84, #339, .T.);
#570 = EDGE_CURVE('', #74, #82, #344, .T.);
#571 = EDGE_CURVE('', #78, #72, #349, .T.);
#572 = EDGE_CURVE('', #80, #72, #354, .T.);
#573 = EDGE_CURVE('', #82, #76, #359, .T.);
#574 = EDGE_CURVE('', #84, #76, #364, .T.);
#575 = EDGE_CURVE('', #72, #76, #368, .T.);
#576 = EDGE_CURVE('', #70, #74, #372, .T.);
#577 = EDGE_CURVE('', #86, #96, #377, .T.);
#578 = EDGE_CURVE('', #86, #94, #382, .T.);
#579 = EDGE_CURVE('', #90, #100, #387, .T.);
#580 = EDGE_CURVE('', #90, #98, #392, .T.);
#581 = EDGE_CURVE('', #94, #88, #397, .T.);
#582 = EDGE_CURVE('', #96, #88, #402, .T.);
#583 = EDGE_CURVE('', #98, #92, #407, .T.);
#584 = EDGE_CURVE('', #100, #92, #412, .T.);
#585 = EDGE_CURVE('', #88, #92, #416, .T.);
#586 = EDGE_CURVE('', #86, #90, #420, .T.);
#587 = EDGE_CURVE('', #102, #104, #425, .T.);
#588 = EDGE_CURVE('', #102, #106, #429, .T.);
#589 = EDGE_CURVE('', #106, #108, #434, .T.);
#590 = EDGE_CURVE('', #108, #104, #438, .T.);
#591 = EDGE_CURVE('', #110, #112, #443, .T.);
#592 = EDGE_CURVE('', #110, #114, #447, .T.);
#593 = EDGE_CURVE('', #114, #116, #452, .T.);
#594 = EDGE_CURVE('', #116, #112, #456, .T.);
#595 = EDGE_CURVE('', #108, #116, #460, .T.);
#596 = EDGE_CURVE('', #106, #114, #464, .T.);
#597 = EDGE_CURVE('', #104, #112, #468, .T.);
#598 = EDGE_CURVE('', #102, #110, #472, .T.);
#599 = EDGE_CURVE('', #118, #120, #477, .T.);
#600 = EDGE_CURVE('', #118, #122, #481, .T.);
#601 = EDGE_CURVE('', #122, #124, #486, .T.);
#602 = EDGE_CURVE('', #124, #120, #490, .T.);
#603 = EDGE_CURVE('', #126, #128, #495, .T.);
#604 = EDGE_CURVE('', #126, #130, #499, .T.);
#605 = EDGE_CURVE('', #130, #132, #504, .T.);
#606 = EDGE_CURVE('', #132, #128, #508, .T.);
#607 = EDGE_CURVE('', #124, #132, #512, .T.);
#608 = EDGE_CURVE('', #122, #130, #516, .T.);
#609 = EDGE_CURVE('', #120, #128, #520, .T.);
#610 = EDGE_CURVE('', #118, #126, #524, .T.);
#611 = CARTESIAN_POINT('', (0.055, -0., 0.));
#612 = DIRECTION('', (1., -0., 0.));
#613 = AXIS2_PLACEMENT_3D('', #611, #612, $);
#614 = PLANE('', #613);
#615 = CARTESIAN_POINT('', (0., 0.02115, 0.));
#616 = DIRECTION('', (0., 1., -0.));
#617 = AXIS2_PLACEMENT_3D('', #615, #616, $);
#618 = PLANE('', #617);
#619 = CARTESIAN_POINT('', (-0.055, 0., 0.));
#620 = DIRECTION('', (-1., -0., 0.));
#621 = AXIS2_PLACEMENT_3D('', #619, #620, $);
#622 = PLANE('', #621);
#623 = CARTESIAN_POINT('', (0., -0.02115, 0.));
#624 = DIRECTION('', (0., -1., 0.));
#625 = AXIS2_PLACEMENT_3D('', #623, #624, $);
#626 = PLANE('', #625);
#627 = CARTESIAN_POINT('', (0., 0., -0.0005));
#628 = DIRECTION('', (0., -0., 1.));
#629 = AXIS2_PLACEMENT_3D('', #627, #628, $);
#630 = PLANE('', #629);
#631 = CARTESIAN_POINT('', (0., 0., 0.0005));
#632 = DIRECTION('', (0., -0., 1.));
#633 = AXIS2_PLACEMENT_3D('', #631, #632, $);
#634 = PLANE('', #633);
#635 = CARTESIAN_POINT('', (0., -0., 0.));
#636 = DIRECTION('', (0., -0., 1.));
#637 = DIRECTION('', (1., 0., 0.));
#638 = AXIS2_PLACEMENT_3D('', #635, #636, #637);
#639 = CYLINDRICAL_SURFACE('', #638, 0.011);
#640 = CARTESIAN_POINT('', (-0.0155, -0.0155, 0.));
#641 = DIRECTION('', (0., -0., 1.));
#642 = DIRECTION('', (1., 0., 0.));
#643 = AXIS2_PLACEMENT_3D('', #640, #641, #642);
#644 = CYLINDRICAL_SURFACE('', #643, 0.0017);
#645 = CARTESIAN_POINT('', (-0.0155, 0.0155, 0.));
#646 = DIRECTION('', (0., -0., 1.));
#647 = DIRECTION('', (1., 0., 0.));
#648 = AXIS2_PLACEMENT_3D('', #645, #646, #647);
#649 = CYLINDRICAL_SURFACE('', #648, 0.0017);
#650 = CARTESIAN_POINT('', (0.0155, -0.0155, 0.));
#651 = DIRECTION('', (-0., -0., 1.));
#652 = DIRECTION('', (1., -0., 0.));
#653 = AXIS2_PLACEMENT_3D('', #650, #651, #652);
#654 = CYLINDRICAL_SURFACE('', #653, 0.0017);
#655 = CARTESIAN_POINT('', (0.0155, 0.0155, 0.));
#656 = DIRECTION('', (-0., -0., 1.));
#657 = DIRECTION('', (1., -0., 0.));
#658 = AXIS2_PLACEMENT_3D('', #655, #656, #657);
#659 = CYLINDRICAL_SURFACE('', #658, 0.0017);
#660 = CARTESIAN_POINT('', (-0.04, -0.0055, 0.));
#661 = DIRECTION('', (0., -0., 1.));
#662 = DIRECTION('', (-1., 0., 0.));
#663 = AXIS2_PLACEMENT_3D('', #660, #661, #662);
#664 = CYLINDRICAL_SURFACE('', #663, 0.0045);
#665 = CARTESIAN_POINT('', (-0.0355, -0., 0.));
#666 = DIRECTION('', (1., -0., 0.));
#667 = AXIS2_PLACEMENT_3D('', #665, #666, $);
#668 = PLANE('', #667);
#669 = CARTESIAN_POINT('', (-0.04, 0.0055, 0.));
#670 = DIRECTION('', (0., -0., 1.));
#671 = DIRECTION('', (1., 0., 0.));
#672 = AXIS2_PLACEMENT_3D('', #669, #670, #671);
#673 = CYLINDRICAL_SURFACE('', #672, 0.0045);
#674 = CARTESIAN_POINT('', (-0.0445, 0., 0.));
#675 = DIRECTION('', (-1., -0., 0.));
#676 = AXIS2_PLACEMENT_3D('', #674, #675, $);
#677 = PLANE('', #676);
#678 = CARTESIAN_POINT('', (0.04, -0.0055, 0.));
#679 = DIRECTION('', (0., 0., 1.));
#680 = DIRECTION('', (-1., -0., 0.));
#681 = AXIS2_PLACEMENT_3D('', #678, #679, #680);
#682 = CYLINDRICAL_SURFACE('', #681, 0.0045);
#683 = CARTESIAN_POINT('', (0.0445, -0., 0.));
#684 = DIRECTION('', (1., -0., 0.));
#685 = AXIS2_PLACEMENT_3D('', #683, #684, $);
#686 = PLANE('', #685);
#687 = CARTESIAN_POINT('', (0.04, 0.0055, 0.));
#688 = DIRECTION('', (0., -0., 1.));
#689 = DIRECTION('', (1., 0., 0.));
#690 = AXIS2_PLACEMENT_3D('', #687, #688, #689);
#691 = CYLINDRICAL_SURFACE('', #690, 0.0045);
#692 = CARTESIAN_POINT('', (0.0355, 0., 0.));
#693 = DIRECTION('', (-1., -0., 0.));
#694 = AXIS2_PLACEMENT_3D('', #692, #693, $);
#695 = PLANE('', #694);
#696 = ORIENTED_EDGE('', *, *, #525, .T.);
#697 = ORIENTED_EDGE('', *, *, #526, .T.);
#698 = ORIENTED_EDGE('', *, *, #527, .F.);
#699 = ORIENTED_EDGE('', *, *, #528, .F.);
#700 = EDGE_LOOP('', (#696, #697, #698, #699));
#701 = FACE_BOUND('', #700, .T.);
#702 = ADVANCED_FACE('', (#701), #614, .T.);
#703 = ORIENTED_EDGE('', *, *, #529, .T.);
#704 = ORIENTED_EDGE('', *, *, #530, .T.);
#705 = ORIENTED_EDGE('', *, *, #531, .F.);
#706 = ORIENTED_EDGE('', *, *, #526, .F.);
#707 = EDGE_LOOP('', (#703, #704, #705, #706));
#708 = FACE_BOUND('', #707, .T.);
#709 = ADVANCED_FACE('', (#708), #618, .T.);
#710 = ORIENTED_EDGE('', *, *, #532, .T.);
#711 = ORIENTED_EDGE('', *, *, #533, .T.);
#712 = ORIENTED_EDGE('', *, *, #534, .F.);
#713 = ORIENTED_EDGE('', *, *, #530, .F.);
#714 = EDGE_LOOP('', (#710, #711, #712, #713));
#715 = FACE_BOUND('', #714, .T.);
#716 = ADVANCED_FACE('', (#715), #622, .T.);
#717 = ORIENTED_EDGE('', *, *, #535, .T.);
#718 = ORIENTED_EDGE('', *, *, #528, .T.);
#719 = ORIENTED_EDGE('', *, *, #536, .F.);
#720 = ORIENTED_EDGE('', *, *, #533, .F.);
#721 = EDGE_LOOP('', (#717, #718, #719, #720));
#722 = FACE_BOUND('', #721, .T.);
#723 = ADVANCED_FACE('', (#722), #626, .T.);
#724 = ORIENTED_EDGE('', *, *, #535, .F.);
#725 = ORIENTED_EDGE('', *, *, #532, .F.);
#726 = ORIENTED_EDGE('', *, *, #529, .F.);
#727 = ORIENTED_EDGE('', *, *, #525, .F.);
#728 = ORIENTED_EDGE('', *, *, #542, .T.);
#729 = ORIENTED_EDGE('', *, *, #541, .F.);
#730 = ORIENTED_EDGE('', *, *, #538, .F.);
#731 = ORIENTED_EDGE('', *, *, #537, .T.);
#732 = ORIENTED_EDGE('', *, *, #552, .T.);
#733 = ORIENTED_EDGE('', *, *, #551, .F.);
#734 = ORIENTED_EDGE('', *, *, #548, .F.);
#735 = ORIENTED_EDGE('', *, *, #547, .T.);
#736 = ORIENTED_EDGE('', *, *, #562, .T.);
#737 = ORIENTED_EDGE('', *, *, #561, .F.);
#738 = ORIENTED_EDGE('', *, *, #558, .F.);
#739 = ORIENTED_EDGE('', *, *, #557, .T.);
#740 = ORIENTED_EDGE('', *, *, #572, .T.);
#741 = ORIENTED_EDGE('', *, *, #571, .F.);
#742 = ORIENTED_EDGE('', *, *, #568, .F.);
#743 = ORIENTED_EDGE('', *, *, #567, .T.);
#744 = ORIENTED_EDGE('', *, *, #582, .T.);
#745 = ORIENTED_EDGE('', *, *, #581, .F.);
#746 = ORIENTED_EDGE('', *, *, #578, .F.);
#747 = ORIENTED_EDGE('', *, *, #577, .T.);
#748 = ORIENTED_EDGE('', *, *, #588, .T.);
#749 = ORIENTED_EDGE('', *, *, #589, .T.);
#750 = ORIENTED_EDGE('', *, *, #590, .T.);
#751 = ORIENTED_EDGE('', *, *, #587, .F.);
#752 = ORIENTED_EDGE('', *, *, #600, .T.);
#753 = ORIENTED_EDGE('', *, *, #601, .T.);
#754 = ORIENTED_EDGE('', *, *, #602, .T.);
#755 = ORIENTED_EDGE('', *, *, #599, .F.);
#756 = EDGE_LOOP('', (#724, #725, #726, #727));
#757 = FACE_BOUND('', #756, .T.);
#758 = EDGE_LOOP('', (#728, #729, #730, #731));
#759 = FACE_BOUND('', #758, .T.);
#760 = EDGE_LOOP('', (#732, #733, #734, #735));
#761 = FACE_BOUND('', #760, .T.);
#762 = EDGE_LOOP('', (#736, #737, #738, #739));
#763 = FACE_BOUND('', #762, .T.);
#764 = EDGE_LOOP('', (#740, #741, #742, #743));
#765 = FACE_BOUND('', #764, .T.);
#766 = EDGE_LOOP('', (#744, #745, #746, #747));
#767 = FACE_BOUND('', #766, .T.);
#768 = EDGE_LOOP('', (#748, #749, #750, #751));
#769 = FACE_BOUND('', #768, .T.);
#770 = EDGE_LOOP('', (#752, #753, #754, #755));
#771 = FACE_BOUND('', #770, .T.);
#772 = ADVANCED_FACE('', (#757, #759, #761, #763, #765, #767, #769, #771), #630, .F.);
#773 = ORIENTED_EDGE('', *, *, #527, .T.);
#774 = ORIENTED_EDGE('', *, *, #531, .T.);
#775 = ORIENTED_EDGE('', *, *, #534, .T.);
#776 = ORIENTED_EDGE('', *, *, #536, .T.);
#777 = ORIENTED_EDGE('', *, *, #539, .F.);
#778 = ORIENTED_EDGE('', *, *, #540, .T.);
#779 = ORIENTED_EDGE('', *, *, #543, .T.);
#780 = ORIENTED_EDGE('', *, *, #544, .F.);
#781 = ORIENTED_EDGE('', *, *, #549, .F.);
#782 = ORIENTED_EDGE('', *, *, #550, .T.);
#783 = ORIENTED_EDGE('', *, *, #553, .T.);
#784 = ORIENTED_EDGE('', *, *, #554, .F.);
#785 = ORIENTED_EDGE('', *, *, #559, .F.);
#786 = ORIENTED_EDGE('', *, *, #560, .T.);
#787 = ORIENTED_EDGE('', *, *, #563, .T.);
#788 = ORIENTED_EDGE('', *, *, #564, .F.);
#789 = ORIENTED_EDGE('', *, *, #569, .F.);
#790 = ORIENTED_EDGE('', *, *, #570, .T.);
#791 = ORIENTED_EDGE('', *, *, #573, .T.);
#792 = ORIENTED_EDGE('', *, *, #574, .F.);
#793 = ORIENTED_EDGE('', *, *, #579, .F.);
#794 = ORIENTED_EDGE('', *, *, #580, .T.);
#795 = ORIENTED_EDGE('', *, *, #583, .T.);
#796 = ORIENTED_EDGE('', *, *, #584, .F.);
#797 = ORIENTED_EDGE('', *, *, #591, .T.);
#798 = ORIENTED_EDGE('', *, *, #594, .F.);
#799 = ORIENTED_EDGE('', *, *, #593, .F.);
#800 = ORIENTED_EDGE('', *, *, #592, .F.);
#801 = ORIENTED_EDGE('', *, *, #603, .T.);
#802 = ORIENTED_EDGE('', *, *, #606, .F.);
#803 = ORIENTED_EDGE('', *, *, #605, .F.);
#804 = ORIENTED_EDGE('', *, *, #604, .F.);
#805 = EDGE_LOOP('', (#773, #774, #775, #776));
#806 = FACE_BOUND('', #805, .T.);
#807 = EDGE_LOOP('', (#777, #778, #779, #780));
#808 = FACE_BOUND('', #807, .T.);
#809 = EDGE_LOOP('', (#781, #782, #783, #784));
#810 = FACE_BOUND('', #809, .T.);
#811 = EDGE_LOOP('', (#785, #786, #787, #788));
#812 = FACE_BOUND('', #811, .T.);
#813 = EDGE_LOOP('', (#789, #790, #791, #792));
#814 = FACE_BOUND('', #813, .T.);
#815 = EDGE_LOOP('', (#793, #794, #795, #796));
#816 = FACE_BOUND('', #815, .T.);
#817 = EDGE_LOOP('', (#797, #798, #799, #800));
#818 = FACE_BOUND('', #817, .T.);
#819 = EDGE_LOOP('', (#801, #802, #803, #804));
#820 = FACE_BOUND('', #819, .T.);
#821 = ADVANCED_FACE('', (#806, #808, #810, #812, #814, #816, #818, #820), #634, .T.);
#822 = ORIENTED_EDGE('', *, *, #542, .F.);
#823 = ORIENTED_EDGE('', *, *, #537, .F.);
#824 = ORIENTED_EDGE('', *, *, #546, .T.);
#825 = ORIENTED_EDGE('', *, *, #539, .T.);
#826 = ORIENTED_EDGE('', *, *, #544, .T.);
#827 = ORIENTED_EDGE('', *, *, #545, .F.);
#828 = EDGE_LOOP('', (#822, #823, #824, #825, #826, #827));
#829 = FACE_BOUND('', #828, .T.);
#830 = ADVANCED_FACE('', (#829), #639, .F.);
#831 = ORIENTED_EDGE('', *, *, #543, .F.);
#832 = ORIENTED_EDGE('', *, *, #540, .F.);
#833 = ORIENTED_EDGE('', *, *, #546, .F.);
#834 = ORIENTED_EDGE('', *, *, #538, .T.);
#835 = ORIENTED_EDGE('', *, *, #541, .T.);
#836 = ORIENTED_EDGE('', *, *, #545, .T.);
#837 = EDGE_LOOP('', (#831, #832, #833, #834, #835, #836));
#838 = FACE_BOUND('', #837, .T.);
#839 = ADVANCED_FACE('', (#838), #639, .F.);
#840 = ORIENTED_EDGE('', *, *, #552, .F.);
#841 = ORIENTED_EDGE('', *, *, #547, .F.);
#842 = ORIENTED_EDGE('', *, *, #556, .T.);
#843 = ORIENTED_EDGE('', *, *, #549, .T.);
#844 = ORIENTED_EDGE('', *, *, #554, .T.);
#845 = ORIENTED_EDGE('', *, *, #555, .F.);
#846 = EDGE_LOOP('', (#840, #841, #842, #843, #844, #845));
#847 = FACE_BOUND('', #846, .T.);
#848 = ADVANCED_FACE('', (#847), #644, .F.);
#849 = ORIENTED_EDGE('', *, *, #553, .F.);
#850 = ORIENTED_EDGE('', *, *, #550, .F.);
#851 = ORIENTED_EDGE('', *, *, #556, .F.);
#852 = ORIENTED_EDGE('', *, *, #548, .T.);
#853 = ORIENTED_EDGE('', *, *, #551, .T.);
#854 = ORIENTED_EDGE('', *, *, #555, .T.);
#855 = EDGE_LOOP('', (#849, #850, #851, #852, #853, #854));
#856 = FACE_BOUND('', #855, .T.);
#857 = ADVANCED_FACE('', (#856), #644, .F.);
#858 = ORIENTED_EDGE('', *, *, #562, .F.);
#859 = ORIENTED_EDGE('', *, *, #557, .F.);
#860 = ORIENTED_EDGE('', *, *, #566, .T.);
#861 = ORIENTED_EDGE('', *, *, #559, .T.);
#862 = ORIENTED_EDGE('', *, *, #564, .T.);
#863 = ORIENTED_EDGE('', *, *, #565, .F.);
#864 = EDGE_LOOP('', (#858, #859, #860, #861, #862, #863));
#865 = FACE_BOUND('', #864, .T.);
#866 = ADVANCED_FACE('', (#865), #649, .F.);
#867 = ORIENTED_EDGE('', *, *, #563, .F.);
#868 = ORIENTED_EDGE('', *, *, #560, .F.);
#869 = ORIENTED_EDGE('', *, *, #566, .F.);
#870 = ORIENTED_EDGE('', *, *, #558, .T.);
#871 = ORIENTED_EDGE('', *, *, #561, .T.);
#872 = ORIENTED_EDGE('', *, *, #565, .T.);
#873 = EDGE_LOOP('', (#867, #868, #869, #870, #871, #872));
#874 = FACE_BOUND('', #873, .T.);
#875 = ADVANCED_FACE('', (#874), #649, .F.);
#876 = ORIENTED_EDGE('', *, *, #572, .F.);
#877 = ORIENTED_EDGE('', *, *, #567, .F.);
#878 = ORIENTED_EDGE('', *, *, #576, .T.);
#879 = ORIENTED_EDGE('', *, *, #569, .T.);
#880 = ORIENTED_EDGE('', *, *, #574, .T.);
#881 = ORIENTED_EDGE('', *, *, #575, .F.);
#882 = EDGE_LOOP('', (#876, #877, #878, #879, #880, #881));
#883 = FACE_BOUND('', #882, .T.);
#884 = ADVANCED_FACE('', (#883), #654, .F.);
#885 = ORIENTED_EDGE('', *, *, #573, .F.);
#886 = ORIENTED_EDGE('', *, *, #570, .F.);
#887 = ORIENTED_EDGE('', *, *, #576, .F.);
#888 = ORIENTED_EDGE('', *, *, #568, .T.);
#889 = ORIENTED_EDGE('', *, *, #571, .T.);
#890 = ORIENTED_EDGE('', *, *, #575, .T.);
#891 = EDGE_LOOP('', (#885, #886, #887, #888, #889, #890));
#892 = FACE_BOUND('', #891, .T.);
#893 = ADVANCED_FACE('', (#892), #654, .F.);
#894 = ORIENTED_EDGE('', *, *, #582, .F.);
#895 = ORIENTED_EDGE('', *, *, #577, .F.);
#896 = ORIENTED_EDGE('', *, *, #586, .T.);
#897 = ORIENTED_EDGE('', *, *, #579, .T.);
#898 = ORIENTED_EDGE('', *, *, #584, .T.);
#899 = ORIENTED_EDGE('', *, *, #585, .F.);
#900 = EDGE_LOOP('', (#894, #895, #896, #897, #898, #899));
#901 = FACE_BOUND('', #900, .T.);
#902 = ADVANCED_FACE('', (#901), #659, .F.);
#903 = ORIENTED_EDGE('', *, *, #583, .F.);
#904 = ORIENTED_EDGE('', *, *, #580, .F.);
#905 = ORIENTED_EDGE('', *, *, #586, .F.);
#906 = ORIENTED_EDGE('', *, *, #578, .T.);
#907 = ORIENTED_EDGE('', *, *, #581, .T.);
#908 = ORIENTED_EDGE('', *, *, #585, .T.);
#909 = EDGE_LOOP('', (#903, #904, #905, #906, #907, #908));
#910 = FACE_BOUND('', #909, .T.);
#911 = ADVANCED_FACE('', (#910), #659, .F.);
#912 = ORIENTED_EDGE('', *, *, #590, .F.);
#913 = ORIENTED_EDGE('', *, *, #595, .T.);
#914 = ORIENTED_EDGE('', *, *, #594, .T.);
#915 = ORIENTED_EDGE('', *, *, #597, .F.);
#916 = EDGE_LOOP('', (#912, #913, #914, #915));
#917 = FACE_BOUND('', #916, .T.);
#918 = ADVANCED_FACE('', (#917), #677, .F.);
#919 = ORIENTED_EDGE('', *, *, #589, .F.);
#920 = ORIENTED_EDGE('', *, *, #596, .T.);
#921 = ORIENTED_EDGE('', *, *, #593, .T.);
#922 = ORIENTED_EDGE('', *, *, #595, .F.);
#923 = EDGE_LOOP('', (#919, #920, #921, #922));
#924 = FACE_BOUND('', #923, .T.);
#925 = ADVANCED_FACE('', (#924), #673, .F.);
#926 = ORIENTED_EDGE('', *, *, #587, .T.);
#927 = ORIENTED_EDGE('', *, *, #597, .T.);
#928 = ORIENTED_EDGE('', *, *, #591, .F.);
#929 = ORIENTED_EDGE('', *, *, #598, .F.);
#930 = EDGE_LOOP('', (#926, #927, #928, #929));
#931 = FACE_BOUND('', #930, .T.);
#932 = ADVANCED_FACE('', (#931), #664, .F.);
#933 = ORIENTED_EDGE('', *, *, #588, .F.);
#934 = ORIENTED_EDGE('', *, *, #598, .T.);
#935 = ORIENTED_EDGE('', *, *, #592, .T.);
#936 = ORIENTED_EDGE('', *, *, #596, .F.);
#937 = EDGE_LOOP('', (#933, #934, #935, #936));
#938 = FACE_BOUND('', #937, .T.);
#939 = ADVANCED_FACE('', (#938), #668, .F.);
#940 = ORIENTED_EDGE('', *, *, #602, .F.);
#941 = ORIENTED_EDGE('', *, *, #607, .T.);
#942 = ORIENTED_EDGE('', *, *, #606, .T.);
#943 = ORIENTED_EDGE('', *, *, #609, .F.);
#944 = EDGE_LOOP('', (#940, #941, #942, #943));
#945 = FACE_BOUND('', #944, .T.);
#946 = ADVANCED_FACE('', (#945), #695, .F.);
#947 = ORIENTED_EDGE('', *, *, #601, .F.);
#948 = ORIENTED_EDGE('', *, *, #608, .T.);
#949 = ORIENTED_EDGE('', *, *, #605, .T.);
#950 = ORIENTED_EDGE('', *, *, #607, .F.);
#951 = EDGE_LOOP('', (#947, #948, #949, #950));
#952 = FACE_BOUND('', #951, .T.);
#953 = ADVANCED_FACE('', (#952), #691, .F.);
#954 = ORIENTED_EDGE('', *, *, #600, .F.);
#955 = ORIENTED_EDGE('', *, *, #610, .T.);
#956 = ORIENTED_EDGE('', *, *, #604, .T.);
#957 = ORIENTED_EDGE('', *, *, #608, .F.);
#958 = EDGE_LOOP('', (#954, #955, #956, #957));
#959 = FACE_BOUND('', #958, .T.);
#960 = ADVANCED_FACE('', (#959), #686, .F.);
#961 = ORIENTED_EDGE('', *, *, #599, .T.);
#962 = ORIENTED_EDGE('', *, *, #609, .T.);
#963 = ORIENTED_EDGE('', *, *, #603, .F.);
#964 = ORIENTED_EDGE('', *, *, #610, .F.);
#965 = EDGE_LOOP('', (#961, #962, #963, #964));
#966 = FACE_BOUND('', #965, .T.);
#967 = ADVANCED_FACE('', (#966), #682, .F.);
#968 = CLOSED_SHELL('', (#702, #709, #716, #723, #772, #821, #830, #839, #848, #857, #866, #875, #884, #893, #902, #911, #918, #925, #932, #939, #946, #953, #960, #967));
#969 = MANIFOLD_SOLID_BREP('', #968);
#970 = APPLICATION_CONTEXT('configuration controlled 3D design of mechanical parts and assemblies');
#971 = PRODUCT_DEFINITION_CONTEXT('part definition', #970, 'design');
#972 = PRODUCT_CONTEXT('', #970, 'mechanical');
#973 = PRODUCT('UNIDENTIFIED_PRODUCT', '', $, (#972));
#974 = PRODUCT_DEFINITION_FORMATION('', $, #973);
#975 = PRODUCT_DEFINITION('design', $, #974, #971);
#976 = PRODUCT_DEFINITION_SHAPE('', '', #975);
#977 = ADVANCED_BREP_SHAPE_REPRESENTATION('', (#969), #4);
#978 = SHAPE_DEFINITION_REPRESENTATION(#976, #977);
#979 = COLOUR_RGB('', 0.89999998, 0.89999998, 0.89999998);
#980 = FILL_AREA_STYLE_COLOUR('', #979);
#981 = FILL_AREA_STYLE('', (#980));
#982 = SURFACE_STYLE_FILL_AREA(#981);
#983 = SURFACE_SIDE_STYLE('', (#982));
#984 = SURFACE_STYLE_USAGE(.BOTH., #983);
#985 = PRESENTATION_STYLE_ASSIGNMENT((#984));
#986 = STYLED_ITEM('', (#985), #969);
#987 = MECHANICAL_DESIGN_GEOMETRIC_PRESENTATION_REPRESENTATION('', (#986), #4);
ENDSEC;
END-ISO-10303-21;
