ISO-10303-21;
HEADER;
FILE_DESCRIPTION(('zoo.dev export'), '2;1');
FILE_NAME('output.step', '2026-07-29T04:40:43.351551157+00:00', (''), (''), 'zoo.dev beta', 'zoo.dev', '');
FILE_SCHEMA(('AP242_MANAGED_MODEL_BASED_3D_ENGINEERING_MIM_LF'));
ENDSEC;
DATA;
#1 = (
  LENGTH_UNIT()
  NAMED_UNIT(*)
  SI_UNIT($, .METRE.)
);
#2 = (
  NAMED_UNIT(*)
  PLANE_ANGLE_UNIT()
  SI_UNIT($, .RADIAN.)
);
#3 = UNCERTAINTY_MEASURE_WITH_UNIT(LENGTH_MEASURE(0.00001), #1, 'DISTANCE_ACCURACY_VALUE', $);
#4 = (
  GEOMETRIC_REPRESENTATION_CONTEXT(3)
  GLOBAL_UNCERTAINTY_ASSIGNED_CONTEXT((#3))
  GLOBAL_UNIT_ASSIGNED_CONTEXT((#1, #2))
  REPRESENTATION_CONTEXT('3D', '3D context')
);
#5 = CARTESIAN_POINT('', (0.03, -0.03, -0.003));
#6 = VERTEX_POINT('', #5);
#7 = CARTESIAN_POINT('', (0.03, 0.03, -0.003));
#8 = VERTEX_POINT('', #7);
#9 = CARTESIAN_POINT('', (0.03, 0.03, 0.003));
#10 = VERTEX_POINT('', #9);
#11 = CARTESIAN_POINT('', (0.03, -0.03, 0.003));
#12 = VERTEX_POINT('', #11);
#13 = CARTESIAN_POINT('', (-0.03, 0.03, -0.003));
#14 = VERTEX_POINT('', #13);
#15 = CARTESIAN_POINT('', (-0.03, 0.03, 0.003));
#16 = VERTEX_POINT('', #15);
#17 = CARTESIAN_POINT('', (-0.03, -0.03, -0.003));
#18 = VERTEX_POINT('', #17);
#19 = CARTESIAN_POINT('', (-0.03, -0.03, 0.003));
#20 = VERTEX_POINT('', #19);
#21 = CARTESIAN_POINT('', (-0.0175, -0.02, -0.003));
#22 = VERTEX_POINT('', #21);
#23 = CARTESIAN_POINT('', (-0.0225, -0.02, -0.003));
#24 = VERTEX_POINT('', #23);
#25 = CARTESIAN_POINT('', (-0.0175, -0.02, 0.003));
#26 = VERTEX_POINT('', #25);
#27 = CARTESIAN_POINT('', (-0.0225, -0.02, 0.003));
#28 = VERTEX_POINT('', #27);
#29 = CARTESIAN_POINT('', (-0.02, -0.0225, -0.003));
#30 = VERTEX_POINT('', #29);
#31 = CARTESIAN_POINT('', (-0.02, -0.0175, -0.003));
#32 = VERTEX_POINT('', #31);
#33 = CARTESIAN_POINT('', (-0.02, -0.0225, 0.003));
#34 = VERTEX_POINT('', #33);
#35 = CARTESIAN_POINT('', (-0.02, -0.0175, 0.003));
#36 = VERTEX_POINT('', #35);
#37 = CARTESIAN_POINT('', (-0.0175, 0.02, -0.003));
#38 = VERTEX_POINT('', #37);
#39 = CARTESIAN_POINT('', (-0.0225, 0.02, -0.003));
#40 = VERTEX_POINT('', #39);
#41 = CARTESIAN_POINT('', (-0.0175, 0.02, 0.003));
#42 = VERTEX_POINT('', #41);
#43 = CARTESIAN_POINT('', (-0.0225, 0.02, 0.003));
#44 = VERTEX_POINT('', #43);
#45 = CARTESIAN_POINT('', (-0.02, 0.0175, -0.003));
#46 = VERTEX_POINT('', #45);
#47 = CARTESIAN_POINT('', (-0.02, 0.0225, -0.003));
#48 = VERTEX_POINT('', #47);
#49 = CARTESIAN_POINT('', (-0.02, 0.0175, 0.003));
#50 = VERTEX_POINT('', #49);
#51 = CARTESIAN_POINT('', (-0.02, 0.0225, 0.003));
#52 = VERTEX_POINT('', #51);
#53 = CARTESIAN_POINT('', (0.0225, -0.02, -0.003));
#54 = VERTEX_POINT('', #53);
#55 = CARTESIAN_POINT('', (0.0175, -0.02, -0.003));
#56 = VERTEX_POINT('', #55);
#57 = CARTESIAN_POINT('', (0.0225, -0.02, 0.003));
#58 = VERTEX_POINT('', #57);
#59 = CARTESIAN_POINT('', (0.0175, -0.02, 0.003));
#60 = VERTEX_POINT('', #59);
#61 = CARTESIAN_POINT('', (0.02, -0.0225, -0.003));
#62 = VERTEX_POINT('', #61);
#63 = CARTESIAN_POINT('', (0.02, -0.0175, -0.003));
#64 = VERTEX_POINT('', #63);
#65 = CARTESIAN_POINT('', (0.02, -0.0225, 0.003));
#66 = VERTEX_POINT('', #65);
#67 = CARTESIAN_POINT('', (0.02, -0.0175, 0.003));
#68 = VERTEX_POINT('', #67);
#69 = CARTESIAN_POINT('', (0.0225, 0.02, -0.003));
#70 = VERTEX_POINT('', #69);
#71 = CARTESIAN_POINT('', (0.0175, 0.02, -0.003));
#72 = VERTEX_POINT('', #71);
#73 = CARTESIAN_POINT('', (0.0225, 0.02, 0.003));
#74 = VERTEX_POINT('', #73);
#75 = CARTESIAN_POINT('', (0.0175, 0.02, 0.003));
#76 = VERTEX_POINT('', #75);
#77 = CARTESIAN_POINT('', (0.02, 0.0175, -0.003));
#78 = VERTEX_POINT('', #77);
#79 = CARTESIAN_POINT('', (0.02, 0.0225, -0.003));
#80 = VERTEX_POINT('', #79);
#81 = CARTESIAN_POINT('', (0.02, 0.0175, 0.003));
#82 = VERTEX_POINT('', #81);
#83 = CARTESIAN_POINT('', (0.02, 0.0225, 0.003));
#84 = VERTEX_POINT('', #83);
#85 = DIRECTION('', (0., 1., 0.));
#86 = VECTOR('', #85, 1.);
#87 = CARTESIAN_POINT('', (0.03, -0.03, -0.003));
#88 = LINE('', #87, #86);
#89 = DIRECTION('', (0., -0., 1.));
#90 = VECTOR('', #89, 1.);
#91 = CARTESIAN_POINT('', (0.03, 0.03, -0.003));
#92 = LINE('', #91, #90);
#93 = DIRECTION('', (0., 1., 0.));
#94 = VECTOR('', #93, 1.);
#95 = CARTESIAN_POINT('', (0.03, -0.03, 0.003));
#96 = LINE('', #95, #94);
#97 = DIRECTION('', (0., -0., 1.));
#98 = VECTOR('', #97, 1.);
#99 = CARTESIAN_POINT('', (0.03, -0.03, -0.003));
#100 = LINE('', #99, #98);
#101 = DIRECTION('', (-1., -0., 0.));
#102 = VECTOR('', #101, 1.);
#103 = CARTESIAN_POINT('', (0.03, 0.03, -0.003));
#104 = LINE('', #103, #102);
#105 = DIRECTION('', (0., -0., 1.));
#106 = VECTOR('', #105, 1.);
#107 = CARTESIAN_POINT('', (-0.03, 0.03, -0.003));
#108 = LINE('', #107, #106);
#109 = DIRECTION('', (-1., -0., 0.));
#110 = VECTOR('', #109, 1.);
#111 = CARTESIAN_POINT('', (0.03, 0.03, 0.003));
#112 = LINE('', #111, #110);
#113 = DIRECTION('', (0., -1., 0.));
#114 = VECTOR('', #113, 1.);
#115 = CARTESIAN_POINT('', (-0.03, 0.03, -0.003));
#116 = LINE('', #115, #114);
#117 = DIRECTION('', (0., -0., 1.));
#118 = VECTOR('', #117, 1.);
#119 = CARTESIAN_POINT('', (-0.03, -0.03, -0.003));
#120 = LINE('', #119, #118);
#121 = DIRECTION('', (0., -1., 0.));
#122 = VECTOR('', #121, 1.);
#123 = CARTESIAN_POINT('', (-0.03, 0.03, 0.003));
#124 = LINE('', #123, #122);
#125 = DIRECTION('', (1., -0., 0.));
#126 = VECTOR('', #125, 1.);
#127 = CARTESIAN_POINT('', (-0.03, -0.03, -0.003));
#128 = LINE('', #127, #126);
#129 = DIRECTION('', (1., -0., 0.));
#130 = VECTOR('', #129, 1.);
#131 = CARTESIAN_POINT('', (-0.03, -0.03, 0.003));
#132 = LINE('', #131, #130);
#133 = DIRECTION('', (1., 0., 0.));
#134 = DIRECTION('', (-0., -0., 1.));
#135 = CARTESIAN_POINT('', (-0.02, -0.02, -0.003));
#136 = AXIS2_PLACEMENT_3D('', #135, #134, #133);
#137 = CIRCLE('', #136, 0.0025);
#138 = DIRECTION('', (1., -0., -0.));
#139 = DIRECTION('', (-0., 0., -1.));
#140 = CARTESIAN_POINT('', (-0.02, -0.02, -0.003));
#141 = AXIS2_PLACEMENT_3D('', #140, #139, #138);
#142 = CIRCLE('', #141, 0.0025);
#143 = DIRECTION('', (1., -0., -0.));
#144 = DIRECTION('', (0., 0., 1.));
#145 = CARTESIAN_POINT('', (-0.02, -0.02, 0.003));
#146 = AXIS2_PLACEMENT_3D('', #145, #144, #143);
#147 = CIRCLE('', #146, 0.0025);
#148 = DIRECTION('', (1., -0., 0.));
#149 = DIRECTION('', (0., -0., -1.));
#150 = CARTESIAN_POINT('', (-0.02, -0.02, 0.003));
#151 = AXIS2_PLACEMENT_3D('', #150, #149, #148);
#152 = CIRCLE('', #151, 0.0025);
#153 = DIRECTION('', (0., -1., 0.));
#154 = DIRECTION('', (-0., -0., -1.));
#155 = CARTESIAN_POINT('', (-0.02, -0.02, -0.003));
#156 = AXIS2_PLACEMENT_3D('', #155, #154, #153);
#157 = CIRCLE('', #156, 0.0025);
#158 = DIRECTION('', (-0., 1., -0.));
#159 = DIRECTION('', (-0., 0., 1.));
#160 = CARTESIAN_POINT('', (-0.02, -0.02, -0.003));
#161 = AXIS2_PLACEMENT_3D('', #160, #159, #158);
#162 = CIRCLE('', #161, 0.0025);
#163 = DIRECTION('', (-0., -1., 0.));
#164 = DIRECTION('', (-0., -0., -1.));
#165 = CARTESIAN_POINT('', (-0.02, -0.02, 0.003));
#166 = AXIS2_PLACEMENT_3D('', #165, #164, #163);
#167 = CIRCLE('', #166, 0.0025);
#168 = DIRECTION('', (-0., 1., 0.));
#169 = DIRECTION('', (0., -0., 1.));
#170 = CARTESIAN_POINT('', (-0.02, -0.02, 0.003));
#171 = AXIS2_PLACEMENT_3D('', #170, #169, #168);
#172 = CIRCLE('', #171, 0.0025);
#173 = DIRECTION('', (0., -0., 1.));
#174 = VECTOR('', #173, 1.);
#175 = CARTESIAN_POINT('', (-0.0225, -0.02, -0.003));
#176 = LINE('', #175, #174);
#177 = DIRECTION('', (0., -0., 1.));
#178 = VECTOR('', #177, 1.);
#179 = CARTESIAN_POINT('', (-0.0175, -0.02, -0.003));
#180 = LINE('', #179, #178);
#181 = DIRECTION('', (1., 0., 0.));
#182 = DIRECTION('', (-0., -0., 1.));
#183 = CARTESIAN_POINT('', (-0.02, 0.02, -0.003));
#184 = AXIS2_PLACEMENT_3D('', #183, #182, #181);
#185 = CIRCLE('', #184, 0.0025);
#186 = DIRECTION('', (1., -0., -0.));
#187 = DIRECTION('', (-0., 0., -1.));
#188 = CARTESIAN_POINT('', (-0.02, 0.02, -0.003));
#189 = AXIS2_PLACEMENT_3D('', #188, #187, #186);
#190 = CIRCLE('', #189, 0.0025);
#191 = DIRECTION('', (1., -0., 0.));
#192 = DIRECTION('', (-0., -0., 1.));
#193 = CARTESIAN_POINT('', (-0.02, 0.02, 0.003));
#194 = AXIS2_PLACEMENT_3D('', #193, #192, #191);
#195 = CIRCLE('', #194, 0.0025);
#196 = DIRECTION('', (1., -0., 0.));
#197 = DIRECTION('', (0., -0., -1.));
#198 = CARTESIAN_POINT('', (-0.02, 0.02, 0.003));
#199 = AXIS2_PLACEMENT_3D('', #198, #197, #196);
#200 = CIRCLE('', #199, 0.0025);
#201 = DIRECTION('', (0., -1., -0.));
#202 = DIRECTION('', (0., 0., -1.));
#203 = CARTESIAN_POINT('', (-0.02, 0.02, -0.003));
#204 = AXIS2_PLACEMENT_3D('', #203, #202, #201);
#205 = CIRCLE('', #204, 0.0025);
#206 = DIRECTION('', (-0., 1., -0.));
#207 = DIRECTION('', (-0., 0., 1.));
#208 = CARTESIAN_POINT('', (-0.02, 0.02, -0.003));
#209 = AXIS2_PLACEMENT_3D('', #208, #207, #206);
#210 = CIRCLE('', #209, 0.0025);
#211 = DIRECTION('', (0., -1., 0.));
#212 = DIRECTION('', (0., -0., -1.));
#213 = CARTESIAN_POINT('', (-0.02, 0.02, 0.003));
#214 = AXIS2_PLACEMENT_3D('', #213, #212, #211);
#215 = CIRCLE('', #214, 0.0025);
#216 = DIRECTION('', (-0., 1., -0.));
#217 = DIRECTION('', (-0., 0., 1.));
#218 = CARTESIAN_POINT('', (-0.02, 0.02, 0.003));
#219 = AXIS2_PLACEMENT_3D('', #218, #217, #216);
#220 = CIRCLE('', #219, 0.0025);
#221 = DIRECTION('', (0., -0., 1.));
#222 = VECTOR('', #221, 1.);
#223 = CARTESIAN_POINT('', (-0.0225, 0.02, -0.003));
#224 = LINE('', #223, #222);
#225 = DIRECTION('', (0., -0., 1.));
#226 = VECTOR('', #225, 1.);
#227 = CARTESIAN_POINT('', (-0.0175, 0.02, -0.003));
#228 = LINE('', #227, #226);
#229 = DIRECTION('', (1., 0., -0.));
#230 = DIRECTION('', (0., 0., 1.));
#231 = CARTESIAN_POINT('', (0.02, -0.02, -0.003));
#232 = AXIS2_PLACEMENT_3D('', #231, #230, #229);
#233 = CIRCLE('', #232, 0.0025);
#234 = DIRECTION('', (1., -0., 0.));
#235 = DIRECTION('', (0., -0., -1.));
#236 = CARTESIAN_POINT('', (0.02, -0.02, -0.003));
#237 = AXIS2_PLACEMENT_3D('', #236, #235, #234);
#238 = CIRCLE('', #237, 0.0025);
#239 = DIRECTION('', (1., 0., 0.));
#240 = DIRECTION('', (0., -0., 1.));
#241 = CARTESIAN_POINT('', (0.02, -0.02, 0.003));
#242 = AXIS2_PLACEMENT_3D('', #241, #240, #239);
#243 = CIRCLE('', #242, 0.0025);
#244 = DIRECTION('', (1., 0., -0.));
#245 = DIRECTION('', (-0., -0., -1.));
#246 = CARTESIAN_POINT('', (0.02, -0.02, 0.003));
#247 = AXIS2_PLACEMENT_3D('', #246, #245, #244);
#248 = CIRCLE('', #247, 0.0025);
#249 = DIRECTION('', (0., -1., -0.));
#250 = DIRECTION('', (0., 0., -1.));
#251 = CARTESIAN_POINT('', (0.02, -0.02, -0.003));
#252 = AXIS2_PLACEMENT_3D('', #251, #250, #249);
#253 = CIRCLE('', #252, 0.0025);
#254 = DIRECTION('', (-0., 1., 0.));
#255 = DIRECTION('', (0., -0., 1.));
#256 = CARTESIAN_POINT('', (0.02, -0.02, -0.003));
#257 = AXIS2_PLACEMENT_3D('', #256, #255, #254);
#258 = CIRCLE('', #257, 0.0025);
#259 = DIRECTION('', (0., -1., -0.));
#260 = DIRECTION('', (0., 0., -1.));
#261 = CARTESIAN_POINT('', (0.02, -0.02, 0.003));
#262 = AXIS2_PLACEMENT_3D('', #261, #260, #259);
#263 = CIRCLE('', #262, 0.0025);
#264 = DIRECTION('', (-0., 1., 0.));
#265 = DIRECTION('', (0., -0., 1.));
#266 = CARTESIAN_POINT('', (0.02, -0.02, 0.003));
#267 = AXIS2_PLACEMENT_3D('', #266, #265, #264);
#268 = CIRCLE('', #267, 0.0025);
#269 = DIRECTION('', (0., -0., 1.));
#270 = VECTOR('', #269, 1.);
#271 = CARTESIAN_POINT('', (0.0175, -0.02, -0.003));
#272 = LINE('', #271, #270);
#273 = DIRECTION('', (0., -0., 1.));
#274 = VECTOR('', #273, 1.);
#275 = CARTESIAN_POINT('', (0.0225, -0.02, -0.003));
#276 = LINE('', #275, #274);
#277 = DIRECTION('', (1., 0., -0.));
#278 = DIRECTION('', (0., 0., 1.));
#279 = CARTESIAN_POINT('', (0.02, 0.02, -0.003));
#280 = AXIS2_PLACEMENT_3D('', #279, #278, #277);
#281 = CIRCLE('', #280, 0.0025);
#282 = DIRECTION('', (1., -0., -0.));
#283 = DIRECTION('', (-0., 0., -1.));
#284 = CARTESIAN_POINT('', (0.02, 0.02, -0.003));
#285 = AXIS2_PLACEMENT_3D('', #284, #283, #282);
#286 = CIRCLE('', #285, 0.0025);
#287 = DIRECTION('', (1., 0., -0.));
#288 = DIRECTION('', (0., 0., 1.));
#289 = CARTESIAN_POINT('', (0.02, 0.02, 0.003));
#290 = AXIS2_PLACEMENT_3D('', #289, #288, #287);
#291 = CIRCLE('', #290, 0.0025);
#292 = DIRECTION('', (1., 0., 0.));
#293 = DIRECTION('', (0., -0., -1.));
#294 = CARTESIAN_POINT('', (0.02, 0.02, 0.003));
#295 = AXIS2_PLACEMENT_3D('', #294, #293, #292);
#296 = CIRCLE('', #295, 0.0025);
#297 = DIRECTION('', (0., -1., -0.));
#298 = DIRECTION('', (0., 0., -1.));
#299 = CARTESIAN_POINT('', (0.02, 0.02, -0.003));
#300 = AXIS2_PLACEMENT_3D('', #299, #298, #297);
#301 = CIRCLE('', #300, 0.0025);
#302 = DIRECTION('', (-0., 1., 0.));
#303 = DIRECTION('', (0., -0., 1.));
#304 = CARTESIAN_POINT('', (0.02, 0.02, -0.003));
#305 = AXIS2_PLACEMENT_3D('', #304, #303, #302);
#306 = CIRCLE('', #305, 0.0025);
#307 = DIRECTION('', (0., -1., 0.));
#308 = DIRECTION('', (0., 0., -1.));
#309 = CARTESIAN_POINT('', (0.02, 0.02, 0.003));
#310 = AXIS2_PLACEMENT_3D('', #309, #308, #307);
#311 = CIRCLE('', #310, 0.0025);
#312 = DIRECTION('', (-0., 1., 0.));
#313 = DIRECTION('', (0., -0., 1.));
#314 = CARTESIAN_POINT('', (0.02, 0.02, 0.003));
#315 = AXIS2_PLACEMENT_3D('', #314, #313, #312);
#316 = CIRCLE('', #315, 0.0025);
#317 = DIRECTION('', (0., -0., 1.));
#318 = VECTOR('', #317, 1.);
#319 = CARTESIAN_POINT('', (0.0175, 0.02, -0.003));
#320 = LINE('', #319, #318);
#321 = DIRECTION('', (0., -0., 1.));
#322 = VECTOR('', #321, 1.);
#323 = CARTESIAN_POINT('', (0.0225, 0.02, -0.003));
#324 = LINE('', #323, #322);
#325 = EDGE_CURVE('', #6, #8, #88, .T.);
#326 = EDGE_CURVE('', #8, #10, #92, .T.);
#327 = EDGE_CURVE('', #12, #10, #96, .T.);
#328 = EDGE_CURVE('', #6, #12, #100, .T.);
#329 = EDGE_CURVE('', #8, #14, #104, .T.);
#330 = EDGE_CURVE('', #14, #16, #108, .T.);
#331 = EDGE_CURVE('', #10, #16, #112, .T.);
#332 = EDGE_CURVE('', #14, #18, #116, .T.);
#333 = EDGE_CURVE('', #18, #20, #120, .T.);
#334 = EDGE_CURVE('', #16, #20, #124, .T.);
#335 = EDGE_CURVE('', #18, #6, #128, .T.);
#336 = EDGE_CURVE('', #20, #12, #132, .T.);
#337 = EDGE_CURVE('', #22, #32, #137, .T.);
#338 = EDGE_CURVE('', #22, #30, #142, .T.);
#339 = EDGE_CURVE('', #26, #36, #147, .T.);
#340 = EDGE_CURVE('', #26, #34, #152, .T.);
#341 = EDGE_CURVE('', #30, #24, #157, .T.);
#342 = EDGE_CURVE('', #32, #24, #162, .T.);
#343 = EDGE_CURVE('', #34, #28, #167, .T.);
#344 = EDGE_CURVE('', #36, #28, #172, .T.);
#345 = EDGE_CURVE('', #24, #28, #176, .T.);
#346 = EDGE_CURVE('', #22, #26, #180, .T.);
#347 = EDGE_CURVE('', #38, #48, #185, .T.);
#348 = EDGE_CURVE('', #38, #46, #190, .T.);
#349 = EDGE_CURVE('', #42, #52, #195, .T.);
#350 = EDGE_CURVE('', #42, #50, #200, .T.);
#351 = EDGE_CURVE('', #46, #40, #205, .T.);
#352 = EDGE_CURVE('', #48, #40, #210, .T.);
#353 = EDGE_CURVE('', #50, #44, #215, .T.);
#354 = EDGE_CURVE('', #52, #44, #220, .T.);
#355 = EDGE_CURVE('', #40, #44, #224, .T.);
#356 = EDGE_CURVE('', #38, #42, #228, .T.);
#357 = EDGE_CURVE('', #54, #64, #233, .T.);
#358 = EDGE_CURVE('', #54, #62, #238, .T.);
#359 = EDGE_CURVE('', #58, #68, #243, .T.);
#360 = EDGE_CURVE('', #58, #66, #248, .T.);
#361 = EDGE_CURVE('', #62, #56, #253, .T.);
#362 = EDGE_CURVE('', #64, #56, #258, .T.);
#363 = EDGE_CURVE('', #66, #60, #263, .T.);
#364 = EDGE_CURVE('', #68, #60, #268, .T.);
#365 = EDGE_CURVE('', #56, #60, #272, .T.);
#366 = EDGE_CURVE('', #54, #58, #276, .T.);
#367 = EDGE_CURVE('', #70, #80, #281, .T.);
#368 = EDGE_CURVE('', #70, #78, #286, .T.);
#369 = EDGE_CURVE('', #74, #84, #291, .T.);
#370 = EDGE_CURVE('', #74, #82, #296, .T.);
#371 = EDGE_CURVE('', #78, #72, #301, .T.);
#372 = EDGE_CURVE('', #80, #72, #306, .T.);
#373 = EDGE_CURVE('', #82, #76, #311, .T.);
#374 = EDGE_CURVE('', #84, #76, #316, .T.);
#375 = EDGE_CURVE('', #72, #76, #320, .T.);
#376 = EDGE_CURVE('', #70, #74, #324, .T.);
#377 = CARTESIAN_POINT('', (0.03, 0., 0.));
#378 = DIRECTION('', (1., -0., 0.));
#379 = AXIS2_PLACEMENT_3D('', #377, #378, $);
#380 = PLANE('', #379);
#381 = CARTESIAN_POINT('', (0., 0.03, 0.));
#382 = DIRECTION('', (0., 1., -0.));
#383 = AXIS2_PLACEMENT_3D('', #381, #382, $);
#384 = PLANE('', #383);
#385 = CARTESIAN_POINT('', (-0.03, 0., 0.));
#386 = DIRECTION('', (-1., -0., 0.));
#387 = AXIS2_PLACEMENT_3D('', #385, #386, $);
#388 = PLANE('', #387);
#389 = CARTESIAN_POINT('', (0., -0.03, 0.));
#390 = DIRECTION('', (0., -1., 0.));
#391 = AXIS2_PLACEMENT_3D('', #389, #390, $);
#392 = PLANE('', #391);
#393 = CARTESIAN_POINT('', (0., 0., -0.003));
#394 = DIRECTION('', (0., -0., 1.));
#395 = AXIS2_PLACEMENT_3D('', #393, #394, $);
#396 = PLANE('', #395);
#397 = CARTESIAN_POINT('', (0., 0., 0.003));
#398 = DIRECTION('', (0., -0., 1.));
#399 = AXIS2_PLACEMENT_3D('', #397, #398, $);
#400 = PLANE('', #399);
#401 = CARTESIAN_POINT('', (-0.02, -0.02, 0.));
#402 = DIRECTION('', (0., -0., 1.));
#403 = DIRECTION('', (1., 0., 0.));
#404 = AXIS2_PLACEMENT_3D('', #401, #402, #403);
#405 = CYLINDRICAL_SURFACE('', #404, 0.0025);
#406 = CARTESIAN_POINT('', (-0.02, 0.02, 0.));
#407 = DIRECTION('', (0., -0., 1.));
#408 = DIRECTION('', (1., 0., 0.));
#409 = AXIS2_PLACEMENT_3D('', #406, #407, #408);
#410 = CYLINDRICAL_SURFACE('', #409, 0.0025);
#411 = CARTESIAN_POINT('', (0.02, -0.02, 0.));
#412 = DIRECTION('', (0., -0., 1.));
#413 = DIRECTION('', (1., 0., 0.));
#414 = AXIS2_PLACEMENT_3D('', #411, #412, #413);
#415 = CYLINDRICAL_SURFACE('', #414, 0.0025);
#416 = CARTESIAN_POINT('', (0.02, 0.02, 0.));
#417 = DIRECTION('', (0., -0., 1.));
#418 = DIRECTION('', (1., 0., 0.));
#419 = AXIS2_PLACEMENT_3D('', #416, #417, #418);
#420 = CYLINDRICAL_SURFACE('', #419, 0.0025);
#421 = ORIENTED_EDGE('', *, *, #325, .T.);
#422 = ORIENTED_EDGE('', *, *, #326, .T.);
#423 = ORIENTED_EDGE('', *, *, #327, .F.);
#424 = ORIENTED_EDGE('', *, *, #328, .F.);
#425 = EDGE_LOOP('', (#421, #422, #423, #424));
#426 = FACE_BOUND('', #425, .T.);
#427 = ADVANCED_FACE('', (#426), #380, .T.);
#428 = ORIENTED_EDGE('', *, *, #329, .T.);
#429 = ORIENTED_EDGE('', *, *, #330, .T.);
#430 = ORIENTED_EDGE('', *, *, #331, .F.);
#431 = ORIENTED_EDGE('', *, *, #326, .F.);
#432 = EDGE_LOOP('', (#428, #429, #430, #431));
#433 = FACE_BOUND('', #432, .T.);
#434 = ADVANCED_FACE('', (#433), #384, .T.);
#435 = ORIENTED_EDGE('', *, *, #332, .T.);
#436 = ORIENTED_EDGE('', *, *, #333, .T.);
#437 = ORIENTED_EDGE('', *, *, #334, .F.);
#438 = ORIENTED_EDGE('', *, *, #330, .F.);
#439 = EDGE_LOOP('', (#435, #436, #437, #438));
#440 = FACE_BOUND('', #439, .T.);
#441 = ADVANCED_FACE('', (#440), #388, .T.);
#442 = ORIENTED_EDGE('', *, *, #335, .T.);
#443 = ORIENTED_EDGE('', *, *, #328, .T.);
#444 = ORIENTED_EDGE('', *, *, #336, .F.);
#445 = ORIENTED_EDGE('', *, *, #333, .F.);
#446 = EDGE_LOOP('', (#442, #443, #444, #445));
#447 = FACE_BOUND('', #446, .T.);
#448 = ADVANCED_FACE('', (#447), #392, .T.);
#449 = ORIENTED_EDGE('', *, *, #335, .F.);
#450 = ORIENTED_EDGE('', *, *, #332, .F.);
#451 = ORIENTED_EDGE('', *, *, #329, .F.);
#452 = ORIENTED_EDGE('', *, *, #325, .F.);
#453 = ORIENTED_EDGE('', *, *, #342, .T.);
#454 = ORIENTED_EDGE('', *, *, #341, .F.);
#455 = ORIENTED_EDGE('', *, *, #338, .F.);
#456 = ORIENTED_EDGE('', *, *, #337, .T.);
#457 = ORIENTED_EDGE('', *, *, #352, .T.);
#458 = ORIENTED_EDGE('', *, *, #351, .F.);
#459 = ORIENTED_EDGE('', *, *, #348, .F.);
#460 = ORIENTED_EDGE('', *, *, #347, .T.);
#461 = ORIENTED_EDGE('', *, *, #362, .T.);
#462 = ORIENTED_EDGE('', *, *, #361, .F.);
#463 = ORIENTED_EDGE('', *, *, #358, .F.);
#464 = ORIENTED_EDGE('', *, *, #357, .T.);
#465 = ORIENTED_EDGE('', *, *, #372, .T.);
#466 = ORIENTED_EDGE('', *, *, #371, .F.);
#467 = ORIENTED_EDGE('', *, *, #368, .F.);
#468 = ORIENTED_EDGE('', *, *, #367, .T.);
#469 = EDGE_LOOP('', (#449, #450, #451, #452));
#470 = FACE_BOUND('', #469, .T.);
#471 = EDGE_LOOP('', (#453, #454, #455, #456));
#472 = FACE_BOUND('', #471, .T.);
#473 = EDGE_LOOP('', (#457, #458, #459, #460));
#474 = FACE_BOUND('', #473, .T.);
#475 = EDGE_LOOP('', (#461, #462, #463, #464));
#476 = FACE_BOUND('', #475, .T.);
#477 = EDGE_LOOP('', (#465, #466, #467, #468));
#478 = FACE_BOUND('', #477, .T.);
#479 = ADVANCED_FACE('', (#470, #472, #474, #476, #478), #396, .F.);
#480 = ORIENTED_EDGE('', *, *, #327, .T.);
#481 = ORIENTED_EDGE('', *, *, #331, .T.);
#482 = ORIENTED_EDGE('', *, *, #334, .T.);
#483 = ORIENTED_EDGE('', *, *, #336, .T.);
#484 = ORIENTED_EDGE('', *, *, #339, .F.);
#485 = ORIENTED_EDGE('', *, *, #340, .T.);
#486 = ORIENTED_EDGE('', *, *, #343, .T.);
#487 = ORIENTED_EDGE('', *, *, #344, .F.);
#488 = ORIENTED_EDGE('', *, *, #349, .F.);
#489 = ORIENTED_EDGE('', *, *, #350, .T.);
#490 = ORIENTED_EDGE('', *, *, #353, .T.);
#491 = ORIENTED_EDGE('', *, *, #354, .F.);
#492 = ORIENTED_EDGE('', *, *, #359, .F.);
#493 = ORIENTED_EDGE('', *, *, #360, .T.);
#494 = ORIENTED_EDGE('', *, *, #363, .T.);
#495 = ORIENTED_EDGE('', *, *, #364, .F.);
#496 = ORIENTED_EDGE('', *, *, #369, .F.);
#497 = ORIENTED_EDGE('', *, *, #370, .T.);
#498 = ORIENTED_EDGE('', *, *, #373, .T.);
#499 = ORIENTED_EDGE('', *, *, #374, .F.);
#500 = EDGE_LOOP('', (#480, #481, #482, #483));
#501 = FACE_BOUND('', #500, .T.);
#502 = EDGE_LOOP('', (#484, #485, #486, #487));
#503 = FACE_BOUND('', #502, .T.);
#504 = EDGE_LOOP('', (#488, #489, #490, #491));
#505 = FACE_BOUND('', #504, .T.);
#506 = EDGE_LOOP('', (#492, #493, #494, #495));
#507 = FACE_BOUND('', #506, .T.);
#508 = EDGE_LOOP('', (#496, #497, #498, #499));
#509 = FACE_BOUND('', #508, .T.);
#510 = ADVANCED_FACE('', (#501, #503, #505, #507, #509), #400, .T.);
#511 = ORIENTED_EDGE('', *, *, #342, .F.);
#512 = ORIENTED_EDGE('', *, *, #337, .F.);
#513 = ORIENTED_EDGE('', *, *, #346, .T.);
#514 = ORIENTED_EDGE('', *, *, #339, .T.);
#515 = ORIENTED_EDGE('', *, *, #344, .T.);
#516 = ORIENTED_EDGE('', *, *, #345, .F.);
#517 = EDGE_LOOP('', (#511, #512, #513, #514, #515, #516));
#518 = FACE_BOUND('', #517, .T.);
#519 = ADVANCED_FACE('', (#518), #405, .F.);
#520 = ORIENTED_EDGE('', *, *, #343, .F.);
#521 = ORIENTED_EDGE('', *, *, #340, .F.);
#522 = ORIENTED_EDGE('', *, *, #346, .F.);
#523 = ORIENTED_EDGE('', *, *, #338, .T.);
#524 = ORIENTED_EDGE('', *, *, #341, .T.);
#525 = ORIENTED_EDGE('', *, *, #345, .T.);
#526 = EDGE_LOOP('', (#520, #521, #522, #523, #524, #525));
#527 = FACE_BOUND('', #526, .T.);
#528 = ADVANCED_FACE('', (#527), #405, .F.);
#529 = ORIENTED_EDGE('', *, *, #352, .F.);
#530 = ORIENTED_EDGE('', *, *, #347, .F.);
#531 = ORIENTED_EDGE('', *, *, #356, .T.);
#532 = ORIENTED_EDGE('', *, *, #349, .T.);
#533 = ORIENTED_EDGE('', *, *, #354, .T.);
#534 = ORIENTED_EDGE('', *, *, #355, .F.);
#535 = EDGE_LOOP('', (#529, #530, #531, #532, #533, #534));
#536 = FACE_BOUND('', #535, .T.);
#537 = ADVANCED_FACE('', (#536), #410, .F.);
#538 = ORIENTED_EDGE('', *, *, #353, .F.);
#539 = ORIENTED_EDGE('', *, *, #350, .F.);
#540 = ORIENTED_EDGE('', *, *, #356, .F.);
#541 = ORIENTED_EDGE('', *, *, #348, .T.);
#542 = ORIENTED_EDGE('', *, *, #351, .T.);
#543 = ORIENTED_EDGE('', *, *, #355, .T.);
#544 = EDGE_LOOP('', (#538, #539, #540, #541, #542, #543));
#545 = FACE_BOUND('', #544, .T.);
#546 = ADVANCED_FACE('', (#545), #410, .F.);
#547 = ORIENTED_EDGE('', *, *, #362, .F.);
#548 = ORIENTED_EDGE('', *, *, #357, .F.);
#549 = ORIENTED_EDGE('', *, *, #366, .T.);
#550 = ORIENTED_EDGE('', *, *, #359, .T.);
#551 = ORIENTED_EDGE('', *, *, #364, .T.);
#552 = ORIENTED_EDGE('', *, *, #365, .F.);
#553 = EDGE_LOOP('', (#547, #548, #549, #550, #551, #552));
#554 = FACE_BOUND('', #553, .T.);
#555 = ADVANCED_FACE('', (#554), #415, .F.);
#556 = ORIENTED_EDGE('', *, *, #363, .F.);
#557 = ORIENTED_EDGE('', *, *, #360, .F.);
#558 = ORIENTED_EDGE('', *, *, #366, .F.);
#559 = ORIENTED_EDGE('', *, *, #358, .T.);
#560 = ORIENTED_EDGE('', *, *, #361, .T.);
#561 = ORIENTED_EDGE('', *, *, #365, .T.);
#562 = EDGE_LOOP('', (#556, #557, #558, #559, #560, #561));
#563 = FACE_BOUND('', #562, .T.);
#564 = ADVANCED_FACE('', (#563), #415, .F.);
#565 = ORIENTED_EDGE('', *, *, #372, .F.);
#566 = ORIENTED_EDGE('', *, *, #367, .F.);
#567 = ORIENTED_EDGE('', *, *, #376, .T.);
#568 = ORIENTED_EDGE('', *, *, #369, .T.);
#569 = ORIENTED_EDGE('', *, *, #374, .T.);
#570 = ORIENTED_EDGE('', *, *, #375, .F.);
#571 = EDGE_LOOP('', (#565, #566, #567, #568, #569, #570));
#572 = FACE_BOUND('', #571, .T.);
#573 = ADVANCED_FACE('', (#572), #420, .F.);
#574 = ORIENTED_EDGE('', *, *, #373, .F.);
#575 = ORIENTED_EDGE('', *, *, #370, .F.);
#576 = ORIENTED_EDGE('', *, *, #376, .F.);
#577 = ORIENTED_EDGE('', *, *, #368, .T.);
#578 = ORIENTED_EDGE('', *, *, #371, .T.);
#579 = ORIENTED_EDGE('', *, *, #375, .T.);
#580 = EDGE_LOOP('', (#574, #575, #576, #577, #578, #579));
#581 = FACE_BOUND('', #580, .T.);
#582 = ADVANCED_FACE('', (#581), #420, .F.);
#583 = CLOSED_SHELL('', (#427, #434, #441, #448, #479, #510, #519, #528, #537, #546, #555, #564, #573, #582));
#584 = MANIFOLD_SOLID_BREP('', #583);
#585 = APPLICATION_CONTEXT('configuration controlled 3D design of mechanical parts and assemblies');
#586 = PRODUCT_DEFINITION_CONTEXT('part definition', #585, 'design');
#587 = PRODUCT_CONTEXT('', #585, 'mechanical');
#588 = PRODUCT('UNIDENTIFIED_PRODUCT', '', $, (#587));
#589 = PRODUCT_DEFINITION_FORMATION('', $, #588);
#590 = PRODUCT_DEFINITION('design', $, #589, #586);
#591 = PRODUCT_DEFINITION_SHAPE('', '', #590);
#592 = ADVANCED_BREP_SHAPE_REPRESENTATION('', (#584), #4);
#593 = SHAPE_DEFINITION_REPRESENTATION(#591, #592);
#594 = COLOUR_RGB('', 0.89999998, 0.89999998, 0.89999998);
#595 = FILL_AREA_STYLE_COLOUR('', #594);
#596 = FILL_AREA_STYLE('', (#595));
#597 = SURFACE_STYLE_FILL_AREA(#596);
#598 = SURFACE_SIDE_STYLE('', (#597));
#599 = SURFACE_STYLE_USAGE(.BOTH., #598);
#600 = PRESENTATION_STYLE_ASSIGNMENT((#599));
#601 = STYLED_ITEM('', (#600), #584);
#602 = MECHANICAL_DESIGN_GEOMETRIC_PRESENTATION_REPRESENTATION('', (#601), #4);
ENDSEC;
END-ISO-10303-21;
